<svg width="1328" height="535" viewBox="0 0 1328 535" fill="none" xmlns="http://www.w3.org/2000/svg">
<path d="M387.999 85C387.999 79.4771 392.476 75 397.999 75H1074C1079.52 75 1084 79.4772 1084 85V481C1084 486.523 1079.52 491 1074 491H397.999C392.476 491 387.999 486.523 387.999 481V85Z" fill="white"/>
<path d="M388.499 85C388.499 79.7533 392.752 75.5 397.999 75.5H1074C1079.25 75.5 1083.5 79.7533 1083.5 85V481C1083.5 486.247 1079.25 490.5 1074 490.5H397.999C392.752 490.5 388.499 486.247 388.499 481V85Z" stroke="black" stroke-opacity="0.1"/>
<path d="M421.599 146.654C420.18 146.654 418.871 146.324 417.672 145.666C416.487 144.993 415.544 144.065 414.841 142.88C414.154 141.681 413.81 140.335 413.81 138.843C413.81 137.351 414.154 136.013 414.841 134.828C415.544 133.643 416.487 132.722 417.672 132.064C418.871 131.391 420.18 131.054 421.599 131.054C423.032 131.054 424.341 131.391 425.526 132.064C426.725 132.722 427.669 133.643 428.356 134.828C429.044 136.013 429.387 137.351 429.387 138.843C429.387 140.335 429.044 141.681 428.356 142.88C427.669 144.065 426.725 144.993 425.526 145.666C424.341 146.324 423.032 146.654 421.599 146.654ZM421.599 144.482C422.608 144.482 423.508 144.255 424.297 143.801C425.087 143.333 425.702 142.675 426.14 141.827C426.594 140.964 426.821 139.969 426.821 138.843C426.821 137.717 426.594 136.73 426.14 135.881C425.702 135.033 425.087 134.382 424.297 133.929C423.508 133.475 422.608 133.248 421.599 133.248C420.59 133.248 419.69 133.475 418.9 133.929C418.11 134.382 417.489 135.033 417.035 135.881C416.597 136.73 416.377 137.717 416.377 138.843C416.377 139.969 416.597 140.964 417.035 141.827C417.489 142.675 418.11 143.333 418.9 143.801C419.69 144.255 420.59 144.482 421.599 144.482ZM436.522 144.262L439.944 134.411H442.599L437.992 146.5H435.008L430.423 134.411H433.099L436.522 144.262ZM455.569 140.159C455.569 140.613 455.54 141.022 455.481 141.388H446.245C446.318 142.353 446.676 143.129 447.32 143.714C447.963 144.299 448.753 144.591 449.689 144.591C451.035 144.591 451.986 144.028 452.542 142.902H455.24C454.874 144.014 454.209 144.928 453.244 145.644C452.293 146.346 451.108 146.697 449.689 146.697C448.534 146.697 447.495 146.441 446.574 145.93C445.667 145.403 444.95 144.672 444.424 143.736C443.912 142.785 443.656 141.688 443.656 140.445C443.656 139.201 443.905 138.112 444.402 137.176C444.914 136.225 445.623 135.494 446.53 134.982C447.452 134.47 448.505 134.214 449.689 134.214C450.83 134.214 451.847 134.462 452.739 134.96C453.631 135.457 454.326 136.159 454.823 137.066C455.321 137.958 455.569 138.989 455.569 140.159ZM452.958 139.37C452.944 138.448 452.615 137.71 451.971 137.154C451.328 136.598 450.53 136.32 449.58 136.32C448.717 136.32 447.978 136.598 447.364 137.154C446.749 137.695 446.384 138.434 446.267 139.37H452.958ZM460.532 136.166C460.897 135.552 461.38 135.077 461.98 134.74C462.594 134.389 463.318 134.214 464.152 134.214V136.803H463.515C462.535 136.803 461.79 137.051 461.278 137.549C460.78 138.046 460.532 138.909 460.532 140.137V146.5H458.031V134.411H460.532V136.166ZM471.124 144.262L474.546 134.411H477.201L472.594 146.5H469.61L465.025 134.411H467.701L471.124 144.262ZM480.364 132.81C479.911 132.81 479.531 132.656 479.223 132.349C478.916 132.042 478.763 131.661 478.763 131.208C478.763 130.755 478.916 130.374 479.223 130.067C479.531 129.76 479.911 129.606 480.364 129.606C480.803 129.606 481.176 129.76 481.483 130.067C481.79 130.374 481.944 130.755 481.944 131.208C481.944 131.661 481.79 132.042 481.483 132.349C481.176 132.656 480.803 132.81 480.364 132.81ZM481.593 134.411V146.5H479.092V134.411H481.593ZM495.956 140.159C495.956 140.613 495.927 141.022 495.868 141.388H486.632C486.705 142.353 487.063 143.129 487.707 143.714C488.35 144.299 489.14 144.591 490.076 144.591C491.422 144.591 492.373 144.028 492.929 142.902H495.627C495.261 144.014 494.596 144.928 493.631 145.644C492.68 146.346 491.495 146.697 490.076 146.697C488.921 146.697 487.882 146.441 486.961 145.93C486.054 145.403 485.337 144.672 484.811 143.736C484.299 142.785 484.043 141.688 484.043 140.445C484.043 139.201 484.292 138.112 484.789 137.176C485.301 136.225 486.01 135.494 486.917 134.982C487.839 134.47 488.892 134.214 490.076 134.214C491.217 134.214 492.234 134.462 493.126 134.96C494.018 135.457 494.713 136.159 495.21 137.066C495.708 137.958 495.956 138.989 495.956 140.159ZM493.345 139.37C493.331 138.448 493.002 137.71 492.358 137.154C491.715 136.598 490.917 136.32 489.967 136.32C489.104 136.32 488.365 136.598 487.751 137.154C487.136 137.695 486.771 138.434 486.654 139.37H493.345ZM514.653 134.411L510.901 146.5H508.268L505.833 137.571L503.398 146.5H500.765L496.991 134.411H499.536L502.06 144.131L504.626 134.411H507.237L509.695 144.087L512.196 134.411H514.653Z" fill="#445B71"/>
<path d="M413.806 220.609V218.742H417.54V231.828H415.476V220.609H413.806ZM420.351 225.115C420.351 223.044 420.698 221.429 421.392 220.268C422.098 219.095 423.307 218.509 425.018 218.509C426.73 218.509 427.932 219.095 428.627 220.268C429.333 221.429 429.686 223.044 429.686 225.115C429.686 227.209 429.333 228.848 428.627 230.033C427.932 231.206 426.73 231.792 425.018 231.792C423.307 231.792 422.098 231.206 421.392 230.033C420.698 228.848 420.351 227.209 420.351 225.115ZM427.675 225.115C427.675 224.145 427.609 223.326 427.478 222.655C427.358 221.985 427.107 221.441 426.724 221.022C426.341 220.591 425.772 220.376 425.018 220.376C424.265 220.376 423.696 220.591 423.313 221.022C422.93 221.441 422.673 221.985 422.541 222.655C422.422 223.326 422.362 224.145 422.362 225.115C422.362 226.12 422.422 226.964 422.541 227.646C422.661 228.328 422.912 228.878 423.295 229.297C423.69 229.716 424.265 229.925 425.018 229.925C425.772 229.925 426.341 229.716 426.724 229.297C427.119 228.878 427.376 228.328 427.496 227.646C427.615 226.964 427.675 226.12 427.675 225.115ZM436.033 226.892L440.593 231.828H437.828L434.167 227.574V231.828H432.12V218.545H434.167V226.263L437.757 221.937H440.593L436.033 226.892Z" fill="#8A9BAB"/>
<path d="M421.112 307.112C420.981 306.561 420.741 306.148 420.394 305.873C420.047 305.598 419.562 305.46 418.94 305.46C417.995 305.46 417.289 305.825 416.822 306.555C416.355 307.273 416.11 308.47 416.086 310.145C416.397 309.619 416.852 309.212 417.45 308.925C418.049 308.638 418.695 308.494 419.389 308.494C420.179 308.494 420.873 308.667 421.471 309.014C422.082 309.35 422.554 309.84 422.889 310.486C423.236 311.133 423.41 311.905 423.41 312.802C423.41 313.64 423.242 314.388 422.907 315.046C422.584 315.704 422.1 316.225 421.453 316.608C420.807 316.979 420.029 317.164 419.12 317.164C417.887 317.164 416.918 316.895 416.212 316.356C415.518 315.806 415.027 315.034 414.74 314.041C414.465 313.047 414.327 311.809 414.327 310.325C414.327 305.945 415.871 303.755 418.958 303.755C420.155 303.755 421.094 304.078 421.776 304.724C422.47 305.37 422.877 306.166 422.997 307.112H421.112ZM418.94 310.217C418.21 310.217 417.588 310.439 417.073 310.881C416.571 311.312 416.319 311.94 416.319 312.766C416.319 313.592 416.553 314.25 417.019 314.741C417.498 315.219 418.162 315.459 419.012 315.459C419.766 315.459 420.358 315.225 420.789 314.759C421.232 314.292 421.453 313.67 421.453 312.892C421.453 312.078 421.238 311.432 420.807 310.953C420.388 310.462 419.766 310.217 418.94 310.217ZM429.775 312.228L434.335 317.164H431.57L427.908 312.91V317.164H425.862V303.881H427.908V311.599L431.498 307.273H434.335L429.775 312.228Z" fill="#8A9BAB"/>
<path d="M422.512 389.675H416.499V393.247C416.75 392.912 417.121 392.631 417.612 392.404C418.114 392.176 418.647 392.063 419.209 392.063C420.215 392.063 421.028 392.278 421.651 392.709C422.285 393.14 422.734 393.684 422.997 394.342C423.272 395 423.41 395.695 423.41 396.425C423.41 397.31 423.236 398.1 422.889 398.794C422.554 399.476 422.046 400.015 421.364 400.41C420.693 400.804 419.868 401.002 418.886 401.002C417.582 401.002 416.535 400.679 415.745 400.033C414.955 399.386 414.482 398.531 414.327 397.466H416.319C416.451 398.028 416.744 398.477 417.199 398.812C417.654 399.135 418.222 399.297 418.904 399.297C419.754 399.297 420.388 399.039 420.807 398.525C421.238 398.01 421.453 397.328 421.453 396.478C421.453 395.617 421.238 394.959 420.807 394.504C420.376 394.037 419.742 393.804 418.904 393.804C418.318 393.804 417.821 393.953 417.414 394.253C417.019 394.54 416.732 394.935 416.553 395.437H414.614V387.88H422.512V389.675ZM429.723 396.066L434.282 401.002H431.518L427.856 396.748V401.002H425.809V387.718H427.856V395.437L431.446 391.111H434.282L429.723 396.066Z" fill="#8A9BAB"/>
<g filter="url(#filter0_d_7901_6807)">
<path d="M919.581 117.063C919.581 111.54 924.058 107.062 929.581 107.062H1053.28C1058.8 107.062 1063.28 111.54 1063.28 117.062V146.898C1063.28 152.421 1058.8 156.898 1053.28 156.898H929.581C924.058 156.898 919.581 152.421 919.581 146.898V117.063Z" fill="#3F4DE1" shape-rendering="crispEdges"/>
<path d="M965.047 127.327H966.906L970.139 135.22H970.258L973.49 127.327H975.349V137.48H973.892V130.133H973.797L970.803 137.466H969.593L966.599 130.128H966.504V137.48H965.047V127.327ZM980.665 137.634C979.952 137.634 979.328 137.471 978.796 137.143C978.264 136.816 977.851 136.358 977.557 135.77C977.263 135.182 977.116 134.494 977.116 133.707C977.116 132.917 977.263 132.227 977.557 131.635C977.851 131.043 978.264 130.584 978.796 130.257C979.328 129.93 979.952 129.766 980.665 129.766C981.379 129.766 982.002 129.93 982.535 130.257C983.067 130.584 983.48 131.043 983.774 131.635C984.068 132.227 984.215 132.917 984.215 133.707C984.215 134.494 984.068 135.182 983.774 135.77C983.48 136.358 983.067 136.816 982.535 137.143C982.002 137.471 981.379 137.634 980.665 137.634ZM980.67 136.39C981.133 136.39 981.517 136.267 981.821 136.023C982.125 135.778 982.35 135.453 982.495 135.046C982.644 134.64 982.718 134.192 982.718 133.703C982.718 133.217 982.644 132.77 982.495 132.364C982.35 131.954 982.125 131.625 981.821 131.377C981.517 131.129 981.133 131.005 980.67 131.005C980.204 131.005 979.818 131.129 979.51 131.377C979.206 131.625 978.98 131.954 978.831 132.364C978.686 132.77 978.613 133.217 978.613 133.703C978.613 134.192 978.686 134.64 978.831 135.046C978.98 135.453 979.206 135.778 979.51 136.023C979.818 136.267 980.204 136.39 980.67 136.39ZM987.353 132.959V137.48H985.87V129.865H987.293V131.105H987.387C987.562 130.701 987.837 130.377 988.21 130.133C988.587 129.888 989.061 129.766 989.633 129.766C990.152 129.766 990.607 129.875 990.997 130.093C991.387 130.308 991.689 130.629 991.904 131.055C992.119 131.481 992.226 132.009 992.226 132.637V137.48H990.744V132.815C990.744 132.263 990.6 131.832 990.312 131.521C990.025 131.207 989.63 131.05 989.127 131.05C988.784 131.05 988.478 131.124 988.21 131.273C987.946 131.422 987.736 131.64 987.581 131.928C987.429 132.212 987.353 132.556 987.353 132.959ZM997.769 129.865V131.055H993.609V129.865H997.769ZM994.725 128.041H996.207V135.244C996.207 135.532 996.25 135.748 996.336 135.894C996.422 136.036 996.533 136.134 996.669 136.186C996.807 136.236 996.958 136.261 997.12 136.261C997.239 136.261 997.343 136.253 997.432 136.236C997.521 136.219 997.591 136.206 997.64 136.196L997.908 137.421C997.822 137.454 997.7 137.487 997.541 137.52C997.382 137.556 997.184 137.576 996.946 137.58C996.556 137.586 996.193 137.517 995.855 137.371C995.518 137.226 995.246 137.001 995.037 136.697C994.829 136.393 994.725 136.011 994.725 135.552V128.041ZM1001.06 132.959V137.48H999.573V127.327H1001.04V131.105H1001.13C1001.31 130.695 1001.58 130.369 1001.95 130.128C1002.31 129.887 1002.79 129.766 1003.39 129.766C1003.91 129.766 1004.36 129.873 1004.75 130.088C1005.15 130.303 1005.45 130.624 1005.67 131.05C1005.88 131.473 1005.99 132.002 1005.99 132.637V137.48H1004.51V132.815C1004.51 132.256 1004.37 131.823 1004.08 131.516C1003.79 131.205 1003.39 131.05 1002.88 131.05C1002.53 131.05 1002.22 131.124 1001.94 131.273C1001.66 131.422 1001.45 131.64 1001.29 131.928C1001.13 132.212 1001.06 132.556 1001.06 132.959ZM1009.45 127.327V137.48H1007.97V127.327H1009.45ZM1012.39 140.336C1012.16 140.336 1011.96 140.318 1011.78 140.282C1011.6 140.249 1011.46 140.212 1011.37 140.173L1011.73 138.958C1012 139.031 1012.24 139.062 1012.45 139.052C1012.67 139.042 1012.85 138.963 1013.01 138.814C1013.18 138.665 1013.33 138.422 1013.45 138.085L1013.63 137.58L1010.85 129.865H1012.43L1014.36 135.775H1014.44L1016.37 129.865H1017.96L1014.82 138.497C1014.68 138.893 1014.49 139.229 1014.27 139.503C1014.04 139.781 1013.78 139.989 1013.47 140.128C1013.16 140.267 1012.8 140.336 1012.39 140.336Z" fill="white"/>
</g>
<path d="M518.58 205.902V448.513" stroke="#FCFCFC" stroke-width="2.99177" stroke-linecap="round" stroke-linejoin="round"/>
<path d="M639.962 205.902V448.513" stroke="#FCFCFC" stroke-width="2.99177" stroke-linecap="round" stroke-linejoin="round"/>
<path d="M761.342 205.902V448.513" stroke="#FCFCFC" stroke-width="2.99177" stroke-linecap="round" stroke-linejoin="round"/>
<path d="M882.705 205.902V448.513" stroke="#FCFCFC" stroke-width="2.99177" stroke-linecap="round" stroke-linejoin="round"/>
<path d="M1004.1 205.902V448.513" stroke="#FCFCFC" stroke-width="2.99177" stroke-linecap="round" stroke-linejoin="round"/>
<path d="M592.156 433.395C560.882 457.294 515.486 417.463 496.697 394.559V490.902H1084V233.242C1055.81 254.901 985.811 376.635 942.173 349.002C904.441 325.109 888.534 300.458 872.17 297.47C822.167 288.508 803.075 363.939 783.983 393.813C764.892 423.686 697.616 375.888 665.796 376.635C633.976 377.382 631.249 403.522 592.156 433.395Z" fill="url(#paint0_linear_7901_6807)" fill-opacity="0.8"/>
<path d="M496.697 394.786C515.486 417.722 560.882 457.609 592.156 433.677C631.249 403.761 633.976 377.585 665.796 376.837C697.616 376.089 764.892 423.954 783.983 394.038C803.075 364.123 822.167 288.586 872.17 297.561C888.534 300.552 904.441 325.239 942.173 349.165C985.811 376.837 1055.81 254.931 1084 233.242" stroke="#3F4DE1" stroke-width="2.99177" stroke-linecap="round" stroke-linejoin="round"/>
<path d="M802.312 241.965C801.602 241.965 800.964 241.829 800.397 241.557C799.834 241.282 799.385 240.904 799.049 240.424C798.713 239.944 798.533 239.397 798.51 238.781H800.21C800.252 239.279 800.473 239.689 800.873 240.01C801.274 240.332 801.753 240.492 802.312 240.492C802.758 240.492 803.153 240.39 803.497 240.186C803.844 239.978 804.116 239.693 804.313 239.33C804.513 238.968 804.613 238.554 804.613 238.09C804.613 237.617 804.511 237.196 804.307 236.826C804.103 236.456 803.822 236.165 803.463 235.953C803.108 235.742 802.7 235.634 802.239 235.63C801.888 235.63 801.534 235.691 801.179 235.812C800.824 235.933 800.537 236.091 800.318 236.288L798.714 236.05L799.366 230.202H805.746V231.704H800.822L800.454 234.95H800.522C800.749 234.731 801.049 234.548 801.423 234.401C801.801 234.254 802.205 234.18 802.635 234.18C803.342 234.18 803.971 234.348 804.522 234.684C805.078 235.02 805.514 235.479 805.831 236.061C806.152 236.639 806.311 237.304 806.307 238.056C806.311 238.807 806.141 239.478 805.797 240.067C805.457 240.656 804.985 241.121 804.381 241.461C803.78 241.797 803.091 241.965 802.312 241.965ZM810.183 240.22L810.098 240.838C810.041 241.291 809.945 241.763 809.809 242.254C809.677 242.749 809.539 243.208 809.395 243.631C809.256 244.054 809.14 244.39 809.05 244.64H807.848C807.898 244.406 807.966 244.088 808.052 243.688C808.139 243.291 808.224 242.847 808.307 242.356C808.39 241.865 808.453 241.365 808.494 240.855L808.551 240.22H810.183ZM816.196 241.965C815.486 241.965 814.848 241.829 814.281 241.557C813.718 241.282 813.269 240.904 812.932 240.424C812.596 239.944 812.417 239.397 812.394 238.781H814.094C814.136 239.279 814.357 239.689 814.757 240.01C815.157 240.332 815.637 240.492 816.196 240.492C816.642 240.492 817.037 240.39 817.38 240.186C817.728 239.978 818 239.693 818.196 239.33C818.397 238.968 818.497 238.554 818.497 238.09C818.497 237.617 818.395 237.196 818.191 236.826C817.987 236.456 817.705 236.165 817.346 235.953C816.991 235.742 816.583 235.634 816.123 235.63C815.771 235.63 815.418 235.691 815.063 235.812C814.708 235.933 814.421 236.091 814.202 236.288L812.598 236.05L813.25 230.202H819.63V231.704H814.706L814.338 234.95H814.406C814.632 234.731 814.933 234.548 815.307 234.401C815.684 234.254 816.089 234.18 816.519 234.18C817.226 234.18 817.855 234.348 818.406 234.684C818.961 235.02 819.398 235.479 819.715 236.061C820.036 236.639 820.195 237.304 820.191 238.056C820.195 238.807 820.025 239.478 819.681 240.067C819.341 240.656 818.869 241.121 818.264 241.461C817.664 241.797 816.974 241.965 816.196 241.965ZM826.312 241.965C825.794 241.958 825.284 241.863 824.782 241.682C824.283 241.501 823.83 241.198 823.422 240.775C823.014 240.352 822.687 239.784 822.442 239.07C822.2 238.356 822.079 237.464 822.079 236.395C822.079 235.383 822.179 234.484 822.379 233.698C822.583 232.913 822.876 232.25 823.258 231.709C823.639 231.165 824.1 230.752 824.64 230.469C825.18 230.185 825.787 230.044 826.459 230.044C827.15 230.044 827.764 230.18 828.301 230.452C828.837 230.723 829.271 231.099 829.604 231.579C829.94 232.059 830.154 232.605 830.244 233.217H828.516C828.399 232.733 828.167 232.338 827.819 232.032C827.472 231.726 827.018 231.573 826.459 231.573C825.609 231.573 824.946 231.944 824.47 232.684C823.998 233.424 823.76 234.454 823.756 235.772H823.841C824.042 235.443 824.287 235.164 824.578 234.933C824.873 234.699 825.201 234.52 825.564 234.395C825.93 234.267 826.316 234.203 826.72 234.203C827.392 234.203 828 234.367 828.544 234.696C829.092 235.02 829.528 235.47 829.853 236.044C830.178 236.618 830.341 237.276 830.341 238.016C830.341 238.756 830.172 239.427 829.836 240.027C829.504 240.628 829.035 241.104 828.431 241.455C827.827 241.803 827.12 241.973 826.312 241.965ZM826.306 240.492C826.752 240.492 827.15 240.383 827.502 240.163C827.853 239.944 828.131 239.65 828.335 239.279C828.539 238.909 828.641 238.496 828.641 238.039C828.641 237.593 828.541 237.187 828.34 236.82C828.144 236.454 827.872 236.163 827.524 235.948C827.181 235.732 826.788 235.625 826.346 235.625C826.01 235.625 825.698 235.689 825.411 235.817C825.128 235.946 824.878 236.123 824.663 236.35C824.448 236.577 824.278 236.837 824.153 237.132C824.032 237.423 823.972 237.731 823.972 238.056C823.972 238.49 824.072 238.892 824.272 239.263C824.476 239.633 824.754 239.931 825.105 240.158C825.46 240.381 825.86 240.492 826.306 240.492ZM836.444 241.999C835.549 241.996 834.784 241.759 834.15 241.291C833.515 240.823 833.03 240.141 832.693 239.246C832.357 238.35 832.189 237.272 832.189 236.01C832.189 234.752 832.357 233.677 832.693 232.786C833.033 231.895 833.521 231.215 834.155 230.746C834.794 230.278 835.557 230.044 836.444 230.044C837.332 230.044 838.093 230.28 838.728 230.752C839.363 231.22 839.848 231.9 840.184 232.792C840.524 233.679 840.694 234.752 840.694 236.01C840.694 237.276 840.526 238.356 840.19 239.251C839.854 240.143 839.368 240.824 838.734 241.297C838.099 241.765 837.336 241.999 836.444 241.999ZM836.444 240.486C837.23 240.486 837.844 240.103 838.286 239.336C838.732 238.569 838.955 237.461 838.955 236.01C838.955 235.047 838.853 234.233 838.649 233.568C838.448 232.899 838.159 232.393 837.782 232.049C837.408 231.702 836.962 231.528 836.444 231.528C835.663 231.528 835.049 231.913 834.603 232.684C834.157 233.455 833.932 234.563 833.929 236.01C833.929 236.977 834.029 237.795 834.229 238.464C834.433 239.128 834.722 239.633 835.096 239.976C835.47 240.316 835.919 240.486 836.444 240.486ZM846.285 243.257V228.752H847.215V243.257H846.285ZM849.192 233.251C849.132 232.714 848.882 232.299 848.444 232.004C848.006 231.706 847.454 231.556 846.79 231.556C846.314 231.556 845.902 231.632 845.554 231.783C845.207 231.93 844.937 232.134 844.744 232.395C844.555 232.652 844.461 232.945 844.461 233.273C844.461 233.549 844.525 233.787 844.653 233.987C844.786 234.187 844.958 234.356 845.169 234.492C845.384 234.624 845.615 234.735 845.86 234.826C846.106 234.913 846.342 234.984 846.569 235.041L847.702 235.336C848.072 235.426 848.452 235.549 848.841 235.704C849.23 235.859 849.591 236.063 849.923 236.316C850.255 236.569 850.524 236.883 850.728 237.257C850.935 237.631 851.039 238.078 851.039 238.6C851.039 239.257 850.869 239.84 850.529 240.35C850.193 240.86 849.704 241.263 849.062 241.557C848.423 241.852 847.651 241.999 846.744 241.999C845.875 241.999 845.124 241.861 844.489 241.586C843.854 241.31 843.358 240.919 842.999 240.413C842.64 239.903 842.442 239.298 842.404 238.6H844.16C844.194 239.019 844.33 239.368 844.568 239.648C844.81 239.924 845.118 240.129 845.492 240.265C845.87 240.398 846.283 240.464 846.733 240.464C847.228 240.464 847.668 240.386 848.053 240.231C848.442 240.073 848.748 239.854 848.971 239.574C849.194 239.291 849.305 238.96 849.305 238.583C849.305 238.239 849.207 237.957 849.011 237.738C848.818 237.519 848.556 237.338 848.223 237.194C847.895 237.051 847.522 236.924 847.107 236.815L845.736 236.441C844.806 236.188 844.07 235.816 843.526 235.324C842.986 234.833 842.716 234.184 842.716 233.375C842.716 232.707 842.897 232.123 843.26 231.624C843.622 231.126 844.113 230.739 844.733 230.463C845.352 230.183 846.051 230.044 846.829 230.044C847.615 230.044 848.308 230.181 848.909 230.457C849.513 230.733 849.989 231.113 850.337 231.596C850.684 232.076 850.866 232.627 850.881 233.251H849.192Z" fill="black"/>
<path d="M804.106 267.25V258.547H807.208C807.882 258.547 808.442 258.663 808.886 258.895C809.334 259.127 809.668 259.449 809.889 259.86C810.11 260.268 810.221 260.739 810.221 261.275C810.221 261.808 810.109 262.276 809.885 262.682C809.664 263.084 809.33 263.397 808.882 263.621C808.437 263.845 807.878 263.957 807.204 263.957H804.854V262.826H807.085C807.51 262.826 807.855 262.765 808.122 262.643C808.391 262.522 808.588 262.344 808.712 262.112C808.837 261.88 808.899 261.601 808.899 261.275C808.899 260.946 808.835 260.662 808.708 260.421C808.583 260.18 808.386 259.996 808.117 259.868C807.851 259.738 807.501 259.673 807.068 259.673H805.419V267.25H804.106ZM808.402 263.323L810.552 267.25H809.056L806.949 263.323H808.402ZM813.616 267.394C813.203 267.394 812.829 267.318 812.494 267.165C812.16 267.009 811.895 266.784 811.7 266.489C811.507 266.195 811.411 265.833 811.411 265.406C811.411 265.037 811.482 264.734 811.623 264.496C811.765 264.258 811.956 264.07 812.197 263.931C812.438 263.792 812.707 263.687 813.004 263.617C813.302 263.546 813.605 263.492 813.914 263.455C814.305 263.41 814.622 263.373 814.866 263.345C815.109 263.313 815.286 263.264 815.397 263.196C815.507 263.128 815.563 263.017 815.563 262.864V262.835C815.563 262.463 815.458 262.176 815.248 261.972C815.041 261.768 814.733 261.666 814.322 261.666C813.894 261.666 813.557 261.761 813.31 261.951C813.067 262.138 812.898 262.346 812.805 262.575L811.61 262.303C811.752 261.907 811.959 261.587 812.231 261.343C812.506 261.096 812.822 260.918 813.179 260.807C813.536 260.694 813.911 260.638 814.305 260.638C814.565 260.638 814.842 260.669 815.133 260.731C815.428 260.79 815.703 260.901 815.958 261.062C816.216 261.224 816.427 261.455 816.591 261.755C816.755 262.053 816.838 262.439 816.838 262.915V267.25H815.597V266.358H815.546C815.464 266.522 815.34 266.683 815.176 266.842C815.012 267.001 814.801 267.132 814.543 267.237C814.285 267.342 813.976 267.394 813.616 267.394ZM813.893 266.375C814.244 266.375 814.544 266.305 814.794 266.166C815.046 266.028 815.237 265.846 815.367 265.622C815.5 265.396 815.567 265.153 815.567 264.896V264.054C815.522 264.1 815.434 264.142 815.303 264.182C815.176 264.219 815.03 264.251 814.866 264.279C814.701 264.305 814.541 264.329 814.386 264.352C814.23 264.372 814.099 264.389 813.995 264.403C813.748 264.434 813.523 264.486 813.319 264.56C813.118 264.634 812.956 264.74 812.834 264.879C812.715 265.015 812.656 265.196 812.656 265.423C812.656 265.737 812.772 265.975 813.004 266.137C813.237 266.295 813.533 266.375 813.893 266.375ZM821.577 260.722V261.742H818.012V260.722H821.577ZM818.968 259.159H820.238V265.333C820.238 265.58 820.275 265.765 820.349 265.89C820.423 266.012 820.517 266.096 820.634 266.141C820.753 266.183 820.882 266.205 821.02 266.205C821.122 266.205 821.212 266.197 821.288 266.183C821.365 266.169 821.424 266.158 821.467 266.149L821.696 267.199C821.622 267.227 821.518 267.256 821.382 267.284C821.246 267.315 821.076 267.332 820.872 267.335C820.537 267.341 820.226 267.281 819.937 267.157C819.648 267.032 819.414 266.839 819.235 266.579C819.057 266.318 818.968 265.991 818.968 265.597V259.159ZM822.983 267.25V260.722H824.253V267.25H822.983ZM823.624 259.715C823.403 259.715 823.214 259.642 823.055 259.494C822.899 259.344 822.821 259.166 822.821 258.959C822.821 258.749 822.899 258.571 823.055 258.423C823.214 258.273 823.403 258.198 823.624 258.198C823.845 258.198 824.034 258.273 824.19 258.423C824.348 258.571 824.428 258.749 824.428 258.959C824.428 259.166 824.348 259.344 824.19 259.494C824.034 259.642 823.845 259.715 823.624 259.715ZM827.233 263.374V267.25H825.963V260.722H827.182V261.785H827.263C827.413 261.439 827.648 261.162 827.969 260.952C828.292 260.742 828.698 260.638 829.188 260.638C829.633 260.638 830.023 260.731 830.357 260.918C830.691 261.102 830.95 261.377 831.135 261.742C831.319 262.108 831.411 262.56 831.411 263.098V267.25H830.14V263.251C830.14 262.778 830.017 262.408 829.77 262.142C829.524 261.873 829.185 261.738 828.755 261.738C828.46 261.738 828.198 261.802 827.969 261.929C827.742 262.057 827.562 262.244 827.429 262.49C827.299 262.734 827.233 263.029 827.233 263.374ZM835.852 269.834C835.333 269.834 834.887 269.766 834.513 269.63C834.142 269.494 833.839 269.314 833.604 269.09C833.368 268.866 833.193 268.621 833.077 268.355L834.169 267.904C834.245 268.029 834.347 268.161 834.475 268.3C834.605 268.441 834.781 268.562 835.002 268.661C835.226 268.76 835.513 268.81 835.864 268.81C836.346 268.81 836.744 268.692 837.059 268.457C837.373 268.225 837.53 267.853 837.53 267.343V266.06H837.45C837.373 266.199 837.263 266.353 837.118 266.523C836.976 266.693 836.781 266.841 836.532 266.965C836.282 267.09 835.958 267.152 835.558 267.152C835.043 267.152 834.578 267.032 834.165 266.791C833.754 266.547 833.428 266.189 833.187 265.716C832.949 265.24 832.83 264.655 832.83 263.961C832.83 263.267 832.948 262.672 833.183 262.176C833.421 261.68 833.747 261.3 834.16 261.037C834.574 260.771 835.043 260.638 835.567 260.638C835.972 260.638 836.299 260.705 836.549 260.841C836.798 260.975 836.992 261.13 837.131 261.309C837.273 261.487 837.382 261.645 837.458 261.781H837.552V260.722H838.797V267.394C838.797 267.955 838.666 268.416 838.406 268.776C838.145 269.135 837.792 269.402 837.348 269.575C836.906 269.747 836.407 269.834 835.852 269.834ZM835.839 266.098C836.204 266.098 836.513 266.013 836.765 265.843C837.02 265.671 837.213 265.424 837.343 265.104C837.477 264.781 837.543 264.394 837.543 263.944C837.543 263.505 837.478 263.118 837.348 262.784C837.217 262.449 837.026 262.189 836.774 262.002C836.522 261.812 836.21 261.717 835.839 261.717C835.456 261.717 835.138 261.816 834.883 262.014C834.628 262.21 834.435 262.476 834.305 262.813C834.177 263.15 834.114 263.527 834.114 263.944C834.114 264.372 834.179 264.747 834.309 265.07C834.439 265.393 834.632 265.645 834.887 265.826C835.145 266.008 835.462 266.098 835.839 266.098ZM845.392 262.316L844.241 262.52C844.192 262.373 844.116 262.233 844.011 262.099C843.909 261.966 843.77 261.857 843.595 261.772C843.419 261.687 843.199 261.645 842.936 261.645C842.576 261.645 842.276 261.725 842.035 261.887C841.794 262.046 841.674 262.251 841.674 262.503C841.674 262.721 841.755 262.897 841.916 263.03C842.077 263.163 842.338 263.272 842.698 263.357L843.735 263.595C844.335 263.734 844.783 263.948 845.078 264.237C845.372 264.526 845.52 264.901 845.52 265.363C845.52 265.754 845.406 266.103 845.18 266.409C844.956 266.712 844.643 266.95 844.241 267.123C843.841 267.295 843.378 267.382 842.851 267.382C842.12 267.382 841.524 267.226 841.062 266.914C840.6 266.6 840.317 266.154 840.212 265.576L841.44 265.389C841.517 265.709 841.674 265.951 841.912 266.115C842.15 266.277 842.46 266.358 842.842 266.358C843.259 266.358 843.592 266.271 843.841 266.098C844.09 265.923 844.215 265.709 844.215 265.457C844.215 265.253 844.139 265.081 843.986 264.942C843.835 264.804 843.605 264.699 843.293 264.628L842.188 264.386C841.579 264.247 841.128 264.026 840.837 263.723C840.548 263.42 840.403 263.036 840.403 262.571C840.403 262.186 840.511 261.849 840.726 261.56C840.941 261.271 841.239 261.045 841.619 260.884C841.998 260.72 842.433 260.638 842.923 260.638C843.629 260.638 844.184 260.79 844.589 261.096C844.994 261.4 845.262 261.806 845.392 262.316Z" fill="black"/>
<rect x="877.818" y="296.861" width="33.3221" height="33.9305" rx="16" fill="#6640FF"/>
<circle cx="894.479" cy="313.826" r="10" fill="white"/>
<g filter="url(#filter1_d_7901_6807)">
<path d="M63.9961 20C63.9961 14.4771 68.4732 10 73.9961 10H420.724C426.247 10 430.724 14.4772 430.724 20V257.811C430.724 263.334 426.247 267.811 420.724 267.811H73.9961C68.4732 267.811 63.9961 263.334 63.9961 257.811V20Z" fill="white"/>
</g>
<path opacity="0.2" d="M157.743 105.958C157.743 103.293 159.904 101.133 162.569 101.133C165.234 101.133 167.394 103.293 167.394 105.958V207.826C167.394 210.491 165.234 212.651 162.569 212.651C159.904 212.651 157.743 210.491 157.743 207.826V105.958Z" fill="#3F4DE1"/>
<path d="M141.365 137.965H384.636" stroke="#ECEEF2" stroke-width="1.99451" stroke-linecap="round" stroke-linejoin="round"/>
<path d="M140.787 175.844H384.058" stroke="#ECEEF2" stroke-width="1.99451" stroke-linecap="round" stroke-linejoin="round"/>
<path d="M140.787 213.229H384.058" stroke="#ECEEF2" stroke-width="1.99451" stroke-linecap="round" stroke-linejoin="round"/>
<path opacity="0.2" d="M192.21 176.706C192.21 174.041 194.37 171.881 197.035 171.881C199.7 171.881 201.861 174.041 201.861 176.706V207.826C201.861 210.491 199.7 212.651 197.035 212.651C194.37 212.651 192.21 210.491 192.21 207.826V176.706Z" fill="#3F4DE1"/>
<path opacity="0.2" d="M225.301 132.339C225.301 129.674 227.461 127.514 230.126 127.514C232.791 127.514 234.952 129.674 234.952 132.339V207.826C234.952 210.491 232.791 212.651 230.126 212.651C227.461 212.651 225.301 210.491 225.301 207.826V132.339Z" fill="#3F4DE1"/>
<path opacity="0.2" d="M259.768 132.339C259.768 129.674 261.928 127.514 264.593 127.514C267.258 127.514 269.418 129.674 269.418 132.339V207.826C269.418 210.491 267.258 212.651 264.593 212.651C261.928 212.651 259.768 210.491 259.768 207.826V132.339Z" fill="#3F4DE1"/>
<path opacity="0.2" d="M292.854 162.318C292.854 159.653 295.014 157.492 297.679 157.492C300.344 157.492 302.505 159.653 302.505 162.318V207.826C302.505 210.491 300.344 212.652 297.679 212.652C295.014 212.652 292.854 210.491 292.854 207.826V162.318Z" fill="#3F4DE1"/>
<path opacity="0.2" d="M327.325 176.706C327.325 174.041 329.486 171.881 332.151 171.881C334.816 171.881 336.976 174.041 336.976 176.706V207.826C336.976 210.491 334.816 212.651 332.151 212.651C329.486 212.651 327.325 210.491 327.325 207.826V176.706Z" fill="#3F4DE1"/>
<path opacity="0.2" d="M360.412 132.339C360.412 129.674 362.572 127.514 365.237 127.514C367.902 127.514 370.062 129.674 370.062 132.339V207.826C370.062 210.491 367.902 212.651 365.237 212.651C362.572 212.651 360.412 210.491 360.412 207.826V132.339Z" fill="#3F4DE1"/>
<path d="M157.743 126.345C157.743 123.68 159.904 121.52 162.569 121.52C165.234 121.52 167.394 123.68 167.394 126.345V207.827C167.394 210.492 165.234 212.653 162.569 212.653C159.904 212.653 157.743 210.492 157.743 207.827V126.345Z" fill="#3F4DE1"/>
<path d="M192.21 188.698C192.21 186.033 194.37 183.873 197.035 183.873C199.7 183.873 201.861 186.033 201.861 188.698V209.026C201.861 211.691 199.7 213.851 197.035 213.851C194.37 213.851 192.21 211.691 192.21 209.026V188.698Z" fill="#3F4DE1"/>
<path d="M225.301 158.72C225.301 156.055 227.461 153.895 230.126 153.895C232.791 153.895 234.952 156.055 234.952 158.72V209.025C234.952 211.69 232.791 213.851 230.126 213.851C227.461 213.851 225.301 211.69 225.301 209.025V158.72Z" fill="#3F4DE1"/>
<path d="M259.768 158.72C259.768 156.055 261.928 153.895 264.593 153.895C267.258 153.895 269.418 156.055 269.418 158.72V209.025C269.418 211.69 267.258 213.851 264.593 213.851C261.928 213.851 259.768 211.69 259.768 209.025V158.72Z" fill="#3F4DE1"/>
<path d="M292.854 183.9C292.854 181.235 295.014 179.074 297.679 179.074C300.344 179.074 302.505 181.235 302.505 183.9V207.824C302.505 210.489 300.344 212.65 297.679 212.65C295.014 212.65 292.854 210.489 292.854 207.824V183.9Z" fill="#3F4DE1"/>
<path d="M327.325 199.489C327.325 196.824 329.486 194.664 332.151 194.664C334.816 194.664 336.976 196.824 336.976 199.489V209.025C336.976 211.69 334.816 213.85 332.151 213.85C329.486 213.85 327.325 211.69 327.325 209.025V199.489Z" fill="#3F4DE1"/>
<path d="M360.412 155.122C360.412 152.457 362.572 150.297 365.237 150.297C367.902 150.297 370.062 152.457 370.062 155.122V209.025C370.062 211.69 367.902 213.85 365.237 213.85C362.572 213.85 360.412 211.69 360.412 209.025V155.122Z" fill="#3F4DE1"/>
<path d="M109.641 103.027C109.203 103.027 108.812 102.951 108.468 102.8C108.126 102.65 107.855 102.44 107.655 102.173C107.458 101.903 107.352 101.59 107.337 101.236H108.338C108.35 101.429 108.415 101.597 108.532 101.739C108.651 101.879 108.806 101.988 108.997 102.064C109.189 102.141 109.401 102.179 109.635 102.179C109.892 102.179 110.119 102.134 110.317 102.045C110.517 101.956 110.673 101.832 110.785 101.672C110.898 101.511 110.954 101.325 110.954 101.114C110.954 100.896 110.898 100.703 110.785 100.537C110.675 100.37 110.512 100.238 110.298 100.142C110.085 100.047 109.828 99.9988 109.526 99.9988H108.975V99.1957H109.526C109.769 99.1957 109.981 99.1521 110.164 99.065C110.349 98.9779 110.493 98.8567 110.597 98.7016C110.701 98.5444 110.753 98.3606 110.753 98.1502C110.753 97.9484 110.708 97.7731 110.616 97.6243C110.527 97.4735 110.4 97.3555 110.234 97.2706C110.07 97.1856 109.877 97.1431 109.654 97.1431C109.441 97.1431 109.243 97.1824 109.058 97.261C108.875 97.3375 108.726 97.448 108.612 97.5925C108.497 97.7348 108.435 97.9059 108.427 98.1056H107.474C107.484 97.7529 107.589 97.4427 107.786 97.1749C107.986 96.9072 108.249 96.6979 108.577 96.547C108.904 96.3962 109.267 96.3208 109.667 96.3208C110.085 96.3208 110.446 96.4026 110.75 96.5662C111.056 96.7277 111.292 96.9433 111.458 97.2132C111.626 97.483 111.709 97.7784 111.706 98.0992C111.709 98.4647 111.607 98.7749 111.4 99.0299C111.197 99.2849 110.925 99.456 110.585 99.5431V99.5941C111.018 99.6599 111.354 99.832 111.592 100.11C111.832 100.389 111.951 100.734 111.949 101.146C111.951 101.505 111.851 101.827 111.649 102.112C111.449 102.397 111.176 102.621 110.83 102.785C110.484 102.946 110.087 103.027 109.641 103.027ZM115.426 103.046C114.922 103.044 114.492 102.911 114.135 102.647C113.778 102.384 113.505 102 113.316 101.497C113.127 100.993 113.032 100.387 113.032 99.6769C113.032 98.9694 113.127 98.3648 113.316 97.8634C113.507 97.3619 113.781 96.9795 114.138 96.716C114.497 96.4525 114.927 96.3208 115.426 96.3208C115.925 96.3208 116.353 96.4536 116.71 96.7192C117.067 96.9826 117.34 97.3651 117.53 97.8666C117.721 98.3659 117.816 98.9694 117.816 99.6769C117.816 100.389 117.722 100.996 117.533 101.5C117.344 102.002 117.071 102.385 116.714 102.651C116.357 102.914 115.927 103.046 115.426 103.046ZM115.426 102.195C115.868 102.195 116.213 101.979 116.462 101.548C116.713 101.117 116.838 100.493 116.838 99.6769C116.838 99.1351 116.781 98.6772 116.666 98.3032C116.553 97.9271 116.391 97.6424 116.178 97.449C115.968 97.2536 115.717 97.1558 115.426 97.1558C114.986 97.1558 114.641 97.3725 114.39 97.806C114.139 98.2395 114.013 98.8631 114.011 99.6769C114.011 100.221 114.067 100.681 114.18 101.057C114.295 101.431 114.457 101.715 114.667 101.908C114.878 102.099 115.131 102.195 115.426 102.195ZM121.22 103.046C120.716 103.044 120.286 102.911 119.929 102.647C119.572 102.384 119.299 102 119.11 101.497C118.921 100.993 118.826 100.387 118.826 99.6769C118.826 98.9694 118.921 98.3648 119.11 97.8634C119.301 97.3619 119.575 96.9795 119.932 96.716C120.291 96.4525 120.72 96.3208 121.22 96.3208C121.719 96.3208 122.147 96.4536 122.504 96.7192C122.861 96.9826 123.134 97.3651 123.323 97.8666C123.514 98.3659 123.61 98.9694 123.61 99.6769C123.61 100.389 123.516 100.996 123.326 101.5C123.137 102.002 122.864 102.385 122.507 102.651C122.15 102.914 121.721 103.046 121.22 103.046ZM121.22 102.195C121.662 102.195 122.007 101.979 122.255 101.548C122.506 101.117 122.632 100.493 122.632 99.6769C122.632 99.1351 122.574 98.6772 122.459 98.3032C122.347 97.9271 122.184 97.6424 121.972 97.449C121.761 97.2536 121.511 97.1558 121.22 97.1558C120.78 97.1558 120.435 97.3725 120.184 97.806C119.933 98.2395 119.807 98.8631 119.804 99.6769C119.804 100.221 119.861 100.681 119.973 101.057C120.088 101.431 120.251 101.715 120.461 101.908C120.671 102.099 120.924 102.195 121.22 102.195Z" fill="#A3A3AC"/>
<path d="M107.369 140.111V139.397L109.577 137.109C109.813 136.86 110.008 136.643 110.161 136.456C110.316 136.266 110.432 136.087 110.508 135.917C110.585 135.747 110.623 135.566 110.623 135.375C110.623 135.158 110.572 134.971 110.47 134.814C110.368 134.655 110.229 134.533 110.052 134.448C109.876 134.36 109.677 134.317 109.456 134.317C109.223 134.317 109.019 134.365 108.844 134.46C108.67 134.556 108.536 134.691 108.443 134.865C108.349 135.039 108.302 135.243 108.302 135.477H107.362C107.362 135.08 107.454 134.732 107.636 134.435C107.819 134.137 108.07 133.907 108.389 133.743C108.707 133.577 109.07 133.495 109.475 133.495C109.885 133.495 110.247 133.576 110.559 133.74C110.874 133.901 111.119 134.122 111.295 134.403C111.472 134.681 111.56 134.996 111.56 135.346C111.56 135.589 111.514 135.826 111.423 136.057C111.334 136.289 111.177 136.547 110.954 136.832C110.731 137.114 110.421 137.457 110.024 137.861L108.726 139.219V139.267H111.665V140.111H107.369ZM115.146 140.22C114.642 140.218 114.212 140.085 113.855 139.821C113.498 139.558 113.225 139.174 113.036 138.671C112.846 138.167 112.752 137.56 112.752 136.851C112.752 136.143 112.846 135.539 113.036 135.037C113.227 134.536 113.501 134.153 113.858 133.89C114.217 133.626 114.646 133.495 115.146 133.495C115.645 133.495 116.073 133.627 116.43 133.893C116.787 134.156 117.06 134.539 117.249 135.04C117.44 135.54 117.536 136.143 117.536 136.851C117.536 137.563 117.441 138.17 117.252 138.674C117.063 139.175 116.79 139.559 116.433 139.824C116.076 140.088 115.647 140.22 115.146 140.22ZM115.146 139.369C115.587 139.369 115.933 139.153 116.181 138.722C116.432 138.29 116.557 137.667 116.557 136.851C116.557 136.309 116.5 135.851 116.385 135.477C116.273 135.101 116.11 134.816 115.898 134.623C115.687 134.427 115.437 134.33 115.146 134.33C114.706 134.33 114.36 134.546 114.11 134.98C113.859 135.413 113.733 136.037 113.73 136.851C113.73 137.395 113.787 137.855 113.899 138.231C114.014 138.605 114.177 138.888 114.387 139.082C114.597 139.273 114.85 139.369 115.146 139.369ZM120.939 140.22C120.436 140.218 120.005 140.085 119.648 139.821C119.291 139.558 119.018 139.174 118.829 138.671C118.64 138.167 118.546 137.56 118.546 136.851C118.546 136.143 118.64 135.539 118.829 135.037C119.02 134.536 119.295 134.153 119.652 133.89C120.011 133.626 120.44 133.495 120.939 133.495C121.438 133.495 121.867 133.627 122.224 133.893C122.581 134.156 122.854 134.539 123.043 135.04C123.234 135.54 123.33 136.143 123.33 136.851C123.33 137.563 123.235 138.17 123.046 138.674C122.857 139.175 122.584 139.559 122.227 139.824C121.87 140.088 121.441 140.22 120.939 140.22ZM120.939 139.369C121.381 139.369 121.726 139.153 121.975 138.722C122.226 138.29 122.351 137.667 122.351 136.851C122.351 136.309 122.294 135.851 122.179 135.477C122.066 135.101 121.904 134.816 121.691 134.623C121.481 134.427 121.23 134.33 120.939 134.33C120.499 134.33 120.154 134.546 119.903 134.98C119.653 135.413 119.526 136.037 119.524 136.851C119.524 137.395 119.58 137.855 119.693 138.231C119.808 138.605 119.97 138.888 120.181 139.082C120.391 139.273 120.644 139.369 120.939 139.369Z" fill="#A3A3AC"/>
<path d="M109.845 169.556V176.084H108.857V170.545H108.819L107.257 171.564V170.621L108.886 169.556H109.845ZM113.883 176.192C113.38 176.19 112.95 176.057 112.593 175.794C112.236 175.53 111.963 175.147 111.773 174.643C111.584 174.14 111.49 173.533 111.49 172.823C111.49 172.116 111.584 171.511 111.773 171.01C111.965 170.508 112.239 170.126 112.596 169.862C112.955 169.599 113.384 169.467 113.883 169.467C114.383 169.467 114.811 169.6 115.168 169.866C115.525 170.129 115.798 170.512 115.987 171.013C116.178 171.512 116.274 172.116 116.274 172.823C116.274 173.535 116.179 174.143 115.99 174.647C115.801 175.148 115.528 175.532 115.171 175.797C114.814 176.061 114.385 176.192 113.883 176.192ZM113.883 175.341C114.325 175.341 114.671 175.126 114.919 174.694C115.17 174.263 115.295 173.639 115.295 172.823C115.295 172.282 115.238 171.824 115.123 171.45C115.011 171.074 114.848 170.789 114.636 170.596C114.425 170.4 114.174 170.302 113.883 170.302C113.444 170.302 113.098 170.519 112.848 170.952C112.597 171.386 112.47 172.01 112.468 172.823C112.468 173.367 112.525 173.827 112.637 174.204C112.752 174.577 112.914 174.861 113.125 175.055C113.335 175.246 113.588 175.341 113.883 175.341ZM119.677 176.192C119.173 176.19 118.743 176.057 118.386 175.794C118.029 175.53 117.756 175.147 117.567 174.643C117.378 174.14 117.283 173.533 117.283 172.823C117.283 172.116 117.378 171.511 117.567 171.01C117.758 170.508 118.032 170.126 118.389 169.862C118.748 169.599 119.178 169.467 119.677 169.467C120.176 169.467 120.604 169.6 120.961 169.866C121.318 170.129 121.591 170.512 121.781 171.013C121.972 171.512 122.067 172.116 122.067 172.823C122.067 173.535 121.973 174.143 121.784 174.647C121.595 175.148 121.322 175.532 120.965 175.797C120.608 176.061 120.178 176.192 119.677 176.192ZM119.677 175.341C120.119 175.341 120.464 175.126 120.713 174.694C120.964 174.263 121.089 173.639 121.089 172.823C121.089 172.282 121.032 171.824 120.917 171.45C120.804 171.074 120.642 170.789 120.429 170.596C120.219 170.4 119.968 170.302 119.677 170.302C119.237 170.302 118.892 170.519 118.641 170.952C118.39 171.386 118.264 172.01 118.262 172.823C118.262 173.367 118.318 173.827 118.431 174.204C118.546 174.577 118.708 174.861 118.918 175.055C119.129 175.246 119.382 175.341 119.677 175.341Z" fill="#A3A3AC"/>
<path d="M112.394 213.366C111.89 213.364 111.46 213.231 111.103 212.968C110.746 212.704 110.473 212.321 110.284 211.817C110.094 211.314 110 210.707 110 209.997C110 209.29 110.094 208.685 110.284 208.184C110.475 207.682 110.749 207.3 111.106 207.036C111.465 206.773 111.894 206.641 112.394 206.641C112.893 206.641 113.321 206.774 113.678 207.039C114.035 207.303 114.308 207.685 114.497 208.187C114.688 208.686 114.784 209.29 114.784 209.997C114.784 210.709 114.689 211.317 114.5 211.82C114.311 212.322 114.038 212.705 113.681 212.971C113.324 213.234 112.895 213.366 112.394 213.366ZM112.394 212.515C112.836 212.515 113.181 212.3 113.429 211.868C113.68 211.437 113.806 210.813 113.806 209.997C113.806 209.455 113.748 208.998 113.633 208.624C113.521 208.247 113.358 207.963 113.146 207.769C112.935 207.574 112.685 207.476 112.394 207.476C111.954 207.476 111.608 207.693 111.358 208.126C111.107 208.56 110.981 209.183 110.978 209.997C110.978 210.541 111.035 211.001 111.147 211.377C111.262 211.751 111.425 212.035 111.635 212.228C111.845 212.42 112.098 212.515 112.394 212.515Z" fill="#9FA2AC"/>
<path d="M158.446 222.043H159.284L161.256 226.86H161.324L163.296 222.043H164.135V227.846H163.477V223.437H163.421L161.608 227.846H160.973L159.16 223.437H159.103V227.846H158.446V222.043Z" fill="#A3A7AF"/>
<path d="M192.595 222.667V222.043H196.947V222.667H195.122V227.846H194.42V222.667H192.595Z" fill="#A3A7AF"/>
<path d="M225.514 227.846L224.188 223.494H224.891L225.832 226.826H225.877L226.806 223.494H227.52L228.438 226.814H228.483L229.424 223.494H230.127L228.801 227.846H228.144L227.192 224.503H227.124L226.172 227.846H225.514Z" fill="#A3A7AF"/>
<path d="M261.537 222.667V222.043H265.889V222.667H264.064V227.846H263.362V222.667H261.537Z" fill="#A3A7AF"/>
<path d="M296.317 227.846V222.043H299.796V222.667H297.02V224.627H299.536V225.251H297.02V227.846H296.317Z" fill="#A3A7AF"/>
<path d="M332.577 223.494C332.543 223.207 332.405 222.984 332.163 222.825C331.921 222.667 331.625 222.587 331.274 222.587C331.017 222.587 330.792 222.629 330.599 222.712C330.409 222.795 330.259 222.909 330.152 223.055C330.046 223.2 329.993 223.366 329.993 223.551C329.993 223.706 330.03 223.839 330.104 223.95C330.179 224.06 330.275 224.151 330.393 224.225C330.51 224.297 330.632 224.356 330.761 224.403C330.889 224.449 331.007 224.486 331.115 224.514L331.704 224.673C331.855 224.712 332.023 224.767 332.209 224.837C332.396 224.907 332.574 225.002 332.744 225.123C332.916 225.242 333.058 225.395 333.169 225.582C333.28 225.769 333.336 225.999 333.336 226.27C333.336 226.584 333.254 226.867 333.09 227.12C332.927 227.374 332.689 227.575 332.376 227.724C332.064 227.873 331.685 227.948 331.24 227.948C330.824 227.948 330.464 227.881 330.16 227.747C329.858 227.612 329.62 227.425 329.446 227.186C329.274 226.946 329.177 226.667 329.154 226.35H329.88C329.899 226.569 329.972 226.75 330.101 226.894C330.231 227.035 330.395 227.141 330.594 227.211C330.794 227.279 331.009 227.313 331.24 227.313C331.508 227.313 331.749 227.27 331.962 227.183C332.176 227.094 332.345 226.971 332.469 226.814C332.594 226.656 332.656 226.471 332.656 226.259C332.656 226.067 332.602 225.91 332.495 225.789C332.387 225.668 332.245 225.57 332.07 225.494C331.894 225.419 331.704 225.353 331.5 225.296L330.786 225.092C330.333 224.962 329.974 224.776 329.71 224.534C329.445 224.292 329.313 223.976 329.313 223.585C329.313 223.26 329.401 222.977 329.577 222.735C329.754 222.491 329.992 222.302 330.291 222.168C330.591 222.032 330.926 221.964 331.296 221.964C331.67 221.964 332.003 222.031 332.294 222.165C332.584 222.298 332.815 222.479 332.985 222.709C333.157 222.94 333.247 223.201 333.257 223.494H332.577Z" fill="#A3A7AF"/>
<path d="M365.664 223.494C365.63 223.207 365.492 222.984 365.25 222.825C365.008 222.667 364.712 222.587 364.361 222.587C364.104 222.587 363.879 222.629 363.686 222.712C363.496 222.795 363.346 222.909 363.239 223.055C363.133 223.2 363.08 223.366 363.08 223.551C363.08 223.706 363.117 223.839 363.19 223.95C363.266 224.06 363.362 224.151 363.479 224.225C363.597 224.297 363.719 224.356 363.848 224.403C363.976 224.449 364.094 224.486 364.202 224.514L364.791 224.673C364.942 224.712 365.11 224.767 365.295 224.837C365.482 224.907 365.661 225.002 365.831 225.123C366.003 225.242 366.144 225.395 366.256 225.582C366.367 225.769 366.423 225.999 366.423 226.27C366.423 226.584 366.341 226.867 366.177 227.12C366.014 227.374 365.776 227.575 365.463 227.724C365.151 227.873 364.772 227.948 364.327 227.948C363.911 227.948 363.551 227.881 363.247 227.747C362.945 227.612 362.707 227.425 362.533 227.186C362.361 226.946 362.264 226.667 362.241 226.35H362.967C362.986 226.569 363.059 226.75 363.188 226.894C363.318 227.035 363.482 227.141 363.681 227.211C363.881 227.279 364.096 227.313 364.327 227.313C364.595 227.313 364.836 227.27 365.049 227.183C365.262 227.094 365.431 226.971 365.556 226.814C365.681 226.656 365.743 226.471 365.743 226.259C365.743 226.067 365.689 225.91 365.582 225.789C365.474 225.668 365.332 225.57 365.157 225.494C364.981 225.419 364.791 225.353 364.587 225.296L363.873 225.092C363.42 224.962 363.061 224.776 362.797 224.534C362.532 224.292 362.4 223.976 362.4 223.585C362.4 223.26 362.488 222.977 362.664 222.735C362.841 222.491 363.079 222.302 363.377 222.168C363.678 222.032 364.013 221.964 364.383 221.964C364.757 221.964 365.09 222.031 365.38 222.165C365.671 222.298 365.902 222.479 366.072 222.709C366.244 222.94 366.334 223.201 366.344 223.494H365.664Z" fill="#A3A7AF"/>
<path d="M140.787 101.08H384.058" stroke="#EEF0F4" stroke-width="1.99451" stroke-linecap="round" stroke-linejoin="round"/>
<path d="M119.652 57.0141H121.492V63.6478C121.492 64.375 121.32 65.0146 120.976 65.5665C120.636 66.1185 120.156 66.5499 119.538 66.8606C118.92 67.168 118.198 67.3217 117.372 67.3217C116.542 67.3217 115.818 67.168 115.2 66.8606C114.582 66.5499 114.103 66.1185 113.762 65.5665C113.422 65.0146 113.252 64.375 113.252 63.6478V57.0141H115.091V63.4941C115.091 63.9172 115.183 64.294 115.369 64.6245C115.557 64.9551 115.821 65.2145 116.162 65.4029C116.502 65.588 116.906 65.6806 117.372 65.6806C117.838 65.6806 118.241 65.588 118.581 65.4029C118.925 65.2145 119.189 64.9551 119.375 64.6245C119.56 64.294 119.652 63.9172 119.652 63.4941V57.0141ZM129.431 61.5655L127.794 61.744C127.748 61.5787 127.667 61.4234 127.551 61.2779C127.439 61.1325 127.287 61.0151 127.095 60.9259C126.904 60.8367 126.669 60.792 126.391 60.792C126.018 60.792 125.704 60.873 125.449 61.035C125.198 61.1969 125.074 61.4068 125.077 61.6646C125.074 61.8861 125.155 62.0662 125.32 62.2051C125.489 62.3439 125.767 62.4579 126.153 62.5472L127.452 62.8248C128.173 62.9801 128.708 63.2264 129.059 63.5635C129.412 63.9007 129.591 64.3419 129.594 64.8873C129.591 65.3666 129.45 65.7897 129.173 66.1565C128.898 66.5201 128.517 66.8044 128.027 67.0093C127.538 67.2142 126.976 67.3167 126.342 67.3167C125.41 67.3167 124.659 67.1217 124.091 66.7317C123.522 66.3383 123.184 65.7913 123.074 65.0906L124.825 64.922C124.904 65.2658 125.073 65.5252 125.33 65.7004C125.588 65.8756 125.924 65.9632 126.337 65.9632C126.763 65.9632 127.105 65.8756 127.363 65.7004C127.624 65.5252 127.755 65.3087 127.755 65.0509C127.755 64.8328 127.67 64.6526 127.502 64.5105C127.337 64.3684 127.079 64.2593 126.728 64.1833L125.429 63.9106C124.699 63.7585 124.159 63.5024 123.808 63.1421C123.458 62.7785 123.284 62.3191 123.288 61.7638C123.284 61.2944 123.412 60.8879 123.669 60.5441C123.931 60.1971 124.292 59.9294 124.755 59.741C125.221 59.5492 125.758 59.4534 126.367 59.4534C127.259 59.4534 127.961 59.6434 128.474 60.0236C128.989 60.4037 129.308 60.9176 129.431 61.5655ZM134.446 67.3167C133.682 67.3167 133.023 67.1581 132.467 66.8407C131.915 66.5201 131.491 66.0673 131.193 65.4823C130.896 64.8939 130.747 64.2015 130.747 63.4049C130.747 62.6215 130.896 61.934 131.193 61.3424C131.494 60.7474 131.914 60.2847 132.452 59.9541C132.991 59.6203 133.624 59.4534 134.351 59.4534C134.821 59.4534 135.264 59.5294 135.68 59.6815C136.1 59.8302 136.47 60.0616 136.791 60.3756C137.115 60.6896 137.369 61.0895 137.554 61.5754C137.739 62.058 137.832 62.6331 137.832 63.3008V63.8511H131.59V62.6414H136.111C136.108 62.2976 136.034 61.9919 135.888 61.7241C135.743 61.4531 135.54 61.2399 135.278 61.0846C135.021 60.9292 134.72 60.8515 134.376 60.8515C134.009 60.8515 133.687 60.9408 133.409 61.1193C133.132 61.2944 132.915 61.5258 132.76 61.8134C132.608 62.0976 132.53 62.41 132.527 62.7504V63.8065C132.527 64.2494 132.608 64.6295 132.77 64.9468C132.932 65.2608 133.158 65.5021 133.449 65.6707C133.74 65.8359 134.08 65.9186 134.47 65.9186C134.731 65.9186 134.968 65.8822 135.179 65.8095C135.391 65.7335 135.574 65.6227 135.73 65.4773C135.885 65.3319 136.002 65.1517 136.082 64.9369L137.757 65.1253C137.652 65.5682 137.45 65.9549 137.153 66.2855C136.858 66.6127 136.482 66.8672 136.022 67.049C135.563 67.2275 135.037 67.3167 134.446 67.3167ZM139.35 67.168V59.5525H141.09V60.8218H141.17C141.309 60.3822 141.547 60.0434 141.884 59.8054C142.224 59.5641 142.613 59.4435 143.049 59.4435C143.148 59.4435 143.259 59.4484 143.381 59.4583C143.507 59.465 143.611 59.4765 143.693 59.4931V61.1441C143.617 61.1176 143.497 61.0945 143.331 61.0746C143.169 61.0515 143.012 61.0399 142.86 61.0399C142.533 61.0399 142.239 61.111 141.978 61.2531C141.72 61.3919 141.517 61.5853 141.368 61.8332C141.219 62.0811 141.145 62.367 141.145 62.6909V67.168H139.35ZM150.905 61.5655L149.269 61.744C149.222 61.5787 149.141 61.4234 149.026 61.2779C148.913 61.1325 148.761 61.0151 148.57 60.9259C148.378 60.8367 148.143 60.792 147.865 60.792C147.492 60.792 147.178 60.873 146.923 61.035C146.672 61.1969 146.548 61.4068 146.552 61.6646C146.548 61.8861 146.629 62.0662 146.795 62.2051C146.963 62.3439 147.241 62.4579 147.627 62.5472L148.926 62.8248C149.647 62.9801 150.182 63.2264 150.533 63.5635C150.887 63.9007 151.065 64.3419 151.068 64.8873C151.065 65.3666 150.925 65.7897 150.647 66.1565C150.373 66.5201 149.991 66.8044 149.502 67.0093C149.012 67.2142 148.451 67.3167 147.816 67.3167C146.884 67.3167 146.133 67.1217 145.565 66.7317C144.996 66.3383 144.658 65.7913 144.549 65.0906L146.299 64.922C146.378 65.2658 146.547 65.5252 146.804 65.7004C147.062 65.8756 147.398 65.9632 147.811 65.9632C148.237 65.9632 148.579 65.8756 148.837 65.7004C149.098 65.5252 149.229 65.3087 149.229 65.0509C149.229 64.8328 149.145 64.6526 148.976 64.5105C148.811 64.3684 148.553 64.2593 148.203 64.1833L146.904 63.9106C146.173 63.7585 145.633 63.5024 145.282 63.1421C144.932 62.7785 144.758 62.3191 144.762 61.7638C144.758 61.2944 144.886 60.8879 145.144 60.5441C145.405 60.1971 145.767 59.9294 146.229 59.741C146.695 59.5492 147.233 59.4534 147.841 59.4534C148.733 59.4534 149.435 59.6434 149.948 60.0236C150.463 60.4037 150.782 60.9176 150.905 61.5655ZM157.395 67.168H155.431L159.006 57.0141H161.277L164.856 67.168H162.893L160.181 59.0964H160.102L157.395 67.168ZM157.459 63.1867H162.814V64.6642H157.459V63.1867ZM169.205 67.3167C168.444 67.3167 167.792 67.1498 167.246 66.816C166.704 66.4821 166.286 66.021 165.992 65.4327C165.701 64.841 165.555 64.1601 165.555 63.39C165.555 62.6166 165.704 61.934 166.002 61.3424C166.299 60.7474 166.719 60.2847 167.261 59.9541C167.806 59.6203 168.451 59.4534 169.195 59.4534C169.813 59.4534 170.36 59.5674 170.836 59.7955C171.315 60.0202 171.697 60.3392 171.981 60.7524C172.265 61.1622 172.427 61.6415 172.467 62.1902H170.751C170.682 61.8233 170.517 61.5176 170.256 61.273C169.998 61.0251 169.652 60.9011 169.219 60.9011C168.853 60.9011 168.53 61.0003 168.253 61.1986C167.975 61.3936 167.758 61.6746 167.603 62.0414C167.451 62.4083 167.375 62.8479 167.375 63.3603C167.375 63.8792 167.451 64.3254 167.603 64.6989C167.755 65.0691 167.968 65.355 168.243 65.5566C168.52 65.755 168.846 65.8541 169.219 65.8541C169.484 65.8541 169.72 65.8045 169.928 65.7054C170.14 65.6029 170.317 65.4558 170.459 65.2641C170.601 65.0724 170.699 64.8394 170.751 64.565H172.467C172.424 65.1038 172.265 65.5814 171.991 65.9979C171.717 66.4111 171.343 66.735 170.87 66.9697C170.398 67.201 169.842 67.3167 169.205 67.3167ZM177.743 59.5525V60.9408H173.365V59.5525H177.743ZM174.446 57.728H176.241V64.8774C176.241 65.1187 176.277 65.3038 176.35 65.4327C176.426 65.5583 176.525 65.6442 176.648 65.6905C176.77 65.7368 176.905 65.7599 177.054 65.7599C177.167 65.7599 177.269 65.7516 177.362 65.7351C177.457 65.7186 177.53 65.7037 177.58 65.6905L177.882 67.0936C177.786 67.1267 177.649 67.163 177.471 67.2027C177.295 67.2423 177.081 67.2655 176.826 67.2721C176.377 67.2853 175.972 67.2175 175.611 67.0688C175.251 66.9168 174.965 66.6821 174.754 66.3648C174.545 66.0475 174.443 65.6508 174.446 65.1749V57.728ZM179.244 67.168V59.5525H181.039V67.168H179.244ZM180.147 58.4717C179.862 58.4717 179.618 58.3775 179.413 58.1891C179.208 57.9974 179.106 57.7677 179.106 57.5C179.106 57.2289 179.208 56.9992 179.413 56.8108C179.618 56.6191 179.862 56.5232 180.147 56.5232C180.434 56.5232 180.679 56.6191 180.881 56.8108C181.085 56.9992 181.188 57.2289 181.188 57.5C181.188 57.7677 181.085 57.9974 180.881 58.1891C180.679 58.3775 180.434 58.4717 180.147 58.4717ZM189.687 59.5525L186.975 67.168H184.992L182.28 59.5525H184.194L185.944 65.2096H186.023L187.778 59.5525H189.687ZM190.929 67.168V59.5525H192.724V67.168H190.929ZM191.831 58.4717C191.547 58.4717 191.303 58.3775 191.098 58.1891C190.893 57.9974 190.79 57.7677 190.79 57.5C190.79 57.2289 190.893 56.9992 191.098 56.8108C191.303 56.6191 191.547 56.5232 191.831 56.5232C192.119 56.5232 192.364 56.6191 192.565 56.8108C192.77 56.9992 192.873 57.2289 192.873 57.5C192.873 57.7677 192.77 57.9974 192.565 58.1891C192.364 58.3775 192.119 58.4717 191.831 58.4717ZM198.372 59.5525V60.9408H193.994V59.5525H198.372ZM195.075 57.728H196.87V64.8774C196.87 65.1187 196.906 65.3038 196.979 65.4327C197.055 65.5583 197.154 65.6442 197.276 65.6905C197.399 65.7368 197.534 65.7599 197.683 65.7599C197.795 65.7599 197.898 65.7516 197.99 65.7351C198.086 65.7186 198.159 65.7037 198.209 65.6905L198.511 67.0936C198.415 67.1267 198.278 67.163 198.099 67.2027C197.924 67.2423 197.709 67.2655 197.455 67.2721C197.005 67.2853 196.601 67.2175 196.24 67.0688C195.88 66.9168 195.594 66.6821 195.383 66.3648C195.174 66.0475 195.072 65.6508 195.075 65.1749V57.728ZM200.989 70.0238C200.744 70.0238 200.518 70.0039 200.309 69.9643C200.105 69.9279 199.941 69.8849 199.819 69.8353L200.235 68.4372C200.496 68.5132 200.729 68.5496 200.934 68.5463C201.139 68.543 201.319 68.4785 201.475 68.3529C201.633 68.2306 201.767 68.0257 201.876 67.7381L202.03 67.3266L199.268 59.5525H201.172L202.927 65.3038H203.007L204.767 59.5525H206.676L203.626 68.0901C203.484 68.4934 203.296 68.8388 203.061 69.1264C202.826 69.4172 202.539 69.6387 202.198 69.7907C201.861 69.9461 201.458 70.0238 200.989 70.0238Z" fill="black"/>
<path d="M303.09 52.8039V51.8689H309.618V52.8039H306.881V60.5723H305.827V52.8039H303.09ZM312.111 56.6456V60.5723H311.108V51.8689H312.111V55.0647H312.196C312.349 54.7275 312.579 54.4598 312.885 54.2615C313.193 54.0603 313.604 53.9598 314.117 53.9598C314.562 53.9598 314.951 54.049 315.286 54.2275C315.62 54.4032 315.879 54.6737 316.063 55.0392C316.25 55.4018 316.344 55.8636 316.344 56.4246V60.5723H315.341V56.4926C315.341 55.9741 315.206 55.5732 314.937 55.2899C314.671 55.0038 314.301 54.8607 313.828 54.8607C313.499 54.8607 313.205 54.9301 312.944 55.0689C312.686 55.2078 312.482 55.4103 312.332 55.6766C312.185 55.943 312.111 56.2659 312.111 56.6456ZM318.179 60.5723V54.0448H319.182V60.5723H318.179ZM318.689 52.9568C318.493 52.9568 318.325 52.8903 318.183 52.7571C318.044 52.624 317.975 52.4639 317.975 52.2769C317.975 52.0899 318.044 51.9298 318.183 51.7967C318.325 51.6635 318.493 51.5969 318.689 51.5969C318.884 51.5969 319.051 51.6635 319.19 51.7967C319.332 51.9298 319.403 52.0899 319.403 52.2769C319.403 52.4639 319.332 52.624 319.19 52.7571C319.051 52.8903 318.884 52.9568 318.689 52.9568ZM325.642 55.5067L324.741 55.7616C324.685 55.6115 324.601 55.4656 324.49 55.3239C324.383 55.1794 324.235 55.0604 324.049 54.9669C323.862 54.8734 323.622 54.8267 323.33 54.8267C322.931 54.8267 322.598 54.9188 322.332 55.1029C322.068 55.2843 321.936 55.5152 321.936 55.7956C321.936 56.0449 322.027 56.2418 322.208 56.3863C322.39 56.5308 322.673 56.6512 323.058 56.7476L324.027 56.9855C324.611 57.1272 325.046 57.3439 325.332 57.6357C325.618 57.9247 325.761 58.2973 325.761 58.7534C325.761 59.1274 325.653 59.4617 325.438 59.7563C325.226 60.051 324.928 60.2833 324.546 60.4533C324.163 60.6233 323.718 60.7083 323.211 60.7083C322.546 60.7083 321.994 60.5638 321.558 60.2748C321.122 59.9858 320.846 59.5637 320.73 59.0084L321.681 58.7704C321.772 59.1217 321.944 59.3852 322.196 59.5608C322.451 59.7365 322.784 59.8243 323.194 59.8243C323.662 59.8243 324.033 59.7252 324.308 59.5268C324.585 59.3257 324.724 59.0849 324.724 58.8044C324.724 58.5778 324.645 58.3879 324.486 58.2349C324.328 58.0791 324.084 57.963 323.755 57.8865L322.667 57.6315C322.07 57.4898 321.63 57.2703 321.35 56.9728C321.072 56.6725 320.933 56.2971 320.933 55.8466C320.933 55.4783 321.037 55.1525 321.244 54.8692C321.453 54.5859 321.738 54.3635 322.098 54.202C322.461 54.0405 322.871 53.9598 323.33 53.9598C323.976 53.9598 324.483 54.1014 324.852 54.3847C325.223 54.668 325.486 55.042 325.642 55.5067ZM332.353 60.5723L329.974 51.8689H331.045L332.863 58.9574H332.948L334.801 51.8689H335.991L337.844 58.9574H337.929L339.748 51.8689H340.819L338.439 60.5723H337.351L335.43 53.6368H335.362L333.441 60.5723H332.353ZM344.125 60.7083C343.496 60.7083 342.954 60.5694 342.497 60.2918C342.044 60.0113 341.694 59.6203 341.448 59.1189C341.204 58.6146 341.082 58.0281 341.082 57.3595C341.082 56.6909 341.204 56.1016 341.448 55.5916C341.694 55.0789 342.037 54.6794 342.476 54.3932C342.918 54.1043 343.434 53.9598 344.023 53.9598C344.363 53.9598 344.699 54.0164 345.03 54.1298C345.362 54.2431 345.663 54.4272 345.935 54.6822C346.207 54.9344 346.424 55.2687 346.586 55.6851C346.747 56.1016 346.828 56.6144 346.828 57.2235V57.6485H341.796V56.7816H345.808C345.808 56.4132 345.734 56.0846 345.587 55.7956C345.442 55.5067 345.236 55.2786 344.966 55.1114C344.7 54.9443 344.386 54.8607 344.023 54.8607C343.624 54.8607 343.278 54.9599 342.986 55.1582C342.697 55.3537 342.475 55.6086 342.319 55.9231C342.163 56.2376 342.085 56.5747 342.085 56.9345V57.5125C342.085 58.0055 342.17 58.4233 342.34 58.7662C342.513 59.1061 342.752 59.3654 343.058 59.5438C343.364 59.7195 343.72 59.8073 344.125 59.8073C344.389 59.8073 344.627 59.7705 344.839 59.6968C345.054 59.6203 345.24 59.507 345.396 59.3569C345.552 59.2039 345.672 59.0141 345.757 58.7874L346.726 59.0594C346.624 59.388 346.452 59.677 346.212 59.9263C345.971 60.1728 345.673 60.3654 345.319 60.5043C344.965 60.6403 344.567 60.7083 344.125 60.7083ZM351.09 60.7083C350.461 60.7083 349.919 60.5694 349.463 60.2918C349.009 60.0113 348.659 59.6203 348.413 59.1189C348.169 58.6146 348.047 58.0281 348.047 57.3595C348.047 56.6909 348.169 56.1016 348.413 55.5916C348.659 55.0789 349.002 54.6794 349.441 54.3932C349.883 54.1043 350.399 53.9598 350.988 53.9598C351.328 53.9598 351.664 54.0164 351.995 54.1298C352.327 54.2431 352.629 54.4272 352.901 54.6822C353.173 54.9344 353.389 55.2687 353.551 55.6851C353.712 56.1016 353.793 56.6144 353.793 57.2235V57.6485H348.761V56.7816H352.773C352.773 56.4132 352.699 56.0846 352.552 55.7956C352.408 55.5067 352.201 55.2786 351.932 55.1114C351.665 54.9443 351.351 54.8607 350.988 54.8607C350.589 54.8607 350.243 54.9599 349.951 55.1582C349.662 55.3537 349.44 55.6086 349.284 55.9231C349.128 56.2376 349.05 56.5747 349.05 56.9345V57.5125C349.05 58.0055 349.135 58.4233 349.305 58.7662C349.478 59.1061 349.718 59.3654 350.024 59.5438C350.33 59.7195 350.685 59.8073 351.09 59.8073C351.354 59.8073 351.592 59.7705 351.804 59.6968C352.02 59.6203 352.205 59.507 352.361 59.3569C352.517 59.2039 352.637 59.0141 352.722 58.7874L353.691 59.0594C353.589 59.388 353.418 59.677 353.177 59.9263C352.936 60.1728 352.639 60.3654 352.284 60.5043C351.93 60.6403 351.532 60.7083 351.09 60.7083ZM356.254 58.1924L356.237 56.9515H356.441L359.296 54.0448H360.537L357.495 57.1215H357.41L356.254 58.1924ZM355.319 60.5723V51.8689H356.322V60.5723H355.319ZM359.466 60.5723L356.917 57.3425L357.631 56.6456L360.741 60.5723H359.466Z" fill="#9197A0"/>
<path d="M395.441 63.8569C395.515 63.9174 395.621 63.9174 395.695 63.8569L401.705 58.9184C401.849 58.7996 401.765 58.5649 401.578 58.5649H389.558C389.371 58.5649 389.287 58.7996 389.432 58.9184L395.441 63.8569Z" fill="#B8BDC9"/>
<g filter="url(#filter2_d_7901_6807)">
<path d="M955.004 370.73C955.004 365.208 959.481 360.73 965.004 360.73H1254C1259.53 360.73 1264 365.208 1264 370.73V463.447C1264 468.969 1259.53 473.447 1254 473.447H965.004C959.481 473.447 955.004 468.969 955.004 463.447V370.73Z" fill="white" shape-rendering="crispEdges"/>
<path d="M984.448 404.362V388.044H985.493V404.362H984.448ZM987.221 393.43C987.17 392.916 986.951 392.516 986.564 392.232C986.177 391.947 985.653 391.805 984.99 391.805C984.539 391.805 984.159 391.868 983.849 391.996C983.538 392.119 983.3 392.291 983.135 392.512C982.973 392.733 982.892 392.984 982.892 393.264C982.884 393.498 982.933 393.702 983.039 393.876C983.149 394.051 983.3 394.201 983.492 394.329C983.683 394.452 983.904 394.56 984.155 394.654C984.405 394.743 984.673 394.82 984.958 394.883L986.131 395.164C986.7 395.291 987.223 395.461 987.699 395.674C988.175 395.886 988.587 396.148 988.935 396.458C989.284 396.768 989.554 397.134 989.745 397.554C989.94 397.975 990.04 398.457 990.045 399.001C990.04 399.8 989.836 400.493 989.433 401.079C989.033 401.662 988.455 402.114 987.699 402.437C986.947 402.756 986.039 402.915 984.977 402.915C983.923 402.915 983.005 402.754 982.223 402.431C981.445 402.108 980.838 401.63 980.4 400.997C979.966 400.359 979.739 399.571 979.718 398.632H982.389C982.419 399.069 982.544 399.435 982.765 399.728C982.99 400.017 983.29 400.236 983.664 400.385C984.042 400.529 984.469 400.601 984.945 400.601C985.412 400.601 985.818 400.533 986.162 400.397C986.511 400.261 986.781 400.072 986.972 399.83C987.163 399.588 987.259 399.309 987.259 398.995C987.259 398.702 987.172 398.455 986.998 398.256C986.828 398.056 986.577 397.886 986.245 397.746C985.918 397.605 985.517 397.478 985.041 397.363L983.619 397.006C982.518 396.738 981.649 396.32 981.012 395.75C980.374 395.181 980.058 394.414 980.062 393.449C980.058 392.659 980.268 391.968 980.693 391.377C981.122 390.787 981.711 390.326 982.459 389.994C983.207 389.663 984.057 389.497 985.009 389.497C985.978 389.497 986.823 389.663 987.546 389.994C988.272 390.326 988.838 390.787 989.241 391.377C989.645 391.968 989.853 392.652 989.866 393.43H987.221ZM991.627 400.436V398.262L997.077 389.675H998.951V392.684H997.842L994.406 398.122V398.224H1002.15V400.436H991.627ZM997.893 402.73V399.773L997.944 398.81V389.675H1000.53V402.73H997.893ZM1006.72 400.946L1006.65 401.647C1006.6 402.208 1006.49 402.767 1006.33 403.323C1006.18 403.884 1006.02 404.392 1005.85 404.847C1005.68 405.302 1005.55 405.658 1005.45 405.918H1003.69C1003.75 405.667 1003.84 405.316 1003.95 404.866C1004.06 404.42 1004.16 403.918 1004.26 403.362C1004.36 402.805 1004.42 402.238 1004.45 401.66L1004.48 400.946H1006.72ZM1009.18 402.73V400.742L1013.83 396.439C1014.22 396.056 1014.55 395.712 1014.82 395.406C1015.09 395.1 1015.3 394.801 1015.44 394.507C1015.58 394.21 1015.65 393.889 1015.65 393.545C1015.65 393.162 1015.56 392.833 1015.39 392.557C1015.21 392.276 1014.98 392.062 1014.67 391.913C1014.37 391.76 1014.03 391.683 1013.65 391.683C1013.25 391.683 1012.9 391.764 1012.6 391.926C1012.3 392.087 1012.08 392.319 1011.91 392.62C1011.75 392.922 1011.67 393.281 1011.67 393.698H1009.05C1009.05 392.844 1009.25 392.102 1009.63 391.473C1010.02 390.844 1010.56 390.358 1011.26 390.013C1011.95 389.669 1012.76 389.497 1013.67 389.497C1014.6 389.497 1015.42 389.663 1016.11 389.994C1016.81 390.321 1017.35 390.776 1017.73 391.358C1018.12 391.941 1018.31 392.608 1018.31 393.36C1018.31 393.853 1018.22 394.339 1018.02 394.82C1017.83 395.3 1017.49 395.833 1016.99 396.42C1016.5 397.002 1015.81 397.701 1014.91 398.517L1013 400.385V400.474H1018.49V402.73H1009.18ZM1025.25 402.909C1024.35 402.909 1023.55 402.743 1022.84 402.412C1022.14 402.08 1021.59 401.623 1021.17 401.041C1020.76 400.459 1020.55 399.792 1020.53 399.04H1023.21C1023.24 399.545 1023.45 399.955 1023.85 400.27C1024.24 400.584 1024.71 400.742 1025.25 400.742C1025.69 400.742 1026.07 400.646 1026.4 400.455C1026.74 400.259 1027 399.989 1027.19 399.645C1027.38 399.297 1027.47 398.897 1027.47 398.447C1027.47 397.988 1027.37 397.584 1027.18 397.236C1026.99 396.887 1026.72 396.615 1026.38 396.42C1026.04 396.224 1025.65 396.124 1025.22 396.12C1024.83 396.12 1024.46 396.199 1024.1 396.356C1023.74 396.513 1023.47 396.728 1023.27 397L1020.81 396.56L1021.43 389.675H1029.41V391.932H1023.71L1023.37 395.202H1023.44C1023.67 394.879 1024.02 394.611 1024.48 394.399C1024.95 394.186 1025.46 394.08 1026.04 394.08C1026.82 394.08 1027.53 394.265 1028.14 394.635C1028.76 395.005 1029.24 395.512 1029.6 396.158C1029.96 396.8 1030.13 397.539 1030.13 398.377C1030.13 399.256 1029.93 400.038 1029.52 400.722C1029.11 401.402 1028.54 401.938 1027.8 402.329C1027.07 402.716 1026.22 402.909 1025.25 402.909ZM1037.17 403.017C1036.08 403.013 1035.13 402.743 1034.34 402.208C1033.56 401.672 1032.95 400.897 1032.53 399.881C1032.11 398.865 1031.9 397.644 1031.9 396.216C1031.9 394.792 1032.11 393.579 1032.53 392.576C1032.96 391.573 1033.56 390.81 1034.35 390.287C1035.14 389.76 1036.08 389.497 1037.17 389.497C1038.27 389.497 1039.21 389.76 1039.99 390.287C1040.78 390.814 1041.39 391.579 1041.82 392.582C1042.24 393.581 1042.45 394.792 1042.45 396.216C1042.45 397.648 1042.23 398.872 1041.81 399.887C1041.39 400.903 1040.78 401.679 1040 402.214C1039.21 402.75 1038.27 403.017 1037.17 403.017ZM1037.17 400.729C1037.92 400.729 1038.52 400.353 1038.97 399.601C1039.41 398.848 1039.63 397.72 1039.63 396.216C1039.63 395.226 1039.53 394.401 1039.32 393.742C1039.12 393.084 1038.84 392.589 1038.47 392.257C1038.1 391.926 1037.67 391.76 1037.17 391.76C1036.43 391.76 1035.84 392.132 1035.39 392.875C1034.94 393.619 1034.72 394.733 1034.71 396.216C1034.71 397.219 1034.81 398.056 1035.01 398.727C1035.22 399.394 1035.5 399.896 1035.87 400.232C1036.24 400.563 1036.68 400.729 1037.17 400.729Z" fill="black"/>
<path d="M980.058 441.025V432.322H985.31V433.257H981.112V436.198H985.038V437.133H981.112V440.09H985.378V441.025H980.058ZM988.995 441.178C988.581 441.178 988.206 441.1 987.869 440.945C987.532 440.786 987.264 440.558 987.066 440.26C986.867 439.96 986.768 439.597 986.768 439.173C986.768 438.799 986.842 438.495 986.989 438.263C987.136 438.028 987.333 437.844 987.58 437.711C987.826 437.577 988.098 437.478 988.396 437.413C988.696 437.345 988.998 437.291 989.301 437.252C989.698 437.201 990.019 437.162 990.266 437.137C990.515 437.109 990.696 437.062 990.81 436.997C990.926 436.932 990.984 436.818 990.984 436.657V436.623C990.984 436.203 990.869 435.878 990.64 435.645C990.413 435.413 990.069 435.297 989.607 435.297C989.128 435.297 988.753 435.402 988.481 435.611C988.209 435.821 988.017 436.045 987.907 436.283L986.955 435.943C987.125 435.546 987.352 435.237 987.635 435.016C987.921 434.793 988.233 434.637 988.57 434.549C988.91 434.458 989.244 434.413 989.573 434.413C989.783 434.413 990.023 434.438 990.295 434.489C990.57 434.538 990.835 434.638 991.09 434.791C991.348 434.944 991.562 435.175 991.732 435.484C991.902 435.793 991.987 436.206 991.987 436.725V441.025H990.984V440.141H990.933C990.865 440.283 990.751 440.435 990.593 440.596C990.434 440.758 990.223 440.895 989.96 441.008C989.696 441.122 989.375 441.178 988.995 441.178ZM989.148 440.277C989.545 440.277 989.879 440.2 990.151 440.044C990.426 439.888 990.632 439.687 990.771 439.44C990.913 439.194 990.984 438.935 990.984 438.663V437.745C990.941 437.796 990.848 437.842 990.703 437.885C990.562 437.925 990.397 437.96 990.21 437.991C990.026 438.019 989.846 438.045 989.671 438.068C989.498 438.087 989.358 438.104 989.25 438.119C988.989 438.153 988.746 438.208 988.519 438.284C988.295 438.358 988.114 438.47 987.975 438.62C987.839 438.767 987.771 438.969 987.771 439.224C987.771 439.572 987.9 439.835 988.158 440.014C988.418 440.19 988.748 440.277 989.148 440.277ZM993.817 441.025V434.498H994.786V435.484H994.854C994.973 435.161 995.188 434.899 995.5 434.698C995.812 434.496 996.163 434.396 996.554 434.396C996.628 434.396 996.72 434.397 996.83 434.4C996.941 434.403 997.024 434.407 997.081 434.413V435.433C997.047 435.424 996.969 435.412 996.847 435.395C996.728 435.375 996.602 435.365 996.469 435.365C996.152 435.365 995.868 435.431 995.619 435.565C995.373 435.695 995.177 435.876 995.033 436.109C994.891 436.338 994.82 436.6 994.82 436.895V441.025H993.817ZM999.273 437.099V441.025H998.27V434.498H999.239V435.518H999.324C999.477 435.186 999.709 434.92 1000.02 434.719C1000.33 434.515 1000.73 434.413 1001.23 434.413C1001.67 434.413 1002.06 434.504 1002.39 434.685C1002.72 434.863 1002.98 435.135 1003.16 435.501C1003.35 435.863 1003.44 436.322 1003.44 436.878V441.025H1002.43V436.946C1002.43 436.433 1002.3 436.033 1002.04 435.747C1001.77 435.458 1001.4 435.314 1000.94 435.314C1000.62 435.314 1000.33 435.383 1000.08 435.522C999.831 435.661 999.634 435.863 999.489 436.13C999.345 436.396 999.273 436.719 999.273 437.099ZM1008.01 441.161C1007.38 441.161 1006.84 441.023 1006.38 440.745C1005.93 440.464 1005.58 440.073 1005.33 439.572C1005.09 439.068 1004.96 438.481 1004.96 437.813C1004.96 437.144 1005.09 436.555 1005.33 436.045C1005.58 435.532 1005.92 435.133 1006.36 434.846C1006.8 434.557 1007.32 434.413 1007.9 434.413C1008.24 434.413 1008.58 434.47 1008.91 434.583C1009.24 434.696 1009.55 434.88 1009.82 435.135C1010.09 435.387 1010.31 435.722 1010.47 436.138C1010.63 436.555 1010.71 437.068 1010.71 437.677V438.102H1005.68V437.235H1009.69C1009.69 436.866 1009.62 436.538 1009.47 436.249C1009.32 435.96 1009.12 435.732 1008.85 435.565C1008.58 435.397 1008.27 435.314 1007.9 435.314C1007.51 435.314 1007.16 435.413 1006.87 435.611C1006.58 435.807 1006.36 436.062 1006.2 436.376C1006.04 436.691 1005.97 437.028 1005.97 437.388V437.966C1005.97 438.459 1006.05 438.876 1006.22 439.219C1006.39 439.559 1006.63 439.818 1006.94 439.997C1007.25 440.173 1007.6 440.26 1008.01 440.26C1008.27 440.26 1008.51 440.224 1008.72 440.15C1008.94 440.073 1009.12 439.96 1009.28 439.81C1009.43 439.657 1009.55 439.467 1009.64 439.241L1010.61 439.513C1010.51 439.841 1010.33 440.13 1010.09 440.379C1009.85 440.626 1009.56 440.819 1009.2 440.957C1008.85 441.093 1008.45 441.161 1008.01 441.161ZM1014.7 441.161C1014.16 441.161 1013.68 441.024 1013.26 440.749C1012.84 440.472 1012.52 440.081 1012.28 439.576C1012.05 439.069 1011.93 438.47 1011.93 437.779C1011.93 437.093 1012.05 436.498 1012.28 435.994C1012.52 435.489 1012.84 435.1 1013.26 434.825C1013.68 434.55 1014.17 434.413 1014.72 434.413C1015.14 434.413 1015.48 434.484 1015.72 434.625C1015.97 434.764 1016.16 434.923 1016.29 435.101C1016.43 435.277 1016.53 435.421 1016.6 435.535H1016.69V432.322H1017.69V441.025H1016.72V440.022H1016.6C1016.53 440.141 1016.43 440.292 1016.29 440.473C1016.15 440.651 1015.96 440.811 1015.71 440.953C1015.46 441.092 1015.12 441.161 1014.7 441.161ZM1014.84 440.26C1015.24 440.26 1015.58 440.156 1015.86 439.946C1016.13 439.733 1016.34 439.44 1016.49 439.066C1016.63 438.689 1016.71 438.255 1016.71 437.762C1016.71 437.274 1016.64 436.848 1016.49 436.482C1016.35 436.114 1016.14 435.828 1015.86 435.624C1015.59 435.417 1015.24 435.314 1014.84 435.314C1014.41 435.314 1014.06 435.423 1013.77 435.641C1013.49 435.856 1013.28 436.15 1013.14 436.521C1013 436.889 1012.93 437.303 1012.93 437.762C1012.93 438.226 1013 438.648 1013.14 439.028C1013.29 439.405 1013.5 439.705 1013.78 439.929C1014.07 440.15 1014.42 440.26 1014.84 440.26ZM1025.87 434.498V435.348H1022.49V434.498H1025.87ZM1023.48 432.934H1024.48V439.156C1024.48 439.439 1024.52 439.651 1024.6 439.793C1024.69 439.932 1024.79 440.025 1024.92 440.073C1025.06 440.119 1025.2 440.141 1025.35 440.141C1025.46 440.141 1025.55 440.136 1025.62 440.124C1025.69 440.11 1025.75 440.099 1025.79 440.09L1025.99 440.991C1025.92 441.017 1025.83 441.042 1025.71 441.068C1025.58 441.096 1025.43 441.11 1025.24 441.11C1024.96 441.11 1024.68 441.049 1024.41 440.928C1024.14 440.806 1023.92 440.62 1023.74 440.371C1023.56 440.122 1023.48 439.807 1023.48 439.428V432.934ZM1028.52 437.099V441.025H1027.52V432.322H1028.52V435.518H1028.61C1028.76 435.181 1028.99 434.913 1029.3 434.715C1029.61 434.513 1030.02 434.413 1030.53 434.413C1030.97 434.413 1031.36 434.502 1031.7 434.681C1032.03 434.856 1032.29 435.127 1032.48 435.492C1032.66 435.855 1032.76 436.317 1032.76 436.878V441.025H1031.75V436.946C1031.75 436.427 1031.62 436.026 1031.35 435.743C1031.08 435.457 1030.71 435.314 1030.24 435.314C1029.91 435.314 1029.62 435.383 1029.36 435.522C1029.1 435.661 1028.9 435.863 1028.75 436.13C1028.6 436.396 1028.52 436.719 1028.52 437.099ZM1034.59 441.025V434.498H1035.59V441.025H1034.59ZM1035.1 433.41C1034.91 433.41 1034.74 433.343 1034.6 433.21C1034.46 433.077 1034.39 432.917 1034.39 432.73C1034.39 432.543 1034.46 432.383 1034.6 432.25C1034.74 432.117 1034.91 432.05 1035.1 432.05C1035.3 432.05 1035.46 432.117 1035.6 432.25C1035.74 432.383 1035.82 432.543 1035.82 432.73C1035.82 432.917 1035.74 433.077 1035.6 433.21C1035.46 433.343 1035.3 433.41 1035.1 433.41ZM1042.06 435.96L1041.15 436.215C1041.1 436.065 1041.01 435.919 1040.9 435.777C1040.8 435.633 1040.65 435.514 1040.46 435.42C1040.27 435.327 1040.04 435.28 1039.74 435.28C1039.34 435.28 1039.01 435.372 1038.74 435.556C1038.48 435.737 1038.35 435.968 1038.35 436.249C1038.35 436.498 1038.44 436.695 1038.62 436.839C1038.8 436.984 1039.09 437.104 1039.47 437.201L1040.44 437.439C1041.02 437.58 1041.46 437.797 1041.75 438.089C1042.03 438.378 1042.17 438.75 1042.17 439.207C1042.17 439.581 1042.07 439.915 1041.85 440.209C1041.64 440.504 1041.34 440.736 1040.96 440.906C1040.58 441.076 1040.13 441.161 1039.62 441.161C1038.96 441.161 1038.41 441.017 1037.97 440.728C1037.54 440.439 1037.26 440.017 1037.14 439.462L1038.09 439.224C1038.19 439.575 1038.36 439.838 1038.61 440.014C1038.86 440.19 1039.2 440.277 1039.61 440.277C1040.07 440.277 1040.45 440.178 1040.72 439.98C1041 439.779 1041.14 439.538 1041.14 439.258C1041.14 439.031 1041.06 438.841 1040.9 438.688C1040.74 438.532 1040.5 438.416 1040.17 438.34L1039.08 438.085C1038.48 437.943 1038.04 437.723 1037.76 437.426C1037.49 437.126 1037.35 436.75 1037.35 436.3C1037.35 435.931 1037.45 435.606 1037.66 435.322C1037.87 435.039 1038.15 434.817 1038.51 434.655C1038.87 434.494 1039.28 434.413 1039.74 434.413C1040.39 434.413 1040.9 434.555 1041.26 434.838C1041.64 435.121 1041.9 435.495 1042.06 435.96ZM1047.05 441.025V434.498H1048.02V435.518H1048.1C1048.24 435.169 1048.46 434.899 1048.76 434.706C1049.07 434.511 1049.43 434.413 1049.85 434.413C1050.29 434.413 1050.64 434.511 1050.93 434.706C1051.22 434.899 1051.44 435.169 1051.61 435.518H1051.67C1051.84 435.181 1052.09 434.913 1052.43 434.715C1052.76 434.513 1053.16 434.413 1053.63 434.413C1054.21 434.413 1054.69 434.596 1055.06 434.961C1055.43 435.324 1055.62 435.889 1055.62 436.657V441.025H1054.61V436.657C1054.61 436.175 1054.48 435.831 1054.22 435.624C1053.96 435.417 1053.65 435.314 1053.29 435.314C1052.83 435.314 1052.47 435.453 1052.22 435.73C1051.97 436.005 1051.84 436.354 1051.84 436.776V441.025H1050.82V436.555C1050.82 436.184 1050.7 435.885 1050.46 435.658C1050.22 435.429 1049.91 435.314 1049.53 435.314C1049.27 435.314 1049.03 435.383 1048.8 435.522C1048.58 435.661 1048.4 435.854 1048.26 436.1C1048.12 436.344 1048.05 436.626 1048.05 436.946V441.025H1047.05ZM1060.1 441.161C1059.51 441.161 1059 441.021 1058.55 440.741C1058.11 440.46 1057.76 440.068 1057.51 439.564C1057.27 439.059 1057.14 438.47 1057.14 437.796C1057.14 437.116 1057.27 436.522 1057.51 436.015C1057.76 435.508 1058.11 435.114 1058.55 434.834C1059 434.553 1059.51 434.413 1060.1 434.413C1060.69 434.413 1061.21 434.553 1061.65 434.834C1062.09 435.114 1062.44 435.508 1062.69 436.015C1062.94 436.522 1063.06 437.116 1063.06 437.796C1063.06 438.47 1062.94 439.059 1062.69 439.564C1062.44 440.068 1062.09 440.46 1061.65 440.741C1061.21 441.021 1060.69 441.161 1060.1 441.161ZM1060.1 440.26C1060.55 440.26 1060.92 440.146 1061.21 439.916C1061.5 439.687 1061.71 439.385 1061.85 439.011C1061.99 438.637 1062.06 438.232 1062.06 437.796C1062.06 437.359 1061.99 436.953 1061.85 436.576C1061.71 436.199 1061.5 435.895 1061.21 435.662C1060.92 435.43 1060.55 435.314 1060.1 435.314C1059.65 435.314 1059.29 435.43 1059 435.662C1058.71 435.895 1058.49 436.199 1058.36 436.576C1058.22 436.953 1058.15 437.359 1058.15 437.796C1058.15 438.232 1058.22 438.637 1058.36 439.011C1058.49 439.385 1058.71 439.687 1059 439.916C1059.29 440.146 1059.65 440.26 1060.1 440.26ZM1065.59 437.099V441.025H1064.59V434.498H1065.56V435.518H1065.65C1065.8 435.186 1066.03 434.92 1066.34 434.719C1066.65 434.515 1067.06 434.413 1067.55 434.413C1067.99 434.413 1068.38 434.504 1068.71 434.685C1069.04 434.863 1069.3 435.135 1069.48 435.501C1069.67 435.863 1069.76 436.322 1069.76 436.878V441.025H1068.76V436.946C1068.76 436.433 1068.62 436.033 1068.36 435.747C1068.09 435.458 1067.72 435.314 1067.26 435.314C1066.94 435.314 1066.65 435.383 1066.4 435.522C1066.15 435.661 1065.96 435.863 1065.81 436.13C1065.67 436.396 1065.59 436.719 1065.59 437.099ZM1074.43 434.498V435.348H1071.05V434.498H1074.43ZM1072.03 432.934H1073.04V439.156C1073.04 439.439 1073.08 439.651 1073.16 439.793C1073.24 439.932 1073.35 440.025 1073.48 440.073C1073.62 440.119 1073.76 440.141 1073.9 440.141C1074.01 440.141 1074.1 440.136 1074.18 440.124C1074.25 440.11 1074.3 440.099 1074.35 440.09L1074.55 440.991C1074.48 441.017 1074.39 441.042 1074.26 441.068C1074.14 441.096 1073.99 441.11 1073.8 441.11C1073.52 441.11 1073.24 441.049 1072.97 440.928C1072.7 440.806 1072.48 440.62 1072.3 440.371C1072.12 440.122 1072.03 439.807 1072.03 439.428V432.934ZM1077.08 437.099V441.025H1076.08V432.322H1077.08V435.518H1077.17C1077.32 435.181 1077.55 434.913 1077.86 434.715C1078.16 434.513 1078.58 434.413 1079.09 434.413C1079.53 434.413 1079.92 434.502 1080.26 434.681C1080.59 434.856 1080.85 435.127 1081.03 435.492C1081.22 435.855 1081.31 436.317 1081.31 436.878V441.025H1080.31V436.946C1080.31 436.427 1080.18 436.026 1079.91 435.743C1079.64 435.457 1079.27 435.314 1078.8 435.314C1078.47 435.314 1078.18 435.383 1077.92 435.522C1077.66 435.661 1077.45 435.863 1077.3 436.13C1077.16 436.396 1077.08 436.719 1077.08 437.099Z" fill="#90969F"/>
<ellipse cx="1201.78" cy="391.118" rx="1.48355" ry="1.38727" fill="#C5C8D2"/>
<ellipse cx="1208.74" cy="391.118" rx="1.48355" ry="1.38727" fill="#C5C8D2"/>
<ellipse cx="1215.71" cy="391.118" rx="1.48355" ry="1.38727" fill="#C5C8D2"/>
</g>
<defs>
<filter id="filter0_d_7901_6807" x="905.581" y="101.062" width="171.701" height="77.8359" filterUnits="userSpaceOnUse" color-interpolation-filters="sRGB">
<feFlood flood-opacity="0" result="BackgroundImageFix"/>
<feColorMatrix in="SourceAlpha" type="matrix" values="0 0 0 0 0 0 0 0 0 0 0 0 0 0 0 0 0 0 127 0" result="hardAlpha"/>
<feMorphology radius="2" operator="erode" in="SourceAlpha" result="effect1_dropShadow_7901_6807"/>
<feOffset dy="8"/>
<feGaussianBlur stdDeviation="8"/>
<feComposite in2="hardAlpha" operator="out"/>
<feColorMatrix type="matrix" values="0 0 0 0 0.4 0 0 0 0 0.25098 0 0 0 0 1 0 0 0 0.24 0"/>
<feBlend mode="normal" in2="BackgroundImageFix" result="effect1_dropShadow_7901_6807"/>
<feBlend mode="normal" in="SourceGraphic" in2="effect1_dropShadow_7901_6807" result="shape"/>
</filter>
<filter id="filter1_d_7901_6807" x="0.0786095" y="0.41238" width="494.563" height="385.646" filterUnits="userSpaceOnUse" color-interpolation-filters="sRGB">
<feFlood flood-opacity="0" result="BackgroundImageFix"/>
<feColorMatrix in="SourceAlpha" type="matrix" values="0 0 0 0 0 0 0 0 0 0 0 0 0 0 0 0 0 0 127 0" result="hardAlpha"/>
<feOffset dy="54.3299"/>
<feGaussianBlur stdDeviation="31.9587"/>
<feComposite in2="hardAlpha" operator="out"/>
<feColorMatrix type="matrix" values="0 0 0 0 0.804167 0 0 0 0 0.804167 0 0 0 0 0.804167 0 0 0 0.16 0"/>
<feBlend mode="normal" in2="BackgroundImageFix" result="effect1_dropShadow_7901_6807"/>
<feBlend mode="normal" in="SourceGraphic" in2="effect1_dropShadow_7901_6807" result="shape"/>
</filter>
<filter id="filter2_d_7901_6807" x="891.086" y="351.143" width="436.835" height="240.552" filterUnits="userSpaceOnUse" color-interpolation-filters="sRGB">
<feFlood flood-opacity="0" result="BackgroundImageFix"/>
<feColorMatrix in="SourceAlpha" type="matrix" values="0 0 0 0 0 0 0 0 0 0 0 0 0 0 0 0 0 0 127 0" result="hardAlpha"/>
<feOffset dy="54.3299"/>
<feGaussianBlur stdDeviation="31.9587"/>
<feComposite in2="hardAlpha" operator="out"/>
<feColorMatrix type="matrix" values="0 0 0 0 0.804167 0 0 0 0 0.804167 0 0 0 0 0.804167 0 0 0 0.16 0"/>
<feBlend mode="normal" in2="BackgroundImageFix" result="effect1_dropShadow_7901_6807"/>
<feBlend mode="normal" in="SourceGraphic" in2="effect1_dropShadow_7901_6807" result="shape"/>
</filter>
<linearGradient id="paint0_linear_7901_6807" x1="790.347" y1="233.242" x2="790.347" y2="490.902" gradientUnits="userSpaceOnUse">
<stop offset="0.166667" stop-color="#5C7EFA" stop-opacity="0.24"/>
<stop offset="0.859375" stop-color="#6640FF" stop-opacity="0"/>
</linearGradient>
</defs>
</svg>
