<svg width="180" height="181" viewBox="0 0 180 181" fill="none" xmlns="http://www.w3.org/2000/svg">
<path d="M179.458 22.7119C125.763 3.64972 67.3955 2.07694 12.7484 18.2197C10.5786 18.7418 8.5362 19.694 6.74246 21.0198C4.94872 22.3456 3.4403 24.0178 2.30685 25.9371C1.17341 27.8564 0.438087 29.9836 0.14459 32.1923C-0.148906 34.4009 0.00541689 36.646 0.598385 38.7939C3.59838 50.773 7.94838 64.5416 13.1984 77.0373C13.2734 77.3368 13.4234 77.187 13.4234 76.8876C12.6734 71.0477 17.1734 63.6356 26.0159 60.9403C68.516 47.4565 114.246 48.0606 156.373 62.6623C162.823 64.9084 170.023 61.3895 172.116 54.7336C177.366 37.9029 179.466 26.4479 179.991 23.6103C180.066 23.0862 179.616 22.8616 179.466 22.7119H179.458ZM49.9334 59.7499C43.4834 61.0976 34.5584 63.1939 27.8834 65.44C14.5484 70.007 15.1484 86.2388 22.2659 91.4048C22.7909 88.41 26.0159 84.2922 29.6159 82.9445C42.9584 77.7037 57.2759 74.5666 71.7434 73.2938C64.3934 70.299 57.1934 66.0315 50.0009 59.7499M156.223 92.2284C137.038 83.2345 116.242 78.1701 95.0631 77.3342C73.8843 76.4984 52.7525 79.9081 32.9159 87.3618C26.5409 89.7577 22.5659 97.4692 26.5409 104.799C33.493 117.347 41.3854 129.353 50.1509 140.714C48.8759 136.371 51.1259 128.293 59.6759 125.673C83.2859 118.418 108.096 121.48 124.588 128.143C129.238 130.015 135.838 128.892 139.513 123.352C145.824 113.674 151.554 103.631 156.673 93.2765C156.898 92.8273 156.673 92.453 156.223 92.2284ZM117.921 150.372C111.007 146.883 104.683 142.336 99.1784 136.896C96.6284 134.35 92.8784 130.689 88.9034 126.346C79.9109 126.346 71.1434 127.245 61.7759 130.24C53.0759 132.935 52.2509 142.968 56.0759 148.201C62.5259 156.212 67.0259 160.554 74.2184 167.959C78.034 171.698 83.159 173.804 88.5054 173.832C93.8518 173.86 98.9987 171.807 102.853 168.109C108.193 162.776 113.344 157.257 118.296 151.563C118.671 151.188 118.521 150.522 117.921 150.372Z" fill="url(#paint0_linear_8634_8351)"/>
<defs>
<linearGradient id="paint0_linear_8634_8351" x1="89.9996" y1="7.16602" x2="89.9996" y2="173.833" gradientUnits="userSpaceOnUse">
<stop stop-color="#4F35DF"/>
<stop offset="1" stop-color="#2702F5"/>
</linearGradient>
</defs>
</svg>
