<svg width="244" height="195" viewBox="0 0 244 195" fill="none" xmlns="http://www.w3.org/2000/svg">
<path d="M219.332 0.166504H24.6654C11.282 0.166504 0.453698 11.1165 0.453698 24.4998L0.332031 170.5C0.332031 183.883 11.282 194.833 24.6654 194.833H219.332C232.715 194.833 243.665 183.883 243.665 170.5V24.4998C243.665 11.1165 232.715 0.166504 219.332 0.166504ZM214.465 51.8748L128.447 105.652C124.554 108.085 119.444 108.085 115.55 105.652L29.532 51.8748C28.312 51.19 27.2437 50.2647 26.3917 49.155C25.5396 48.0453 24.9216 46.7743 24.575 45.4188C24.2284 44.0634 24.1605 42.6517 24.3753 41.2692C24.5901 39.8868 25.0831 38.5622 25.8246 37.3758C26.5661 36.1894 27.5406 35.1658 28.6892 34.3669C29.8378 33.5681 31.1365 33.0106 32.5067 32.7281C33.877 32.4457 35.2903 32.4443 36.6611 32.7239C38.032 33.0035 39.3318 33.5583 40.482 34.3548L121.999 85.3332L203.515 34.3548C204.666 33.5583 205.965 33.0035 207.336 32.7239C208.707 32.4443 210.12 32.4457 211.491 32.7281C212.861 33.0106 214.16 33.5681 215.308 34.3669C216.457 35.1658 217.431 36.1894 218.173 37.3758C218.914 38.5622 219.407 39.8868 219.622 41.2692C219.837 42.6517 219.769 44.0634 219.422 45.4188C219.076 46.7743 218.458 48.0453 217.606 49.155C216.754 50.2647 215.685 51.19 214.465 51.8748Z" fill="url(#paint0_linear_7324_6615)"/>
<defs>
<linearGradient id="paint0_linear_7324_6615" x1="121.999" y1="0.166504" x2="121.999" y2="194.833" gradientUnits="userSpaceOnUse">
<stop stop-color="#4F35DF"/>
<stop offset="1" stop-color="#2702F5"/>
</linearGradient>
</defs>
</svg>
