<svg width="724" height="490" viewBox="0 0 724 490" fill="none" xmlns="http://www.w3.org/2000/svg">
<path d="M153.242 10C153.242 4.47715 157.719 0 163.242 0H640.003C645.526 0 650.003 4.47715 650.003 10V327C650.003 332.523 645.526 337 640.003 337H163.242C157.719 337 153.242 332.523 153.242 327V10Z" fill="white"/>
<path d="M205.139 78.5579C203.721 78.5579 202.412 78.2288 201.212 77.5706C200.027 76.8978 199.084 75.969 198.382 74.7843C197.695 73.5849 197.351 72.2393 197.351 70.7474C197.351 69.2555 197.695 67.9171 198.382 66.7324C199.084 65.5477 200.027 64.6262 201.212 63.968C202.412 63.2952 203.721 62.9588 205.139 62.9588C206.573 62.9588 207.882 63.2952 209.067 63.968C210.266 64.6262 211.209 65.5477 211.897 66.7324C212.584 67.9171 212.928 69.2555 212.928 70.7474C212.928 72.2393 212.584 73.5849 211.897 74.7843C211.209 75.969 210.266 76.8978 209.067 77.5706C207.882 78.2288 206.573 78.5579 205.139 78.5579ZM205.139 76.3858C206.149 76.3858 207.048 76.1591 207.838 75.7057C208.628 75.2377 209.242 74.5795 209.681 73.7311C210.134 72.8682 210.361 71.8736 210.361 70.7474C210.361 69.6211 210.134 68.6338 209.681 67.7855C209.242 66.9372 208.628 66.2863 207.838 65.8329C207.048 65.3794 206.149 65.1527 205.139 65.1527C204.13 65.1527 203.231 65.3794 202.441 65.8329C201.651 66.2863 201.029 66.9372 200.576 67.7855C200.137 68.6338 199.918 69.6211 199.918 70.7474C199.918 71.8736 200.137 72.8682 200.576 73.7311C201.029 74.5795 201.651 75.2377 202.441 75.7057C203.231 76.1591 204.13 76.3858 205.139 76.3858ZM220.062 76.1665L223.485 66.3155H226.14L221.532 78.4043H218.548L213.963 66.3155H216.64L220.062 76.1665ZM239.11 72.0637C239.11 72.5172 239.08 72.9267 239.022 73.2924H229.785C229.858 74.2577 230.217 75.0329 230.86 75.618C231.504 76.203 232.294 76.4955 233.23 76.4955C234.576 76.4955 235.526 75.9324 236.082 74.8062H238.781C238.415 75.9178 237.749 76.832 236.784 77.5487C235.833 78.2507 234.649 78.6018 233.23 78.6018C232.074 78.6018 231.036 78.3458 230.114 77.8339C229.208 77.3073 228.491 76.576 227.964 75.6399C227.452 74.6892 227.196 73.5922 227.196 72.3489C227.196 71.1057 227.445 70.016 227.942 69.0799C228.454 68.1292 229.164 67.3979 230.071 66.886C230.992 66.374 232.045 66.1181 233.23 66.1181C234.371 66.1181 235.387 66.3667 236.28 66.864C237.172 67.3613 237.866 68.0634 238.364 68.9702C238.861 69.8625 239.11 70.8936 239.11 72.0637ZM236.499 71.2739C236.484 70.3524 236.155 69.6138 235.512 69.058C234.868 68.5022 234.071 68.2243 233.12 68.2243C232.257 68.2243 231.519 68.5022 230.904 69.058C230.29 69.5992 229.924 70.3378 229.807 71.2739H236.499ZM244.072 68.0707C244.438 67.4564 244.921 66.981 245.52 66.6446C246.135 66.2936 246.859 66.1181 247.692 66.1181V68.707H247.056C246.076 68.707 245.33 68.9556 244.818 69.4529C244.321 69.9502 244.072 70.8132 244.072 72.0418V78.4043H241.571V66.3155H244.072V68.0707ZM254.664 76.1665L258.087 66.3155H260.742L256.134 78.4043H253.151L248.565 66.3155H251.242L254.664 76.1665ZM263.905 64.7139C263.451 64.7139 263.071 64.5604 262.764 64.2532C262.457 63.9461 262.303 63.5658 262.303 63.1124C262.303 62.6589 262.457 62.2786 262.764 61.9715C263.071 61.6643 263.451 61.5108 263.905 61.5108C264.344 61.5108 264.717 61.6643 265.024 61.9715C265.331 62.2786 265.484 62.6589 265.484 63.1124C265.484 63.5658 265.331 63.9461 265.024 64.2532C264.717 64.5604 264.344 64.7139 263.905 64.7139ZM265.133 66.3155V78.4043H262.632V66.3155H265.133ZM279.497 72.0637C279.497 72.5172 279.467 72.9267 279.409 73.2924H270.172C270.245 74.2577 270.604 75.0329 271.247 75.618C271.891 76.203 272.681 76.4955 273.617 76.4955C274.963 76.4955 275.913 75.9324 276.469 74.8062H279.168C278.802 75.9178 278.136 76.832 277.171 77.5487C276.22 78.2507 275.036 78.6018 273.617 78.6018C272.461 78.6018 271.423 78.3458 270.501 77.8339C269.595 77.3073 268.878 76.576 268.351 75.6399C267.839 74.6892 267.583 73.5922 267.583 72.3489C267.583 71.1057 267.832 70.016 268.329 69.0799C268.841 68.1292 269.551 67.3979 270.458 66.886C271.379 66.374 272.432 66.1181 273.617 66.1181C274.758 66.1181 275.774 66.3667 276.666 66.864C277.559 67.3613 278.253 68.0634 278.751 68.9702C279.248 69.8625 279.497 70.8936 279.497 72.0637ZM276.886 71.2739C276.871 70.3524 276.542 69.6138 275.899 69.058C275.255 68.5022 274.458 68.2243 273.507 68.2243C272.644 68.2243 271.906 68.5022 271.291 69.058C270.677 69.5992 270.311 70.3378 270.194 71.2739H276.886ZM298.193 66.3155L294.442 78.4043H291.809L289.374 69.4749L286.938 78.4043H284.306L280.532 66.3155H283.077L285.6 76.0348L288.167 66.3155H290.778L293.235 75.9909L295.736 66.3155H298.193Z" fill="#445B71"/>
<path d="M197.347 126.711V124.844H201.081V137.93H199.016V126.711H197.347ZM203.892 131.216C203.892 129.146 204.239 127.53 204.933 126.369C205.639 125.197 206.848 124.61 208.559 124.61C210.27 124.61 211.473 125.197 212.167 126.369C212.873 127.53 213.226 129.146 213.226 131.216C213.226 133.31 212.873 134.95 212.167 136.135C211.473 137.307 210.27 137.894 208.559 137.894C206.848 137.894 205.639 137.307 204.933 136.135C204.239 134.95 203.892 133.31 203.892 131.216ZM211.216 131.216C211.216 130.247 211.15 129.427 211.018 128.757C210.899 128.087 210.647 127.542 210.264 127.123C209.881 126.693 209.313 126.477 208.559 126.477C207.805 126.477 207.237 126.693 206.854 127.123C206.471 127.542 206.213 128.087 206.082 128.757C205.962 129.427 205.902 130.247 205.902 131.216C205.902 132.221 205.962 133.065 206.082 133.747C206.201 134.429 206.453 134.98 206.836 135.399C207.231 135.817 207.805 136.027 208.559 136.027C209.313 136.027 209.881 135.817 210.264 135.399C210.659 134.98 210.916 134.429 211.036 133.747C211.156 133.065 211.216 132.221 211.216 131.216ZM219.574 132.993L224.133 137.93H221.369L217.707 133.675V137.93H215.661V124.646H217.707V132.365L221.297 128.039H224.133L219.574 132.993Z" fill="#8A9BAB"/>
<path d="M204.653 188.284C204.521 187.733 204.282 187.32 203.935 187.045C203.588 186.77 203.103 186.632 202.481 186.632C201.535 186.632 200.829 186.997 200.363 187.727C199.896 188.445 199.651 189.642 199.627 191.317C199.938 190.791 200.392 190.384 200.991 190.097C201.589 189.809 202.235 189.666 202.929 189.666C203.719 189.666 204.413 189.839 205.012 190.186C205.622 190.521 206.095 191.012 206.43 191.658C206.777 192.305 206.95 193.076 206.95 193.974C206.95 194.812 206.783 195.56 206.448 196.218C206.125 196.876 205.64 197.397 204.994 197.779C204.348 198.15 203.57 198.336 202.66 198.336C201.428 198.336 200.458 198.067 199.752 197.528C199.058 196.978 198.567 196.206 198.28 195.213C198.005 194.219 197.867 192.981 197.867 191.497C197.867 187.117 199.411 184.927 202.499 184.927C203.695 184.927 204.635 185.25 205.317 185.896C206.011 186.542 206.418 187.338 206.538 188.284H204.653ZM202.481 191.389C201.751 191.389 201.128 191.61 200.614 192.053C200.111 192.484 199.86 193.112 199.86 193.938C199.86 194.764 200.093 195.422 200.56 195.913C201.039 196.391 201.703 196.631 202.553 196.631C203.306 196.631 203.899 196.397 204.33 195.931C204.772 195.464 204.994 194.842 204.994 194.064C204.994 193.25 204.778 192.604 204.348 192.125C203.929 191.634 203.306 191.389 202.481 191.389ZM213.316 193.4L217.875 198.336H215.111L211.449 194.082V198.336H209.403V185.052H211.449V192.771L215.039 188.445H217.875L213.316 193.4Z" fill="#8A9BAB"/>
<path d="M206.053 246.355H200.039V249.927C200.291 249.592 200.662 249.311 201.152 249.083C201.655 248.856 202.188 248.742 202.75 248.742C203.755 248.742 204.569 248.958 205.191 249.388C205.826 249.819 206.274 250.364 206.538 251.022C206.813 251.68 206.95 252.374 206.95 253.104C206.95 253.99 206.777 254.78 206.43 255.474C206.095 256.156 205.586 256.694 204.904 257.089C204.234 257.484 203.408 257.682 202.427 257.682C201.122 257.682 200.075 257.359 199.286 256.712C198.496 256.066 198.023 255.21 197.867 254.145H199.86C199.992 254.708 200.285 255.157 200.74 255.492C201.194 255.815 201.763 255.976 202.445 255.976C203.294 255.976 203.929 255.719 204.348 255.204C204.778 254.69 204.994 254.008 204.994 253.158C204.994 252.296 204.778 251.638 204.348 251.184C203.917 250.717 203.283 250.483 202.445 250.483C201.858 250.483 201.362 250.633 200.955 250.932C200.56 251.219 200.273 251.614 200.093 252.117H198.155V244.56H206.053V246.355ZM213.263 252.745L217.823 257.682H215.058L211.396 253.427V257.682H209.35V244.398H211.396V252.117L214.986 247.791H217.823L213.263 252.745Z" fill="#8A9BAB"/>
<g filter="url(#filter0_d_5312_52522)">
<path d="M500.75 55.5684C500.75 50.0455 505.227 45.5684 510.75 45.5684H609.243C614.766 45.5684 619.243 50.0455 619.243 55.5684V70.5401C619.243 76.0629 614.766 80.5401 609.243 80.5401H510.75C505.227 80.5401 500.75 76.0629 500.75 70.5401V55.5684Z" fill="#3F4DE1"/>
</g>
<path d="M533.123 57.8461H534.983L538.215 65.7392H538.334L541.567 57.8461H543.426V68H541.968V60.6523H541.874L538.88 67.9851H537.67L534.675 60.6474H534.581V68H533.123V57.8461ZM548.742 68.1537C548.028 68.1537 547.405 67.9901 546.873 67.6629C546.341 67.3356 545.928 66.8778 545.634 66.2895C545.339 65.7012 545.192 65.0137 545.192 64.227C545.192 63.437 545.339 62.7462 545.634 62.1546C545.928 61.5629 546.341 61.1035 546.873 60.7763C547.405 60.449 548.028 60.2854 548.742 60.2854C549.456 60.2854 550.079 60.449 550.611 60.7763C551.143 61.1035 551.557 61.5629 551.851 62.1546C552.145 62.7462 552.292 63.437 552.292 64.227C552.292 65.0137 552.145 65.7012 551.851 66.2895C551.557 66.8778 551.143 67.3356 550.611 67.6629C550.079 67.9901 549.456 68.1537 548.742 68.1537ZM548.747 66.9092C549.21 66.9092 549.593 66.787 549.897 66.5424C550.201 66.2978 550.426 65.9722 550.572 65.5656C550.72 65.1591 550.795 64.7112 550.795 64.222C550.795 63.7362 550.72 63.2899 550.572 62.8834C550.426 62.4735 550.201 62.1447 549.897 61.8968C549.593 61.6489 549.21 61.5249 548.747 61.5249C548.281 61.5249 547.894 61.6489 547.587 61.8968C547.283 62.1447 547.056 62.4735 546.908 62.8834C546.762 63.2899 546.69 63.7362 546.69 64.222C546.69 64.7112 546.762 65.1591 546.908 65.5656C547.056 65.9722 547.283 66.2978 547.587 66.5424C547.894 66.787 548.281 66.9092 548.747 66.9092ZM555.429 63.4783V68H553.947V60.3846H555.37V61.6241H555.464C555.639 61.2208 555.913 60.8969 556.287 60.6523C556.664 60.4077 557.138 60.2854 557.71 60.2854C558.229 60.2854 558.683 60.3945 559.073 60.6126C559.463 60.8275 559.766 61.1481 559.981 61.5745C560.195 62.0009 560.303 62.5281 560.303 63.1561V68H558.82V63.3346C558.82 62.7826 558.677 62.3512 558.389 62.0405C558.102 61.7265 557.707 61.5695 557.204 61.5695C556.86 61.5695 556.555 61.6439 556.287 61.7926C556.022 61.9414 555.813 62.1595 555.657 62.4471C555.505 62.7313 555.429 63.0751 555.429 63.4783ZM565.846 60.3846V61.5745H561.686V60.3846H565.846ZM562.802 58.5601H564.284V65.764C564.284 66.0515 564.327 66.268 564.413 66.4135C564.499 66.5556 564.61 66.6531 564.745 66.706C564.884 66.7556 565.034 66.7803 565.196 66.7803C565.315 66.7803 565.419 66.7721 565.509 66.7556C565.598 66.739 565.667 66.7258 565.717 66.7159L565.985 67.9405C565.899 67.9736 565.776 68.0066 565.618 68.0397C565.459 68.076 565.261 68.0959 565.023 68.0992C564.633 68.1058 564.269 68.0364 563.932 67.8909C563.595 67.7455 563.322 67.5207 563.114 67.2166C562.906 66.9126 562.802 66.5308 562.802 66.0714V58.5601ZM569.132 63.4783V68H567.649V57.8461H569.112V61.6241H569.206C569.385 61.2142 569.657 60.8886 570.024 60.6474C570.391 60.4061 570.87 60.2854 571.462 60.2854C571.984 60.2854 572.44 60.3928 572.83 60.6077C573.224 60.8225 573.528 61.1431 573.743 61.5695C573.961 61.9926 574.07 62.5215 574.07 63.1561V68H572.587V63.3346C572.587 62.776 572.444 62.343 572.156 62.0356C571.869 61.7249 571.469 61.5695 570.956 61.5695C570.606 61.5695 570.292 61.6439 570.014 61.7926C569.74 61.9414 569.523 62.1595 569.365 62.4471C569.209 62.7313 569.132 63.0751 569.132 63.4783ZM577.531 57.8461V68H576.048V57.8461H577.531ZM580.462 70.8558C580.24 70.8558 580.039 70.8376 579.857 70.8012C579.675 70.7682 579.54 70.7318 579.45 70.6922L579.807 69.4775C580.079 69.5502 580.32 69.5816 580.531 69.5717C580.743 69.5618 580.93 69.4824 581.092 69.3337C581.257 69.185 581.402 68.942 581.528 68.6049L581.711 68.0992L578.925 60.3846H580.511L582.44 66.2945H582.519L584.448 60.3846H586.04L582.901 69.0164C582.756 69.413 582.571 69.7485 582.346 70.0228C582.121 70.3005 581.853 70.5087 581.543 70.6475C581.232 70.7864 580.872 70.8558 580.462 70.8558Z" fill="white"/>
<path d="M267.703 115.195V286.932" stroke="#FCFCFC" stroke-width="2.99177" stroke-linecap="round" stroke-linejoin="round"/>
<path d="M349.516 115.195V286.932" stroke="#FCFCFC" stroke-width="2.99177" stroke-linecap="round" stroke-linejoin="round"/>
<path d="M431.328 115.195V286.932" stroke="#FCFCFC" stroke-width="2.99177" stroke-linecap="round" stroke-linejoin="round"/>
<path d="M513.133 115.195V286.932" stroke="#FCFCFC" stroke-width="2.99177" stroke-linecap="round" stroke-linejoin="round"/>
<path d="M594.945 115.195V286.932" stroke="#FCFCFC" stroke-width="2.99177" stroke-linecap="round" stroke-linejoin="round"/>
<path d="M312.59 276.363C293.047 293.272 264.679 265.09 252.938 248.885V317.051H619.941V134.746C602.33 150.07 558.585 236.203 531.315 216.651C507.736 199.746 497.796 182.304 487.57 180.19C456.324 173.849 444.393 227.22 432.463 248.357C420.532 269.493 378.491 235.675 358.607 236.203C338.723 236.731 337.019 255.226 312.59 276.363Z" fill="url(#paint0_linear_5312_52522)" fill-opacity="0.8"/>
<path d="M252.938 248.885C264.679 265.09 293.047 293.272 312.59 276.363C337.019 255.226 338.723 236.731 358.607 236.203C378.491 235.675 420.532 269.494 432.463 248.357C444.393 227.22 456.324 173.849 487.57 180.19C497.796 182.304 507.736 199.746 531.315 216.651C558.585 236.203 602.33 150.07 619.941 134.746" stroke="#3F4DE1" stroke-width="2.99177" stroke-linecap="round" stroke-linejoin="round"/>
<path d="M451.674 144.567C450.964 144.567 450.326 144.431 449.759 144.159C449.196 143.883 448.747 143.505 448.411 143.026C448.074 142.546 447.895 141.998 447.872 141.382H449.572C449.614 141.881 449.835 142.291 450.235 142.612C450.635 142.933 451.115 143.094 451.674 143.094C452.12 143.094 452.515 142.992 452.858 142.788C453.206 142.58 453.478 142.295 453.674 141.932C453.875 141.569 453.975 141.156 453.975 140.691C453.975 140.219 453.873 139.798 453.669 139.428C453.465 139.057 453.183 138.767 452.825 138.555C452.469 138.343 452.061 138.236 451.601 138.232C451.249 138.232 450.896 138.292 450.541 138.413C450.186 138.534 449.899 138.693 449.68 138.889L448.076 138.651L448.728 132.804H455.108V134.305H450.184L449.816 137.552H449.884C450.11 137.333 450.411 137.15 450.785 137.002C451.162 136.855 451.567 136.781 451.997 136.781C452.704 136.781 453.333 136.95 453.884 137.286C454.439 137.622 454.876 138.081 455.193 138.663C455.514 139.241 455.673 139.905 455.669 140.657C455.673 141.409 455.503 142.079 455.159 142.669C454.819 143.258 454.347 143.723 453.742 144.063C453.142 144.399 452.452 144.567 451.674 144.567ZM459.545 142.822L459.46 143.439C459.403 143.893 459.307 144.365 459.171 144.856C459.038 145.351 458.901 145.81 458.757 146.233C458.617 146.656 458.502 146.992 458.411 147.241H457.21C457.259 147.007 457.327 146.69 457.414 146.289C457.501 145.893 457.586 145.449 457.669 144.958C457.752 144.467 457.815 143.966 457.856 143.456L457.913 142.822H459.545ZM465.558 144.567C464.848 144.567 464.209 144.431 463.643 144.159C463.08 143.883 462.63 143.505 462.294 143.026C461.958 142.546 461.779 141.998 461.756 141.382H463.456C463.497 141.881 463.718 142.291 464.119 142.612C464.519 142.933 464.999 143.094 465.558 143.094C466.004 143.094 466.398 142.992 466.742 142.788C467.09 142.58 467.362 142.295 467.558 141.932C467.758 141.569 467.858 141.156 467.858 140.691C467.858 140.219 467.756 139.798 467.552 139.428C467.348 139.057 467.067 138.767 466.708 138.555C466.353 138.343 465.945 138.236 465.484 138.232C465.133 138.232 464.78 138.292 464.425 138.413C464.07 138.534 463.783 138.693 463.563 138.889L461.96 138.651L462.612 132.804H468.992V134.305H464.068L463.699 137.552H463.767C463.994 137.333 464.294 137.15 464.668 137.002C465.046 136.855 465.45 136.781 465.881 136.781C466.587 136.781 467.216 136.95 467.768 137.286C468.323 137.622 468.759 138.081 469.077 138.663C469.398 139.241 469.556 139.905 469.553 140.657C469.556 141.409 469.386 142.079 469.043 142.669C468.703 143.258 468.231 143.723 467.626 144.063C467.026 144.399 466.336 144.567 465.558 144.567ZM475.674 144.567C475.156 144.559 474.646 144.465 474.144 144.284C473.645 144.102 473.192 143.8 472.784 143.377C472.376 142.954 472.049 142.385 471.804 141.671C471.562 140.957 471.441 140.066 471.441 138.997C471.441 137.985 471.541 137.086 471.741 136.3C471.945 135.514 472.238 134.851 472.619 134.311C473.001 133.767 473.462 133.353 474.002 133.07C474.542 132.787 475.149 132.645 475.821 132.645C476.512 132.645 477.126 132.781 477.662 133.053C478.199 133.325 478.633 133.701 478.966 134.181C479.302 134.66 479.515 135.206 479.606 135.818H477.878C477.761 135.335 477.528 134.94 477.181 134.634C476.833 134.328 476.38 134.175 475.821 134.175C474.971 134.175 474.308 134.545 473.832 135.286C473.36 136.026 473.122 137.055 473.118 138.374H473.203C473.403 138.045 473.649 137.765 473.94 137.535C474.234 137.301 474.563 137.121 474.926 136.997C475.292 136.868 475.677 136.804 476.082 136.804C476.754 136.804 477.362 136.968 477.906 137.297C478.454 137.622 478.89 138.071 479.215 138.646C479.54 139.22 479.702 139.877 479.702 140.617C479.702 141.358 479.534 142.028 479.198 142.629C478.866 143.23 478.397 143.706 477.793 144.057C477.188 144.404 476.482 144.574 475.674 144.567ZM475.668 143.094C476.114 143.094 476.512 142.984 476.864 142.765C477.215 142.546 477.492 142.251 477.696 141.881C477.9 141.511 478.002 141.097 478.002 140.64C478.002 140.194 477.902 139.788 477.702 139.422C477.506 139.055 477.234 138.765 476.886 138.549C476.542 138.334 476.15 138.226 475.708 138.226C475.371 138.226 475.06 138.291 474.773 138.419C474.489 138.547 474.24 138.725 474.025 138.952C473.809 139.178 473.639 139.439 473.515 139.734C473.394 140.024 473.333 140.332 473.333 140.657C473.333 141.092 473.434 141.494 473.634 141.864C473.838 142.234 474.115 142.533 474.467 142.759C474.822 142.982 475.222 143.094 475.668 143.094ZM485.806 144.601C484.911 144.597 484.146 144.361 483.511 143.893C482.877 143.424 482.391 142.742 482.055 141.847C481.719 140.952 481.551 139.873 481.551 138.612C481.551 137.354 481.719 136.279 482.055 135.388C482.395 134.496 482.882 133.816 483.517 133.348C484.155 132.879 484.919 132.645 485.806 132.645C486.694 132.645 487.455 132.881 488.09 133.353C488.724 133.822 489.21 134.502 489.546 135.393C489.886 136.281 490.056 137.354 490.056 138.612C490.056 139.877 489.888 140.957 489.552 141.853C489.215 142.744 488.73 143.426 488.095 143.898C487.461 144.367 486.698 144.601 485.806 144.601ZM485.806 143.088C486.592 143.088 487.206 142.705 487.648 141.938C488.094 141.171 488.316 140.062 488.316 138.612C488.316 137.648 488.214 136.834 488.01 136.169C487.81 135.501 487.521 134.995 487.143 134.651C486.77 134.303 486.324 134.13 485.806 134.13C485.024 134.13 484.41 134.515 483.965 135.286C483.519 136.056 483.294 137.165 483.29 138.612C483.29 139.579 483.391 140.397 483.591 141.065C483.795 141.73 484.084 142.234 484.458 142.578C484.832 142.918 485.281 143.088 485.806 143.088ZM495.647 145.859V131.353H496.576V145.859H495.647ZM498.554 135.852C498.493 135.316 498.244 134.9 497.806 134.606C497.368 134.307 496.816 134.158 496.151 134.158C495.675 134.158 495.264 134.234 494.916 134.385C494.569 134.532 494.299 134.736 494.106 134.997C493.917 135.253 493.823 135.546 493.823 135.875C493.823 136.151 493.887 136.389 494.015 136.589C494.147 136.789 494.319 136.957 494.531 137.093C494.746 137.225 494.977 137.337 495.222 137.427C495.468 137.514 495.704 137.586 495.93 137.643L497.064 137.937C497.434 138.028 497.813 138.151 498.203 138.306C498.592 138.461 498.952 138.665 499.285 138.918C499.617 139.171 499.885 139.484 500.089 139.858C500.297 140.232 500.401 140.68 500.401 141.201C500.401 141.858 500.231 142.442 499.891 142.952C499.555 143.462 499.066 143.864 498.424 144.159C497.785 144.454 497.013 144.601 496.106 144.601C495.237 144.601 494.485 144.463 493.851 144.187C493.216 143.911 492.72 143.52 492.361 143.014C492.002 142.504 491.803 141.9 491.766 141.201H493.522C493.556 141.62 493.692 141.97 493.93 142.249C494.172 142.525 494.48 142.731 494.854 142.867C495.232 142.999 495.645 143.065 496.095 143.065C496.59 143.065 497.03 142.988 497.415 142.833C497.804 142.674 498.11 142.455 498.333 142.176C498.556 141.892 498.667 141.562 498.667 141.184C498.667 140.84 498.569 140.559 498.373 140.34C498.18 140.121 497.917 139.939 497.585 139.796C497.256 139.652 496.884 139.526 496.469 139.416L495.097 139.042C494.168 138.789 493.432 138.417 492.888 137.926C492.347 137.435 492.077 136.785 492.077 135.977C492.077 135.308 492.259 134.725 492.621 134.226C492.984 133.727 493.475 133.34 494.095 133.064C494.714 132.785 495.413 132.645 496.191 132.645C496.977 132.645 497.67 132.783 498.271 133.059C498.875 133.334 499.351 133.714 499.698 134.198C500.046 134.677 500.227 135.229 500.242 135.852H498.554Z" fill="black"/>
<path d="M453.472 161.543V152.84H456.575C457.249 152.84 457.808 152.956 458.253 153.188C458.701 153.42 459.035 153.742 459.256 154.153C459.477 154.561 459.588 155.032 459.588 155.568C459.588 156.101 459.476 156.569 459.252 156.975C459.031 157.377 458.697 157.69 458.249 157.914C457.804 158.138 457.245 158.249 456.57 158.249H454.22V157.119H456.451C456.876 157.119 457.222 157.058 457.488 156.936C457.757 156.814 457.954 156.637 458.079 156.405C458.204 156.173 458.266 155.894 458.266 155.568C458.266 155.239 458.202 154.955 458.075 154.714C457.95 154.473 457.753 154.289 457.484 154.161C457.218 154.031 456.868 153.966 456.434 153.966H454.786V161.543H453.472ZM457.769 157.616L459.919 161.543H458.423L456.315 157.616H457.769ZM462.983 161.687C462.569 161.687 462.196 161.611 461.861 161.458C461.527 161.302 461.262 161.077 461.067 160.782C460.874 160.488 460.778 160.126 460.778 159.699C460.778 159.33 460.848 159.027 460.99 158.789C461.132 158.551 461.323 158.363 461.564 158.224C461.805 158.085 462.074 157.98 462.371 157.909C462.669 157.839 462.972 157.785 463.281 157.748C463.672 157.703 463.989 157.666 464.233 157.638C464.476 157.606 464.653 157.557 464.764 157.489C464.874 157.421 464.929 157.31 464.929 157.157V157.128C464.929 156.756 464.825 156.469 464.615 156.265C464.408 156.061 464.099 155.959 463.689 155.959C463.261 155.959 462.924 156.054 462.677 156.244C462.434 156.431 462.265 156.639 462.171 156.868L460.977 156.596C461.119 156.2 461.326 155.88 461.598 155.636C461.873 155.389 462.188 155.211 462.545 155.1C462.902 154.987 463.278 154.93 463.672 154.93C463.932 154.93 464.208 154.962 464.5 155.024C464.795 155.083 465.07 155.194 465.325 155.355C465.583 155.517 465.794 155.748 465.958 156.048C466.122 156.346 466.204 156.732 466.204 157.208V161.543H464.963V160.651H464.912C464.83 160.815 464.707 160.976 464.543 161.135C464.378 161.294 464.167 161.425 463.91 161.53C463.652 161.635 463.343 161.687 462.983 161.687ZM463.259 160.668C463.611 160.668 463.911 160.598 464.16 160.459C464.412 160.32 464.604 160.139 464.734 159.915C464.867 159.689 464.934 159.446 464.934 159.189V158.347C464.888 158.393 464.801 158.435 464.67 158.475C464.543 158.512 464.397 158.544 464.233 158.572C464.068 158.598 463.908 158.622 463.752 158.645C463.597 158.665 463.466 158.682 463.361 158.696C463.115 158.727 462.89 158.779 462.686 158.853C462.485 158.927 462.323 159.033 462.201 159.172C462.082 159.308 462.023 159.489 462.023 159.716C462.023 160.03 462.139 160.268 462.371 160.43C462.603 160.588 462.9 160.668 463.259 160.668ZM470.944 155.015V156.035H467.378V155.015H470.944ZM468.335 153.452H469.605V159.626C469.605 159.873 469.642 160.058 469.716 160.183C469.789 160.305 469.884 160.388 470 160.434C470.119 160.476 470.248 160.498 470.387 160.498C470.489 160.498 470.578 160.49 470.655 160.476C470.731 160.462 470.791 160.451 470.833 160.442L471.063 161.492C470.989 161.52 470.884 161.549 470.748 161.577C470.612 161.608 470.442 161.625 470.238 161.628C469.904 161.634 469.592 161.574 469.303 161.449C469.014 161.325 468.781 161.132 468.602 160.872C468.424 160.611 468.335 160.284 468.335 159.89V153.452ZM472.349 161.543V155.015H473.62V161.543H472.349ZM472.991 154.008C472.77 154.008 472.58 153.935 472.422 153.787C472.266 153.637 472.188 153.459 472.188 153.252C472.188 153.042 472.266 152.864 472.422 152.716C472.58 152.566 472.77 152.491 472.991 152.491C473.212 152.491 473.401 152.566 473.556 152.716C473.715 152.864 473.794 153.042 473.794 153.252C473.794 153.459 473.715 153.637 473.556 153.787C473.401 153.935 473.212 154.008 472.991 154.008ZM476.6 157.667V161.543H475.33V155.015H476.549V156.078H476.63C476.78 155.732 477.015 155.455 477.335 155.245C477.658 155.035 478.065 154.93 478.555 154.93C479 154.93 479.389 155.024 479.724 155.211C480.058 155.395 480.317 155.67 480.501 156.035C480.686 156.401 480.778 156.853 480.778 157.391V161.543H479.507V157.544C479.507 157.071 479.384 156.701 479.137 156.435C478.891 156.166 478.552 156.031 478.122 156.031C477.827 156.031 477.565 156.095 477.335 156.222C477.109 156.35 476.929 156.537 476.796 156.783C476.665 157.027 476.6 157.322 476.6 157.667ZM485.219 164.127C484.7 164.127 484.254 164.059 483.88 163.923C483.509 163.787 483.206 163.607 482.97 163.383C482.735 163.159 482.56 162.914 482.443 162.648L483.536 162.197C483.612 162.322 483.714 162.454 483.842 162.593C483.972 162.734 484.148 162.855 484.369 162.954C484.592 163.053 484.88 163.103 485.231 163.103C485.713 163.103 486.111 162.985 486.425 162.75C486.74 162.518 486.897 162.146 486.897 161.636V160.353H486.816C486.74 160.492 486.629 160.646 486.485 160.816C486.343 160.986 486.148 161.134 485.898 161.258C485.649 161.383 485.325 161.445 484.925 161.445C484.41 161.445 483.945 161.325 483.531 161.084C483.121 160.84 482.795 160.482 482.554 160.009C482.316 159.533 482.197 158.948 482.197 158.254C482.197 157.56 482.315 156.965 482.55 156.469C482.788 155.973 483.113 155.593 483.527 155.33C483.941 155.064 484.41 154.93 484.934 154.93C485.339 154.93 485.666 154.998 485.915 155.134C486.165 155.268 486.359 155.423 486.498 155.602C486.639 155.78 486.748 155.938 486.825 156.074H486.918V155.015H488.164V161.687C488.164 162.248 488.033 162.709 487.773 163.069C487.512 163.428 487.159 163.695 486.714 163.868C486.272 164.04 485.774 164.127 485.219 164.127ZM485.206 160.391C485.571 160.391 485.88 160.306 486.132 160.136C486.387 159.964 486.58 159.717 486.71 159.397C486.843 159.074 486.91 158.687 486.91 158.237C486.91 157.798 486.845 157.411 486.714 157.077C486.584 156.742 486.393 156.482 486.141 156.295C485.889 156.105 485.577 156.01 485.206 156.01C484.823 156.01 484.505 156.109 484.25 156.307C483.995 156.503 483.802 156.769 483.672 157.106C483.544 157.443 483.48 157.82 483.48 158.237C483.48 158.665 483.546 159.04 483.676 159.363C483.806 159.686 483.999 159.938 484.254 160.119C484.512 160.301 484.829 160.391 485.206 160.391ZM494.759 156.609L493.607 156.813C493.559 156.666 493.483 156.526 493.378 156.392C493.276 156.259 493.137 156.15 492.961 156.065C492.786 155.98 492.566 155.938 492.303 155.938C491.943 155.938 491.643 156.018 491.402 156.18C491.161 156.339 491.041 156.544 491.041 156.796C491.041 157.014 491.121 157.19 491.283 157.323C491.444 157.456 491.705 157.565 492.065 157.65L493.102 157.888C493.702 158.027 494.15 158.241 494.445 158.53C494.739 158.819 494.887 159.194 494.887 159.656C494.887 160.047 494.773 160.396 494.547 160.702C494.323 161.005 494.01 161.243 493.607 161.415C493.208 161.588 492.745 161.675 492.218 161.675C491.487 161.675 490.89 161.519 490.429 161.207C489.967 160.893 489.683 160.447 489.579 159.869L490.807 159.682C490.883 160.002 491.041 160.244 491.279 160.408C491.517 160.57 491.827 160.651 492.209 160.651C492.626 160.651 492.959 160.564 493.208 160.391C493.457 160.216 493.582 160.002 493.582 159.75C493.582 159.546 493.505 159.374 493.352 159.235C493.202 159.097 492.971 158.992 492.66 158.921L491.555 158.679C490.946 158.54 490.495 158.319 490.203 158.016C489.914 157.713 489.77 157.329 489.77 156.864C489.77 156.479 489.878 156.142 490.093 155.853C490.308 155.564 490.606 155.338 490.985 155.177C491.365 155.013 491.8 154.93 492.29 154.93C492.995 154.93 493.551 155.083 493.956 155.389C494.361 155.693 494.629 156.099 494.759 156.609Z" fill="black"/>
<ellipse cx="516.698" cy="201.351" rx="11.3936" ry="10.5975" fill="#6640FF"/>
<ellipse cx="516.697" cy="200.291" rx="5.6968" ry="5.29874" fill="white"/>
<g filter="url(#filter1_d_5312_52522)">
<path d="M64 53.4492C64 47.9264 68.4772 43.4492 74 43.4492H357.07C362.593 43.4492 367.07 47.9264 367.07 53.4492V261.295C367.07 266.818 362.593 271.295 357.07 271.295H74C68.4772 271.295 64 266.818 64 261.295V53.4492Z" fill="white"/>
</g>
<path opacity="0.2" d="M141.477 127.978C141.477 125.776 143.262 123.99 145.464 123.99C147.667 123.99 149.452 125.776 149.452 127.978V218.559C149.452 220.761 147.667 222.547 145.464 222.547C143.262 222.547 141.477 220.761 141.477 218.559V127.978Z" fill="#3F4DE1"/>
<path d="M127.938 156.541H328.981" stroke="#ECEEF2" stroke-width="1.99451" stroke-linecap="round" stroke-linejoin="round"/>
<path d="M127.461 190.018H328.504" stroke="#ECEEF2" stroke-width="1.99451" stroke-linecap="round" stroke-linejoin="round"/>
<path d="M127.461 223.057H328.504" stroke="#ECEEF2" stroke-width="1.99451" stroke-linecap="round" stroke-linejoin="round"/>
<path opacity="0.2" d="M169.961 190.503C169.961 188.301 171.746 186.516 173.949 186.516C176.151 186.516 177.936 188.301 177.936 190.503V218.559C177.936 220.762 176.151 222.547 173.949 222.547C171.746 222.547 169.961 220.762 169.961 218.559V190.503Z" fill="#3F4DE1"/>
<path opacity="0.2" d="M197.305 151.292C197.305 149.09 199.09 147.305 201.292 147.305C203.495 147.305 205.28 149.09 205.28 151.292V218.559C205.28 220.761 203.495 222.547 201.292 222.547C199.09 222.547 197.305 220.761 197.305 218.559V151.292Z" fill="#3F4DE1"/>
<path opacity="0.2" d="M225.789 151.292C225.789 149.09 227.574 147.305 229.777 147.305C231.979 147.305 233.765 149.09 233.765 151.292V218.559C233.765 220.761 231.979 222.547 229.777 222.547C227.574 222.547 225.789 220.761 225.789 218.559V151.292Z" fill="#3F4DE1"/>
<path opacity="0.2" d="M253.133 177.787C253.133 175.584 254.918 173.799 257.121 173.799C259.323 173.799 261.108 175.584 261.108 177.787V218.559C261.108 220.762 259.323 222.547 257.121 222.547C254.918 222.547 253.133 220.762 253.133 218.559V177.787Z" fill="#3F4DE1"/>
<path opacity="0.2" d="M281.617 190.503C281.617 188.301 283.403 186.516 285.605 186.516C287.807 186.516 289.593 188.301 289.593 190.503V218.559C289.593 220.762 287.807 222.547 285.605 222.547C283.403 222.547 281.617 220.762 281.617 218.559V190.503Z" fill="#3F4DE1"/>
<path opacity="0.2" d="M308.961 151.292C308.961 149.09 310.746 147.305 312.949 147.305C315.151 147.305 316.936 149.09 316.936 151.292V218.559C316.936 220.761 315.151 222.547 312.949 222.547C310.746 222.547 308.961 220.761 308.961 218.559V151.292Z" fill="#3F4DE1"/>
<path d="M141.477 145.994C141.477 143.791 143.262 142.006 145.464 142.006C147.667 142.006 149.452 143.791 149.452 145.994V218.559C149.452 220.761 147.667 222.547 145.464 222.547C143.262 222.547 141.477 220.761 141.477 218.559V145.994Z" fill="#3F4DE1"/>
<path d="M169.961 201.101C169.961 198.899 171.746 197.113 173.949 197.113C176.151 197.113 177.936 198.899 177.936 201.101V219.619C177.936 221.822 176.151 223.607 173.949 223.607C171.746 223.607 169.961 221.822 169.961 219.619V201.101Z" fill="#3F4DE1"/>
<path d="M197.305 174.607C197.305 172.405 199.09 170.619 201.292 170.619C203.495 170.619 205.28 172.405 205.28 174.607V219.619C205.28 221.821 203.495 223.607 201.292 223.607C199.09 223.607 197.305 221.821 197.305 219.619V174.607Z" fill="#3F4DE1"/>
<path d="M225.789 174.607C225.789 172.405 227.574 170.619 229.777 170.619C231.979 170.619 233.765 172.405 233.765 174.607V219.619C233.765 221.821 231.979 223.607 229.777 223.607C227.574 223.607 225.789 221.821 225.789 219.619V174.607Z" fill="#3F4DE1"/>
<path d="M253.133 196.861C253.133 194.658 254.918 192.873 257.121 192.873C259.323 192.873 261.108 194.658 261.108 196.861V218.558C261.108 220.761 259.323 222.546 257.121 222.546C254.918 222.546 253.133 220.761 253.133 218.558V196.861Z" fill="#3F4DE1"/>
<path d="M281.617 210.638C281.617 208.436 283.403 206.65 285.605 206.65C287.807 206.65 289.593 208.436 289.593 210.638V219.619C289.593 221.821 287.807 223.606 285.605 223.606C283.403 223.606 281.617 221.821 281.617 219.619V210.638Z" fill="#3F4DE1"/>
<path d="M308.961 171.427C308.961 169.225 310.746 167.439 312.949 167.439C315.151 167.439 316.936 169.225 316.936 171.427V219.618C316.936 221.821 315.151 223.606 312.949 223.606C310.746 223.606 308.961 221.821 308.961 219.618V171.427Z" fill="#3F4DE1"/>
<path d="M102.221 126.72C101.783 126.72 101.392 126.645 101.048 126.494C100.706 126.343 100.435 126.134 100.235 125.866C100.037 125.596 99.9312 125.284 99.9163 124.929H100.917C100.93 125.122 100.995 125.29 101.112 125.432C101.231 125.573 101.386 125.681 101.577 125.758C101.768 125.834 101.981 125.872 102.214 125.872C102.471 125.872 102.699 125.828 102.896 125.738C103.096 125.649 103.252 125.525 103.365 125.366C103.478 125.204 103.534 125.018 103.534 124.808C103.534 124.589 103.478 124.397 103.365 124.231C103.254 124.063 103.092 123.931 102.877 123.836C102.665 123.74 102.408 123.692 102.106 123.692H101.555V122.889H102.106C102.348 122.889 102.561 122.845 102.743 122.758C102.928 122.671 103.073 122.55 103.177 122.395C103.281 122.238 103.333 122.054 103.333 121.844C103.333 121.642 103.287 121.466 103.196 121.318C103.107 121.167 102.979 121.049 102.814 120.964C102.65 120.879 102.457 120.836 102.233 120.836C102.021 120.836 101.822 120.876 101.637 120.954C101.455 121.031 101.306 121.141 101.191 121.286C101.076 121.428 101.015 121.599 101.006 121.799H100.053C100.064 121.446 100.168 121.136 100.366 120.868C100.565 120.601 100.829 120.391 101.156 120.24C101.483 120.09 101.847 120.014 102.246 120.014C102.665 120.014 103.026 120.096 103.33 120.26C103.636 120.421 103.872 120.637 104.037 120.907C104.205 121.176 104.288 121.472 104.286 121.793C104.288 122.158 104.186 122.468 103.98 122.723C103.776 122.978 103.504 123.149 103.164 123.236V123.287C103.598 123.353 103.933 123.525 104.171 123.804C104.411 124.082 104.53 124.427 104.528 124.84C104.53 125.199 104.431 125.521 104.229 125.805C104.029 126.09 103.756 126.314 103.41 126.478C103.063 126.639 102.667 126.72 102.221 126.72ZM108.006 126.739C107.502 126.737 107.072 126.604 106.715 126.341C106.358 126.077 106.085 125.694 105.896 125.19C105.707 124.687 105.612 124.08 105.612 123.37C105.612 122.663 105.707 122.058 105.896 121.557C106.087 121.055 106.361 120.673 106.718 120.409C107.077 120.146 107.506 120.014 108.006 120.014C108.505 120.014 108.933 120.147 109.29 120.413C109.647 120.676 109.92 121.058 110.109 121.56C110.3 122.059 110.396 122.663 110.396 123.37C110.396 124.082 110.301 124.69 110.112 125.193C109.923 125.695 109.65 126.078 109.293 126.344C108.936 126.607 108.507 126.739 108.006 126.739ZM108.006 125.888C108.448 125.888 108.793 125.673 109.041 125.241C109.292 124.81 109.418 124.186 109.418 123.37C109.418 122.828 109.36 122.371 109.245 121.997C109.133 121.62 108.97 121.336 108.758 121.142C108.547 120.947 108.297 120.849 108.006 120.849C107.566 120.849 107.22 121.066 106.97 121.499C106.719 121.933 106.593 122.556 106.59 123.37C106.59 123.914 106.647 124.374 106.759 124.75C106.874 125.124 107.037 125.408 107.247 125.601C107.457 125.793 107.71 125.888 108.006 125.888ZM113.799 126.739C113.296 126.737 112.865 126.604 112.508 126.341C112.151 126.077 111.878 125.694 111.689 125.19C111.5 124.687 111.406 124.08 111.406 123.37C111.406 122.663 111.5 122.058 111.689 121.557C111.88 121.055 112.155 120.673 112.512 120.409C112.871 120.146 113.3 120.014 113.799 120.014C114.299 120.014 114.727 120.147 115.084 120.413C115.441 120.676 115.714 121.058 115.903 121.56C116.094 122.059 116.19 122.663 116.19 123.37C116.19 124.082 116.095 124.69 115.906 125.193C115.717 125.695 115.444 126.078 115.087 126.344C114.73 126.607 114.301 126.739 113.799 126.739ZM113.799 125.888C114.241 125.888 114.586 125.673 114.835 125.241C115.086 124.81 115.211 124.186 115.211 123.37C115.211 122.828 115.154 122.371 115.039 121.997C114.926 121.62 114.764 121.336 114.551 121.142C114.341 120.947 114.09 120.849 113.799 120.849C113.359 120.849 113.014 121.066 112.763 121.499C112.513 121.933 112.386 122.556 112.384 123.37C112.384 123.914 112.44 124.374 112.553 124.75C112.668 125.124 112.83 125.408 113.041 125.601C113.251 125.793 113.504 125.888 113.799 125.888Z" fill="#A3A3AC"/>
<path d="M99.9482 159.484V158.77L102.157 156.482C102.393 156.233 102.587 156.016 102.74 155.829C102.895 155.639 103.011 155.46 103.088 155.29C103.164 155.12 103.202 154.939 103.202 154.748C103.202 154.531 103.151 154.344 103.049 154.187C102.947 154.028 102.808 153.906 102.632 153.821C102.456 153.733 102.257 153.69 102.036 153.69C101.802 153.69 101.598 153.738 101.424 153.833C101.25 153.929 101.116 154.064 101.022 154.238C100.929 154.412 100.882 154.616 100.882 154.85H99.9418C99.9418 154.453 100.033 154.105 100.216 153.808C100.399 153.51 100.649 153.28 100.968 153.116C101.287 152.95 101.649 152.868 102.055 152.868C102.465 152.868 102.826 152.949 103.139 153.113C103.453 153.275 103.699 153.496 103.875 153.776C104.051 154.054 104.139 154.369 104.139 154.719C104.139 154.962 104.094 155.199 104.002 155.43C103.913 155.662 103.757 155.92 103.534 156.205C103.311 156.487 103.001 156.83 102.603 157.234L101.306 158.592V158.64H104.245V159.484H99.9482ZM107.725 159.593C107.222 159.591 106.791 159.458 106.434 159.194C106.077 158.931 105.804 158.547 105.615 158.044C105.426 157.54 105.331 156.934 105.331 156.224C105.331 155.516 105.426 154.912 105.615 154.41C105.806 153.909 106.08 153.526 106.437 153.263C106.797 152.999 107.226 152.868 107.725 152.868C108.224 152.868 108.653 153 109.01 153.266C109.367 153.53 109.64 153.912 109.829 154.413C110.02 154.913 110.116 155.516 110.116 156.224C110.116 156.936 110.021 157.543 109.832 158.047C109.643 158.548 109.37 158.932 109.013 159.198C108.656 159.461 108.227 159.593 107.725 159.593ZM107.725 158.742C108.167 158.742 108.512 158.526 108.761 158.095C109.012 157.663 109.137 157.04 109.137 156.224C109.137 155.682 109.08 155.224 108.965 154.85C108.852 154.474 108.69 154.189 108.477 153.996C108.267 153.8 108.016 153.703 107.725 153.703C107.285 153.703 106.94 153.919 106.689 154.353C106.439 154.786 106.312 155.41 106.31 156.224C106.31 156.768 106.366 157.228 106.479 157.604C106.594 157.978 106.756 158.262 106.967 158.455C107.177 158.646 107.43 158.742 107.725 158.742ZM113.519 159.593C113.015 159.591 112.585 159.458 112.228 159.194C111.871 158.931 111.598 158.547 111.409 158.044C111.22 157.54 111.125 156.934 111.125 156.224C111.125 155.516 111.22 154.912 111.409 154.41C111.6 153.909 111.874 153.526 112.231 153.263C112.59 152.999 113.019 152.868 113.519 152.868C114.018 152.868 114.446 153 114.803 153.266C115.16 153.53 115.433 153.912 115.622 154.413C115.814 154.913 115.909 155.516 115.909 156.224C115.909 156.936 115.815 157.543 115.626 158.047C115.436 158.548 115.163 158.932 114.806 159.198C114.449 159.461 114.02 159.593 113.519 159.593ZM113.519 158.742C113.961 158.742 114.306 158.526 114.555 158.095C114.805 157.663 114.931 157.04 114.931 156.224C114.931 155.682 114.873 155.224 114.759 154.85C114.646 154.474 114.483 154.189 114.271 153.996C114.061 153.8 113.81 153.703 113.519 153.703C113.079 153.703 112.734 153.919 112.483 154.353C112.232 154.786 112.106 155.41 112.104 156.224C112.104 156.768 112.16 157.228 112.273 157.604C112.387 157.978 112.55 158.262 112.76 158.455C112.971 158.646 113.223 158.742 113.519 158.742Z" fill="#A3A3AC"/>
<path d="M102.425 184.748V191.275H101.437V185.736H101.398L99.8366 186.756V185.812L101.465 184.748H102.425ZM106.463 191.384C105.959 191.382 105.529 191.249 105.172 190.985C104.815 190.722 104.542 190.338 104.353 189.835C104.164 189.331 104.069 188.725 104.069 188.015C104.069 187.307 104.164 186.703 104.353 186.201C104.544 185.7 104.818 185.317 105.175 185.054C105.534 184.79 105.964 184.659 106.463 184.659C106.962 184.659 107.39 184.791 107.747 185.057C108.104 185.321 108.377 185.703 108.567 186.204C108.758 186.704 108.853 187.307 108.853 188.015C108.853 188.727 108.759 189.334 108.57 189.838C108.381 190.339 108.108 190.723 107.751 190.989C107.394 191.252 106.964 191.384 106.463 191.384ZM106.463 190.533C106.905 190.533 107.25 190.317 107.499 189.886C107.75 189.454 107.875 188.831 107.875 188.015C107.875 187.473 107.818 187.015 107.703 186.641C107.59 186.265 107.428 185.98 107.215 185.787C107.005 185.591 106.754 185.494 106.463 185.494C106.023 185.494 105.678 185.71 105.427 186.144C105.176 186.577 105.05 187.201 105.048 188.015C105.048 188.559 105.104 189.019 105.217 189.395C105.331 189.769 105.494 190.053 105.704 190.246C105.915 190.437 106.168 190.533 106.463 190.533ZM112.257 191.384C111.753 191.382 111.323 191.249 110.966 190.985C110.609 190.722 110.336 190.338 110.147 189.835C109.958 189.331 109.863 188.725 109.863 188.015C109.863 187.307 109.958 186.703 110.147 186.201C110.338 185.7 110.612 185.317 110.969 185.054C111.328 184.79 111.757 184.659 112.257 184.659C112.756 184.659 113.184 184.791 113.541 185.057C113.898 185.321 114.171 185.703 114.36 186.204C114.551 186.704 114.647 187.307 114.647 188.015C114.647 188.727 114.552 189.334 114.363 189.838C114.174 190.339 113.901 190.723 113.544 190.989C113.187 191.252 112.758 191.384 112.257 191.384ZM112.257 190.533C112.699 190.533 113.044 190.317 113.292 189.886C113.543 189.454 113.669 188.831 113.669 188.015C113.669 187.473 113.611 187.015 113.496 186.641C113.384 186.265 113.221 185.98 113.009 185.787C112.798 185.591 112.548 185.494 112.257 185.494C111.817 185.494 111.471 185.71 111.221 186.144C110.97 186.577 110.844 187.201 110.841 188.015C110.841 188.559 110.898 189.019 111.01 189.395C111.125 189.769 111.288 190.053 111.498 190.246C111.708 190.437 111.961 190.533 112.257 190.533Z" fill="#A3A3AC"/>
<path d="M104.502 224.237C103.998 224.235 103.568 224.102 103.211 223.839C102.854 223.575 102.581 223.192 102.392 222.688C102.203 222.185 102.108 221.578 102.108 220.868C102.108 220.161 102.203 219.556 102.392 219.055C102.583 218.553 102.857 218.171 103.214 217.907C103.573 217.644 104.003 217.512 104.502 217.512C105.001 217.512 105.429 217.645 105.786 217.911C106.143 218.174 106.416 218.557 106.606 219.058C106.797 219.557 106.892 220.161 106.892 220.868C106.892 221.58 106.798 222.188 106.609 222.691C106.42 223.193 106.147 223.576 105.79 223.842C105.433 224.106 105.003 224.237 104.502 224.237ZM104.502 223.386C104.944 223.386 105.289 223.171 105.538 222.739C105.789 222.308 105.914 221.684 105.914 220.868C105.914 220.327 105.857 219.869 105.742 219.495C105.629 219.119 105.467 218.834 105.254 218.64C105.044 218.445 104.793 218.347 104.502 218.347C104.062 218.347 103.717 218.564 103.466 218.997C103.215 219.431 103.089 220.055 103.087 220.868C103.087 221.412 103.143 221.872 103.256 222.248C103.37 222.622 103.533 222.906 103.743 223.099C103.954 223.291 104.207 223.386 104.502 223.386Z" fill="#9FA2AC"/>
<path d="M142.179 231.102H143.018L144.99 235.918H145.058L147.029 231.102H147.868V236.904H147.211V232.496H147.154L145.341 236.904H144.706L142.893 232.496H142.836V236.904H142.179V231.102Z" fill="#A3A7AF"/>
<path d="M170.346 231.725V231.102H174.698V231.725H172.873V236.904H172.171V231.725H170.346Z" fill="#A3A7AF"/>
<path d="M197.762 236.904L196.436 232.553H197.139L198.079 235.884H198.125L199.054 232.553H199.768L200.686 235.873H200.731L201.672 232.553H202.374L201.048 236.904H200.391L199.439 233.561H199.371L198.419 236.904H197.762Z" fill="#A3A7AF"/>
<path d="M227.315 231.725V231.102H231.667V231.725H229.842V236.904H229.14V231.725H227.315Z" fill="#A3A7AF"/>
<path d="M256.117 236.904V231.102H259.596V231.725H256.819V233.686H259.335V234.309H256.819V236.904H256.117Z" fill="#A3A7AF"/>
<path d="M286.634 232.553C286.6 232.266 286.462 232.043 286.22 231.884C285.978 231.725 285.682 231.646 285.33 231.646C285.073 231.646 284.849 231.688 284.656 231.771C284.465 231.854 284.316 231.968 284.208 232.113C284.103 232.259 284.05 232.424 284.05 232.609C284.05 232.764 284.087 232.897 284.16 233.009C284.236 233.118 284.332 233.21 284.449 233.284C284.566 233.355 284.689 233.415 284.817 233.462C284.946 233.507 285.064 233.544 285.172 233.573L285.761 233.731C285.912 233.771 286.08 233.826 286.265 233.896C286.452 233.965 286.631 234.061 286.801 234.182C286.973 234.301 287.114 234.454 287.226 234.641C287.337 234.828 287.393 235.057 287.393 235.329C287.393 235.643 287.311 235.926 287.146 236.179C286.984 236.432 286.746 236.633 286.432 236.782C286.121 236.932 285.742 237.006 285.296 237.006C284.881 237.006 284.521 236.939 284.217 236.805C283.915 236.671 283.677 236.484 283.503 236.244C283.331 236.004 283.234 235.726 283.211 235.408H283.936C283.955 235.628 284.029 235.809 284.157 235.952C284.288 236.094 284.452 236.2 284.65 236.27C284.851 236.338 285.066 236.372 285.296 236.372C285.564 236.372 285.805 236.328 286.019 236.241C286.232 236.153 286.401 236.03 286.526 235.873C286.651 235.714 286.713 235.529 286.713 235.318C286.713 235.125 286.659 234.968 286.551 234.847C286.444 234.727 286.302 234.628 286.126 234.553C285.951 234.477 285.761 234.411 285.557 234.354L284.843 234.151C284.39 234.02 284.031 233.834 283.766 233.592C283.502 233.351 283.37 233.034 283.37 232.643C283.37 232.318 283.458 232.035 283.633 231.793C283.811 231.55 284.049 231.361 284.347 231.227C284.648 231.091 284.983 231.023 285.353 231.023C285.727 231.023 286.059 231.09 286.35 231.224C286.641 231.356 286.871 231.537 287.041 231.768C287.213 231.998 287.304 232.26 287.313 232.553H286.634Z" fill="#A3A7AF"/>
<path d="M313.977 232.553C313.943 232.266 313.805 232.043 313.564 231.884C313.322 231.725 313.025 231.646 312.674 231.646C312.417 231.646 312.192 231.688 312 231.771C311.809 231.854 311.66 231.968 311.552 232.113C311.446 232.259 311.393 232.424 311.393 232.609C311.393 232.764 311.43 232.897 311.504 233.009C311.58 233.118 311.676 233.21 311.793 233.284C311.91 233.355 312.033 233.415 312.161 233.462C312.29 233.507 312.408 233.544 312.515 233.573L313.105 233.731C313.256 233.771 313.424 233.826 313.609 233.896C313.796 233.965 313.974 234.061 314.144 234.182C314.316 234.301 314.458 234.454 314.569 234.641C314.681 234.828 314.737 235.057 314.737 235.329C314.737 235.643 314.654 235.926 314.49 236.179C314.328 236.432 314.09 236.633 313.776 236.782C313.464 236.932 313.086 237.006 312.64 237.006C312.225 237.006 311.865 236.939 311.561 236.805C311.258 236.671 311.02 236.484 310.847 236.244C310.675 236.004 310.578 235.726 310.555 235.408H311.28C311.299 235.628 311.373 235.809 311.501 235.952C311.631 236.094 311.796 236.2 311.994 236.27C312.194 236.338 312.41 236.372 312.64 236.372C312.908 236.372 313.149 236.328 313.362 236.241C313.576 236.153 313.745 236.03 313.87 235.873C313.994 235.714 314.057 235.529 314.057 235.318C314.057 235.125 314.003 234.968 313.895 234.847C313.787 234.727 313.646 234.628 313.47 234.553C313.294 234.477 313.105 234.411 312.901 234.354L312.187 234.151C311.733 234.02 311.375 233.834 311.11 233.592C310.846 233.351 310.714 233.034 310.714 232.643C310.714 232.318 310.801 232.035 310.977 231.793C311.155 231.55 311.393 231.361 311.691 231.227C311.991 231.091 312.327 231.023 312.697 231.023C313.071 231.023 313.403 231.09 313.694 231.224C313.985 231.356 314.215 231.537 314.385 231.768C314.557 231.998 314.648 232.26 314.657 232.553H313.977Z" fill="#A3A7AF"/>
<path d="M127.461 123.943H328.504" stroke="#EEF0F4" stroke-width="1.99451" stroke-linecap="round" stroke-linejoin="round"/>
<path d="M111.277 85.4457H113.117V92.0795C113.117 92.8066 112.945 93.4462 112.601 93.9982C112.261 94.5502 111.781 94.9815 111.163 95.2922C110.545 95.5996 109.823 95.7533 108.997 95.7533C108.167 95.7533 107.443 95.5996 106.825 95.2922C106.207 94.9815 105.728 94.5502 105.387 93.9982C105.047 93.4462 104.877 92.8066 104.877 92.0795V85.4457H106.716V91.9258C106.716 92.3488 106.808 92.7256 106.994 93.0562C107.182 93.3867 107.446 93.6462 107.787 93.8346C108.127 94.0197 108.531 94.1122 108.997 94.1122C109.463 94.1122 109.866 94.0197 110.206 93.8346C110.55 93.6462 110.814 93.3867 111 93.0562C111.185 92.7256 111.277 92.3488 111.277 91.9258V85.4457ZM121.056 89.9971L119.419 90.1756C119.373 90.0103 119.292 89.855 119.176 89.7096C119.064 89.5641 118.912 89.4468 118.72 89.3575C118.529 89.2683 118.294 89.2237 118.016 89.2237C117.643 89.2237 117.329 89.3047 117.074 89.4666C116.823 89.6286 116.699 89.8385 116.702 90.0963C116.699 90.3177 116.78 90.4979 116.945 90.6367C117.114 90.7755 117.392 90.8896 117.778 90.9788L119.077 91.2564C119.798 91.4118 120.333 91.658 120.684 91.9952C121.037 92.3323 121.216 92.7736 121.219 93.3189C121.216 93.7982 121.075 94.2213 120.798 94.5882C120.523 94.9518 120.142 95.236 119.652 95.441C119.163 95.6459 118.601 95.7483 117.967 95.7483C117.035 95.7483 116.284 95.5533 115.716 95.1633C115.147 94.77 114.809 94.223 114.699 93.5222L116.45 93.3537C116.529 93.6974 116.698 93.9569 116.955 94.1321C117.213 94.3072 117.549 94.3948 117.962 94.3948C118.388 94.3948 118.73 94.3072 118.988 94.1321C119.249 93.9569 119.38 93.7404 119.38 93.4826C119.38 93.2644 119.295 93.0843 119.127 92.9421C118.962 92.8 118.704 92.6909 118.353 92.6149L117.054 92.3422C116.324 92.1902 115.784 91.934 115.433 91.5737C115.083 91.2102 114.909 90.7507 114.913 90.1954C114.909 89.7261 115.037 89.3195 115.294 88.9758C115.556 88.6287 115.917 88.361 116.38 88.1726C116.846 87.9809 117.383 87.885 117.992 87.885C118.884 87.885 119.586 88.0751 120.099 88.4552C120.614 88.8353 120.933 89.3493 121.056 89.9971ZM126.071 95.7483C125.307 95.7483 124.648 95.5897 124.092 95.2724C123.54 94.9518 123.116 94.4989 122.818 93.9139C122.521 93.3256 122.372 92.6331 122.372 91.8365C122.372 91.0532 122.521 90.3657 122.818 89.774C123.119 89.1791 123.539 88.7163 124.077 88.3858C124.616 88.0519 125.249 87.885 125.976 87.885C126.446 87.885 126.889 87.9611 127.305 88.1131C127.725 88.2618 128.095 88.4932 128.416 88.8072C128.74 89.1212 128.994 89.5212 129.179 90.007C129.364 90.4896 129.457 91.0647 129.457 91.7324V92.2827H123.215V91.073H127.736C127.733 90.7292 127.659 90.4235 127.513 90.1558C127.368 89.8847 127.165 89.6715 126.903 89.5162C126.646 89.3608 126.345 89.2832 126.001 89.2832C125.634 89.2832 125.312 89.3724 125.034 89.5509C124.757 89.7261 124.54 89.9575 124.385 90.245C124.233 90.5293 124.155 90.8416 124.152 91.1821V92.2381C124.152 92.681 124.233 93.0611 124.395 93.3784C124.557 93.6924 124.783 93.9337 125.074 94.1023C125.365 94.2676 125.705 94.3502 126.095 94.3502C126.356 94.3502 126.593 94.3138 126.804 94.2411C127.016 94.1651 127.199 94.0544 127.355 93.9089C127.51 93.7635 127.627 93.5834 127.707 93.3685L129.382 93.5569C129.277 93.9998 129.075 94.3866 128.778 94.7171C128.483 95.0443 128.107 95.2988 127.647 95.4806C127.188 95.6591 126.662 95.7483 126.071 95.7483ZM130.975 95.5996V87.9842H132.715V89.2534H132.795C132.934 88.8138 133.172 88.475 133.509 88.237C133.849 87.9958 134.238 87.8751 134.674 87.8751C134.773 87.8751 134.884 87.8801 135.006 87.89C135.132 87.8966 135.236 87.9082 135.318 87.9247V89.5757C135.242 89.5493 135.122 89.5261 134.956 89.5063C134.794 89.4831 134.637 89.4716 134.485 89.4716C134.158 89.4716 133.864 89.5426 133.603 89.6848C133.345 89.8236 133.142 90.017 132.993 90.2648C132.844 90.5127 132.77 90.7987 132.77 91.1226V95.5996H130.975ZM142.53 89.9971L140.894 90.1756C140.847 90.0103 140.766 89.855 140.651 89.7096C140.538 89.5641 140.386 89.4468 140.195 89.3575C140.003 89.2683 139.768 89.2237 139.49 89.2237C139.117 89.2237 138.803 89.3047 138.548 89.4666C138.297 89.6286 138.173 89.8385 138.177 90.0963C138.173 90.3177 138.254 90.4979 138.42 90.6367C138.588 90.7755 138.866 90.8896 139.252 90.9788L140.551 91.2564C141.272 91.4118 141.807 91.658 142.158 91.9952C142.512 92.3323 142.69 92.7736 142.693 93.3189C142.69 93.7982 142.55 94.2213 142.272 94.5882C141.998 94.9518 141.616 95.236 141.127 95.441C140.637 95.6459 140.076 95.7483 139.441 95.7483C138.509 95.7483 137.758 95.5533 137.19 95.1633C136.621 94.77 136.283 94.223 136.174 93.5222L137.924 93.3537C138.003 93.6974 138.172 93.9569 138.429 94.1321C138.687 94.3072 139.023 94.3948 139.436 94.3948C139.862 94.3948 140.204 94.3072 140.462 94.1321C140.723 93.9569 140.854 93.7404 140.854 93.4826C140.854 93.2644 140.77 93.0843 140.601 92.9421C140.436 92.8 140.178 92.6909 139.828 92.6149L138.529 92.3422C137.798 92.1902 137.258 91.934 136.907 91.5737C136.557 91.2102 136.383 90.7507 136.387 90.1954C136.383 89.7261 136.511 89.3195 136.769 88.9758C137.03 88.6287 137.392 88.361 137.854 88.1726C138.32 87.9809 138.858 87.885 139.466 87.885C140.358 87.885 141.06 88.0751 141.573 88.4552C142.088 88.8353 142.407 89.3493 142.53 89.9971ZM149.02 95.5996H147.056L150.631 85.4457H152.902L156.481 95.5996H154.518L151.806 87.5281H151.727L149.02 95.5996ZM149.084 91.6184H154.439V93.0958H149.084V91.6184ZM160.83 95.7483C160.069 95.7483 159.417 95.5814 158.871 95.2476C158.329 94.9138 157.911 94.4527 157.617 93.8643C157.326 93.2727 157.18 92.5918 157.18 91.8216C157.18 91.0482 157.329 90.3657 157.627 89.774C157.924 89.1791 158.344 88.7163 158.886 88.3858C159.431 88.0519 160.076 87.885 160.82 87.885C161.438 87.885 161.985 87.9991 162.461 88.2271C162.94 88.4519 163.322 88.7709 163.606 89.184C163.89 89.5939 164.052 90.0731 164.092 90.6218H162.376C162.307 90.2549 162.142 89.9492 161.881 89.7046C161.623 89.4567 161.277 89.3328 160.844 89.3328C160.478 89.3328 160.155 89.4319 159.878 89.6302C159.6 89.8252 159.383 90.1062 159.228 90.4731C159.076 90.84 159 91.2796 159 91.7919C159 92.3108 159.076 92.757 159.228 93.1305C159.38 93.5007 159.593 93.7867 159.868 93.9883C160.145 94.1866 160.471 94.2858 160.844 94.2858C161.109 94.2858 161.345 94.2362 161.553 94.137C161.765 94.0345 161.942 93.8875 162.084 93.6958C162.226 93.504 162.324 93.271 162.376 92.9967H164.092C164.049 93.5354 163.89 94.0131 163.616 94.4295C163.342 94.8427 162.968 95.1666 162.495 95.4013C162.023 95.6327 161.467 95.7483 160.83 95.7483ZM169.368 87.9842V89.3724H164.99V87.9842H169.368ZM166.071 86.1597H167.866V93.309C167.866 93.5503 167.902 93.7354 167.975 93.8643C168.051 93.9899 168.15 94.0759 168.273 94.1221C168.395 94.1684 168.53 94.1915 168.679 94.1915C168.792 94.1915 168.894 94.1833 168.987 94.1668C169.082 94.1502 169.155 94.1354 169.205 94.1221L169.507 95.5252C169.411 95.5583 169.274 95.5947 169.096 95.6343C168.92 95.674 168.706 95.6971 168.451 95.7037C168.002 95.7169 167.597 95.6492 167.236 95.5005C166.876 95.3484 166.59 95.1137 166.379 94.7964C166.17 94.4791 166.068 94.0825 166.071 93.6065V86.1597ZM170.869 95.5996V87.9842H172.664V95.5996H170.869ZM171.772 86.9034C171.487 86.9034 171.243 86.8092 171.038 86.6208C170.833 86.429 170.731 86.1993 170.731 85.9316C170.731 85.6606 170.833 85.4308 171.038 85.2424C171.243 85.0507 171.487 84.9549 171.772 84.9549C172.059 84.9549 172.304 85.0507 172.506 85.2424C172.71 85.4308 172.813 85.6606 172.813 85.9316C172.813 86.1993 172.71 86.429 172.506 86.6208C172.304 86.8092 172.059 86.9034 171.772 86.9034ZM181.312 87.9842L178.6 95.5996H176.617L173.905 87.9842H175.819L177.569 93.6412H177.648L179.403 87.9842H181.312ZM182.554 95.5996V87.9842H184.349V95.5996H182.554ZM183.456 86.9034C183.172 86.9034 182.928 86.8092 182.723 86.6208C182.518 86.429 182.415 86.1993 182.415 85.9316C182.415 85.6606 182.518 85.4308 182.723 85.2424C182.928 85.0507 183.172 84.9549 183.456 84.9549C183.744 84.9549 183.989 85.0507 184.19 85.2424C184.395 85.4308 184.498 85.6606 184.498 85.9316C184.498 86.1993 184.395 86.429 184.19 86.6208C183.989 86.8092 183.744 86.9034 183.456 86.9034ZM189.997 87.9842V89.3724H185.619V87.9842H189.997ZM186.7 86.1597H188.495V93.309C188.495 93.5503 188.531 93.7354 188.604 93.8643C188.68 93.9899 188.779 94.0759 188.901 94.1221C189.024 94.1684 189.159 94.1915 189.308 94.1915C189.42 94.1915 189.523 94.1833 189.615 94.1668C189.711 94.1502 189.784 94.1354 189.834 94.1221L190.136 95.5252C190.04 95.5583 189.903 95.5947 189.724 95.6343C189.549 95.674 189.334 95.6971 189.08 95.7037C188.63 95.7169 188.226 95.6492 187.865 95.5005C187.505 95.3484 187.219 95.1137 187.008 94.7964C186.799 94.4791 186.697 94.0825 186.7 93.6065V86.1597ZM192.614 98.4554C192.369 98.4554 192.143 98.4356 191.934 98.3959C191.73 98.3595 191.566 98.3166 191.444 98.267L191.86 96.8688C192.121 96.9449 192.354 96.9812 192.559 96.9779C192.764 96.9746 192.944 96.9102 193.1 96.7846C193.258 96.6623 193.392 96.4573 193.501 96.1698L193.655 95.7583L190.893 87.9842H192.797L194.552 93.7354H194.632L196.392 87.9842H198.301L195.251 96.5218C195.109 96.925 194.921 97.2704 194.686 97.558C194.451 97.8489 194.164 98.0703 193.823 98.2224C193.486 98.3777 193.083 98.4554 192.614 98.4554Z" fill="black"/>
<path d="M261.687 81.6535V80.7185H268.215V81.6535H265.478V89.4219H264.424V81.6535H261.687ZM270.708 85.4952V89.4219H269.705V80.7185H270.708V83.9143H270.793C270.946 83.5772 271.176 83.3094 271.482 83.1111C271.791 82.91 272.201 82.8094 272.714 82.8094C273.159 82.8094 273.549 82.8986 273.883 83.0771C274.217 83.2528 274.476 83.5233 274.661 83.8888C274.848 84.2514 274.941 84.7132 274.941 85.2742V89.4219H273.938V85.3422C273.938 84.8237 273.804 84.4228 273.534 84.1395C273.268 83.8534 272.898 83.7103 272.425 83.7103C272.097 83.7103 271.802 83.7797 271.541 83.9185C271.283 84.0574 271.079 84.2599 270.929 84.5262C270.782 84.7926 270.708 85.1155 270.708 85.4952ZM276.776 89.4219V82.8944H277.779V89.4219H276.776ZM277.286 81.8065C277.09 81.8065 276.922 81.7399 276.78 81.6067C276.641 81.4736 276.572 81.3135 276.572 81.1265C276.572 80.9395 276.641 80.7794 276.78 80.6463C276.922 80.5131 277.09 80.4466 277.286 80.4466C277.481 80.4466 277.648 80.5131 277.787 80.6463C277.929 80.7794 278 80.9395 278 81.1265C278 81.3135 277.929 81.4736 277.787 81.6067C277.648 81.7399 277.481 81.8065 277.286 81.8065ZM284.239 84.3563L283.338 84.6112C283.282 84.4611 283.198 84.3152 283.088 84.1735C282.98 84.029 282.833 83.91 282.646 83.8166C282.459 83.7231 282.219 83.6763 281.927 83.6763C281.528 83.6763 281.195 83.7684 280.929 83.9525C280.665 84.1339 280.534 84.3648 280.534 84.6452C280.534 84.8946 280.624 85.0915 280.806 85.2359C280.987 85.3804 281.27 85.5008 281.656 85.5972L282.624 85.8351C283.208 85.9768 283.643 86.1935 283.929 86.4853C284.215 86.7743 284.358 87.1469 284.358 87.603C284.358 87.977 284.251 88.3113 284.035 88.6059C283.823 88.9006 283.525 89.1329 283.143 89.3029C282.76 89.4729 282.316 89.5579 281.808 89.5579C281.143 89.5579 280.592 89.4134 280.155 89.1244C279.719 88.8354 279.443 88.4133 279.327 87.858L280.279 87.62C280.369 87.9713 280.541 88.2348 280.793 88.4105C281.048 88.5861 281.381 88.6739 281.791 88.6739C282.259 88.6739 282.63 88.5748 282.905 88.3765C283.183 88.1753 283.321 87.9345 283.321 87.654C283.321 87.4274 283.242 87.2375 283.083 87.0846C282.925 86.9287 282.681 86.8126 282.352 86.7361L281.265 86.4811C280.667 86.3394 280.228 86.1199 279.947 85.8224C279.669 85.5221 279.531 85.1467 279.531 84.6962C279.531 84.3279 279.634 84.0021 279.841 83.7188C280.051 83.4355 280.335 83.2131 280.695 83.0516C281.058 82.8901 281.469 82.8094 281.927 82.8094C282.573 82.8094 283.081 82.951 283.449 83.2343C283.82 83.5177 284.083 83.8916 284.239 84.3563ZM290.951 89.4219L288.571 80.7185H289.642L291.461 87.807H291.546L293.398 80.7185H294.588L296.441 87.807H296.526L298.345 80.7185H299.416L297.036 89.4219H295.948L294.027 82.4864H293.959L292.039 89.4219H290.951ZM302.722 89.5579C302.093 89.5579 301.551 89.419 301.095 89.1414C300.641 88.8609 300.291 88.4699 300.045 87.9685C299.801 87.4642 299.679 86.8777 299.679 86.2091C299.679 85.5405 299.801 84.9512 300.045 84.4413C300.291 83.9285 300.634 83.529 301.073 83.2428C301.515 82.9539 302.031 82.8094 302.62 82.8094C302.96 82.8094 303.296 82.866 303.627 82.9794C303.959 83.0927 304.261 83.2768 304.533 83.5318C304.805 83.784 305.021 84.1183 305.183 84.5347C305.344 84.9512 305.425 85.464 305.425 86.0731V86.4981H300.393V85.6312H304.405C304.405 85.2629 304.331 84.9342 304.184 84.6452C304.04 84.3563 303.833 84.1282 303.564 83.961C303.297 83.7939 302.983 83.7103 302.62 83.7103C302.221 83.7103 301.875 83.8095 301.583 84.0078C301.294 84.2033 301.072 84.4583 300.916 84.7727C300.76 85.0872 300.682 85.4243 300.682 85.7842V86.3621C300.682 86.8551 300.767 87.273 300.937 87.6158C301.11 87.9557 301.35 88.215 301.656 88.3935C301.962 88.5691 302.317 88.6569 302.722 88.6569C302.986 88.6569 303.224 88.6201 303.436 88.5464C303.651 88.4699 303.837 88.3566 303.993 88.2065C304.149 88.0535 304.269 87.8637 304.354 87.637L305.323 87.909C305.221 88.2376 305.05 88.5266 304.809 88.7759C304.568 89.0224 304.271 89.2151 303.916 89.3539C303.562 89.4899 303.164 89.5579 302.722 89.5579ZM309.687 89.5579C309.058 89.5579 308.516 89.419 308.06 89.1414C307.607 88.8609 307.257 88.4699 307.01 87.9685C306.766 87.4642 306.645 86.8777 306.645 86.2091C306.645 85.5405 306.766 84.9512 307.01 84.4413C307.257 83.9285 307.599 83.529 308.039 83.2428C308.481 82.9539 308.996 82.8094 309.585 82.8094C309.925 82.8094 310.261 82.866 310.593 82.9794C310.924 83.0927 311.226 83.2768 311.498 83.5318C311.77 83.784 311.987 84.1183 312.148 84.5347C312.309 84.9512 312.39 85.464 312.39 86.0731V86.4981H307.359V85.6312H311.37C311.37 85.2629 311.297 84.9342 311.149 84.6452C311.005 84.3563 310.798 84.1282 310.529 83.961C310.263 83.7939 309.948 83.7103 309.585 83.7103C309.186 83.7103 308.84 83.8095 308.549 84.0078C308.26 84.2033 308.037 84.4583 307.881 84.7727C307.725 85.0872 307.648 85.4243 307.648 85.7842V86.3621C307.648 86.8551 307.733 87.273 307.903 87.6158C308.075 87.9557 308.315 88.215 308.621 88.3935C308.927 88.5691 309.282 88.6569 309.687 88.6569C309.951 88.6569 310.189 88.6201 310.401 88.5464C310.617 88.4699 310.802 88.3566 310.958 88.2065C311.114 88.0535 311.234 87.8637 311.319 87.637L312.288 87.909C312.186 88.2376 312.015 88.5266 311.774 88.7759C311.533 89.0224 311.236 89.2151 310.882 89.3539C310.527 89.4899 310.129 89.5579 309.687 89.5579ZM314.851 87.0421L314.834 85.8012H315.038L317.894 82.8944H319.134L316.092 85.9711H316.007L314.851 87.0421ZM313.916 89.4219V80.7185H314.919V89.4219H313.916ZM318.064 89.4219L315.514 86.1921L316.228 85.4952L319.338 89.4219H318.064Z" fill="#9197A0"/>
<path d="M337.885 91.023C337.96 91.0891 338.073 91.0891 338.148 91.023L343.046 86.7191C343.184 86.5977 343.098 86.3698 342.914 86.3698H333.119C332.935 86.3698 332.849 86.5976 332.987 86.7191L337.885 91.023Z" fill="#B8BDC9"/>
<g filter="url(#filter2_d_5312_52522)">
<path d="M396 287C396 281.477 400.477 277 406 277H650C655.523 277 660 281.477 660 287V365C660 370.523 655.523 375 650 375H406C400.477 375 396 370.523 396 365V287Z" fill="white"/>
</g>
<circle opacity="0.2" cx="441" cy="321" r="20" fill="#3F4DE1"/>
<path d="M477.054 348V339.297H482.307V340.232H478.108V343.172H482.035V344.107H478.108V347.065H482.375V348H477.054ZM485.991 348.153C485.577 348.153 485.202 348.075 484.865 347.919C484.528 347.761 484.26 347.533 484.062 347.235C483.863 346.935 483.764 346.572 483.764 346.147C483.764 345.773 483.838 345.47 483.985 345.238C484.132 345.003 484.329 344.818 484.576 344.685C484.822 344.552 485.094 344.453 485.392 344.388C485.692 344.32 485.994 344.266 486.297 344.226C486.694 344.175 487.015 344.137 487.262 344.112C487.511 344.083 487.692 344.036 487.806 343.971C487.922 343.906 487.98 343.793 487.98 343.631V343.597C487.98 343.178 487.865 342.852 487.636 342.62C487.409 342.388 487.065 342.271 486.603 342.271C486.124 342.271 485.749 342.376 485.477 342.586C485.205 342.796 485.014 343.019 484.903 343.257L483.951 342.917C484.121 342.521 484.348 342.212 484.631 341.991C484.917 341.767 485.229 341.611 485.566 341.523C485.906 341.433 486.24 341.388 486.569 341.388C486.779 341.388 487.019 341.413 487.291 341.464C487.566 341.512 487.831 341.613 488.086 341.766C488.344 341.919 488.558 342.15 488.728 342.458C488.898 342.767 488.983 343.181 488.983 343.699V348H487.98V347.116H487.929C487.861 347.258 487.748 347.409 487.589 347.571C487.43 347.732 487.219 347.87 486.956 347.983C486.692 348.096 486.371 348.153 485.991 348.153ZM486.144 347.252C486.541 347.252 486.875 347.174 487.147 347.018C487.422 346.863 487.629 346.661 487.767 346.415C487.909 346.168 487.98 345.909 487.98 345.637V344.719C487.937 344.77 487.844 344.817 487.699 344.859C487.558 344.899 487.393 344.935 487.206 344.966C487.022 344.994 486.842 345.02 486.667 345.042C486.494 345.062 486.354 345.079 486.246 345.093C485.985 345.127 485.742 345.182 485.515 345.259C485.291 345.333 485.11 345.445 484.971 345.595C484.835 345.742 484.767 345.943 484.767 346.198C484.767 346.547 484.896 346.81 485.154 346.989C485.414 347.164 485.745 347.252 486.144 347.252ZM490.813 348V341.472H491.782V342.458H491.85C491.969 342.135 492.185 341.873 492.496 341.672C492.808 341.471 493.159 341.371 493.55 341.371C493.624 341.371 493.716 341.372 493.826 341.375C493.937 341.378 494.02 341.382 494.077 341.388V342.407C494.043 342.399 493.965 342.386 493.843 342.369C493.724 342.349 493.598 342.339 493.465 342.339C493.148 342.339 492.864 342.406 492.615 342.539C492.369 342.669 492.173 342.851 492.029 343.083C491.887 343.313 491.816 343.575 491.816 343.869V348H490.813ZM496.269 344.073V348H495.266V341.472H496.235V342.492H496.32C496.473 342.161 496.705 341.895 497.017 341.693C497.328 341.489 497.731 341.388 498.224 341.388C498.666 341.388 499.052 341.478 499.384 341.659C499.715 341.838 499.973 342.11 500.157 342.475C500.341 342.838 500.434 343.297 500.434 343.852V348H499.431V343.92C499.431 343.408 499.297 343.008 499.031 342.722C498.765 342.433 498.399 342.288 497.935 342.288C497.615 342.288 497.328 342.358 497.076 342.497C496.827 342.635 496.63 342.838 496.486 343.104C496.341 343.371 496.269 343.694 496.269 344.073ZM505.003 348.136C504.374 348.136 503.831 347.997 503.375 347.72C502.922 347.439 502.572 347.048 502.326 346.547C502.082 346.042 501.96 345.456 501.96 344.787C501.96 344.119 502.082 343.529 502.326 343.019C502.572 342.507 502.915 342.107 503.354 341.821C503.796 341.532 504.312 341.388 504.901 341.388C505.241 341.388 505.577 341.444 505.908 341.557C506.24 341.671 506.541 341.855 506.813 342.11C507.085 342.362 507.302 342.696 507.464 343.113C507.625 343.529 507.706 344.042 507.706 344.651V345.076H502.674V344.209H506.686C506.686 343.841 506.612 343.512 506.465 343.223C506.32 342.934 506.114 342.706 505.844 342.539C505.578 342.372 505.264 342.288 504.901 342.288C504.502 342.288 504.156 342.388 503.864 342.586C503.575 342.781 503.353 343.036 503.197 343.351C503.041 343.665 502.963 344.002 502.963 344.362V344.94C502.963 345.433 503.048 345.851 503.218 346.194C503.391 346.534 503.63 346.793 503.936 346.972C504.242 347.147 504.598 347.235 505.003 347.235C505.266 347.235 505.504 347.198 505.717 347.125C505.932 347.048 506.118 346.935 506.274 346.785C506.429 346.632 506.55 346.442 506.635 346.215L507.604 346.487C507.502 346.816 507.33 347.105 507.09 347.354C506.849 347.601 506.551 347.793 506.197 347.932C505.843 348.068 505.445 348.136 505.003 348.136ZM511.696 348.136C511.152 348.136 510.672 347.999 510.256 347.724C509.839 347.446 509.513 347.055 509.278 346.551C509.043 346.044 508.925 345.445 508.925 344.753C508.925 344.068 509.043 343.473 509.278 342.968C509.513 342.464 509.841 342.075 510.26 341.8C510.679 341.525 511.164 341.388 511.713 341.388C512.138 341.388 512.474 341.458 512.72 341.6C512.97 341.739 513.16 341.897 513.29 342.076C513.423 342.252 513.526 342.396 513.6 342.509H513.685V339.297H514.688V348H513.719V346.997H513.6C513.526 347.116 513.422 347.266 513.286 347.448C513.15 347.626 512.956 347.786 512.703 347.928C512.451 348.067 512.116 348.136 511.696 348.136ZM511.832 347.235C512.235 347.235 512.574 347.13 512.852 346.921C513.13 346.708 513.341 346.415 513.485 346.041C513.63 345.664 513.702 345.229 513.702 344.736C513.702 344.249 513.631 343.823 513.49 343.457C513.348 343.089 513.138 342.803 512.861 342.599C512.583 342.392 512.24 342.288 511.832 342.288C511.407 342.288 511.053 342.398 510.77 342.616C510.489 342.831 510.278 343.124 510.137 343.495C509.998 343.864 509.928 344.277 509.928 344.736C509.928 345.201 509.999 345.623 510.141 346.003C510.285 346.379 510.498 346.68 510.778 346.904C511.062 347.125 511.413 347.235 511.832 347.235ZM522.869 341.472V342.322H519.486V341.472H522.869ZM520.472 339.909H521.475V346.13C521.475 346.413 521.516 346.626 521.598 346.768C521.683 346.906 521.791 347 521.921 347.048C522.054 347.093 522.194 347.116 522.342 347.116C522.452 347.116 522.543 347.11 522.614 347.099C522.684 347.085 522.741 347.074 522.784 347.065L522.988 347.966C522.92 347.992 522.825 348.017 522.703 348.042C522.581 348.071 522.427 348.085 522.24 348.085C521.956 348.085 521.679 348.024 521.407 347.902C521.138 347.78 520.914 347.595 520.735 347.346C520.56 347.096 520.472 346.782 520.472 346.402V339.909ZM525.52 344.073V348H524.517V339.297H525.52V342.492H525.605C525.758 342.155 525.988 341.888 526.294 341.689C526.603 341.488 527.013 341.388 527.526 341.388C527.971 341.388 528.361 341.477 528.695 341.655C529.029 341.831 529.288 342.101 529.473 342.467C529.66 342.83 529.753 343.291 529.753 343.852V348H528.75V343.92C528.75 343.402 528.616 343.001 528.346 342.718C528.08 342.432 527.71 342.288 527.237 342.288C526.909 342.288 526.614 342.358 526.353 342.497C526.096 342.635 525.892 342.838 525.741 343.104C525.594 343.371 525.52 343.694 525.52 344.073ZM531.588 348V341.472H532.591V348H531.588ZM532.098 340.385C531.902 340.385 531.734 340.318 531.592 340.185C531.453 340.052 531.384 339.892 531.384 339.705C531.384 339.518 531.453 339.358 531.592 339.224C531.734 339.091 531.902 339.025 532.098 339.025C532.293 339.025 532.46 339.091 532.599 339.224C532.741 339.358 532.812 339.518 532.812 339.705C532.812 339.892 532.741 340.052 532.599 340.185C532.46 340.318 532.293 340.385 532.098 340.385ZM539.051 342.934L538.15 343.189C538.094 343.039 538.01 342.893 537.9 342.752C537.792 342.607 537.645 342.488 537.458 342.395C537.271 342.301 537.031 342.254 536.74 342.254C536.34 342.254 536.007 342.347 535.741 342.531C535.477 342.712 535.346 342.943 535.346 343.223C535.346 343.473 535.436 343.67 535.618 343.814C535.799 343.959 536.082 344.079 536.468 344.175L537.437 344.413C538.02 344.555 538.455 344.772 538.741 345.063C539.027 345.352 539.17 345.725 539.17 346.181C539.17 346.555 539.063 346.889 538.847 347.184C538.635 347.479 538.337 347.711 537.955 347.881C537.573 348.051 537.128 348.136 536.621 348.136C535.955 348.136 535.404 347.992 534.967 347.703C534.531 347.414 534.255 346.991 534.139 346.436L535.091 346.198C535.181 346.549 535.353 346.813 535.605 346.989C535.86 347.164 536.193 347.252 536.604 347.252C537.071 347.252 537.442 347.153 537.717 346.955C537.995 346.753 538.133 346.513 538.133 346.232C538.133 346.005 538.054 345.816 537.895 345.663C537.737 345.507 537.493 345.391 537.165 345.314L536.077 345.059C535.479 344.918 535.04 344.698 534.759 344.401C534.482 344.1 534.343 343.725 534.343 343.274C534.343 342.906 534.446 342.58 534.653 342.297C534.863 342.014 535.147 341.791 535.507 341.63C535.87 341.468 536.281 341.388 536.74 341.388C537.386 341.388 537.893 341.529 538.261 341.812C538.632 342.096 538.896 342.47 539.051 342.934ZM544.046 348V341.472H545.015V342.492H545.1C545.236 342.144 545.455 341.873 545.758 341.681C546.062 341.485 546.426 341.388 546.851 341.388C547.281 341.388 547.64 341.485 547.926 341.681C548.215 341.873 548.44 342.144 548.601 342.492H548.669C548.837 342.155 549.087 341.888 549.422 341.689C549.756 341.488 550.157 341.388 550.624 341.388C551.208 341.388 551.685 341.57 552.056 341.936C552.428 342.298 552.613 342.864 552.613 343.631V348H551.61V343.631C551.61 343.15 551.479 342.805 551.215 342.599C550.952 342.392 550.641 342.288 550.284 342.288C549.825 342.288 549.47 342.427 549.218 342.705C548.966 342.98 548.839 343.328 548.839 343.75V348H547.82V343.529C547.82 343.158 547.699 342.859 547.458 342.633C547.217 342.403 546.907 342.288 546.528 342.288C546.267 342.288 546.023 342.358 545.797 342.497C545.573 342.635 545.392 342.828 545.253 343.075C545.117 343.318 545.049 343.6 545.049 343.92V348H544.046ZM557.099 348.136C556.509 348.136 555.992 347.996 555.548 347.715C555.106 347.435 554.76 347.042 554.511 346.538C554.264 346.034 554.141 345.445 554.141 344.77C554.141 344.09 554.264 343.497 554.511 342.99C554.76 342.483 555.106 342.089 555.548 341.808C555.992 341.528 556.509 341.388 557.099 341.388C557.688 341.388 558.204 341.528 558.646 341.808C559.09 342.089 559.436 342.483 559.683 342.99C559.932 343.497 560.056 344.09 560.056 344.77C560.056 345.445 559.932 346.034 559.683 346.538C559.436 347.042 559.09 347.435 558.646 347.715C558.204 347.996 557.688 348.136 557.099 348.136ZM557.099 347.235C557.546 347.235 557.915 347.12 558.204 346.891C558.493 346.661 558.706 346.36 558.845 345.986C558.984 345.612 559.054 345.207 559.054 344.77C559.054 344.334 558.984 343.927 558.845 343.551C558.706 343.174 558.493 342.869 558.204 342.637C557.915 342.405 557.546 342.288 557.099 342.288C556.651 342.288 556.283 342.405 555.994 342.637C555.705 342.869 555.491 343.174 555.352 343.551C555.213 343.927 555.144 344.334 555.144 344.77C555.144 345.207 555.213 345.612 555.352 345.986C555.491 346.36 555.705 346.661 555.994 346.891C556.283 347.12 556.651 347.235 557.099 347.235ZM562.59 344.073V348H561.587V341.472H562.556V342.492H562.641C562.794 342.161 563.027 341.895 563.338 341.693C563.65 341.489 564.052 341.388 564.545 341.388C564.987 341.388 565.374 341.478 565.705 341.659C566.037 341.838 566.295 342.11 566.479 342.475C566.663 342.838 566.755 343.297 566.755 343.852V348H565.752V343.92C565.752 343.408 565.619 343.008 565.353 342.722C565.086 342.433 564.721 342.288 564.256 342.288C563.936 342.288 563.65 342.358 563.398 342.497C563.148 342.635 562.952 342.838 562.807 343.104C562.663 343.371 562.59 343.694 562.59 344.073ZM571.426 341.472V342.322H568.044V341.472H571.426ZM569.03 339.909H570.033V346.13C570.033 346.413 570.074 346.626 570.156 346.768C570.241 346.906 570.348 347 570.479 347.048C570.612 347.093 570.752 347.116 570.9 347.116C571.01 347.116 571.101 347.11 571.172 347.099C571.242 347.085 571.299 347.074 571.341 347.065L571.545 347.966C571.477 347.992 571.383 348.017 571.261 348.042C571.139 348.071 570.985 348.085 570.798 348.085C570.514 348.085 570.237 348.024 569.965 347.902C569.695 347.78 569.472 347.595 569.293 347.346C569.118 347.096 569.03 346.782 569.03 346.402V339.909ZM574.078 344.073V348H573.075V339.297H574.078V342.492H574.163C574.316 342.155 574.546 341.888 574.852 341.689C575.161 341.488 575.571 341.388 576.084 341.388C576.529 341.388 576.918 341.477 577.253 341.655C577.587 341.831 577.846 342.101 578.03 342.467C578.217 342.83 578.311 343.291 578.311 343.852V348H577.308V343.92C577.308 343.402 577.173 343.001 576.904 342.718C576.638 342.432 576.268 342.288 575.795 342.288C575.467 342.288 575.172 342.358 574.911 342.497C574.653 342.635 574.449 342.838 574.299 343.104C574.152 343.371 574.078 343.694 574.078 344.073Z" fill="#90969F"/>
<path d="M481.444 323.632V307.313H482.489V323.632H481.444ZM484.217 312.7C484.166 312.185 483.947 311.786 483.56 311.501C483.173 311.216 482.649 311.074 481.986 311.074C481.535 311.074 481.155 311.138 480.845 311.265C480.534 311.389 480.296 311.561 480.131 311.782C479.969 312.003 479.888 312.253 479.888 312.534C479.88 312.768 479.929 312.972 480.035 313.146C480.146 313.32 480.296 313.471 480.488 313.598C480.679 313.722 480.9 313.83 481.151 313.923C481.401 314.013 481.669 314.089 481.954 314.153L483.127 314.433C483.696 314.561 484.219 314.731 484.695 314.943C485.171 315.156 485.583 315.417 485.931 315.727C486.28 316.038 486.55 316.403 486.741 316.824C486.937 317.245 487.036 317.727 487.041 318.271C487.036 319.07 486.832 319.763 486.429 320.349C486.029 320.931 485.451 321.384 484.695 321.707C483.943 322.025 483.035 322.185 481.973 322.185C480.919 322.185 480.001 322.023 479.219 321.7C478.441 321.377 477.834 320.899 477.396 320.266C476.963 319.629 476.735 318.84 476.714 317.901H479.385C479.415 318.339 479.54 318.704 479.761 318.998C479.986 319.287 480.286 319.505 480.66 319.654C481.038 319.799 481.465 319.871 481.941 319.871C482.409 319.871 482.814 319.803 483.159 319.667C483.507 319.531 483.777 319.342 483.968 319.1C484.159 318.857 484.255 318.579 484.255 318.265C484.255 317.971 484.168 317.725 483.994 317.525C483.824 317.325 483.573 317.155 483.241 317.015C482.914 316.875 482.513 316.747 482.037 316.633L480.615 316.276C479.514 316.008 478.645 315.589 478.008 315.02C477.371 314.45 477.054 313.683 477.058 312.719C477.054 311.928 477.264 311.238 477.689 310.647C478.118 310.056 478.707 309.595 479.455 309.264C480.203 308.932 481.053 308.767 482.005 308.767C482.974 308.767 483.819 308.932 484.542 309.264C485.269 309.595 485.834 310.056 486.237 310.647C486.641 311.238 486.849 311.922 486.862 312.7H484.217ZM488.623 319.705V317.531L494.073 308.945H495.947V311.954H494.838L491.402 317.391V317.493H499.147V319.705H488.623ZM494.889 322V319.042L494.94 318.08V308.945H497.528V322H494.889ZM503.718 320.215L503.648 320.916C503.593 321.477 503.486 322.036 503.329 322.593C503.176 323.154 503.015 323.662 502.845 324.116C502.679 324.571 502.545 324.928 502.443 325.187H500.684C500.747 324.937 500.835 324.586 500.945 324.135C501.056 323.689 501.16 323.188 501.257 322.631C501.355 322.074 501.417 321.507 501.442 320.929L501.474 320.215H503.718ZM506.175 322V320.011L510.822 315.708C511.218 315.326 511.549 314.982 511.817 314.676C512.089 314.37 512.295 314.07 512.435 313.777C512.575 313.479 512.645 313.159 512.645 312.814C512.645 312.432 512.558 312.103 512.384 311.826C512.21 311.546 511.972 311.331 511.67 311.182C511.368 311.029 511.026 310.953 510.644 310.953C510.244 310.953 509.896 311.034 509.598 311.195C509.301 311.357 509.072 311.588 508.91 311.89C508.749 312.192 508.668 312.551 508.668 312.967H506.048C506.048 312.113 506.241 311.372 506.628 310.743C507.015 310.114 507.557 309.627 508.253 309.283C508.95 308.939 509.754 308.767 510.663 308.767C511.598 308.767 512.412 308.932 513.104 309.264C513.801 309.591 514.343 310.046 514.73 310.628C515.117 311.21 515.31 311.877 515.31 312.629C515.31 313.122 515.212 313.609 515.017 314.089C514.826 314.569 514.483 315.103 513.991 315.689C513.498 316.271 512.803 316.971 511.906 317.786L510 319.654V319.743H515.482V322H506.175ZM522.25 322.178C521.349 322.178 520.546 322.013 519.841 321.681C519.14 321.35 518.583 320.893 518.171 320.311C517.758 319.729 517.544 319.061 517.527 318.309H520.204C520.234 318.815 520.446 319.225 520.842 319.539C521.237 319.854 521.706 320.011 522.25 320.011C522.684 320.011 523.066 319.916 523.398 319.724C523.733 319.529 523.995 319.259 524.182 318.915C524.373 318.566 524.469 318.167 524.469 317.716C524.469 317.257 524.371 316.854 524.175 316.505C523.984 316.157 523.719 315.885 523.379 315.689C523.039 315.494 522.65 315.394 522.212 315.39C521.83 315.39 521.458 315.468 521.097 315.625C520.74 315.783 520.461 315.997 520.261 316.269L517.807 315.829L518.426 308.945H526.406V311.202H520.701L520.363 314.472H520.44C520.669 314.149 521.016 313.881 521.479 313.669C521.942 313.456 522.461 313.35 523.034 313.35C523.821 313.35 524.522 313.535 525.138 313.904C525.754 314.274 526.241 314.782 526.598 315.428C526.955 316.07 527.131 316.809 527.127 317.646C527.131 318.526 526.927 319.308 526.515 319.992C526.107 320.672 525.535 321.207 524.8 321.598C524.069 321.985 523.219 322.178 522.25 322.178ZM534.171 322.287C533.074 322.283 532.131 322.013 531.34 321.477C530.554 320.942 529.949 320.166 529.524 319.151C529.103 318.135 528.895 316.913 528.899 315.485C528.899 314.062 529.109 312.848 529.53 311.845C529.955 310.842 530.561 310.08 531.347 309.557C532.137 309.03 533.078 308.767 534.171 308.767C535.263 308.767 536.202 309.03 536.988 309.557C537.779 310.084 538.386 310.849 538.811 311.852C539.236 312.85 539.447 314.062 539.442 315.485C539.442 316.917 539.23 318.141 538.805 319.157C538.384 320.173 537.781 320.948 536.995 321.484C536.208 322.019 535.267 322.287 534.171 322.287ZM534.171 319.998C534.919 319.998 535.516 319.622 535.962 318.87C536.408 318.118 536.629 316.99 536.625 315.485C536.625 314.495 536.523 313.671 536.319 313.012C536.119 312.353 535.834 311.858 535.465 311.527C535.099 311.195 534.668 311.029 534.171 311.029C533.427 311.029 532.832 311.401 532.386 312.145C531.94 312.889 531.714 314.002 531.71 315.485C531.71 316.488 531.81 317.325 532.01 317.997C532.214 318.664 532.501 319.165 532.87 319.501C533.24 319.833 533.673 319.998 534.171 319.998Z" fill="black"/>
<circle cx="626" cy="303" r="1" fill="#C5C8D2"/>
<circle cx="631" cy="303" r="1" fill="#C5C8D2"/>
<circle cx="635" cy="303" r="1" fill="#C5C8D2"/>
<defs>
<filter id="filter0_d_5312_52522" x="486.75" y="39.5684" width="146.494" height="62.9717" filterUnits="userSpaceOnUse" color-interpolation-filters="sRGB">
<feFlood flood-opacity="0" result="BackgroundImageFix"/>
<feColorMatrix in="SourceAlpha" type="matrix" values="0 0 0 0 0 0 0 0 0 0 0 0 0 0 0 0 0 0 127 0" result="hardAlpha"/>
<feMorphology radius="2" operator="erode" in="SourceAlpha" result="effect1_dropShadow_5312_52522"/>
<feOffset dy="8"/>
<feGaussianBlur stdDeviation="8"/>
<feComposite in2="hardAlpha" operator="out"/>
<feColorMatrix type="matrix" values="0 0 0 0 0.4 0 0 0 0 0.25098 0 0 0 0 1 0 0 0 0.24 0"/>
<feBlend mode="normal" in2="BackgroundImageFix" result="effect1_dropShadow_5312_52522"/>
<feBlend mode="normal" in="SourceGraphic" in2="effect1_dropShadow_5312_52522" result="shape"/>
</filter>
<filter id="filter1_d_5312_52522" x="0.0825157" y="33.8616" width="430.905" height="355.681" filterUnits="userSpaceOnUse" color-interpolation-filters="sRGB">
<feFlood flood-opacity="0" result="BackgroundImageFix"/>
<feColorMatrix in="SourceAlpha" type="matrix" values="0 0 0 0 0 0 0 0 0 0 0 0 0 0 0 0 0 0 127 0" result="hardAlpha"/>
<feOffset dy="54.3299"/>
<feGaussianBlur stdDeviation="31.9587"/>
<feComposite in2="hardAlpha" operator="out"/>
<feColorMatrix type="matrix" values="0 0 0 0 0.804167 0 0 0 0 0.804167 0 0 0 0 0.804167 0 0 0 0.16 0"/>
<feBlend mode="normal" in2="BackgroundImageFix" result="effect1_dropShadow_5312_52522"/>
<feBlend mode="normal" in="SourceGraphic" in2="effect1_dropShadow_5312_52522" result="shape"/>
</filter>
<filter id="filter2_d_5312_52522" x="332.083" y="267.412" width="391.835" height="225.835" filterUnits="userSpaceOnUse" color-interpolation-filters="sRGB">
<feFlood flood-opacity="0" result="BackgroundImageFix"/>
<feColorMatrix in="SourceAlpha" type="matrix" values="0 0 0 0 0 0 0 0 0 0 0 0 0 0 0 0 0 0 127 0" result="hardAlpha"/>
<feOffset dy="54.3299"/>
<feGaussianBlur stdDeviation="31.9587"/>
<feComposite in2="hardAlpha" operator="out"/>
<feColorMatrix type="matrix" values="0 0 0 0 0.804167 0 0 0 0 0.804167 0 0 0 0 0.804167 0 0 0 0.16 0"/>
<feBlend mode="normal" in2="BackgroundImageFix" result="effect1_dropShadow_5312_52522"/>
<feBlend mode="normal" in="SourceGraphic" in2="effect1_dropShadow_5312_52522" result="shape"/>
</filter>
<linearGradient id="paint0_linear_5312_52522" x1="436.439" y1="134.746" x2="436.439" y2="317.051" gradientUnits="userSpaceOnUse">
<stop offset="0.166667" stop-color="#5C7EFA" stop-opacity="0.24"/>
<stop offset="0.859375" stop-color="#6640FF" stop-opacity="0"/>
</linearGradient>
</defs>
</svg>
