<svg width="243" height="244" viewBox="0 0 243 244" fill="none" xmlns="http://www.w3.org/2000/svg">
<g clip-path="url(#clip0_7062_12199)">
<path d="M242.273 30.7305C169.784 4.95177 90.9879 2.82482 17.2142 24.6555C14.2851 25.3616 11.5278 26.6493 9.10623 28.4422C6.68468 30.2351 4.64831 32.4966 3.11816 35.0922C1.58801 37.6877 0.595323 40.5645 0.199103 43.5513C-0.197117 46.5382 0.011219 49.5743 0.811726 52.479C4.86173 68.679 10.7342 87.2989 17.8217 104.198C17.923 104.603 18.1255 104.4 18.1255 103.995C17.113 96.0975 23.188 86.0738 35.1254 82.4288C92.5005 64.1939 154.235 65.0108 211.108 84.7575C219.815 87.795 229.535 83.0363 232.36 74.0351C239.448 51.2741 242.283 35.7829 242.992 31.9455C243.093 31.2368 242.485 30.933 242.283 30.7305H242.273ZM67.414 80.8189C58.7065 82.6414 46.6577 85.4764 37.6465 88.5139C19.6442 94.6901 20.4542 116.641 30.0629 123.627C30.7716 119.577 35.1254 114.009 39.9854 112.186C57.9977 105.099 77.3263 100.856 96.8575 99.135C86.935 95.085 77.215 89.3138 67.5051 80.8189M210.905 124.741C185.005 112.578 156.931 105.729 128.339 104.599C99.7477 103.469 71.2198 108.08 44.4403 118.16C35.8341 121.4 30.4679 131.829 35.8341 141.741C45.2194 158.711 55.8743 174.947 67.7076 190.311C65.9863 184.438 69.0238 173.513 80.5663 169.97C112.44 160.158 145.933 164.3 168.198 173.311C174.476 175.842 183.386 174.323 188.347 166.831C196.866 153.743 204.602 140.162 211.513 126.159C211.817 125.551 211.513 125.045 210.905 124.741ZM159.197 203.372C149.864 198.654 141.326 192.505 133.895 185.147C130.452 181.704 125.39 176.753 120.023 170.881C107.884 170.881 96.0475 172.096 83.4014 176.146C71.6564 179.791 70.5426 193.358 75.7064 200.436C84.4138 211.269 90.4888 217.142 100.199 227.156C105.35 232.211 112.269 235.061 119.486 235.098C126.704 235.136 133.652 232.36 138.856 227.358C146.065 220.146 153.018 212.682 159.703 204.982C160.21 204.476 160.007 203.574 159.197 203.372Z" fill="url(#paint0_linear_7062_12199)"/>
</g>
<defs>
<linearGradient id="paint0_linear_7062_12199" x1="121.503" y1="9.70703" x2="121.503" y2="235.099" gradientUnits="userSpaceOnUse">
<stop stop-color="#4F35DF"/>
<stop offset="1" stop-color="#2702F5"/>
</linearGradient>
<clipPath id="clip0_7062_12199">
<rect width="243" height="243" fill="white" transform="translate(0 0.902344)"/>
</clipPath>
</defs>
</svg>
