<svg width="80" height="75" viewBox="0 0 80 75" fill="none" xmlns="http://www.w3.org/2000/svg">
<path d="M79.7596 6.95784C55.895 -1.57378 29.9537 -2.2777 5.66597 4.94728C4.70164 5.18095 3.79388 5.60714 2.99666 6.20051C2.19944 6.79388 1.52903 7.54232 1.02527 8.40134C0.521518 9.26036 0.194706 10.2124 0.0642627 11.201C-0.0661806 12.1895 0.00240752 13.1943 0.26595 14.1556C1.59929 19.5171 3.53263 25.6794 5.86597 31.2721C5.89931 31.4062 5.96597 31.3391 5.96597 31.2051C5.63264 28.5914 7.63265 25.274 11.5627 24.0676C30.4517 18.0327 50.776 18.3031 69.4996 24.8384C72.3662 25.8436 75.5663 24.2687 76.4963 21.2897C78.8296 13.7569 79.7629 8.62994 79.9963 7.35995C80.0296 7.12538 79.8296 7.02485 79.7629 6.95784H79.7596ZM22.1927 23.5348C19.326 24.138 15.3593 25.0763 12.3927 26.0815C6.46598 28.1256 6.73264 35.3904 9.89599 37.7026C10.1293 36.3622 11.5627 34.5192 13.1627 33.916C19.0927 31.5704 25.4561 30.1663 31.8861 29.5967C28.6194 28.2563 25.4194 26.3463 22.2227 23.5348M69.4329 38.0712C60.9061 34.0458 51.6633 31.7791 42.2505 31.405C32.8376 31.0309 23.4456 32.557 14.6293 35.8931C11.796 36.9653 10.0293 40.4168 11.796 43.6973C14.8858 49.3137 18.3936 54.6871 22.2894 59.7717C21.7227 57.8282 22.7227 54.2125 26.5227 53.0397C37.0161 49.7927 48.0428 51.1632 55.3728 54.1455C57.4395 54.9833 60.3729 54.4806 62.0062 52.0009C64.811 47.6696 67.3577 43.1748 69.6329 38.5403C69.7329 38.3392 69.6329 38.1717 69.4329 38.0712ZM52.4095 64.0944C49.3368 62.533 46.5261 60.4978 44.0795 58.0628C42.9461 56.9234 41.2795 55.2848 39.5128 53.3413C35.5161 53.3413 31.6194 53.7434 27.4561 55.0838C23.5894 56.2901 23.2227 60.7804 24.9227 63.1227C27.7894 66.7081 29.7894 68.6517 32.9861 71.9657C34.6819 73.639 36.9597 74.582 39.3359 74.5945C41.7121 74.607 43.9996 73.688 45.7128 72.0328C48.0862 69.6458 50.3754 67.1758 52.5762 64.6272C52.7428 64.4597 52.6762 64.1614 52.4095 64.0944Z" fill="white"/>
</svg>
