<svg width="88" height="83" viewBox="0 0 88 83" fill="none" xmlns="http://www.w3.org/2000/svg">
<g filter="url(#filter0_d_7442_4975)">
<path d="M83.7596 6.95784C59.895 -1.57378 33.9537 -2.2777 9.66597 4.94728C8.70164 5.18095 7.79388 5.60714 6.99666 6.20051C6.19944 6.79388 5.52903 7.54232 5.02527 8.40134C4.52152 9.26036 4.19471 10.2124 4.06426 11.201C3.93382 12.1895 4.00241 13.1943 4.26595 14.1556C5.59929 19.5171 7.53263 25.6794 9.86597 31.2721C9.89931 31.4062 9.96597 31.3391 9.96597 31.2051C9.63264 28.5914 11.6326 25.274 15.5627 24.0676C34.4517 18.0327 54.776 18.3031 73.4996 24.8384C76.3662 25.8436 79.5663 24.2687 80.4963 21.2897C82.8296 13.7569 83.7629 8.62994 83.9963 7.35995C84.0296 7.12538 83.8296 7.02485 83.7629 6.95784H83.7596ZM26.1927 23.5348C23.326 24.138 19.3593 25.0763 16.3927 26.0815C10.466 28.1256 10.7326 35.3904 13.896 37.7026C14.1293 36.3622 15.5627 34.5192 17.1627 33.916C23.0927 31.5704 29.4561 30.1663 35.8861 29.5967C32.6194 28.2563 29.4194 26.3463 26.2227 23.5348M73.4329 38.0712C64.9061 34.0458 55.6633 31.7791 46.2505 31.405C36.8376 31.0309 27.4456 32.557 18.6293 35.8931C15.796 36.9653 14.0293 40.4168 15.796 43.6973C18.8858 49.3137 22.3936 54.6871 26.2894 59.7717C25.7227 57.8282 26.7227 54.2125 30.5227 53.0397C41.0161 49.7927 52.0428 51.1632 59.3728 54.1455C61.4395 54.9833 64.3729 54.4806 66.0062 52.0009C68.811 47.6696 71.3577 43.1748 73.6329 38.5403C73.7329 38.3392 73.6329 38.1717 73.4329 38.0712ZM56.4095 64.0944C53.3368 62.533 50.5261 60.4978 48.0795 58.0628C46.9461 56.9234 45.2795 55.2848 43.5128 53.3413C39.5161 53.3413 35.6194 53.7434 31.4561 55.0838C27.5894 56.2901 27.2227 60.7804 28.9227 63.1227C31.7894 66.7081 33.7894 68.6517 36.9861 71.9657C38.6819 73.639 40.9597 74.582 43.3359 74.5945C45.7121 74.607 47.9996 73.688 49.7128 72.0328C52.0862 69.6458 54.3754 67.1758 56.5762 64.6272C56.7428 64.4597 56.6762 64.1614 56.4095 64.0944Z" fill="url(#paint0_linear_7442_4975)"/>
</g>
<defs>
<filter id="filter0_d_7442_4975" x="0" y="0" width="88" height="82.5947" filterUnits="userSpaceOnUse" color-interpolation-filters="sRGB">
<feFlood flood-opacity="0" result="BackgroundImageFix"/>
<feColorMatrix in="SourceAlpha" type="matrix" values="0 0 0 0 0 0 0 0 0 0 0 0 0 0 0 0 0 0 127 0" result="hardAlpha"/>
<feOffset dy="4"/>
<feGaussianBlur stdDeviation="2"/>
<feComposite in2="hardAlpha" operator="out"/>
<feColorMatrix type="matrix" values="0 0 0 0 0 0 0 0 0 0 0 0 0 0 0 0 0 0 0.25 0"/>
<feBlend mode="normal" in2="BackgroundImageFix" result="effect1_dropShadow_7442_4975"/>
<feBlend mode="normal" in="SourceGraphic" in2="effect1_dropShadow_7442_4975" result="shape"/>
</filter>
<linearGradient id="paint0_linear_7442_4975" x1="44" y1="0" x2="44" y2="74.5946" gradientUnits="userSpaceOnUse">
<stop stop-color="#4F35DF"/>
<stop offset="1" stop-color="#2702F5"/>
</linearGradient>
</defs>
</svg>
