<svg width="310" height="310" viewBox="0 0 310 310" fill="none" xmlns="http://www.w3.org/2000/svg">
<rect x="2.5" y="2.5" width="305" height="305" rx="7.5" fill="#F7F7F7"/>
<rect x="2.5" y="2.5" width="305" height="305" rx="7.5" stroke="white" stroke-width="5"/>
<path d="M12.4496 16.8279V15.7342H20.0859V16.8279H16.8842V25.916H15.6513V16.8279H12.4496ZM23.8246 26.0751C23.1352 26.0751 22.5303 25.911 22.0099 25.5829C21.4929 25.2548 21.0885 24.7958 20.7969 24.2058C20.5085 23.6158 20.3643 22.9264 20.3643 22.1376C20.3643 21.3422 20.5085 20.6478 20.7969 20.0545C21.0885 19.4612 21.4929 19.0005 22.0099 18.6724C22.5303 18.3443 23.1352 18.1802 23.8246 18.1802C24.514 18.1802 25.1172 18.3443 25.6342 18.6724C26.1546 19.0005 26.5589 19.4612 26.8473 20.0545C27.139 20.6478 27.2848 21.3422 27.2848 22.1376C27.2848 22.9264 27.139 23.6158 26.8473 24.2058C26.5589 24.7958 26.1546 25.2548 25.6342 25.5829C25.1172 25.911 24.514 26.0751 23.8246 26.0751ZM23.8246 25.0211C24.3482 25.0211 24.7791 24.8869 25.1172 24.6184C25.4553 24.35 25.7055 23.997 25.8679 23.5595C26.0303 23.122 26.1115 22.648 26.1115 22.1376C26.1115 21.6272 26.0303 21.1516 25.8679 20.7108C25.7055 20.2699 25.4553 19.9136 25.1172 19.6419C24.7791 19.3701 24.3482 19.2342 23.8246 19.2342C23.3009 19.2342 22.87 19.3701 22.532 19.6419C22.1939 19.9136 21.9437 20.2699 21.7812 20.7108C21.6188 21.1516 21.5376 21.6272 21.5376 22.1376C21.5376 22.648 21.6188 23.122 21.7812 23.5595C21.9437 23.997 22.1939 24.35 22.532 24.6184C22.87 24.8869 23.3009 25.0211 23.8246 25.0211Z" fill="#9CA3AF"/>
<rect x="11.5234" y="90.166" width="286.956" height="207.167" rx="5.25" fill="white" stroke="#D0D5DD" stroke-width="0.5"/>
<path d="M31.9616 145.818H34.0895V152.918C34.0895 153.574 33.942 154.144 33.647 154.628C33.3554 155.112 32.9493 155.485 32.429 155.746C31.9086 156.008 31.3037 156.139 30.6143 156.139C30.0012 156.139 29.4444 156.031 28.9439 155.816C28.4467 155.597 28.0523 155.266 27.7607 154.822C27.469 154.374 27.3248 153.812 27.3281 153.136H29.4709C29.4775 153.405 29.5322 153.635 29.6349 153.827C29.741 154.016 29.8852 154.162 30.0675 154.265C30.2531 154.364 30.4718 154.414 30.7237 154.414C30.9889 154.414 31.2126 154.358 31.3949 154.245C31.5805 154.129 31.7214 153.96 31.8175 153.738C31.9136 153.516 31.9616 153.242 31.9616 152.918V145.818ZM39.2798 156.149C38.5076 156.149 37.8397 155.985 37.2763 155.657C36.7161 155.326 36.2836 154.865 35.9787 154.275C35.6738 153.682 35.5213 152.994 35.5213 152.212C35.5213 151.423 35.6738 150.733 35.9787 150.143C36.2836 149.55 36.7161 149.089 37.2763 148.761C37.8397 148.43 38.5076 148.264 39.2798 148.264C40.0521 148.264 40.7183 148.43 41.2784 148.761C41.8419 149.089 42.276 149.55 42.581 150.143C42.8859 150.733 43.0384 151.423 43.0384 152.212C43.0384 152.994 42.8859 153.682 42.581 154.275C42.276 154.865 41.8419 155.326 41.2784 155.657C40.7183 155.985 40.0521 156.149 39.2798 156.149ZM39.2898 154.509C39.6411 154.509 39.9344 154.409 40.1697 154.21C40.4051 154.008 40.5824 153.733 40.7017 153.385C40.8243 153.037 40.8857 152.641 40.8857 152.197C40.8857 151.753 40.8243 151.357 40.7017 151.009C40.5824 150.661 40.4051 150.385 40.1697 150.183C39.9344 149.981 39.6411 149.88 39.2898 149.88C38.9351 149.88 38.6368 149.981 38.3949 150.183C38.1563 150.385 37.9756 150.661 37.853 151.009C37.7337 151.357 37.674 151.753 37.674 152.197C37.674 152.641 37.7337 153.037 37.853 153.385C37.9756 153.733 38.1563 154.008 38.3949 154.21C38.6368 154.409 38.9351 154.509 39.2898 154.509ZM46.5334 151.585V156H44.4155V145.818H46.4737V149.711H46.5632C46.7356 149.26 47.014 148.907 47.3984 148.652C47.7829 148.393 48.2652 148.264 48.8452 148.264C49.3755 148.264 49.8378 148.38 50.2322 148.612C50.63 148.841 50.9382 149.171 51.157 149.602C51.379 150.029 51.4884 150.541 51.4851 151.138V156H49.3672V151.516C49.3705 151.045 49.2512 150.679 49.0092 150.417C48.7706 150.155 48.4358 150.024 48.005 150.024C47.7166 150.024 47.4614 150.085 47.2393 150.208C47.0206 150.331 46.8482 150.51 46.7223 150.745C46.5997 150.977 46.5367 151.257 46.5334 151.585ZM55.2697 151.585V156H53.1518V148.364H55.1703V149.711H55.2598C55.4288 149.267 55.7122 148.915 56.1099 148.657C56.5076 148.395 56.9899 148.264 57.5566 148.264C58.0869 148.264 58.5493 148.38 58.9437 148.612C59.3381 148.844 59.6447 149.176 59.8635 149.607C60.0822 150.034 60.1916 150.545 60.1916 151.138V156H58.0737V151.516C58.077 151.048 57.9577 150.684 57.7157 150.422C57.4738 150.157 57.1407 150.024 56.7164 150.024C56.4314 150.024 56.1795 150.085 55.9608 150.208C55.7453 150.331 55.5763 150.51 55.4537 150.745C55.3343 150.977 55.273 151.257 55.2697 151.585ZM68.7502 156H65.1408V145.818H68.78C69.8042 145.818 70.6858 146.022 71.4249 146.43C72.164 146.834 72.7324 147.416 73.1301 148.175C73.5312 148.934 73.7317 149.842 73.7317 150.899C73.7317 151.96 73.5312 152.871 73.1301 153.634C72.7324 154.396 72.1607 154.981 71.415 155.388C70.6725 155.796 69.7843 156 68.7502 156ZM67.2935 154.156H68.6607C69.2971 154.156 69.8323 154.043 70.2665 153.817C70.704 153.589 71.0321 153.236 71.2509 152.759C71.473 152.278 71.584 151.658 71.584 150.899C71.584 150.147 71.473 149.532 71.2509 149.055C71.0321 148.577 70.7057 148.226 70.2715 148.001C69.8373 147.775 69.302 147.663 68.6657 147.663H67.2935V154.156ZM78.7369 156.149C77.9646 156.149 77.2968 155.985 76.7333 155.657C76.1732 155.326 75.7406 154.865 75.4357 154.275C75.1308 153.682 74.9783 152.994 74.9783 152.212C74.9783 151.423 75.1308 150.733 75.4357 150.143C75.7406 149.55 76.1732 149.089 76.7333 148.761C77.2968 148.43 77.9646 148.264 78.7369 148.264C79.5091 148.264 80.1753 148.43 80.7354 148.761C81.2989 149.089 81.7331 149.55 82.038 150.143C82.3429 150.733 82.4954 151.423 82.4954 152.212C82.4954 152.994 82.3429 153.682 82.038 154.275C81.7331 154.865 81.2989 155.326 80.7354 155.657C80.1753 155.985 79.5091 156.149 78.7369 156.149ZM78.7468 154.509C79.0981 154.509 79.3915 154.409 79.6268 154.21C79.8621 154.008 80.0394 153.733 80.1587 153.385C80.2814 153.037 80.3427 152.641 80.3427 152.197C80.3427 151.753 80.2814 151.357 80.1587 151.009C80.0394 150.661 79.8621 150.385 79.6268 150.183C79.3915 149.981 79.0981 149.88 78.7468 149.88C78.3922 149.88 78.0939 149.981 77.8519 150.183C77.6133 150.385 77.4326 150.661 77.31 151.009C77.1907 151.357 77.131 151.753 77.131 152.197C77.131 152.641 77.1907 153.037 77.31 153.385C77.4326 153.733 77.6133 154.008 77.8519 154.21C78.0939 154.409 78.3922 154.509 78.7468 154.509ZM87.3526 156.149C86.5671 156.149 85.891 155.99 85.3242 155.672C84.7608 155.35 84.3266 154.896 84.0217 154.31C83.7167 153.72 83.5643 153.022 83.5643 152.217C83.5643 151.431 83.7167 150.742 84.0217 150.148C84.3266 149.555 84.7558 149.093 85.3093 148.761C85.8661 148.43 86.5191 148.264 87.2681 148.264C87.7719 148.264 88.2409 148.345 88.6751 148.508C89.1126 148.667 89.4937 148.907 89.8185 149.229C90.1467 149.55 90.4019 149.955 90.5842 150.442C90.7665 150.926 90.8576 151.492 90.8576 152.142V152.724H84.4094V151.411H88.864C88.864 151.106 88.7977 150.836 88.6651 150.601C88.5326 150.366 88.3486 150.182 88.1133 150.049C87.8813 149.913 87.6112 149.845 87.3029 149.845C86.9814 149.845 86.6964 149.92 86.4478 150.069C86.2025 150.215 86.0103 150.412 85.8711 150.661C85.7319 150.906 85.6606 151.179 85.6573 151.481V152.729C85.6573 153.107 85.7269 153.433 85.8661 153.708C86.0086 153.983 86.2092 154.195 86.4677 154.344C86.7262 154.494 87.0328 154.568 87.3874 154.568C87.6228 154.568 87.8382 154.535 88.0337 154.469C88.2293 154.402 88.3967 154.303 88.5359 154.17C88.6751 154.038 88.7811 153.875 88.854 153.683L90.8129 153.812C90.7134 154.283 90.5096 154.694 90.2013 155.045C89.8964 155.393 89.502 155.665 89.0181 155.861C88.5375 156.053 87.9824 156.149 87.3526 156.149Z" fill="#333333"/>
<path d="M27.9034 271V270.233L30.7841 267.08C31.1222 266.71 31.4006 266.389 31.6193 266.116C31.8381 265.841 32 265.582 32.1051 265.341C32.2131 265.097 32.267 264.841 32.267 264.574C32.267 264.267 32.1932 264.001 32.0455 263.777C31.9006 263.553 31.7017 263.379 31.4489 263.257C31.196 263.135 30.9119 263.074 30.5966 263.074C30.2614 263.074 29.9688 263.143 29.7188 263.283C29.4716 263.419 29.2798 263.611 29.1435 263.858C29.0099 264.105 28.9432 264.395 28.9432 264.727H27.9375C27.9375 264.216 28.0554 263.767 28.2912 263.381C28.527 262.994 28.848 262.693 29.2543 262.477C29.6634 262.261 30.1222 262.153 30.6307 262.153C31.142 262.153 31.5952 262.261 31.9901 262.477C32.3849 262.693 32.6946 262.984 32.919 263.351C33.1435 263.717 33.2557 264.125 33.2557 264.574C33.2557 264.895 33.1974 265.209 33.081 265.516C32.9673 265.82 32.7685 266.159 32.4844 266.534C32.2031 266.906 31.8125 267.361 31.3125 267.898L29.3523 269.994V270.062H33.4091V271H27.9034ZM34.777 269.21V268.341L38.6122 262.273H39.2429V263.619H38.8168L35.919 268.205V268.273H41.0838V269.21H34.777ZM38.8849 271V268.946V268.541V262.273H39.8906V271H38.8849ZM45.5273 271.119C44.8853 271.119 44.3384 270.945 43.8867 270.595C43.435 270.243 43.0898 269.733 42.8512 269.065C42.6126 268.395 42.4933 267.585 42.4933 266.636C42.4933 265.693 42.6126 264.888 42.8512 264.22C43.0927 263.55 43.4393 263.038 43.891 262.686C44.3455 262.331 44.891 262.153 45.5273 262.153C46.1637 262.153 46.7077 262.331 47.1594 262.686C47.614 263.038 47.9606 263.55 48.1992 264.22C48.4407 264.888 48.5614 265.693 48.5614 266.636C48.5614 267.585 48.4421 268.395 48.2035 269.065C47.9648 269.733 47.6197 270.243 47.168 270.595C46.7163 270.945 46.1694 271.119 45.5273 271.119ZM45.5273 270.182C46.1637 270.182 46.658 269.875 47.0103 269.261C47.3626 268.648 47.5387 267.773 47.5387 266.636C47.5387 265.881 47.4577 265.237 47.2958 264.706C47.1367 264.175 46.9066 263.77 46.6055 263.491C46.3072 263.213 45.9478 263.074 45.5273 263.074C44.8967 263.074 44.4038 263.385 44.0487 264.007C43.6935 264.626 43.516 265.503 43.516 266.636C43.516 267.392 43.5955 268.034 43.7546 268.562C43.9137 269.091 44.1424 269.493 44.4407 269.768C44.7418 270.044 45.104 270.182 45.5273 270.182ZM53.7092 271V262.273H58.9421V263.21H54.766V266.159H58.5501V267.097H54.766V271H53.7092ZM60.7521 271V262.273H65.9851V263.21H61.8089V266.159H65.593V267.097H61.8089V271H60.7521ZM68.6783 269.807L68.6101 270.267C68.5618 270.591 68.4879 270.938 68.3885 271.307C68.2919 271.676 68.1911 272.024 68.0859 272.351C67.9808 272.678 67.8942 272.938 67.826 273.131H67.0589C67.0959 272.949 67.1442 272.709 67.2038 272.411C67.2635 272.112 67.3232 271.778 67.3828 271.409C67.4453 271.043 67.4964 270.668 67.5362 270.284L67.5874 269.807H68.6783ZM76.7461 271H74.0529V262.273H76.8654C77.712 262.273 78.4364 262.447 79.0387 262.797C79.641 263.143 80.1026 263.642 80.4237 264.293C80.7447 264.94 80.9052 265.716 80.9052 266.619C80.9052 267.528 80.7433 268.311 80.4194 268.967C80.0955 269.621 79.6239 270.124 79.0046 270.476C78.3853 270.825 77.6325 271 76.7461 271ZM75.1097 270.062H76.6779C77.3995 270.062 77.9975 269.923 78.4719 269.645C78.9464 269.366 79.3001 268.97 79.533 268.456C79.766 267.942 79.8825 267.33 79.8825 266.619C79.8825 265.915 79.7674 265.308 79.5373 264.8C79.3072 264.288 78.9634 263.896 78.506 263.624C78.0487 263.348 77.479 263.21 76.7972 263.21H75.1097V270.062ZM83.5472 267.062V271H82.5415V262.273H83.5472V265.477H83.6325C83.7859 265.139 84.016 264.871 84.3228 264.672C84.6325 264.47 85.0444 264.369 85.5586 264.369C86.0046 264.369 86.3952 264.459 86.7305 264.638C87.0657 264.814 87.3256 265.085 87.5103 265.452C87.6978 265.815 87.7915 266.278 87.7915 266.841V271H86.7859V266.909C86.7859 266.389 86.6509 265.987 86.381 265.703C86.114 265.416 85.7433 265.273 85.2688 265.273C84.9393 265.273 84.6438 265.342 84.3825 265.482C84.1239 265.621 83.9194 265.824 83.7688 266.091C83.6211 266.358 83.5472 266.682 83.5472 267.062ZM91.5575 271.153C91.1428 271.153 90.7663 271.075 90.4283 270.919C90.0902 270.76 89.8217 270.531 89.6229 270.233C89.424 269.932 89.3246 269.568 89.3246 269.142C89.3246 268.767 89.3984 268.463 89.5462 268.23C89.6939 267.994 89.8913 267.81 90.1385 267.676C90.3857 267.543 90.6584 267.443 90.9567 267.378C91.2578 267.31 91.5604 267.256 91.8643 267.216C92.2621 267.165 92.5845 267.126 92.8317 267.101C93.0817 267.072 93.2635 267.026 93.3771 266.96C93.4936 266.895 93.5518 266.781 93.5518 266.619V266.585C93.5518 266.165 93.4368 265.838 93.2067 265.605C92.9794 265.372 92.6342 265.256 92.1712 265.256C91.6911 265.256 91.3146 265.361 91.0419 265.571C90.7692 265.781 90.5774 266.006 90.4666 266.244L89.5121 265.903C89.6825 265.506 89.9098 265.196 90.1939 264.974C90.4808 264.75 90.7933 264.594 91.1314 264.506C91.4723 264.415 91.8075 264.369 92.1371 264.369C92.3473 264.369 92.5888 264.395 92.8615 264.446C93.1371 264.494 93.4027 264.595 93.6584 264.749C93.9169 264.902 94.1314 265.134 94.3018 265.443C94.4723 265.753 94.5575 266.168 94.5575 266.688V271H93.5518V270.114H93.5007C93.4325 270.256 93.3189 270.408 93.1598 270.57C93.0007 270.732 92.7891 270.869 92.5249 270.983C92.2607 271.097 91.9382 271.153 91.5575 271.153ZM91.7109 270.25C92.1087 270.25 92.4439 270.172 92.7166 270.016C92.9922 269.859 93.1996 269.658 93.3388 269.411C93.4808 269.163 93.5518 268.903 93.5518 268.631V267.71C93.5092 267.761 93.4155 267.808 93.2706 267.851C93.1286 267.891 92.9638 267.926 92.7763 267.957C92.5916 267.986 92.4112 268.011 92.2351 268.034C92.0618 268.054 91.9212 268.071 91.8132 268.085C91.5518 268.119 91.3075 268.175 91.0803 268.251C90.8558 268.325 90.674 268.437 90.5348 268.588C90.3984 268.736 90.3303 268.937 90.3303 269.193C90.3303 269.543 90.4595 269.807 90.718 269.986C90.9794 270.162 91.3104 270.25 91.7109 270.25ZM99.9045 271V262.273H102.853C103.538 262.273 104.098 262.396 104.532 262.643C104.97 262.888 105.294 263.219 105.504 263.636C105.714 264.054 105.819 264.52 105.819 265.034C105.819 265.548 105.714 266.016 105.504 266.436C105.297 266.857 104.975 267.192 104.541 267.442C104.106 267.689 103.549 267.812 102.87 267.812H100.757V266.875H102.836C103.305 266.875 103.681 266.794 103.966 266.632C104.25 266.47 104.456 266.251 104.583 265.976C104.714 265.697 104.779 265.384 104.779 265.034C104.779 264.685 104.714 264.372 104.583 264.097C104.456 263.821 104.248 263.605 103.961 263.449C103.674 263.29 103.294 263.21 102.819 263.21H100.961V271H99.9045ZM108.391 267.062V271H107.385V262.273H108.391V265.477H108.476C108.63 265.139 108.86 264.871 109.167 264.672C109.476 264.47 109.888 264.369 110.402 264.369C110.848 264.369 111.239 264.459 111.574 264.638C111.909 264.814 112.169 265.085 112.354 265.452C112.542 265.815 112.635 266.278 112.635 266.841V271H111.63V266.909C111.63 266.389 111.495 265.987 111.225 265.703C110.958 265.416 110.587 265.273 110.113 265.273C109.783 265.273 109.488 265.342 109.226 265.482C108.968 265.621 108.763 265.824 108.613 266.091C108.465 266.358 108.391 266.682 108.391 267.062ZM116.401 271.153C115.987 271.153 115.61 271.075 115.272 270.919C114.934 270.76 114.665 270.531 114.467 270.233C114.268 269.932 114.168 269.568 114.168 269.142C114.168 268.767 114.242 268.463 114.39 268.23C114.538 267.994 114.735 267.81 114.982 267.676C115.229 267.543 115.502 267.443 115.8 267.378C116.102 267.31 116.404 267.256 116.708 267.216C117.106 267.165 117.428 267.126 117.675 267.101C117.925 267.072 118.107 267.026 118.221 266.96C118.337 266.895 118.396 266.781 118.396 266.619V266.585C118.396 266.165 118.281 265.838 118.05 265.605C117.823 265.372 117.478 265.256 117.015 265.256C116.535 265.256 116.158 265.361 115.886 265.571C115.613 265.781 115.421 266.006 115.31 266.244L114.356 265.903C114.526 265.506 114.754 265.196 115.038 264.974C115.325 264.75 115.637 264.594 115.975 264.506C116.316 264.415 116.651 264.369 116.981 264.369C117.191 264.369 117.433 264.395 117.705 264.446C117.981 264.494 118.246 264.595 118.502 264.749C118.761 264.902 118.975 265.134 119.146 265.443C119.316 265.753 119.401 266.168 119.401 266.688V271H118.396V270.114H118.344C118.276 270.256 118.163 270.408 118.004 270.57C117.844 270.732 117.633 270.869 117.369 270.983C117.104 271.097 116.782 271.153 116.401 271.153ZM116.555 270.25C116.952 270.25 117.288 270.172 117.56 270.016C117.836 269.859 118.043 269.658 118.183 269.411C118.325 269.163 118.396 268.903 118.396 268.631V267.71C118.353 267.761 118.259 267.808 118.114 267.851C117.972 267.891 117.808 267.926 117.62 267.957C117.435 267.986 117.255 268.011 117.079 268.034C116.906 268.054 116.765 268.071 116.657 268.085C116.396 268.119 116.151 268.175 115.924 268.251C115.7 268.325 115.518 268.437 115.379 268.588C115.242 268.736 115.174 268.937 115.174 269.193C115.174 269.543 115.303 269.807 115.562 269.986C115.823 270.162 116.154 270.25 116.555 270.25ZM125.873 265.92L124.97 266.176C124.913 266.026 124.829 265.879 124.718 265.737C124.61 265.592 124.463 265.473 124.275 265.379C124.088 265.286 123.848 265.239 123.555 265.239C123.154 265.239 122.821 265.331 122.554 265.516C122.289 265.697 122.157 265.929 122.157 266.21C122.157 266.46 122.248 266.658 122.43 266.803C122.612 266.947 122.896 267.068 123.282 267.165L124.254 267.403C124.839 267.545 125.275 267.763 125.562 268.055C125.849 268.345 125.993 268.719 125.993 269.176C125.993 269.551 125.885 269.886 125.669 270.182C125.456 270.477 125.157 270.71 124.774 270.881C124.39 271.051 123.944 271.136 123.436 271.136C122.768 271.136 122.216 270.991 121.778 270.702C121.341 270.412 121.064 269.989 120.947 269.432L121.902 269.193C121.993 269.545 122.164 269.81 122.417 269.986C122.673 270.162 123.007 270.25 123.419 270.25C123.887 270.25 124.26 270.151 124.535 269.952C124.814 269.75 124.953 269.509 124.953 269.227C124.953 269 124.873 268.81 124.714 268.656C124.555 268.5 124.311 268.384 123.981 268.307L122.89 268.051C122.291 267.909 121.85 267.689 121.569 267.391C121.291 267.089 121.152 266.713 121.152 266.261C121.152 265.892 121.255 265.565 121.463 265.281C121.673 264.997 121.958 264.774 122.319 264.612C122.683 264.45 123.095 264.369 123.555 264.369C124.203 264.369 124.711 264.511 125.081 264.795C125.453 265.08 125.717 265.455 125.873 265.92ZM130.251 271.136C129.62 271.136 129.076 270.997 128.619 270.719C128.164 270.438 127.813 270.045 127.566 269.543C127.322 269.037 127.2 268.449 127.2 267.778C127.2 267.108 127.322 266.517 127.566 266.006C127.813 265.491 128.157 265.091 128.597 264.804C129.04 264.514 129.558 264.369 130.148 264.369C130.489 264.369 130.826 264.426 131.158 264.54C131.491 264.653 131.793 264.838 132.066 265.094C132.339 265.347 132.556 265.682 132.718 266.099C132.88 266.517 132.961 267.031 132.961 267.642V268.068H127.915V267.199H131.938C131.938 266.83 131.864 266.5 131.717 266.21C131.572 265.92 131.364 265.692 131.094 265.524C130.827 265.357 130.512 265.273 130.148 265.273C129.748 265.273 129.401 265.372 129.109 265.571C128.819 265.767 128.596 266.023 128.44 266.338C128.283 266.653 128.205 266.991 128.205 267.352V267.932C128.205 268.426 128.29 268.845 128.461 269.189C128.634 269.53 128.874 269.79 129.181 269.969C129.488 270.145 129.844 270.233 130.251 270.233C130.515 270.233 130.754 270.196 130.967 270.122C131.183 270.045 131.369 269.932 131.525 269.781C131.681 269.628 131.802 269.437 131.887 269.21L132.859 269.483C132.756 269.812 132.585 270.102 132.343 270.352C132.102 270.599 131.803 270.793 131.448 270.932C131.093 271.068 130.694 271.136 130.251 271.136ZM137.644 269.21V268.341L141.479 262.273H142.11V263.619H141.684L138.786 268.205V268.273H143.951V269.21H137.644ZM141.752 271V268.946V268.541V262.273H142.758V271H141.752ZM146.655 269.807L146.587 270.267C146.538 270.591 146.464 270.938 146.365 271.307C146.268 271.676 146.168 272.024 146.062 272.351C145.957 272.678 145.871 272.938 145.803 273.131H145.036C145.072 272.949 145.121 272.709 145.18 272.411C145.24 272.112 145.3 271.778 145.359 271.409C145.422 271.043 145.473 270.668 145.513 270.284L145.564 269.807H146.655ZM152.029 271V262.273H153.086V270.062H157.143V271H152.029ZM160.569 271.153C160.154 271.153 159.778 271.075 159.44 270.919C159.102 270.76 158.833 270.531 158.635 270.233C158.436 269.932 158.336 269.568 158.336 269.142C158.336 268.767 158.41 268.463 158.558 268.23C158.706 267.994 158.903 267.81 159.15 267.676C159.397 267.543 159.67 267.443 159.968 267.378C160.27 267.31 160.572 267.256 160.876 267.216C161.274 267.165 161.596 267.126 161.843 267.101C162.093 267.072 162.275 267.026 162.389 266.96C162.505 266.895 162.564 266.781 162.564 266.619V266.585C162.564 266.165 162.449 265.838 162.218 265.605C161.991 265.372 161.646 265.256 161.183 265.256C160.703 265.256 160.326 265.361 160.054 265.571C159.781 265.781 159.589 266.006 159.478 266.244L158.524 265.903C158.694 265.506 158.922 265.196 159.206 264.974C159.493 264.75 159.805 264.594 160.143 264.506C160.484 264.415 160.819 264.369 161.149 264.369C161.359 264.369 161.6 264.395 161.873 264.446C162.149 264.494 162.414 264.595 162.67 264.749C162.929 264.902 163.143 265.134 163.314 265.443C163.484 265.753 163.569 266.168 163.569 266.688V271H162.564V270.114H162.512C162.444 270.256 162.331 270.408 162.172 270.57C162.012 270.732 161.801 270.869 161.537 270.983C161.272 271.097 160.95 271.153 160.569 271.153ZM160.723 270.25C161.12 270.25 161.456 270.172 161.728 270.016C162.004 269.859 162.211 269.658 162.35 269.411C162.493 269.163 162.564 268.903 162.564 268.631V267.71C162.521 267.761 162.427 267.808 162.282 267.851C162.14 267.891 161.975 267.926 161.788 267.957C161.603 267.986 161.423 268.011 161.247 268.034C161.074 268.054 160.933 268.071 160.825 268.085C160.564 268.119 160.319 268.175 160.092 268.251C159.868 268.325 159.686 268.437 159.547 268.588C159.41 268.736 159.342 268.937 159.342 269.193C159.342 269.543 159.471 269.807 159.73 269.986C159.991 270.162 160.322 270.25 160.723 270.25ZM166.411 267.062V271H165.405V262.273H166.411V265.477H166.496C166.649 265.139 166.879 264.871 167.186 264.672C167.496 264.47 167.908 264.369 168.422 264.369C168.868 264.369 169.259 264.459 169.594 264.638C169.929 264.814 170.189 265.085 170.374 265.452C170.561 265.815 170.655 266.278 170.655 266.841V271H169.649V266.909C169.649 266.389 169.514 265.987 169.244 265.703C168.977 265.416 168.607 265.273 168.132 265.273C167.803 265.273 167.507 265.342 167.246 265.482C166.987 265.621 166.783 265.824 166.632 266.091C166.484 266.358 166.411 266.682 166.411 267.062ZM175.154 271.136C174.563 271.136 174.044 270.996 173.598 270.714C173.155 270.433 172.809 270.04 172.559 269.534C172.311 269.028 172.188 268.437 172.188 267.761C172.188 267.08 172.311 266.484 172.559 265.976C172.809 265.467 173.155 265.072 173.598 264.791C174.044 264.51 174.563 264.369 175.154 264.369C175.745 264.369 176.262 264.51 176.705 264.791C177.151 265.072 177.498 265.467 177.745 265.976C177.995 266.484 178.12 267.08 178.12 267.761C178.12 268.437 177.995 269.028 177.745 269.534C177.498 270.04 177.151 270.433 176.705 270.714C176.262 270.996 175.745 271.136 175.154 271.136ZM175.154 270.233C175.603 270.233 175.972 270.118 176.262 269.888C176.551 269.658 176.766 269.355 176.905 268.98C177.044 268.605 177.114 268.199 177.114 267.761C177.114 267.324 177.044 266.916 176.905 266.538C176.766 266.161 176.551 265.855 176.262 265.622C175.972 265.389 175.603 265.273 175.154 265.273C174.705 265.273 174.336 265.389 174.046 265.622C173.756 265.855 173.542 266.161 173.402 266.538C173.263 266.916 173.194 267.324 173.194 267.761C173.194 268.199 173.263 268.605 173.402 268.98C173.542 269.355 173.756 269.658 174.046 269.888C174.336 270.118 174.705 270.233 175.154 270.233ZM179.655 271V264.455H180.626V265.443H180.695C180.814 265.119 181.03 264.857 181.342 264.655C181.655 264.453 182.007 264.352 182.399 264.352C182.473 264.352 182.565 264.354 182.676 264.357C182.787 264.359 182.871 264.364 182.928 264.369V265.392C182.893 265.384 182.815 265.371 182.693 265.354C182.574 265.334 182.447 265.324 182.314 265.324C181.996 265.324 181.712 265.391 181.462 265.524C181.214 265.655 181.018 265.837 180.874 266.07C180.732 266.3 180.661 266.562 180.661 266.858V271H179.655ZM186.665 271.136C186.034 271.136 185.49 270.997 185.033 270.719C184.578 270.438 184.227 270.045 183.98 269.543C183.736 269.037 183.614 268.449 183.614 267.778C183.614 267.108 183.736 266.517 183.98 266.006C184.227 265.491 184.571 265.091 185.011 264.804C185.455 264.514 185.972 264.369 186.562 264.369C186.903 264.369 187.24 264.426 187.572 264.54C187.905 264.653 188.207 264.838 188.48 265.094C188.753 265.347 188.97 265.682 189.132 266.099C189.294 266.517 189.375 267.031 189.375 267.642V268.068H184.33V267.199H188.352C188.352 266.83 188.278 266.5 188.131 266.21C187.986 265.92 187.778 265.692 187.509 265.524C187.241 265.357 186.926 265.273 186.562 265.273C186.162 265.273 185.815 265.372 185.523 265.571C185.233 265.767 185.01 266.023 184.854 266.338C184.697 266.653 184.619 266.991 184.619 267.352V267.932C184.619 268.426 184.705 268.845 184.875 269.189C185.048 269.53 185.288 269.79 185.595 269.969C185.902 270.145 186.259 270.233 186.665 270.233C186.929 270.233 187.168 270.196 187.381 270.122C187.597 270.045 187.783 269.932 187.939 269.781C188.095 269.628 188.216 269.437 188.301 269.21L189.273 269.483C189.17 269.812 188.999 270.102 188.757 270.352C188.516 270.599 188.217 270.793 187.862 270.932C187.507 271.068 187.108 271.136 186.665 271.136ZM192.405 269.807L192.337 270.267C192.288 270.591 192.214 270.938 192.115 271.307C192.018 271.676 191.918 272.024 191.812 272.351C191.707 272.678 191.621 272.938 191.553 273.131H190.786C190.822 272.949 190.871 272.709 190.93 272.411C190.99 272.112 191.05 271.778 191.109 271.409C191.172 271.043 191.223 270.668 191.263 270.284L191.314 269.807H192.405ZM200.353 271.119C199.853 271.119 199.403 271.02 199.002 270.821C198.602 270.622 198.281 270.349 198.039 270.003C197.798 269.656 197.666 269.261 197.643 268.818H198.666C198.706 269.213 198.885 269.54 199.203 269.798C199.524 270.054 199.907 270.182 200.353 270.182C200.711 270.182 201.029 270.098 201.308 269.93C201.589 269.763 201.809 269.533 201.968 269.24C202.13 268.945 202.211 268.611 202.211 268.239C202.211 267.858 202.127 267.518 201.96 267.22C201.795 266.919 201.568 266.682 201.278 266.509C200.988 266.335 200.657 266.247 200.285 266.244C200.018 266.241 199.744 266.283 199.463 266.368C199.181 266.45 198.95 266.557 198.768 266.688L197.779 266.568L198.308 262.273H202.842V263.21H199.194L198.887 265.784H198.939C199.118 265.642 199.342 265.524 199.612 265.43C199.882 265.337 200.163 265.29 200.456 265.29C200.99 265.29 201.466 265.418 201.883 265.673C202.304 265.926 202.633 266.273 202.872 266.713C203.113 267.153 203.234 267.656 203.234 268.222C203.234 268.778 203.109 269.276 202.859 269.713C202.612 270.148 202.271 270.491 201.836 270.744C201.402 270.994 200.907 271.119 200.353 271.119ZM204.722 269.21V268.341L208.558 262.273H209.188V263.619H208.762L205.864 268.205V268.273H211.029V269.21H204.722ZM208.83 271V268.946V268.541V262.273H209.836V271H208.83ZM212.899 271L216.802 263.278V263.21H212.302V262.273H217.893V263.261L214.007 271H212.899ZM222.143 262.153C222.501 262.156 222.859 262.224 223.217 262.358C223.575 262.491 223.901 262.713 224.197 263.023C224.492 263.33 224.729 263.749 224.908 264.28C225.087 264.811 225.177 265.477 225.177 266.278C225.177 267.054 225.103 267.743 224.955 268.345C224.81 268.945 224.6 269.45 224.325 269.862C224.052 270.274 223.719 270.587 223.327 270.8C222.938 271.013 222.498 271.119 222.006 271.119C221.518 271.119 221.082 271.023 220.698 270.83C220.317 270.634 220.005 270.362 219.761 270.016C219.519 269.666 219.364 269.261 219.296 268.801H220.336C220.43 269.202 220.616 269.533 220.894 269.794C221.175 270.053 221.546 270.182 222.006 270.182C222.68 270.182 223.211 269.888 223.6 269.3C223.992 268.712 224.188 267.881 224.188 266.807H224.12C223.961 267.045 223.772 267.251 223.553 267.425C223.335 267.598 223.092 267.732 222.825 267.825C222.558 267.919 222.273 267.966 221.972 267.966C221.472 267.966 221.013 267.842 220.596 267.595C220.181 267.345 219.849 267.003 219.599 266.568C219.352 266.131 219.228 265.631 219.228 265.068C219.228 264.534 219.347 264.045 219.586 263.602C219.827 263.156 220.165 262.801 220.6 262.537C221.038 262.273 221.552 262.145 222.143 262.153ZM222.143 263.091C221.785 263.091 221.462 263.18 221.175 263.359C220.891 263.536 220.665 263.774 220.498 264.075C220.333 264.374 220.251 264.705 220.251 265.068C220.251 265.432 220.33 265.763 220.489 266.061C220.651 266.357 220.871 266.592 221.15 266.768C221.431 266.942 221.751 267.028 222.109 267.028C222.379 267.028 222.63 266.976 222.863 266.871C223.096 266.763 223.299 266.616 223.472 266.432C223.648 266.244 223.786 266.033 223.886 265.797C223.985 265.558 224.035 265.31 224.035 265.051C224.035 264.71 223.952 264.391 223.788 264.092C223.626 263.794 223.401 263.553 223.114 263.368C222.83 263.183 222.506 263.091 222.143 263.091ZM226.853 271V270.233L229.733 267.08C230.071 266.71 230.35 266.389 230.569 266.116C230.787 265.841 230.949 265.582 231.054 265.341C231.162 265.097 231.216 264.841 231.216 264.574C231.216 264.267 231.142 264.001 230.995 263.777C230.85 263.553 230.651 263.379 230.398 263.257C230.145 263.135 229.861 263.074 229.546 263.074C229.211 263.074 228.918 263.143 228.668 263.283C228.421 263.419 228.229 263.611 228.093 263.858C227.959 264.105 227.892 264.395 227.892 264.727H226.887C226.887 264.216 227.005 263.767 227.24 263.381C227.476 262.994 227.797 262.693 228.203 262.477C228.613 262.261 229.071 262.153 229.58 262.153C230.091 262.153 230.544 262.261 230.939 262.477C231.334 262.693 231.644 262.984 231.868 263.351C232.093 263.717 232.205 264.125 232.205 264.574C232.205 264.895 232.147 265.209 232.03 265.516C231.917 265.82 231.718 266.159 231.434 266.534C231.152 266.906 230.762 267.361 230.262 267.898L228.301 269.994V270.062H232.358V271H226.853Z" fill="#4F4F4F"/>
<path d="M27.9205 181.455H28.9261V188.477C28.9261 188.881 28.8565 189.23 28.7173 189.526C28.581 189.821 28.3736 190.05 28.0952 190.212C27.8196 190.374 27.4716 190.455 27.0511 190.455C27.017 190.455 26.983 190.455 26.9489 190.455C26.9148 190.455 26.8807 190.455 26.8466 190.455V189.517C26.8807 189.517 26.9119 189.517 26.9403 189.517C26.9688 189.517 27 189.517 27.0341 189.517C27.3409 189.517 27.5653 189.426 27.7074 189.244C27.8494 189.065 27.9205 188.81 27.9205 188.477V181.455ZM28.4148 180.364C28.2188 180.364 28.0497 180.297 27.9077 180.163C27.7685 180.03 27.6989 179.869 27.6989 179.682C27.6989 179.494 27.7685 179.334 27.9077 179.2C28.0497 179.067 28.2188 179 28.4148 179C28.6108 179 28.7784 179.067 28.9176 179.2C29.0597 179.334 29.1307 179.494 29.1307 179.682C29.1307 179.869 29.0597 180.03 28.9176 180.163C28.7784 180.297 28.6108 180.364 28.4148 180.364ZM33.4272 188.136C32.8363 188.136 32.3178 187.996 31.8718 187.714C31.4286 187.433 31.082 187.04 30.832 186.534C30.5849 186.028 30.4613 185.437 30.4613 184.761C30.4613 184.08 30.5849 183.484 30.832 182.976C31.082 182.467 31.4286 182.072 31.8718 181.791C32.3178 181.51 32.8363 181.369 33.4272 181.369C34.0181 181.369 34.5352 181.51 34.9783 181.791C35.4244 182.072 35.771 182.467 36.0181 182.976C36.2681 183.484 36.3931 184.08 36.3931 184.761C36.3931 185.437 36.2681 186.028 36.0181 186.534C35.771 187.04 35.4244 187.433 34.9783 187.714C34.5352 187.996 34.0181 188.136 33.4272 188.136ZM33.4272 187.233C33.8761 187.233 34.2454 187.118 34.5352 186.888C34.8249 186.658 35.0394 186.355 35.1786 185.98C35.3178 185.605 35.3874 185.199 35.3874 184.761C35.3874 184.324 35.3178 183.916 35.1786 183.538C35.0394 183.161 34.8249 182.855 34.5352 182.622C34.2454 182.389 33.8761 182.273 33.4272 182.273C32.9783 182.273 32.609 182.389 32.3192 182.622C32.0295 182.855 31.815 183.161 31.6758 183.538C31.5366 183.916 31.467 184.324 31.467 184.761C31.467 185.199 31.5366 185.605 31.6758 185.98C31.815 186.355 32.0295 186.658 32.3192 186.888C32.609 187.118 32.9783 187.233 33.4272 187.233ZM38.9339 184.062V188H37.9283V179.273H38.9339V182.477H39.0192C39.1726 182.139 39.4027 181.871 39.7095 181.672C40.0192 181.47 40.4311 181.369 40.9453 181.369C41.3913 181.369 41.782 181.459 42.1172 181.638C42.4524 181.814 42.7124 182.085 42.897 182.452C43.0845 182.815 43.1783 183.278 43.1783 183.841V188H42.1726V183.909C42.1726 183.389 42.0376 182.987 41.7678 182.703C41.5007 182.416 41.13 182.273 40.6555 182.273C40.326 182.273 40.0305 182.342 39.7692 182.482C39.5107 182.621 39.3061 182.824 39.1555 183.091C39.0078 183.358 38.9339 183.682 38.9339 184.062ZM46.0238 184.062V188H45.0181V181.455H45.9897V182.477H46.0749C46.2283 182.145 46.4613 181.878 46.7738 181.676C47.0863 181.472 47.4897 181.369 47.984 181.369C48.4272 181.369 48.815 181.46 49.1474 181.642C49.4798 181.821 49.7383 182.094 49.9229 182.46C50.1076 182.824 50.1999 183.284 50.1999 183.841V188H49.1942V183.909C49.1942 183.395 49.0607 182.994 48.7937 182.707C48.5266 182.418 48.1602 182.273 47.6942 182.273C47.3732 182.273 47.0863 182.342 46.8335 182.482C46.5835 182.621 46.386 182.824 46.2411 183.091C46.0962 183.358 46.0238 183.682 46.0238 184.062ZM54.5092 188.136C53.9638 188.136 53.4822 187.999 53.0646 187.723C52.647 187.445 52.3203 187.053 52.0845 186.547C51.8487 186.038 51.7308 185.438 51.7308 184.744C51.7308 184.057 51.8487 183.46 52.0845 182.955C52.3203 182.449 52.6484 182.058 53.0689 181.783C53.4893 181.507 53.9751 181.369 54.5263 181.369C54.9524 181.369 55.2891 181.44 55.5362 181.582C55.7862 181.722 55.9766 181.881 56.1072 182.06C56.2408 182.236 56.3445 182.381 56.4183 182.494H56.5036V179.273H57.5092V188H56.5376V186.994H56.4183C56.3445 187.114 56.2393 187.264 56.103 187.446C55.9666 187.625 55.772 187.786 55.5192 187.928C55.2663 188.067 54.9297 188.136 54.5092 188.136ZM54.6456 187.233C55.049 187.233 55.3899 187.128 55.6683 186.918C55.9467 186.705 56.1584 186.411 56.3033 186.036C56.4482 185.658 56.5206 185.222 56.5206 184.727C56.5206 184.239 56.4496 183.811 56.3075 183.445C56.1655 183.075 55.9553 182.788 55.6768 182.584C55.3984 182.376 55.0547 182.273 54.6456 182.273C54.2195 182.273 53.8643 182.382 53.5803 182.601C53.299 182.817 53.0874 183.111 52.9453 183.483C52.8061 183.852 52.7365 184.267 52.7365 184.727C52.7365 185.193 52.8075 185.616 52.9496 185.997C53.0945 186.375 53.3075 186.676 53.5888 186.901C53.8729 187.122 54.2251 187.233 54.6456 187.233ZM62.1499 188.136C61.5589 188.136 61.0405 187.996 60.5945 187.714C60.1513 187.433 59.8047 187.04 59.5547 186.534C59.3075 186.028 59.1839 185.437 59.1839 184.761C59.1839 184.08 59.3075 183.484 59.5547 182.976C59.8047 182.467 60.1513 182.072 60.5945 181.791C61.0405 181.51 61.5589 181.369 62.1499 181.369C62.7408 181.369 63.2578 181.51 63.701 181.791C64.147 182.072 64.4936 182.467 64.7408 182.976C64.9908 183.484 65.1158 184.08 65.1158 184.761C65.1158 185.437 64.9908 186.028 64.7408 186.534C64.4936 187.04 64.147 187.433 63.701 187.714C63.2578 187.996 62.7408 188.136 62.1499 188.136ZM62.1499 187.233C62.5987 187.233 62.968 187.118 63.2578 186.888C63.5476 186.658 63.7621 186.355 63.9013 185.98C64.0405 185.605 64.1101 185.199 64.1101 184.761C64.1101 184.324 64.0405 183.916 63.9013 183.538C63.7621 183.161 63.5476 182.855 63.2578 182.622C62.968 182.389 62.5987 182.273 62.1499 182.273C61.701 182.273 61.3317 182.389 61.0419 182.622C60.7521 182.855 60.5376 183.161 60.3984 183.538C60.2592 183.916 60.1896 184.324 60.1896 184.761C60.1896 185.199 60.2592 185.605 60.3984 185.98C60.5376 186.355 60.7521 186.658 61.0419 186.888C61.3317 187.118 61.701 187.233 62.1499 187.233ZM69.3952 188.136C68.7646 188.136 68.2205 187.997 67.7631 187.719C67.3086 187.438 66.9577 187.045 66.7106 186.543C66.4663 186.037 66.3441 185.449 66.3441 184.778C66.3441 184.108 66.4663 183.517 66.7106 183.006C66.9577 182.491 67.3015 182.091 67.7418 181.804C68.185 181.514 68.7021 181.369 69.293 181.369C69.6339 181.369 69.9705 181.426 70.3029 181.54C70.6353 181.653 70.9379 181.838 71.2106 182.094C71.4833 182.347 71.7006 182.682 71.8626 183.099C72.0245 183.517 72.1055 184.031 72.1055 184.642V185.068H67.06V184.199H71.0827C71.0827 183.83 71.0089 183.5 70.8612 183.21C70.7163 182.92 70.5089 182.692 70.239 182.524C69.9719 182.357 69.6566 182.273 69.293 182.273C68.8924 182.273 68.5458 182.372 68.2532 182.571C67.9634 182.767 67.7404 183.023 67.5842 183.338C67.4279 183.653 67.3498 183.991 67.3498 184.352V184.932C67.3498 185.426 67.435 185.845 67.6055 186.189C67.7788 186.53 68.0188 186.79 68.3256 186.969C68.6325 187.145 68.989 187.233 69.3952 187.233C69.6594 187.233 69.8981 187.196 70.1112 187.122C70.3271 187.045 70.5131 186.932 70.6694 186.781C70.8256 186.628 70.9464 186.437 71.0316 186.21L72.0032 186.483C71.9009 186.812 71.729 187.102 71.4876 187.352C71.2461 187.599 70.9478 187.793 70.5927 187.932C70.2376 188.068 69.8384 188.136 69.3952 188.136ZM76.6864 179.273V188H75.6296V180.381H75.5785L73.4478 181.795V180.722L75.6296 179.273H76.6864ZM79.1964 188V187.233L82.0771 184.08C82.4151 183.71 82.6935 183.389 82.9123 183.116C83.131 182.841 83.293 182.582 83.3981 182.341C83.506 182.097 83.56 181.841 83.56 181.574C83.56 181.267 83.4862 181.001 83.3384 180.777C83.1935 180.553 82.9947 180.379 82.7418 180.257C82.489 180.135 82.2049 180.074 81.8896 180.074C81.5543 180.074 81.2617 180.143 81.0117 180.283C80.7646 180.419 80.5728 180.611 80.4364 180.858C80.3029 181.105 80.2362 181.395 80.2362 181.727H79.2305C79.2305 181.216 79.3484 180.767 79.5842 180.381C79.82 179.994 80.141 179.693 80.5472 179.477C80.9563 179.261 81.4151 179.153 81.9237 179.153C82.435 179.153 82.8881 179.261 83.283 179.477C83.6779 179.693 83.9876 179.984 84.212 180.351C84.4364 180.717 84.5487 181.125 84.5487 181.574C84.5487 181.895 84.4904 182.209 84.3739 182.516C84.2603 182.82 84.0614 183.159 83.7773 183.534C83.4961 183.906 83.1055 184.361 82.6055 184.898L80.6452 186.994V187.062H84.7021V188H79.1964ZM89.4109 188.119C88.8484 188.119 88.3469 188.023 87.9066 187.83C87.4691 187.636 87.1211 187.368 86.8626 187.024C86.6069 186.678 86.4677 186.276 86.445 185.818H87.5188C87.5415 186.099 87.6381 186.342 87.8086 186.547C87.979 186.749 88.2021 186.905 88.4776 187.016C88.7532 187.126 89.0586 187.182 89.3938 187.182C89.7688 187.182 90.1012 187.116 90.391 186.986C90.6808 186.855 90.908 186.673 91.0728 186.44C91.2376 186.207 91.32 185.938 91.32 185.631C91.32 185.31 91.2404 185.027 91.0813 184.783C90.9222 184.536 90.6893 184.342 90.3825 184.203C90.0756 184.064 89.7006 183.994 89.2575 183.994H88.5586V183.057H89.2575C89.604 183.057 89.908 182.994 90.1694 182.869C90.4336 182.744 90.6396 182.568 90.7873 182.341C90.9379 182.114 91.0131 181.847 91.0131 181.54C91.0131 181.244 90.9478 180.987 90.8171 180.768C90.6864 180.55 90.5018 180.379 90.2631 180.257C90.0273 180.135 89.7489 180.074 89.4279 180.074C89.1268 180.074 88.8427 180.129 88.5756 180.24C88.3114 180.348 88.0955 180.506 87.9279 180.713C87.7603 180.918 87.6694 181.165 87.6552 181.455H86.6325C86.6495 180.997 86.7873 180.597 87.0458 180.253C87.3043 179.906 87.6424 179.636 88.06 179.443C88.4805 179.25 88.9421 179.153 89.445 179.153C89.9847 179.153 90.4478 179.263 90.8342 179.482C91.2205 179.697 91.5174 179.983 91.7248 180.338C91.9322 180.693 92.0359 181.077 92.0359 181.489C92.0359 181.98 91.9066 182.399 91.6481 182.746C91.3924 183.092 91.0444 183.332 90.604 183.466V183.534C91.1552 183.625 91.5856 183.859 91.8952 184.237C92.2049 184.612 92.3597 185.077 92.3597 185.631C92.3597 186.105 92.2305 186.531 91.9719 186.909C91.7163 187.284 91.3668 187.58 90.9237 187.795C90.4805 188.011 89.9762 188.119 89.4109 188.119ZM99.1481 190.301C98.2788 190.301 97.5103 190.182 96.8427 189.943C96.1751 189.707 95.614 189.359 95.1594 188.899C94.7049 188.439 94.3612 187.875 94.1282 187.207C93.8952 186.54 93.7788 185.776 93.7788 184.915C93.7788 184.082 93.8967 183.338 94.1325 182.682C94.3711 182.026 94.7163 181.469 95.168 181.011C95.6225 180.551 96.1737 180.2 96.8214 179.959C97.4719 179.717 98.2077 179.597 99.0288 179.597C99.8271 179.597 100.526 179.727 101.125 179.989C101.728 180.247 102.23 180.598 102.634 181.041C103.04 181.482 103.344 181.977 103.546 182.528C103.75 183.08 103.853 183.648 103.853 184.233C103.853 184.645 103.833 185.062 103.793 185.486C103.753 185.909 103.669 186.298 103.542 186.653C103.414 187.006 103.216 187.29 102.949 187.506C102.685 187.722 102.327 187.83 101.875 187.83C101.676 187.83 101.458 187.798 101.219 187.736C100.98 187.673 100.769 187.57 100.584 187.425C100.4 187.28 100.29 187.085 100.256 186.841H100.205C100.137 187.006 100.032 187.162 99.8896 187.31C99.7504 187.457 99.5671 187.575 99.3398 187.663C99.1154 187.751 98.8413 187.79 98.5174 187.778C98.1481 187.764 97.8228 187.682 97.5415 187.531C97.2603 187.378 97.0245 187.17 96.8342 186.909C96.6467 186.645 96.5046 186.339 96.408 185.993C96.3143 185.643 96.2674 185.267 96.2674 184.864C96.2674 184.48 96.3242 184.129 96.4379 183.811C96.5515 183.493 96.7092 183.214 96.9109 182.976C97.1154 182.737 97.354 182.547 97.6268 182.405C97.9023 182.26 98.1992 182.17 98.5174 182.136C98.8015 182.108 99.06 182.121 99.293 182.175C99.5259 182.226 99.7177 182.304 99.8683 182.409C100.019 182.511 100.114 182.625 100.154 182.75H100.205V182.273H101.108V186.125C101.108 186.364 101.175 186.574 101.309 186.756C101.442 186.937 101.637 187.028 101.892 187.028C102.182 187.028 102.404 186.929 102.557 186.73C102.713 186.531 102.82 186.224 102.877 185.81C102.936 185.395 102.966 184.864 102.966 184.216C102.966 183.835 102.914 183.46 102.809 183.091C102.706 182.719 102.55 182.371 102.34 182.047C102.132 181.723 101.87 181.437 101.551 181.19C101.233 180.943 100.86 180.75 100.431 180.611C100.005 180.469 99.5202 180.398 98.9776 180.398C98.31 180.398 97.712 180.501 97.1836 180.709C96.658 180.913 96.2106 181.213 95.8413 181.608C95.4748 182 95.195 182.477 95.0018 183.04C94.8114 183.599 94.7163 184.236 94.7163 184.949C94.7163 185.673 94.8114 186.317 95.0018 186.879C95.195 187.442 95.479 187.916 95.854 188.303C96.2319 188.689 96.6992 188.982 97.256 189.18C97.8129 189.382 98.4549 189.483 99.1822 189.483C99.4947 189.483 99.8029 189.453 100.107 189.393C100.411 189.334 100.679 189.268 100.912 189.197C101.145 189.126 101.313 189.074 101.415 189.04L101.654 189.824C101.478 189.898 101.248 189.972 100.963 190.045C100.682 190.119 100.381 190.18 100.06 190.229C99.7418 190.277 99.4379 190.301 99.1481 190.301ZM98.6538 186.909C99.0344 186.909 99.3427 186.832 99.5785 186.679C99.8143 186.526 99.9862 186.294 100.094 185.984C100.202 185.675 100.256 185.284 100.256 184.812C100.256 184.335 100.196 183.963 100.077 183.696C99.9577 183.429 99.7816 183.241 99.5487 183.134C99.3157 183.026 99.0288 182.972 98.6879 182.972C98.364 182.972 98.087 183.057 97.8569 183.227C97.6296 183.395 97.4549 183.619 97.3327 183.901C97.2134 184.179 97.1538 184.483 97.1538 184.812C97.1538 185.176 97.2021 185.518 97.2987 185.839C97.3952 186.158 97.5529 186.416 97.7717 186.615C97.9904 186.811 98.2844 186.909 98.6538 186.909ZM108 190.591C107.514 190.591 107.097 190.528 106.747 190.403C106.398 190.281 106.107 190.119 105.874 189.918C105.643 189.719 105.46 189.506 105.324 189.278L106.125 188.716C106.216 188.835 106.331 188.972 106.47 189.125C106.609 189.281 106.8 189.416 107.041 189.53C107.286 189.646 107.605 189.705 108 189.705C108.528 189.705 108.964 189.577 109.308 189.321C109.652 189.065 109.824 188.665 109.824 188.119V186.79H109.739C109.665 186.909 109.56 187.057 109.423 187.233C109.29 187.406 109.097 187.561 108.844 187.697C108.594 187.831 108.256 187.898 107.83 187.898C107.301 187.898 106.827 187.773 106.406 187.523C105.989 187.273 105.658 186.909 105.413 186.432C105.172 185.955 105.051 185.375 105.051 184.693C105.051 184.023 105.169 183.439 105.405 182.942C105.641 182.442 105.969 182.055 106.389 181.783C106.81 181.507 107.295 181.369 107.847 181.369C108.273 181.369 108.611 181.44 108.861 181.582C109.114 181.722 109.307 181.881 109.44 182.06C109.577 182.236 109.682 182.381 109.756 182.494H109.858V181.455H110.83V188.188C110.83 188.75 110.702 189.207 110.446 189.56C110.193 189.915 109.852 190.175 109.423 190.339C108.997 190.507 108.523 190.591 108 190.591ZM107.966 186.994C108.369 186.994 108.71 186.902 108.989 186.717C109.267 186.533 109.479 186.267 109.624 185.92C109.768 185.574 109.841 185.159 109.841 184.676C109.841 184.205 109.77 183.788 109.628 183.428C109.486 183.067 109.276 182.784 108.997 182.58C108.719 182.375 108.375 182.273 107.966 182.273C107.54 182.273 107.185 182.381 106.901 182.597C106.619 182.812 106.408 183.102 106.266 183.466C106.126 183.83 106.057 184.233 106.057 184.676C106.057 185.131 106.128 185.533 106.27 185.882C106.415 186.229 106.628 186.501 106.909 186.7C107.193 186.896 107.545 186.994 107.966 186.994ZM112.67 188V181.455H113.642V182.477H113.727C113.864 182.128 114.084 181.857 114.388 181.663C114.692 181.467 115.057 181.369 115.483 181.369C115.915 181.369 116.274 181.467 116.561 181.663C116.851 181.857 117.077 182.128 117.239 182.477H117.307C117.474 182.139 117.726 181.871 118.061 181.672C118.396 181.47 118.798 181.369 119.267 181.369C119.852 181.369 120.331 181.553 120.703 181.919C121.075 182.283 121.261 182.849 121.261 183.619V188H120.256V183.619C120.256 183.136 120.124 182.791 119.859 182.584C119.595 182.376 119.284 182.273 118.926 182.273C118.466 182.273 118.109 182.412 117.857 182.69C117.604 182.966 117.477 183.315 117.477 183.739V188H116.455V183.517C116.455 183.145 116.334 182.845 116.092 182.618C115.851 182.388 115.54 182.273 115.159 182.273C114.898 182.273 114.653 182.342 114.426 182.482C114.202 182.621 114.02 182.814 113.881 183.061C113.744 183.305 113.676 183.588 113.676 183.909V188H112.67ZM125.026 188.153C124.612 188.153 124.235 188.075 123.897 187.919C123.559 187.76 123.29 187.531 123.092 187.233C122.893 186.932 122.793 186.568 122.793 186.142C122.793 185.767 122.867 185.463 123.015 185.23C123.163 184.994 123.36 184.81 123.607 184.676C123.854 184.543 124.127 184.443 124.425 184.378C124.727 184.31 125.029 184.256 125.333 184.216C125.731 184.165 126.053 184.126 126.3 184.101C126.55 184.072 126.732 184.026 126.846 183.96C126.962 183.895 127.021 183.781 127.021 183.619V183.585C127.021 183.165 126.906 182.838 126.675 182.605C126.448 182.372 126.103 182.256 125.64 182.256C125.16 182.256 124.783 182.361 124.511 182.571C124.238 182.781 124.046 183.006 123.935 183.244L122.981 182.903C123.151 182.506 123.379 182.196 123.663 181.974C123.95 181.75 124.262 181.594 124.6 181.506C124.941 181.415 125.276 181.369 125.606 181.369C125.816 181.369 126.058 181.395 126.33 181.446C126.606 181.494 126.871 181.595 127.127 181.749C127.386 181.902 127.6 182.134 127.771 182.443C127.941 182.753 128.026 183.168 128.026 183.688V188H127.021V187.114H126.969C126.901 187.256 126.788 187.408 126.629 187.57C126.469 187.732 126.258 187.869 125.994 187.983C125.729 188.097 125.407 188.153 125.026 188.153ZM125.18 187.25C125.577 187.25 125.913 187.172 126.185 187.016C126.461 186.859 126.668 186.658 126.808 186.411C126.95 186.163 127.021 185.903 127.021 185.631V184.71C126.978 184.761 126.884 184.808 126.739 184.851C126.597 184.891 126.433 184.926 126.245 184.957C126.06 184.986 125.88 185.011 125.704 185.034C125.531 185.054 125.39 185.071 125.282 185.085C125.021 185.119 124.776 185.175 124.549 185.251C124.325 185.325 124.143 185.437 124.004 185.588C123.867 185.736 123.799 185.937 123.799 186.193C123.799 186.543 123.928 186.807 124.187 186.986C124.448 187.162 124.779 187.25 125.18 187.25ZM129.862 188V181.455H130.868V188H129.862ZM130.373 180.364C130.177 180.364 130.008 180.297 129.866 180.163C129.727 180.03 129.657 179.869 129.657 179.682C129.657 179.494 129.727 179.334 129.866 179.2C130.008 179.067 130.177 179 130.373 179C130.569 179 130.737 179.067 130.876 179.2C131.018 179.334 131.089 179.494 131.089 179.682C131.089 179.869 131.018 180.03 130.876 180.163C130.737 180.297 130.569 180.364 130.373 180.364ZM133.715 179.273V188H132.71V179.273H133.715ZM136.29 188.068C136.08 188.068 135.9 187.993 135.749 187.842C135.598 187.692 135.523 187.511 135.523 187.301C135.523 187.091 135.598 186.911 135.749 186.76C135.9 186.609 136.08 186.534 136.29 186.534C136.5 186.534 136.681 186.609 136.831 186.76C136.982 186.911 137.057 187.091 137.057 187.301C137.057 187.44 137.022 187.568 136.951 187.685C136.882 187.801 136.79 187.895 136.674 187.966C136.56 188.034 136.432 188.068 136.29 188.068ZM141.521 188.136C140.907 188.136 140.379 187.991 139.936 187.702C139.493 187.412 139.152 187.013 138.913 186.504C138.674 185.996 138.555 185.415 138.555 184.761C138.555 184.097 138.677 183.51 138.922 183.001C139.169 182.49 139.512 182.091 139.953 181.804C140.396 181.514 140.913 181.369 141.504 181.369C141.964 181.369 142.379 181.455 142.748 181.625C143.118 181.795 143.42 182.034 143.656 182.341C143.892 182.648 144.038 183.006 144.095 183.415H143.089C143.012 183.116 142.842 182.852 142.578 182.622C142.316 182.389 141.964 182.273 141.521 182.273C141.129 182.273 140.785 182.375 140.49 182.58C140.197 182.781 139.968 183.067 139.804 183.436C139.642 183.803 139.561 184.233 139.561 184.727C139.561 185.233 139.64 185.673 139.799 186.048C139.961 186.423 140.189 186.714 140.481 186.922C140.777 187.129 141.123 187.233 141.521 187.233C141.782 187.233 142.02 187.188 142.233 187.097C142.446 187.006 142.626 186.875 142.774 186.705C142.922 186.534 143.027 186.33 143.089 186.091H144.095C144.038 186.477 143.897 186.825 143.673 187.135C143.451 187.442 143.157 187.686 142.791 187.868C142.427 188.047 142.004 188.136 141.521 188.136ZM148.224 188.136C147.633 188.136 147.115 187.996 146.669 187.714C146.225 187.433 145.879 187.04 145.629 186.534C145.382 186.028 145.258 185.437 145.258 184.761C145.258 184.08 145.382 183.484 145.629 182.976C145.879 182.467 146.225 182.072 146.669 181.791C147.115 181.51 147.633 181.369 148.224 181.369C148.815 181.369 149.332 181.51 149.775 181.791C150.221 182.072 150.568 182.467 150.815 182.976C151.065 183.484 151.19 184.08 151.19 184.761C151.19 185.437 151.065 186.028 150.815 186.534C150.568 187.04 150.221 187.433 149.775 187.714C149.332 187.996 148.815 188.136 148.224 188.136ZM148.224 187.233C148.673 187.233 149.042 187.118 149.332 186.888C149.622 186.658 149.836 186.355 149.975 185.98C150.115 185.605 150.184 185.199 150.184 184.761C150.184 184.324 150.115 183.916 149.975 183.538C149.836 183.161 149.622 182.855 149.332 182.622C149.042 182.389 148.673 182.273 148.224 182.273C147.775 182.273 147.406 182.389 147.116 182.622C146.826 182.855 146.612 183.161 146.473 183.538C146.333 183.916 146.264 184.324 146.264 184.761C146.264 185.199 146.333 185.605 146.473 185.98C146.612 186.355 146.826 186.658 147.116 186.888C147.406 187.118 147.775 187.233 148.224 187.233ZM152.725 188V181.455H153.697V182.477H153.782C153.918 182.128 154.138 181.857 154.442 181.663C154.746 181.467 155.112 181.369 155.538 181.369C155.969 181.369 156.329 181.467 156.616 181.663C156.906 181.857 157.131 182.128 157.293 182.477H157.362C157.529 182.139 157.781 181.871 158.116 181.672C158.451 181.47 158.853 181.369 159.322 181.369C159.907 181.369 160.386 181.553 160.758 181.919C161.13 182.283 161.316 182.849 161.316 183.619V188H160.31V183.619C160.31 183.136 160.178 182.791 159.914 182.584C159.65 182.376 159.339 182.273 158.981 182.273C158.521 182.273 158.164 182.412 157.911 182.69C157.658 182.966 157.532 183.315 157.532 183.739V188H156.509V183.517C156.509 183.145 156.388 182.845 156.147 182.618C155.906 182.388 155.594 182.273 155.214 182.273C154.952 182.273 154.708 182.342 154.481 182.482C154.256 182.621 154.075 182.814 153.935 183.061C153.799 183.305 153.731 183.588 153.731 183.909V188H152.725Z" fill="#4F4F4F"/>
<path d="M28.0568 244V235.273H31.0057C31.6903 235.273 32.25 235.396 32.6847 235.643C33.1222 235.888 33.446 236.219 33.6562 236.636C33.8665 237.054 33.9716 237.52 33.9716 238.034C33.9716 238.548 33.8665 239.016 33.6562 239.436C33.4489 239.857 33.1278 240.192 32.6932 240.442C32.2585 240.689 31.7017 240.812 31.0227 240.812H28.9091V239.875H30.9886C31.4574 239.875 31.8338 239.794 32.1179 239.632C32.402 239.47 32.608 239.251 32.7358 238.976C32.8665 238.697 32.9318 238.384 32.9318 238.034C32.9318 237.685 32.8665 237.372 32.7358 237.097C32.608 236.821 32.4006 236.605 32.1136 236.449C31.8267 236.29 31.446 236.21 30.9716 236.21H29.1136V244H28.0568ZM37.4638 244.153C37.049 244.153 36.6726 244.075 36.3345 243.919C35.9964 243.76 35.728 243.531 35.5291 243.233C35.3303 242.932 35.2308 242.568 35.2308 242.142C35.2308 241.767 35.3047 241.463 35.4524 241.23C35.6001 240.994 35.7976 240.81 36.0447 240.676C36.2919 240.543 36.5646 240.443 36.8629 240.378C37.1641 240.31 37.4666 240.256 37.7706 240.216C38.1683 240.165 38.4908 240.126 38.7379 240.101C38.9879 240.072 39.1697 240.026 39.2834 239.96C39.3999 239.895 39.4581 239.781 39.4581 239.619V239.585C39.4581 239.165 39.343 238.838 39.1129 238.605C38.8857 238.372 38.5405 238.256 38.0774 238.256C37.5973 238.256 37.2209 238.361 36.9482 238.571C36.6754 238.781 36.4837 239.006 36.3729 239.244L35.4183 238.903C35.5888 238.506 35.8161 238.196 36.1001 237.974C36.3871 237.75 36.6996 237.594 37.0376 237.506C37.3786 237.415 37.7138 237.369 38.0433 237.369C38.2536 237.369 38.495 237.395 38.7678 237.446C39.0433 237.494 39.3089 237.595 39.5646 237.749C39.8232 237.902 40.0376 238.134 40.2081 238.443C40.3786 238.753 40.4638 239.168 40.4638 239.688V244H39.4581V243.114H39.407C39.3388 243.256 39.2251 243.408 39.0661 243.57C38.907 243.732 38.6953 243.869 38.4311 243.983C38.1669 244.097 37.8445 244.153 37.4638 244.153ZM37.6172 243.25C38.0149 243.25 38.3501 243.172 38.6229 243.016C38.8984 242.859 39.1058 242.658 39.245 242.411C39.3871 242.163 39.4581 241.903 39.4581 241.631V240.71C39.4155 240.761 39.3217 240.808 39.1768 240.851C39.0348 240.891 38.87 240.926 38.6825 240.957C38.4979 240.986 38.3175 241.011 38.1413 241.034C37.968 241.054 37.8274 241.071 37.7195 241.085C37.4581 241.119 37.2138 241.175 36.9865 241.251C36.7621 241.325 36.5803 241.437 36.4411 241.588C36.3047 241.736 36.2365 241.937 36.2365 242.193C36.2365 242.543 36.3658 242.807 36.6243 242.986C36.8857 243.162 37.2166 243.25 37.6172 243.25ZM43.2369 241.614L43.2198 240.369H43.4244L46.288 237.455H47.5323L44.4812 240.54H44.396L43.2369 241.614ZM42.2994 244V235.273H43.305V244H42.2994ZM46.4585 244L43.9016 240.761L44.6175 240.062L47.7369 244H46.4585ZM48.8267 244V237.455H49.8324V244H48.8267ZM49.3381 236.364C49.142 236.364 48.973 236.297 48.831 236.163C48.6918 236.03 48.6222 235.869 48.6222 235.682C48.6222 235.494 48.6918 235.334 48.831 235.2C48.973 235.067 49.142 235 49.3381 235C49.5341 235 49.7017 235.067 49.8409 235.2C49.983 235.334 50.054 235.494 50.054 235.682C50.054 235.869 49.983 236.03 49.8409 236.163C49.7017 236.297 49.5341 236.364 49.3381 236.364ZM56.3107 238.92L55.4073 239.176C55.3505 239.026 55.2667 238.879 55.1559 238.737C55.0479 238.592 54.9002 238.473 54.7127 238.379C54.5252 238.286 54.2852 238.239 53.9925 238.239C53.592 238.239 53.2582 238.331 52.9911 238.516C52.7269 238.697 52.5948 238.929 52.5948 239.21C52.5948 239.46 52.6857 239.658 52.8675 239.803C53.0494 239.947 53.3335 240.068 53.7198 240.165L54.6914 240.403C55.2766 240.545 55.7127 240.763 55.9996 241.055C56.2866 241.345 56.43 241.719 56.43 242.176C56.43 242.551 56.3221 242.886 56.1062 243.182C55.8931 243.477 55.5948 243.71 55.2113 243.881C54.8278 244.051 54.3817 244.136 53.8732 244.136C53.2056 244.136 52.6531 243.991 52.2156 243.702C51.7781 243.412 51.5011 242.989 51.3846 242.432L52.3391 242.193C52.43 242.545 52.6019 242.81 52.8548 242.986C53.1104 243.162 53.4442 243.25 53.8562 243.25C54.3249 243.25 54.6971 243.151 54.9727 242.952C55.2511 242.75 55.3903 242.509 55.3903 242.227C55.3903 242 55.3107 241.81 55.1516 241.656C54.9925 241.5 54.7482 241.384 54.4187 241.307L53.3278 241.051C52.7283 240.909 52.288 240.689 52.0067 240.391C51.7283 240.089 51.5891 239.713 51.5891 239.261C51.5891 238.892 51.6928 238.565 51.9002 238.281C52.1104 237.997 52.396 237.774 52.7567 237.612C53.1204 237.45 53.5323 237.369 53.9925 237.369C54.6403 237.369 55.1488 237.511 55.5181 237.795C55.8903 238.08 56.1545 238.455 56.3107 238.92ZM60.7905 237.455V238.307H57.3984V237.455H60.7905ZM58.3871 235.886H59.3928V242.125C59.3928 242.409 59.4339 242.622 59.5163 242.764C59.6016 242.903 59.7095 242.997 59.8402 243.045C59.9737 243.091 60.1143 243.114 60.2621 243.114C60.3729 243.114 60.4638 243.108 60.5348 243.097C60.6058 243.082 60.6626 243.071 60.7053 243.062L60.9098 243.966C60.8416 243.991 60.7464 244.017 60.6243 244.043C60.5021 244.071 60.3473 244.085 60.1598 244.085C59.8757 244.085 59.5973 244.024 59.3246 243.902C59.0547 243.78 58.8303 243.594 58.6513 243.344C58.4751 243.094 58.3871 242.778 58.3871 242.398V235.886ZM64.2294 244.153C63.8146 244.153 63.4382 244.075 63.1001 243.919C62.7621 243.76 62.4936 243.531 62.2947 243.233C62.0959 242.932 61.9964 242.568 61.9964 242.142C61.9964 241.767 62.0703 241.463 62.218 241.23C62.3658 240.994 62.5632 240.81 62.8104 240.676C63.0575 240.543 63.3303 240.443 63.6286 240.378C63.9297 240.31 64.2322 240.256 64.5362 240.216C64.9339 240.165 65.2564 240.126 65.5036 240.101C65.7536 240.072 65.9354 240.026 66.049 239.96C66.1655 239.895 66.2237 239.781 66.2237 239.619V239.585C66.2237 239.165 66.1087 238.838 65.8786 238.605C65.6513 238.372 65.3061 238.256 64.843 238.256C64.3629 238.256 63.9865 238.361 63.7138 238.571C63.4411 238.781 63.2493 239.006 63.1385 239.244L62.1839 238.903C62.3544 238.506 62.5817 238.196 62.8658 237.974C63.1527 237.75 63.4652 237.594 63.8033 237.506C64.1442 237.415 64.4794 237.369 64.8089 237.369C65.0192 237.369 65.2607 237.395 65.5334 237.446C65.8089 237.494 66.0746 237.595 66.3303 237.749C66.5888 237.902 66.8033 238.134 66.9737 238.443C67.1442 238.753 67.2294 239.168 67.2294 239.688V244H66.2237V243.114H66.1726C66.1044 243.256 65.9908 243.408 65.8317 243.57C65.6726 243.732 65.4609 243.869 65.1967 243.983C64.9325 244.097 64.6101 244.153 64.2294 244.153ZM64.3828 243.25C64.7805 243.25 65.1158 243.172 65.3885 243.016C65.6641 242.859 65.8714 242.658 66.0107 242.411C66.1527 242.163 66.2237 241.903 66.2237 241.631V240.71C66.1811 240.761 66.0874 240.808 65.9425 240.851C65.8004 240.891 65.6357 240.926 65.4482 240.957C65.2635 240.986 65.0831 241.011 64.907 241.034C64.7337 241.054 64.593 241.071 64.4851 241.085C64.2237 241.119 63.9794 241.175 63.7521 241.251C63.5277 241.325 63.3459 241.437 63.2067 241.588C63.0703 241.736 63.0021 241.937 63.0021 242.193C63.0021 242.543 63.1314 242.807 63.3899 242.986C63.6513 243.162 63.9822 243.25 64.3828 243.25ZM70.0707 240.062V244H69.065V237.455H70.0366V238.477H70.1218C70.2752 238.145 70.5082 237.878 70.8207 237.676C71.1332 237.472 71.5366 237.369 72.0309 237.369C72.4741 237.369 72.8619 237.46 73.1942 237.642C73.5266 237.821 73.7852 238.094 73.9698 238.46C74.1545 238.824 74.2468 239.284 74.2468 239.841V244H73.2411V239.909C73.2411 239.395 73.1076 238.994 72.8406 238.707C72.5735 238.418 72.207 238.273 71.7411 238.273C71.4201 238.273 71.1332 238.342 70.8803 238.482C70.6303 238.621 70.4329 238.824 70.288 239.091C70.1431 239.358 70.0707 239.682 70.0707 240.062Z" fill="#4F4F4F"/>
<path d="M30.75 216.119C30.108 216.119 29.5611 215.945 29.1094 215.595C28.6577 215.243 28.3125 214.733 28.0739 214.065C27.8352 213.395 27.7159 212.585 27.7159 211.636C27.7159 210.693 27.8352 209.888 28.0739 209.22C28.3153 208.55 28.6619 208.038 29.1136 207.686C29.5682 207.331 30.1136 207.153 30.75 207.153C31.3864 207.153 31.9304 207.331 32.3821 207.686C32.8366 208.038 33.1832 208.55 33.4219 209.22C33.6634 209.888 33.7841 210.693 33.7841 211.636C33.7841 212.585 33.6648 213.395 33.4261 214.065C33.1875 214.733 32.8423 215.243 32.3906 215.595C31.9389 215.945 31.392 216.119 30.75 216.119ZM30.75 215.182C31.3864 215.182 31.8807 214.875 32.233 214.261C32.5852 213.648 32.7614 212.773 32.7614 211.636C32.7614 210.881 32.6804 210.237 32.5185 209.706C32.3594 209.175 32.1293 208.77 31.8281 208.491C31.5298 208.213 31.1705 208.074 30.75 208.074C30.1193 208.074 29.6264 208.385 29.2713 209.007C28.9162 209.626 28.7386 210.503 28.7386 211.636C28.7386 212.392 28.8182 213.034 28.9773 213.562C29.1364 214.091 29.3651 214.493 29.6634 214.768C29.9645 215.044 30.3267 215.182 30.75 215.182ZM38.3523 216.119C37.7898 216.119 37.2884 216.023 36.848 215.83C36.4105 215.636 36.0625 215.368 35.804 215.024C35.5483 214.678 35.4091 214.276 35.3864 213.818H36.4602C36.483 214.099 36.5795 214.342 36.75 214.547C36.9205 214.749 37.1435 214.905 37.419 215.016C37.6946 215.126 38 215.182 38.3352 215.182C38.7102 215.182 39.0426 215.116 39.3324 214.986C39.6222 214.855 39.8494 214.673 40.0142 214.44C40.179 214.207 40.2614 213.938 40.2614 213.631C40.2614 213.31 40.1818 213.027 40.0227 212.783C39.8636 212.536 39.6307 212.342 39.3239 212.203C39.017 212.064 38.642 211.994 38.1989 211.994H37.5V211.057H38.1989C38.5455 211.057 38.8494 210.994 39.1108 210.869C39.375 210.744 39.581 210.568 39.7287 210.341C39.8793 210.114 39.9545 209.847 39.9545 209.54C39.9545 209.244 39.8892 208.987 39.7585 208.768C39.6278 208.55 39.4432 208.379 39.2045 208.257C38.9688 208.135 38.6903 208.074 38.3693 208.074C38.0682 208.074 37.7841 208.129 37.517 208.24C37.2528 208.348 37.0369 208.506 36.8693 208.713C36.7017 208.918 36.6108 209.165 36.5966 209.455H35.5739C35.5909 208.997 35.7287 208.597 35.9872 208.253C36.2457 207.906 36.5838 207.636 37.0014 207.443C37.4219 207.25 37.8835 207.153 38.3864 207.153C38.9261 207.153 39.3892 207.263 39.7756 207.482C40.1619 207.697 40.4588 207.983 40.6662 208.338C40.8736 208.693 40.9773 209.077 40.9773 209.489C40.9773 209.98 40.848 210.399 40.5895 210.746C40.3338 211.092 39.9858 211.332 39.5455 211.466V211.534C40.0966 211.625 40.527 211.859 40.8366 212.237C41.1463 212.612 41.3011 213.077 41.3011 213.631C41.3011 214.105 41.1719 214.531 40.9134 214.909C40.6577 215.284 40.3082 215.58 39.8651 215.795C39.4219 216.011 38.9176 216.119 38.3523 216.119ZM43.044 216V215.233L45.9247 212.08C46.2628 211.71 46.5412 211.389 46.7599 211.116C46.9787 210.841 47.1406 210.582 47.2457 210.341C47.3537 210.097 47.4077 209.841 47.4077 209.574C47.4077 209.267 47.3338 209.001 47.1861 208.777C47.0412 208.553 46.8423 208.379 46.5895 208.257C46.3366 208.135 46.0526 208.074 45.7372 208.074C45.402 208.074 45.1094 208.143 44.8594 208.283C44.6122 208.419 44.4205 208.611 44.2841 208.858C44.1506 209.105 44.0838 209.395 44.0838 209.727H43.0781C43.0781 209.216 43.196 208.767 43.4318 208.381C43.6676 207.994 43.9886 207.693 44.3949 207.477C44.804 207.261 45.2628 207.153 45.7713 207.153C46.2827 207.153 46.7358 207.261 47.1307 207.477C47.5256 207.693 47.8352 207.984 48.0597 208.351C48.2841 208.717 48.3963 209.125 48.3963 209.574C48.3963 209.895 48.3381 210.209 48.2216 210.516C48.108 210.82 47.9091 211.159 47.625 211.534C47.3438 211.906 46.9531 212.361 46.4531 212.898L44.4929 214.994V215.062H48.5497V216H43.044ZM53.3778 207.273V216H52.321V208.381H52.2699L50.1392 209.795V208.722L52.321 207.273H53.3778ZM58.6151 216.119C58.1151 216.119 57.6648 216.02 57.2642 215.821C56.8636 215.622 56.5426 215.349 56.3011 215.003C56.0597 214.656 55.9276 214.261 55.9048 213.818H56.9276C56.9673 214.213 57.1463 214.54 57.4645 214.798C57.7855 215.054 58.169 215.182 58.6151 215.182C58.973 215.182 59.2912 215.098 59.5696 214.93C59.8509 214.763 60.071 214.533 60.2301 214.24C60.392 213.945 60.473 213.611 60.473 213.239C60.473 212.858 60.3892 212.518 60.2216 212.22C60.0568 211.919 59.8295 211.682 59.5398 211.509C59.25 211.335 58.919 211.247 58.5469 211.244C58.2798 211.241 58.0057 211.283 57.7244 211.368C57.4432 211.45 57.2116 211.557 57.0298 211.688L56.0412 211.568L56.5696 207.273H61.1037V208.21H57.456L57.1491 210.784H57.2003C57.3793 210.642 57.6037 210.524 57.8736 210.43C58.1435 210.337 58.4247 210.29 58.7173 210.29C59.2514 210.29 59.7273 210.418 60.1449 210.673C60.5653 210.926 60.8949 211.273 61.1335 211.713C61.375 212.153 61.4957 212.656 61.4957 213.222C61.4957 213.778 61.3707 214.276 61.1207 214.713C60.8736 215.148 60.5327 215.491 60.098 215.744C59.6634 215.994 59.169 216.119 58.6151 216.119ZM66.1374 216.119C65.5749 216.119 65.0735 216.023 64.6332 215.83C64.1957 215.636 63.8477 215.368 63.5891 215.024C63.3335 214.678 63.1942 214.276 63.1715 213.818H64.2454C64.2681 214.099 64.3647 214.342 64.5352 214.547C64.7056 214.749 64.9286 214.905 65.2042 215.016C65.4798 215.126 65.7852 215.182 66.1204 215.182C66.4954 215.182 66.8278 215.116 67.1175 214.986C67.4073 214.855 67.6346 214.673 67.7994 214.44C67.9641 214.207 68.0465 213.938 68.0465 213.631C68.0465 213.31 67.967 213.027 67.8079 212.783C67.6488 212.536 67.4158 212.342 67.109 212.203C66.8022 212.064 66.4272 211.994 65.984 211.994H65.2852V211.057H65.984C66.3306 211.057 66.6346 210.994 66.896 210.869C67.1602 210.744 67.3661 210.568 67.5138 210.341C67.6644 210.114 67.7397 209.847 67.7397 209.54C67.7397 209.244 67.6744 208.987 67.5437 208.768C67.413 208.55 67.2283 208.379 66.9897 208.257C66.7539 208.135 66.4755 208.074 66.1545 208.074C65.8533 208.074 65.5692 208.129 65.3022 208.24C65.038 208.348 64.8221 208.506 64.6545 208.713C64.4869 208.918 64.396 209.165 64.3817 209.455H63.359C63.3761 208.997 63.5138 208.597 63.7724 208.253C64.0309 207.906 64.369 207.636 64.7866 207.443C65.207 207.25 65.6687 207.153 66.1715 207.153C66.7113 207.153 67.1744 207.263 67.5607 207.482C67.9471 207.697 68.244 207.983 68.4513 208.338C68.6587 208.693 68.7624 209.077 68.7624 209.489C68.7624 209.98 68.6332 210.399 68.3746 210.746C68.119 211.092 67.771 211.332 67.3306 211.466V211.534C67.8817 211.625 68.3121 211.859 68.6218 212.237C68.9315 212.612 69.0863 213.077 69.0863 213.631C69.0863 214.105 68.957 214.531 68.6985 214.909C68.4428 215.284 68.0934 215.58 67.6502 215.795C67.207 216.011 66.7028 216.119 66.1374 216.119ZM73.6076 207.153C73.9656 207.156 74.3235 207.224 74.6815 207.358C75.0394 207.491 75.3661 207.713 75.6616 208.023C75.957 208.33 76.1942 208.749 76.3732 209.28C76.5522 209.811 76.6417 210.477 76.6417 211.278C76.6417 212.054 76.5678 212.743 76.4201 213.345C76.2752 213.945 76.065 214.45 75.7894 214.862C75.5167 215.274 75.1843 215.587 74.7923 215.8C74.4031 216.013 73.9627 216.119 73.4712 216.119C72.9826 216.119 72.5465 216.023 72.163 215.83C71.7823 215.634 71.4698 215.362 71.2255 215.016C70.984 214.666 70.8292 214.261 70.761 213.801H71.8008C71.8945 214.202 72.0806 214.533 72.359 214.794C72.6403 215.053 73.011 215.182 73.4712 215.182C74.1445 215.182 74.6758 214.888 75.065 214.3C75.457 213.712 75.6531 212.881 75.6531 211.807H75.5849C75.4258 212.045 75.2369 212.251 75.0181 212.425C74.7994 212.598 74.5565 212.732 74.2894 212.825C74.0224 212.919 73.7383 212.966 73.4371 212.966C72.9371 212.966 72.4783 212.842 72.0607 212.595C71.646 212.345 71.3136 212.003 71.0636 211.568C70.8164 211.131 70.6928 210.631 70.6928 210.068C70.6928 209.534 70.8121 209.045 71.0508 208.602C71.2923 208.156 71.6303 207.801 72.065 207.537C72.5025 207.273 73.0167 207.145 73.6076 207.153ZM73.6076 208.091C73.2496 208.091 72.9272 208.18 72.6403 208.359C72.3562 208.536 72.1303 208.774 71.9627 209.075C71.7979 209.374 71.7156 209.705 71.7156 210.068C71.7156 210.432 71.7951 210.763 71.9542 211.061C72.1161 211.357 72.3363 211.592 72.6147 211.768C72.896 211.942 73.2156 212.028 73.5735 212.028C73.8434 212.028 74.0948 211.976 74.3278 211.871C74.5607 211.763 74.7638 211.616 74.9371 211.432C75.1133 211.244 75.2511 211.033 75.3505 210.797C75.4499 210.558 75.4996 210.31 75.4996 210.051C75.4996 209.71 75.4173 209.391 75.2525 209.092C75.0906 208.794 74.8661 208.553 74.5792 208.368C74.2951 208.183 73.9712 208.091 73.6076 208.091ZM81.0959 207.153C81.4538 207.156 81.8118 207.224 82.1697 207.358C82.5277 207.491 82.8544 207.713 83.1499 208.023C83.4453 208.33 83.6825 208.749 83.8615 209.28C84.0405 209.811 84.13 210.477 84.13 211.278C84.13 212.054 84.0561 212.743 83.9084 213.345C83.7635 213.945 83.5533 214.45 83.2777 214.862C83.005 215.274 82.6726 215.587 82.2805 215.8C81.8913 216.013 81.451 216.119 80.9595 216.119C80.4709 216.119 80.0348 216.023 79.6513 215.83C79.2706 215.634 78.9581 215.362 78.7138 215.016C78.4723 214.666 78.3175 214.261 78.2493 213.801H79.2891C79.3828 214.202 79.5689 214.533 79.8473 214.794C80.1286 215.053 80.4993 215.182 80.9595 215.182C81.6328 215.182 82.1641 214.888 82.5533 214.3C82.9453 213.712 83.1413 212.881 83.1413 211.807H83.0732C82.9141 212.045 82.7251 212.251 82.5064 212.425C82.2876 212.598 82.0447 212.732 81.7777 212.825C81.5107 212.919 81.2266 212.966 80.9254 212.966C80.4254 212.966 79.9666 212.842 79.549 212.595C79.1342 212.345 78.8018 212.003 78.5518 211.568C78.3047 211.131 78.1811 210.631 78.1811 210.068C78.1811 209.534 78.3004 209.045 78.5391 208.602C78.7805 208.156 79.1186 207.801 79.5533 207.537C79.9908 207.273 80.505 207.145 81.0959 207.153ZM81.0959 208.091C80.7379 208.091 80.4155 208.18 80.1286 208.359C79.8445 208.536 79.6186 208.774 79.451 209.075C79.2862 209.374 79.2038 209.705 79.2038 210.068C79.2038 210.432 79.2834 210.763 79.4425 211.061C79.6044 211.357 79.8246 211.592 80.103 211.768C80.3842 211.942 80.7038 212.028 81.0618 212.028C81.3317 212.028 81.5831 211.976 81.8161 211.871C82.049 211.763 82.2521 211.616 82.4254 211.432C82.6016 211.244 82.7393 211.033 82.8388 210.797C82.9382 210.558 82.9879 210.31 82.9879 210.051C82.9879 209.71 82.9055 209.391 82.7408 209.092C82.5788 208.794 82.3544 208.553 82.0675 208.368C81.7834 208.183 81.4595 208.091 81.0959 208.091ZM85.8058 216V215.233L88.6864 212.08C89.0245 211.71 89.3029 211.389 89.5217 211.116C89.7404 210.841 89.9023 210.582 90.0075 210.341C90.1154 210.097 90.1694 209.841 90.1694 209.574C90.1694 209.267 90.0955 209.001 89.9478 208.777C89.8029 208.553 89.604 208.379 89.3512 208.257C89.0984 208.135 88.8143 208.074 88.4989 208.074C88.1637 208.074 87.8711 208.143 87.6211 208.283C87.3739 208.419 87.1822 208.611 87.0458 208.858C86.9123 209.105 86.8455 209.395 86.8455 209.727H85.8398C85.8398 209.216 85.9577 208.767 86.1935 208.381C86.4293 207.994 86.7504 207.693 87.1566 207.477C87.5657 207.261 88.0245 207.153 88.533 207.153C89.0444 207.153 89.4975 207.261 89.8924 207.477C90.2873 207.693 90.5969 207.984 90.8214 208.351C91.0458 208.717 91.158 209.125 91.158 209.574C91.158 209.895 91.0998 210.209 90.9833 210.516C90.8697 210.82 90.6708 211.159 90.3867 211.534C90.1055 211.906 89.7148 212.361 89.2148 212.898L87.2546 214.994V215.062H91.3114V216H85.8058ZM93.3441 216L97.2475 208.278V208.21H92.7475V207.273H98.3384V208.261L94.4521 216H93.3441ZM102.537 216.119C102.037 216.119 101.587 216.02 101.186 215.821C100.786 215.622 100.464 215.349 100.223 215.003C99.9815 214.656 99.8494 214.261 99.8267 213.818H100.849C100.889 214.213 101.068 214.54 101.386 214.798C101.707 215.054 102.091 215.182 102.537 215.182C102.895 215.182 103.213 215.098 103.491 214.93C103.773 214.763 103.993 214.533 104.152 214.24C104.314 213.945 104.395 213.611 104.395 213.239C104.395 212.858 104.311 212.518 104.143 212.22C103.979 211.919 103.751 211.682 103.462 211.509C103.172 211.335 102.841 211.247 102.469 211.244C102.202 211.241 101.928 211.283 101.646 211.368C101.365 211.45 101.134 211.557 100.952 211.688L99.9631 211.568L100.491 207.273H105.026V208.21H101.378L101.071 210.784H101.122C101.301 210.642 101.526 210.524 101.795 210.43C102.065 210.337 102.347 210.29 102.639 210.29C103.173 210.29 103.649 210.418 104.067 210.673C104.487 210.926 104.817 211.273 105.055 211.713C105.297 212.153 105.418 212.656 105.418 213.222C105.418 213.778 105.293 214.276 105.043 214.713C104.795 215.148 104.455 215.491 104.02 215.744C103.585 215.994 103.091 216.119 102.537 216.119Z" fill="#4F4F4F"/>
<path d="M32.8295 108.455C32.7784 108.023 32.571 107.688 32.2074 107.449C31.8438 107.21 31.3977 107.091 30.8693 107.091C30.483 107.091 30.1449 107.153 29.8551 107.278C29.5682 107.403 29.3438 107.575 29.1818 107.794C29.0227 108.013 28.9432 108.261 28.9432 108.54C28.9432 108.773 28.9986 108.973 29.1094 109.141C29.223 109.305 29.3679 109.443 29.544 109.554C29.7202 109.662 29.9048 109.751 30.098 109.822C30.2912 109.891 30.4688 109.946 30.6307 109.989L31.517 110.227C31.7443 110.287 31.9972 110.369 32.2756 110.474C32.5568 110.58 32.8253 110.723 33.081 110.905C33.3395 111.084 33.5526 111.314 33.7202 111.595C33.8878 111.876 33.9716 112.222 33.9716 112.631C33.9716 113.102 33.848 113.528 33.6009 113.909C33.3565 114.29 32.9986 114.592 32.527 114.817C32.0582 115.041 31.4886 115.153 30.8182 115.153C30.1932 115.153 29.652 115.053 29.1946 114.851C28.7401 114.649 28.3821 114.368 28.1207 114.007C27.8622 113.646 27.7159 113.227 27.6818 112.75H28.7727C28.8011 113.08 28.9119 113.352 29.1051 113.568C29.3011 113.781 29.5483 113.94 29.8466 114.045C30.1477 114.148 30.4716 114.199 30.8182 114.199C31.2216 114.199 31.5838 114.134 31.9048 114.003C32.2259 113.869 32.4801 113.685 32.6676 113.449C32.8551 113.21 32.9489 112.932 32.9489 112.614C32.9489 112.324 32.8679 112.088 32.706 111.906C32.544 111.724 32.331 111.577 32.0668 111.463C31.8026 111.349 31.517 111.25 31.2102 111.165L30.1364 110.858C29.4545 110.662 28.9148 110.382 28.517 110.018C28.1193 109.655 27.9205 109.179 27.9205 108.591C27.9205 108.102 28.0526 107.676 28.3168 107.312C28.5838 106.946 28.9418 106.662 29.3906 106.46C29.8423 106.256 30.3466 106.153 30.9034 106.153C31.4659 106.153 31.9659 106.254 32.4034 106.456C32.8409 106.655 33.1875 106.928 33.4432 107.274C33.7017 107.621 33.8381 108.014 33.8523 108.455H32.8295ZM38.3171 115.136C37.6864 115.136 37.1424 114.997 36.685 114.719C36.2305 114.438 35.8796 114.045 35.6325 113.543C35.3881 113.037 35.266 112.449 35.266 111.778C35.266 111.108 35.3881 110.517 35.6325 110.006C35.8796 109.491 36.2234 109.091 36.6637 108.804C37.1069 108.514 37.6239 108.369 38.2148 108.369C38.5558 108.369 38.8924 108.426 39.2248 108.54C39.5572 108.653 39.8597 108.838 40.1325 109.094C40.4052 109.347 40.6225 109.682 40.7844 110.099C40.9464 110.517 41.0273 111.031 41.0273 111.642V112.068H35.9819V111.199H40.0046C40.0046 110.83 39.9308 110.5 39.783 110.21C39.6381 109.92 39.4308 109.692 39.1609 109.524C38.8938 109.357 38.5785 109.273 38.2148 109.273C37.8143 109.273 37.4677 109.372 37.1751 109.571C36.8853 109.767 36.6623 110.023 36.506 110.338C36.3498 110.653 36.2717 110.991 36.2717 111.352V111.932C36.2717 112.426 36.3569 112.845 36.5273 113.189C36.7006 113.53 36.9407 113.79 37.2475 113.969C37.5543 114.145 37.9109 114.233 38.3171 114.233C38.5813 114.233 38.82 114.196 39.033 114.122C39.2489 114.045 39.435 113.932 39.5913 113.781C39.7475 113.628 39.8683 113.437 39.9535 113.21L40.9251 113.483C40.8228 113.812 40.6509 114.102 40.4094 114.352C40.168 114.599 39.8697 114.793 39.5146 114.932C39.1594 115.068 38.7603 115.136 38.3171 115.136ZM43.5629 111.062V115H42.5572V108.455H43.5288V109.477H43.614C43.7674 109.145 44.0004 108.878 44.3129 108.676C44.6254 108.472 45.0288 108.369 45.5231 108.369C45.9663 108.369 46.354 108.46 46.6864 108.642C47.0188 108.821 47.2773 109.094 47.462 109.46C47.6467 109.824 47.739 110.284 47.739 110.841V115H46.7333V110.909C46.7333 110.395 46.5998 109.994 46.3327 109.707C46.0657 109.418 45.6992 109.273 45.2333 109.273C44.9123 109.273 44.6254 109.342 44.3725 109.482C44.1225 109.621 43.9251 109.824 43.7802 110.091C43.6353 110.358 43.5629 110.682 43.5629 111.062ZM52.0483 115.136C51.5028 115.136 51.0213 114.999 50.6037 114.723C50.1861 114.445 49.8594 114.053 49.6236 113.547C49.3878 113.038 49.2699 112.438 49.2699 111.744C49.2699 111.057 49.3878 110.46 49.6236 109.955C49.8594 109.449 50.1875 109.058 50.608 108.783C51.0284 108.507 51.5142 108.369 52.0653 108.369C52.4915 108.369 52.8281 108.44 53.0753 108.582C53.3253 108.722 53.5156 108.881 53.6463 109.06C53.7798 109.236 53.8835 109.381 53.9574 109.494H54.0426V106.273H55.0483V115H54.0767V113.994H53.9574C53.8835 114.114 53.7784 114.264 53.642 114.446C53.5057 114.625 53.3111 114.786 53.0582 114.928C52.8054 115.067 52.4688 115.136 52.0483 115.136ZM52.1847 114.233C52.5881 114.233 52.929 114.128 53.2074 113.918C53.4858 113.705 53.6974 113.411 53.8423 113.036C53.9872 112.658 54.0597 112.222 54.0597 111.727C54.0597 111.239 53.9886 110.811 53.8466 110.445C53.7045 110.075 53.4943 109.788 53.2159 109.584C52.9375 109.376 52.5938 109.273 52.1847 109.273C51.7585 109.273 51.4034 109.382 51.1193 109.601C50.8381 109.817 50.6264 110.111 50.4844 110.483C50.3452 110.852 50.2756 111.267 50.2756 111.727C50.2756 112.193 50.3466 112.616 50.4886 112.997C50.6335 113.375 50.8466 113.676 51.1278 113.901C51.4119 114.122 51.7642 114.233 52.1847 114.233ZM59.7741 115.136C59.1435 115.136 58.5994 114.997 58.142 114.719C57.6875 114.438 57.3366 114.045 57.0895 113.543C56.8452 113.037 56.723 112.449 56.723 111.778C56.723 111.108 56.8452 110.517 57.0895 110.006C57.3366 109.491 57.6804 109.091 58.1207 108.804C58.5639 108.514 59.081 108.369 59.6719 108.369C60.0128 108.369 60.3494 108.426 60.6818 108.54C61.0142 108.653 61.3168 108.838 61.5895 109.094C61.8622 109.347 62.0795 109.682 62.2415 110.099C62.4034 110.517 62.4844 111.031 62.4844 111.642V112.068H57.4389V111.199H61.4616C61.4616 110.83 61.3878 110.5 61.2401 110.21C61.0952 109.92 60.8878 109.692 60.6179 109.524C60.3509 109.357 60.0355 109.273 59.6719 109.273C59.2713 109.273 58.9247 109.372 58.6321 109.571C58.3423 109.767 58.1193 110.023 57.9631 110.338C57.8068 110.653 57.7287 110.991 57.7287 111.352V111.932C57.7287 112.426 57.8139 112.845 57.9844 113.189C58.1577 113.53 58.3977 113.79 58.7045 113.969C59.0114 114.145 59.3679 114.233 59.7741 114.233C60.0384 114.233 60.277 114.196 60.4901 114.122C60.706 114.045 60.892 113.932 61.0483 113.781C61.2045 113.628 61.3253 113.437 61.4105 113.21L62.3821 113.483C62.2798 113.812 62.108 114.102 61.8665 114.352C61.625 114.599 61.3267 114.793 60.9716 114.932C60.6165 115.068 60.2173 115.136 59.7741 115.136ZM64.0142 115V108.455H64.9858V109.443H65.054C65.1733 109.119 65.3892 108.857 65.7017 108.655C66.0142 108.453 66.3665 108.352 66.7585 108.352C66.8324 108.352 66.9247 108.354 67.0355 108.357C67.1463 108.359 67.2301 108.364 67.2869 108.369V109.392C67.2528 109.384 67.1747 109.371 67.0526 109.354C66.9332 109.334 66.8068 109.324 66.6733 109.324C66.3551 109.324 66.071 109.391 65.821 109.524C65.5739 109.655 65.3778 109.837 65.233 110.07C65.0909 110.3 65.0199 110.562 65.0199 110.858V115H64.0142ZM74.6836 115H71.9904V106.273H74.8029C75.6495 106.273 76.3739 106.447 76.9762 106.797C77.5785 107.143 78.0401 107.642 78.3612 108.293C78.6822 108.94 78.8427 109.716 78.8427 110.619C78.8427 111.528 78.6808 112.311 78.3569 112.967C78.033 113.621 77.5614 114.124 76.9421 114.476C76.3228 114.825 75.57 115 74.6836 115ZM73.0472 114.062H74.6154C75.337 114.062 75.935 113.923 76.4094 113.645C76.8839 113.366 77.2376 112.97 77.4705 112.456C77.7035 111.942 77.82 111.33 77.82 110.619C77.82 109.915 77.7049 109.308 77.4748 108.8C77.2447 108.288 76.9009 107.896 76.4435 107.624C75.9862 107.348 75.4165 107.21 74.7347 107.21H73.0472V114.062ZM83.2234 115.136C82.5927 115.136 82.0487 114.997 81.5913 114.719C81.1367 114.438 80.7859 114.045 80.5387 113.543C80.2944 113.037 80.1722 112.449 80.1722 111.778C80.1722 111.108 80.2944 110.517 80.5387 110.006C80.7859 109.491 81.1296 109.091 81.57 108.804C82.0131 108.514 82.5302 108.369 83.1211 108.369C83.462 108.369 83.7987 108.426 84.131 108.54C84.4634 108.653 84.766 108.838 85.0387 109.094C85.3114 109.347 85.5288 109.682 85.6907 110.099C85.8526 110.517 85.9336 111.031 85.9336 111.642V112.068H80.8881V111.199H84.9109C84.9109 110.83 84.837 110.5 84.6893 110.21C84.5444 109.92 84.337 109.692 84.0671 109.524C83.8001 109.357 83.4847 109.273 83.1211 109.273C82.7205 109.273 82.3739 109.372 82.0813 109.571C81.7915 109.767 81.5685 110.023 81.4123 110.338C81.256 110.653 81.1779 110.991 81.1779 111.352V111.932C81.1779 112.426 81.2631 112.845 81.4336 113.189C81.6069 113.53 81.8469 113.79 82.1538 113.969C82.4606 114.145 82.8171 114.233 83.2234 114.233C83.4876 114.233 83.7262 114.196 83.9393 114.122C84.1552 114.045 84.3413 113.932 84.4975 113.781C84.6538 113.628 84.7745 113.437 84.8597 113.21L85.8313 113.483C85.729 113.812 85.5572 114.102 85.3157 114.352C85.0742 114.599 84.7759 114.793 84.4208 114.932C84.0657 115.068 83.6665 115.136 83.2234 115.136ZM90.31 108.455V109.307H86.918V108.455H90.31ZM87.9066 106.886H88.9123V113.125C88.9123 113.409 88.9535 113.622 89.0359 113.764C89.1211 113.903 89.229 113.997 89.3597 114.045C89.4933 114.091 89.6339 114.114 89.7816 114.114C89.8924 114.114 89.9833 114.108 90.0543 114.097C90.1254 114.082 90.1822 114.071 90.2248 114.062L90.4293 114.966C90.3612 114.991 90.266 115.017 90.1438 115.043C90.0217 115.071 89.8668 115.085 89.6793 115.085C89.3952 115.085 89.1168 115.024 88.8441 114.902C88.5742 114.78 88.3498 114.594 88.1708 114.344C87.9947 114.094 87.9066 113.778 87.9066 113.398V106.886ZM93.7489 115.153C93.3342 115.153 92.9577 115.075 92.6197 114.919C92.2816 114.76 92.0131 114.531 91.8143 114.233C91.6154 113.932 91.516 113.568 91.516 113.142C91.516 112.767 91.5898 112.463 91.7376 112.23C91.8853 111.994 92.0827 111.81 92.3299 111.676C92.5771 111.543 92.8498 111.443 93.1481 111.378C93.4492 111.31 93.7518 111.256 94.0558 111.216C94.4535 111.165 94.7759 111.126 95.0231 111.101C95.2731 111.072 95.4549 111.026 95.5685 110.96C95.685 110.895 95.7433 110.781 95.7433 110.619V110.585C95.7433 110.165 95.6282 109.838 95.3981 109.605C95.1708 109.372 94.8256 109.256 94.3626 109.256C93.8825 109.256 93.506 109.361 93.2333 109.571C92.9606 109.781 92.7688 110.006 92.658 110.244L91.7035 109.903C91.8739 109.506 92.1012 109.196 92.3853 108.974C92.6722 108.75 92.9847 108.594 93.3228 108.506C93.6637 108.415 93.9989 108.369 94.3285 108.369C94.5387 108.369 94.7802 108.395 95.0529 108.446C95.3285 108.494 95.5941 108.595 95.8498 108.749C96.1083 108.902 96.3228 109.134 96.4933 109.443C96.6637 109.753 96.7489 110.168 96.7489 110.688V115H95.7433V114.114H95.6921C95.6239 114.256 95.5103 114.408 95.3512 114.57C95.1921 114.732 94.9805 114.869 94.7163 114.983C94.4521 115.097 94.1296 115.153 93.7489 115.153ZM93.9023 114.25C94.3001 114.25 94.6353 114.172 94.908 114.016C95.1836 113.859 95.391 113.658 95.5302 113.411C95.6722 113.163 95.7433 112.903 95.7433 112.631V111.71C95.7006 111.761 95.6069 111.808 95.462 111.851C95.32 111.891 95.1552 111.926 94.9677 111.957C94.783 111.986 94.6026 112.011 94.4265 112.034C94.2532 112.054 94.1126 112.071 94.0046 112.085C93.7433 112.119 93.4989 112.175 93.2717 112.251C93.0472 112.325 92.8654 112.437 92.7262 112.588C92.5898 112.736 92.5217 112.937 92.5217 113.193C92.5217 113.543 92.6509 113.807 92.9094 113.986C93.1708 114.162 93.5018 114.25 93.9023 114.25ZM98.5845 115V108.455H99.5902V115H98.5845ZM99.0959 107.364C98.8999 107.364 98.7308 107.297 98.5888 107.163C98.4496 107.03 98.38 106.869 98.38 106.682C98.38 106.494 98.4496 106.334 98.5888 106.2C98.7308 106.067 98.8999 106 99.0959 106C99.2919 106 99.4595 106.067 99.5987 106.2C99.7408 106.334 99.8118 106.494 99.8118 106.682C99.8118 106.869 99.7408 107.03 99.5987 107.163C99.4595 107.297 99.2919 107.364 99.0959 107.364ZM102.438 106.273V115H101.432V106.273H102.438ZM108.916 109.92L108.013 110.176C107.956 110.026 107.872 109.879 107.761 109.737C107.653 109.592 107.506 109.473 107.318 109.379C107.131 109.286 106.891 109.239 106.598 109.239C106.197 109.239 105.864 109.331 105.597 109.516C105.332 109.697 105.2 109.929 105.2 110.21C105.2 110.46 105.291 110.658 105.473 110.803C105.655 110.947 105.939 111.068 106.325 111.165L107.297 111.403C107.882 111.545 108.318 111.763 108.605 112.055C108.892 112.345 109.036 112.719 109.036 113.176C109.036 113.551 108.928 113.886 108.712 114.182C108.499 114.477 108.2 114.71 107.817 114.881C107.433 115.051 106.987 115.136 106.479 115.136C105.811 115.136 105.259 114.991 104.821 114.702C104.384 114.412 104.107 113.989 103.99 113.432L104.945 113.193C105.036 113.545 105.207 113.81 105.46 113.986C105.716 114.162 106.05 114.25 106.462 114.25C106.93 114.25 107.303 114.151 107.578 113.952C107.857 113.75 107.996 113.509 107.996 113.227C107.996 113 107.916 112.81 107.757 112.656C107.598 112.5 107.354 112.384 107.024 112.307L105.933 112.051C105.334 111.909 104.893 111.689 104.612 111.391C104.334 111.089 104.195 110.713 104.195 110.261C104.195 109.892 104.298 109.565 104.506 109.281C104.716 108.997 105.001 108.774 105.362 108.612C105.726 108.45 106.138 108.369 106.598 108.369C107.246 108.369 107.754 108.511 108.124 108.795C108.496 109.08 108.76 109.455 108.916 109.92Z" fill="#6B7280"/>
<path d="M263.057 108V99.2727H268.324V100.21H264.114V103.159H268.051V104.097H264.114V107.062H268.392V108H263.057ZM272.564 108.136C272.018 108.136 271.537 107.999 271.119 107.723C270.702 107.445 270.375 107.053 270.139 106.547C269.903 106.038 269.786 105.438 269.786 104.744C269.786 104.057 269.903 103.46 270.139 102.955C270.375 102.449 270.703 102.058 271.124 101.783C271.544 101.507 272.03 101.369 272.581 101.369C273.007 101.369 273.344 101.44 273.591 101.582C273.841 101.722 274.031 101.881 274.162 102.06C274.295 102.236 274.399 102.381 274.473 102.494H274.558V99.2727H275.564V108H274.592V106.994H274.473C274.399 107.114 274.294 107.264 274.158 107.446C274.021 107.625 273.827 107.786 273.574 107.928C273.321 108.067 272.984 108.136 272.564 108.136ZM272.7 107.233C273.104 107.233 273.445 107.128 273.723 106.918C274.001 106.705 274.213 106.411 274.358 106.036C274.503 105.658 274.575 105.222 274.575 104.727C274.575 104.239 274.504 103.811 274.362 103.445C274.22 103.075 274.01 102.788 273.732 102.584C273.453 102.376 273.109 102.273 272.7 102.273C272.274 102.273 271.919 102.382 271.635 102.601C271.354 102.817 271.142 103.111 271 103.483C270.861 103.852 270.791 104.267 270.791 104.727C270.791 105.193 270.862 105.616 271.004 105.997C271.149 106.375 271.362 106.676 271.643 106.901C271.928 107.122 272.28 107.233 272.7 107.233ZM277.545 108V101.455H278.551V108H277.545ZM278.057 100.364C277.861 100.364 277.692 100.297 277.55 100.163C277.411 100.03 277.341 99.8693 277.341 99.6818C277.341 99.4943 277.411 99.3338 277.55 99.2003C277.692 99.0668 277.861 99 278.057 99C278.253 99 278.42 99.0668 278.56 99.2003C278.702 99.3338 278.773 99.4943 278.773 99.6818C278.773 99.8693 278.702 100.03 278.56 100.163C278.42 100.297 278.253 100.364 278.057 100.364ZM283.24 101.455V102.307H279.848V101.455H283.24ZM280.836 99.8864H281.842V106.125C281.842 106.409 281.883 106.622 281.966 106.764C282.051 106.903 282.159 106.997 282.289 107.045C282.423 107.091 282.564 107.114 282.711 107.114C282.822 107.114 282.913 107.108 282.984 107.097C283.055 107.082 283.112 107.071 283.154 107.062L283.359 107.966C283.291 107.991 283.196 108.017 283.074 108.043C282.951 108.071 282.797 108.085 282.609 108.085C282.325 108.085 282.047 108.024 281.774 107.902C281.504 107.78 281.279 107.594 281.1 107.344C280.924 107.094 280.836 106.778 280.836 106.398V99.8864Z" fill="#6B7280"/>
<g clip-path="url(#clip0_5312_52741)">
<path d="M253.334 98C253.509 97.8249 253.717 97.686 253.946 97.5913C254.174 97.4965 254.42 97.4478 254.667 97.4478C254.915 97.4478 255.16 97.4965 255.389 97.5913C255.618 97.686 255.826 97.8249 256.001 98C256.176 98.1751 256.315 98.383 256.409 98.6118C256.504 98.8406 256.553 99.0857 256.553 99.3334C256.553 99.581 256.504 99.8262 256.409 100.055C256.315 100.284 256.176 100.492 256.001 100.667L247.001 109.667L243.334 110.667L244.334 107L253.334 98Z" stroke="#6B7280" stroke-width="1.66667" stroke-linecap="round" stroke-linejoin="round"/>
</g>
<rect x="11.5234" y="42.8047" width="286.956" height="34.9444" rx="5.25" fill="white" stroke="#D0D5DD" stroke-width="0.5"/>
<path d="M281 53.5L286 58.5L291 53.5" stroke="#667085" stroke-width="2" stroke-linecap="round" stroke-linejoin="round"/>
<rect x="20" y="49" width="20" height="20" rx="10" fill="#6B7280"/>
<path d="M30.3977 54.7727H31.4545V61.0114C31.4545 61.5682 31.3523 62.0412 31.1477 62.4304C30.9432 62.8196 30.6548 63.1151 30.2827 63.3168C29.9105 63.5185 29.4716 63.6193 28.9659 63.6193C28.4886 63.6193 28.0639 63.5327 27.6918 63.3594C27.3196 63.1832 27.027 62.9332 26.8139 62.6094C26.6009 62.2855 26.4943 61.9006 26.4943 61.4545H27.5341C27.5341 61.7017 27.5952 61.9176 27.7173 62.1023C27.8423 62.2841 28.0128 62.4261 28.2287 62.5284C28.4446 62.6307 28.6903 62.6818 28.9659 62.6818C29.2699 62.6818 29.5284 62.6179 29.7415 62.4901C29.9545 62.3622 30.1165 62.1747 30.2273 61.9276C30.3409 61.6776 30.3977 61.3722 30.3977 61.0114V54.7727Z" fill="white"/>
<path d="M47.3977 56.2727H48.4545V62.5114C48.4545 63.0682 48.3523 63.5412 48.1477 63.9304C47.9432 64.3196 47.6548 64.6151 47.2827 64.8168C46.9105 65.0185 46.4716 65.1193 45.9659 65.1193C45.4886 65.1193 45.0639 65.0327 44.6918 64.8594C44.3196 64.6832 44.027 64.4332 43.8139 64.1094C43.6009 63.7855 43.4943 63.4006 43.4943 62.9545H44.5341C44.5341 63.2017 44.5952 63.4176 44.7173 63.6023C44.8423 63.7841 45.0128 63.9261 45.2287 64.0284C45.4446 64.1307 45.6903 64.1818 45.9659 64.1818C46.2699 64.1818 46.5284 64.1179 46.7415 63.9901C46.9545 63.8622 47.1165 63.6747 47.2273 63.4276C47.3409 63.1776 47.3977 62.8722 47.3977 62.5114V56.2727ZM53.0952 65.1364C52.5043 65.1364 51.9858 64.9957 51.5398 64.7145C51.0966 64.4332 50.75 64.0398 50.5 63.5341C50.2528 63.0284 50.1293 62.4375 50.1293 61.7614C50.1293 61.0795 50.2528 60.4844 50.5 59.9759C50.75 59.4673 51.0966 59.0724 51.5398 58.7912C51.9858 58.5099 52.5043 58.3693 53.0952 58.3693C53.6861 58.3693 54.2031 58.5099 54.6463 58.7912C55.0923 59.0724 55.4389 59.4673 55.6861 59.9759C55.9361 60.4844 56.0611 61.0795 56.0611 61.7614C56.0611 62.4375 55.9361 63.0284 55.6861 63.5341C55.4389 64.0398 55.0923 64.4332 54.6463 64.7145C54.2031 64.9957 53.6861 65.1364 53.0952 65.1364ZM53.0952 64.233C53.544 64.233 53.9134 64.1179 54.2031 63.8878C54.4929 63.6577 54.7074 63.3551 54.8466 62.9801C54.9858 62.6051 55.0554 62.1989 55.0554 61.7614C55.0554 61.3239 54.9858 60.9162 54.8466 60.5384C54.7074 60.1605 54.4929 59.8551 54.2031 59.6222C53.9134 59.3892 53.544 59.2727 53.0952 59.2727C52.6463 59.2727 52.277 59.3892 51.9872 59.6222C51.6974 59.8551 51.483 60.1605 51.3438 60.5384C51.2045 60.9162 51.1349 61.3239 51.1349 61.7614C51.1349 62.1989 51.2045 62.6051 51.3438 62.9801C51.483 63.3551 51.6974 63.6577 51.9872 63.8878C52.277 64.1179 52.6463 64.233 53.0952 64.233ZM58.6019 61.0625V65H57.5962V56.2727H58.6019V59.4773H58.6871C58.8406 59.1392 59.0707 58.8707 59.3775 58.6719C59.6871 58.4702 60.0991 58.3693 60.6133 58.3693C61.0593 58.3693 61.4499 58.4588 61.7852 58.6378C62.1204 58.8139 62.3803 59.0852 62.565 59.4517C62.7525 59.8153 62.8462 60.2784 62.8462 60.8409V65H61.8406V60.9091C61.8406 60.3892 61.7056 59.9872 61.4357 59.7031C61.1687 59.4162 60.7979 59.2727 60.3235 59.2727C59.994 59.2727 59.6985 59.3423 59.4371 59.4815C59.1786 59.6207 58.9741 59.8239 58.8235 60.0909C58.6758 60.358 58.6019 60.6818 58.6019 61.0625ZM65.6918 61.0625V65H64.6861V58.4545H65.6577V59.4773H65.7429C65.8963 59.1449 66.1293 58.8778 66.4418 58.6761C66.7543 58.4716 67.1577 58.3693 67.652 58.3693C68.0952 58.3693 68.483 58.4602 68.8153 58.642C69.1477 58.821 69.4063 59.0938 69.5909 59.4602C69.7756 59.8239 69.8679 60.2841 69.8679 60.8409V65H68.8622V60.9091C68.8622 60.3949 68.7287 59.9943 68.4616 59.7074C68.1946 59.4176 67.8281 59.2727 67.3622 59.2727C67.0412 59.2727 66.7543 59.3423 66.5014 59.4815C66.2514 59.6207 66.054 59.8239 65.9091 60.0909C65.7642 60.358 65.6918 60.6818 65.6918 61.0625ZM77.9102 65H75.217V56.2727H78.0295C78.8761 56.2727 79.6005 56.4474 80.2028 56.7969C80.805 57.1435 81.2667 57.642 81.5877 58.2926C81.9087 58.9403 82.0692 59.7159 82.0692 60.6193C82.0692 61.5284 81.9073 62.3111 81.5835 62.9673C81.2596 63.6207 80.788 64.1236 80.1687 64.4759C79.5494 64.8253 78.7965 65 77.9102 65ZM76.2738 64.0625H77.842C78.5636 64.0625 79.1616 63.9233 79.636 63.6449C80.1104 63.3665 80.4641 62.9702 80.6971 62.456C80.93 61.9418 81.0465 61.3295 81.0465 60.6193C81.0465 59.9148 80.9315 59.3082 80.7013 58.7997C80.4712 58.2884 80.1275 57.8963 79.6701 57.6236C79.2127 57.348 78.6431 57.2102 77.9613 57.2102H76.2738V64.0625ZM86.3647 65.1364C85.7738 65.1364 85.2553 64.9957 84.8093 64.7145C84.3661 64.4332 84.0195 64.0398 83.7695 63.5341C83.5224 63.0284 83.3988 62.4375 83.3988 61.7614C83.3988 61.0795 83.5224 60.4844 83.7695 59.9759C84.0195 59.4673 84.3661 59.0724 84.8093 58.7912C85.2553 58.5099 85.7738 58.3693 86.3647 58.3693C86.9556 58.3693 87.4727 58.5099 87.9158 58.7912C88.3619 59.0724 88.7085 59.4673 88.9556 59.9759C89.2056 60.4844 89.3306 61.0795 89.3306 61.7614C89.3306 62.4375 89.2056 63.0284 88.9556 63.5341C88.7085 64.0398 88.3619 64.4332 87.9158 64.7145C87.4727 64.9957 86.9556 65.1364 86.3647 65.1364ZM86.3647 64.233C86.8136 64.233 87.1829 64.1179 87.4727 63.8878C87.7624 63.6577 87.9769 63.3551 88.1161 62.9801C88.2553 62.6051 88.3249 62.1989 88.3249 61.7614C88.3249 61.3239 88.2553 60.9162 88.1161 60.5384C87.9769 60.1605 87.7624 59.8551 87.4727 59.6222C87.1829 59.3892 86.8136 59.2727 86.3647 59.2727C85.9158 59.2727 85.5465 59.3892 85.2567 59.6222C84.967 59.8551 84.7525 60.1605 84.6133 60.5384C84.4741 60.9162 84.4045 61.3239 84.4045 61.7614C84.4045 62.1989 84.4741 62.6051 84.6133 62.9801C84.7525 63.3551 84.967 63.6577 85.2567 63.8878C85.5465 64.1179 85.9158 64.233 86.3647 64.233ZM93.6101 65.1364C92.9794 65.1364 92.4354 64.9972 91.978 64.7188C91.5234 64.4375 91.1726 64.0455 90.9254 63.5426C90.6811 63.0369 90.5589 62.4489 90.5589 61.7784C90.5589 61.108 90.6811 60.517 90.9254 60.0057C91.1726 59.4915 91.5163 59.0909 91.9567 58.804C92.3999 58.5142 92.9169 58.3693 93.5078 58.3693C93.8487 58.3693 94.1854 58.4261 94.5178 58.5398C94.8501 58.6534 95.1527 58.8381 95.4254 59.0938C95.6982 59.3466 95.9155 59.6818 96.0774 60.0994C96.2393 60.517 96.3203 61.0312 96.3203 61.642V62.0682H91.2749V61.1989H95.2976C95.2976 60.8295 95.2237 60.5 95.076 60.2102C94.9311 59.9205 94.7237 59.6918 94.4538 59.5241C94.1868 59.3565 93.8714 59.2727 93.5078 59.2727C93.1072 59.2727 92.7607 59.3722 92.468 59.571C92.1783 59.767 91.9553 60.0227 91.799 60.3381C91.6428 60.6534 91.5646 60.9915 91.5646 61.3523V61.9318C91.5646 62.4261 91.6499 62.8452 91.8203 63.1889C91.9936 63.5298 92.2337 63.7898 92.5405 63.9688C92.8473 64.1449 93.2038 64.233 93.6101 64.233C93.8743 64.233 94.1129 64.196 94.326 64.1222C94.5419 64.0455 94.728 63.9318 94.8842 63.7812C95.0405 63.6278 95.1612 63.4375 95.2464 63.2102L96.218 63.483C96.1158 63.8125 95.9439 64.1023 95.7024 64.3523C95.4609 64.5994 95.1626 64.7926 94.8075 64.9318C94.4524 65.0682 94.0533 65.1364 93.6101 65.1364Z" fill="#374151"/>
<defs>
<clipPath id="clip0_5312_52741">
<rect width="16" height="16" fill="white" transform="translate(242 96)"/>
</clipPath>
</defs>
</svg>
