<svg width="576" height="712" viewBox="0 0 576 712" fill="none" xmlns="http://www.w3.org/2000/svg">
<rect width="576" height="712" rx="12" fill="#3F4DE1"/>
<path d="M328.86 286.713C328.918 291.852 324.836 295.917 321.028 296.307C318.494 296.566 315.9 296.74 313.475 297.451C310.122 298.435 307.041 300.098 304.631 302.842C301.838 306.024 300.275 309.538 300.002 313.961C299.734 318.316 298.261 322.581 293.543 324.146C286.303 326.55 278.203 323.089 278.295 314.343C278.334 310.731 280.848 306.883 284.863 305.369C287.017 304.556 289.081 304.658 291.196 304.356C297.535 303.455 302.544 300.395 305.624 294.505C307.1 291.684 307.945 288.683 307.814 285.429C307.694 282.432 306.388 278.931 304.645 276.608C301.701 272.685 298.758 270.503 294.307 269.238C290.58 268.177 286.691 268.246 282.793 269.538C279.492 270.631 277.029 272.629 274.71 275.043C272.249 277.611 270.932 280.672 270.729 284.247C270.533 287.678 269.749 290.978 267.325 293.454C264.842 295.991 261.814 296.941 258.129 296.446C254.878 296.01 252.641 294.539 250.718 292.004C247.831 288.197 248.19 282.862 251.759 279.587C254.248 277.3 256.935 276.34 260.548 276.03C267.436 275.437 275.762 270.353 277.361 263.206C277.709 261.642 278.083 260.056 278.186 258.465C278.468 254.055 281.038 249.94 285.527 248.635C292.274 246.675 297.429 249.264 299.391 256.219C299.723 257.398 300.016 258.617 300.105 259.837C300.535 265.802 303.431 270.073 308.408 273.113C311.6 275.062 314.94 275.723 318.664 276.105C323.617 276.61 328.639 280.354 328.86 286.713Z" fill="white"/>
<path d="M248.809 314.004C248.809 308.865 252.938 304.843 256.752 304.493C259.288 304.26 261.886 304.116 264.319 303.429C267.683 302.479 270.783 300.851 273.224 298.131C276.054 294.981 277.658 291.484 277.982 287.064C278.299 282.711 279.823 278.462 284.557 276.948C291.826 274.622 299.886 278.17 299.691 286.914C299.61 290.526 297.051 294.348 293.02 295.818C290.858 296.607 288.793 296.484 286.675 296.763C280.325 297.597 275.281 300.602 272.134 306.458C270.624 309.263 269.745 312.253 269.837 315.51C269.924 318.507 271.121 321.098 272.479 323.644C274.815 328.024 278.718 330.529 283.154 331.845C286.871 332.947 290.76 332.917 294.672 331.668C297.986 330.61 300.472 328.642 302.819 326.248C305.31 323.708 306.663 320.662 306.906 317.087C307.14 313.659 307.964 310.37 310.416 307.918C312.93 305.407 315.966 304.49 319.648 305.025C322.893 305.496 325.114 306.99 327.006 309.547C329.849 313.384 329.425 318.716 325.82 321.951C323.303 324.211 320.608 325.141 316.989 325.414C310.095 325.933 301.711 330.928 300.029 338.057C299.66 339.618 299.27 341.199 299.15 342.79C298.815 347.197 296.201 351.285 291.695 352.541C284.926 354.429 279.801 351.785 277.92 344.811C277.602 343.629 277.323 342.404 277.248 341.185C276.885 335.217 274.042 330.915 269.101 327.821C265.931 325.837 262.6 325.141 258.878 324.719C253.931 324.163 248.954 320.366 248.809 314.004Z" fill="white"/>
<path d="M211.232 415.429V424.635H168.574V417.312L195.34 385.023H169.132V375.817H210.187V383.14L183.491 415.429H211.232ZM250.608 414.174H227.954L223.632 424.635H212.062L233.809 375.817H244.962L266.779 424.635H254.929L250.608 414.174ZM247.053 405.596L239.316 386.906L231.579 405.596H247.053ZM292.961 375.817C297.281 375.817 301.023 376.538 304.182 377.979C307.39 379.421 309.852 381.466 311.572 384.116C313.29 386.767 314.151 389.905 314.151 393.531C314.151 397.111 313.29 400.249 311.572 402.946C309.852 405.596 307.39 407.642 304.182 409.083C301.023 410.478 297.281 411.175 292.961 411.175H283.132V424.635H271.841V375.817H292.961ZM292.333 401.97C295.726 401.97 298.305 401.249 300.071 399.808C301.836 398.32 302.718 396.228 302.718 393.531C302.718 390.788 301.836 388.696 300.071 387.255C298.305 385.767 295.726 385.023 292.333 385.023H283.132V401.97H292.333ZM330.957 385.023H315.344V375.817H357.862V385.023H342.249V424.635H330.957V385.023ZM393.621 414.174H370.967L366.645 424.635H355.075L376.822 375.817H387.974L409.792 424.635H397.943L393.621 414.174ZM390.067 405.596L382.33 386.906L374.593 405.596H390.067Z" fill="white"/>
<path d="M170.865 450.501H166V447.633H179.247V450.501H174.383V462.842H170.865V450.501ZM198.557 460.018V462.842H186.786V447.633H198.274V450.457H190.283V453.76H197.34V456.498H190.283V460.018H198.557ZM214.235 463.103C212.685 463.103 211.281 462.77 210.022 462.104C208.777 461.423 207.792 460.488 207.068 459.301C206.359 458.098 206.004 456.744 206.004 455.238C206.004 453.731 206.359 452.384 207.068 451.196C207.792 449.994 208.777 449.059 210.022 448.393C211.281 447.712 212.693 447.372 214.256 447.372C215.574 447.372 216.761 447.604 217.818 448.067C218.889 448.531 219.787 449.197 220.511 450.066L218.252 452.152C217.224 450.964 215.95 450.37 214.43 450.37C213.489 450.37 212.649 450.58 211.911 451.001C211.173 451.406 210.593 451.978 210.174 452.717C209.768 453.456 209.566 454.296 209.566 455.238C209.566 456.179 209.768 457.019 210.174 457.758C210.593 458.497 211.173 459.076 211.911 459.496C212.649 459.902 213.489 460.105 214.43 460.105C215.95 460.105 217.224 459.503 218.252 458.301L220.511 460.387C219.787 461.27 218.889 461.944 217.818 462.408C216.747 462.871 215.552 463.103 214.235 463.103ZM242.474 447.633V462.842H238.957V456.606H232.051V462.842H228.533V447.633H232.051V453.63H238.957V447.633H242.474ZM265.66 447.633V462.842H262.771L255.192 453.608V462.842H251.718V447.633H254.628L262.185 456.867V447.633H265.66ZM282.264 463.103C280.686 463.103 279.26 462.763 277.986 462.082C276.726 461.401 275.735 460.467 275.011 459.279C274.302 458.076 273.947 456.729 273.947 455.238C273.947 453.746 274.302 452.406 275.011 451.218C275.735 450.016 276.726 449.074 277.986 448.393C279.26 447.712 280.686 447.372 282.264 447.372C283.842 447.372 285.261 447.712 286.521 448.393C287.78 449.074 288.772 450.016 289.496 451.218C290.22 452.406 290.582 453.746 290.582 455.238C290.582 456.729 290.22 458.076 289.496 459.279C288.772 460.467 287.78 461.401 286.521 462.082C285.261 462.763 283.842 463.103 282.264 463.103ZM282.264 460.105C283.162 460.105 283.972 459.902 284.697 459.496C285.42 459.076 285.985 458.497 286.39 457.758C286.81 457.019 287.02 456.179 287.02 455.238C287.02 454.296 286.81 453.456 286.39 452.717C285.985 451.978 285.42 451.406 284.697 451.001C283.972 450.58 283.162 450.37 282.264 450.37C281.366 450.37 280.556 450.58 279.832 451.001C279.108 451.406 278.536 451.978 278.117 452.717C277.711 453.456 277.508 454.296 277.508 455.238C277.508 456.179 277.711 457.019 278.117 457.758C278.536 458.497 279.108 459.076 279.832 459.496C280.556 459.902 281.366 460.105 282.264 460.105ZM298.872 447.633H302.39V459.974H310.013V462.842H298.872V447.633ZM324.733 463.103C323.154 463.103 321.727 462.763 320.454 462.082C319.193 461.401 318.202 460.467 317.478 459.279C316.77 458.076 316.416 456.729 316.416 455.238C316.416 453.746 316.77 452.406 317.478 451.218C318.202 450.016 319.193 449.074 320.454 448.393C321.727 447.712 323.154 447.372 324.733 447.372C326.309 447.372 327.728 447.712 328.989 448.393C330.247 449.074 331.239 450.016 331.963 451.218C332.687 452.406 333.05 453.746 333.05 455.238C333.05 456.729 332.687 458.076 331.963 459.279C331.239 460.467 330.247 461.401 328.989 462.082C327.728 462.763 326.309 463.103 324.733 463.103ZM324.733 460.105C325.631 460.105 326.439 459.902 327.163 459.496C327.887 459.076 328.452 458.497 328.858 457.758C329.279 457.019 329.489 456.179 329.489 455.238C329.489 454.296 329.279 453.456 328.858 452.717C328.452 451.978 327.887 451.406 327.163 451.001C326.439 450.58 325.631 450.37 324.733 450.37C323.835 450.37 323.024 450.58 322.3 451.001C321.576 451.406 321.005 451.978 320.584 452.717C320.178 453.456 319.977 454.296 319.977 455.238C319.977 456.179 320.178 457.019 320.584 457.758C321.005 458.497 321.576 459.076 322.3 459.496C323.024 459.902 323.835 460.105 324.733 460.105ZM351.61 454.998H354.824V461.169C354 461.792 353.045 462.27 351.958 462.603C350.872 462.937 349.781 463.103 348.68 463.103C347.101 463.103 345.682 462.77 344.424 462.104C343.163 461.423 342.171 460.488 341.447 459.301C340.739 458.098 340.383 456.744 340.383 455.238C340.383 453.731 340.739 452.384 341.447 451.196C342.171 449.994 343.17 449.059 344.444 448.393C345.719 447.712 347.151 447.372 348.743 447.372C350.078 447.372 351.286 447.597 352.371 448.046C353.456 448.495 354.37 449.146 355.108 450.001L352.848 452.087C351.763 450.943 350.452 450.37 348.919 450.37C347.949 450.37 347.087 450.573 346.334 450.979C345.582 451.384 344.995 451.957 344.575 452.695C344.157 453.434 343.946 454.281 343.946 455.238C343.946 456.179 344.157 457.019 344.575 457.758C344.995 458.497 345.575 459.076 346.313 459.496C347.064 459.902 347.919 460.105 348.876 460.105C349.888 460.105 350.802 459.887 351.61 459.453V454.998ZM363.74 447.633H367.258V462.842H363.74V447.633ZM388.281 460.018V462.842H376.512V447.633H388V450.457H380.007V453.76H387.066V456.498H380.007V460.018H388.281ZM401.722 463.103C400.52 463.103 399.355 462.943 398.227 462.625C397.11 462.292 396.214 461.864 395.534 461.343L396.728 458.692C397.379 459.17 398.154 459.554 399.051 459.844C399.949 460.134 400.847 460.278 401.745 460.278C402.743 460.278 403.481 460.134 403.958 459.844C404.436 459.54 404.676 459.141 404.676 458.649C404.676 458.287 404.532 457.99 404.242 457.758C403.967 457.512 403.604 457.316 403.156 457.171C402.72 457.026 402.128 456.867 401.375 456.693C400.217 456.418 399.269 456.143 398.531 455.868C397.791 455.592 397.155 455.151 396.619 454.542C396.098 453.934 395.837 453.122 395.837 452.109C395.837 451.225 396.075 450.428 396.555 449.719C397.032 448.994 397.747 448.422 398.704 448.002C399.673 447.582 400.854 447.372 402.243 447.372C403.214 447.372 404.162 447.488 405.089 447.72C406.014 447.951 406.825 448.285 407.52 448.719L406.434 451.392C405.03 450.595 403.625 450.197 402.222 450.197C401.238 450.197 400.507 450.356 400.029 450.675C399.565 450.993 399.332 451.413 399.332 451.935C399.332 452.456 399.602 452.848 400.137 453.108C400.687 453.354 401.519 453.601 402.633 453.847C403.791 454.122 404.742 454.397 405.48 454.673C406.217 454.948 406.848 455.382 407.369 455.976C407.903 456.57 408.173 457.374 408.173 458.388C408.173 459.257 407.926 460.054 407.433 460.778C406.955 461.488 406.231 462.053 405.263 462.473C404.292 462.893 403.113 463.103 401.722 463.103Z" fill="white"/>
</svg>
