<svg width="28" height="28" viewBox="0 0 28 28" fill="none" xmlns="http://www.w3.org/2000/svg">
<ellipse cx="13.7645" cy="13.815" rx="13.6796" ry="13.815" fill="white"/>
<path d="M12.5029 20.0355V14.5553H10.6768V12.4196H12.5029V10.8446C12.5029 9.01676 13.6083 8.02148 15.2228 8.02148C15.9962 8.02148 16.6609 8.07963 16.8546 8.10563V10.0158L15.7349 10.0163C14.8568 10.0163 14.6867 10.4377 14.6867 11.056V12.4196H16.7809L16.5082 14.5553H14.6867V20.0355H12.5029Z" fill="#333333"/>
<path d="M12.5029 20.0355V14.5553H10.6768V12.4196H12.5029V10.8446C12.5029 9.01676 13.6083 8.02148 15.2228 8.02148C15.9962 8.02148 16.6609 8.07963 16.8546 8.10563V10.0158L15.7349 10.0163C14.8568 10.0163 14.6867 10.4377 14.6867 11.056V12.4196H16.7809L16.5082 14.5553H14.6867V20.0355H12.5029Z" stroke="#333333"/>
</svg>
