<svg width="28" height="28" viewBox="0 0 28 28" fill="none" xmlns="http://www.w3.org/2000/svg">
<ellipse cx="13.8485" cy="13.815" rx="13.6796" ry="13.815" fill="white"/>
<path d="M13.8496 8.33537C15.6169 8.33537 15.8262 8.34206 16.5244 8.37421C16.9442 8.37939 17.3599 8.45724 17.7537 8.60435C18.0392 8.71555 18.2985 8.8859 18.5149 9.10443C18.7312 9.32295 18.8999 9.58482 19.01 9.87316C19.1557 10.2708 19.2328 10.6907 19.2379 11.1146C19.2694 11.8197 19.2764 12.031 19.2764 13.8158C19.2764 15.6006 19.2698 15.812 19.2379 16.5171C19.2328 16.941 19.1557 17.3609 19.01 17.7585C18.8999 18.0469 18.7312 18.3087 18.5149 18.5273C18.2985 18.7458 18.0392 18.9161 17.7537 19.0273C17.3599 19.1744 16.9442 19.2523 16.5244 19.2575C15.8265 19.2893 15.6172 19.2963 13.8496 19.2963C12.082 19.2963 11.8727 19.2896 11.1749 19.2575C10.7551 19.2523 10.3393 19.1744 9.94558 19.0273C9.66006 18.9161 9.40076 18.7458 9.18438 18.5273C8.96799 18.3087 8.79932 18.0469 8.6892 17.7585C8.54353 17.3609 8.46645 16.941 8.46132 16.5171C8.4298 15.812 8.42286 15.6006 8.42286 13.8158C8.42286 12.031 8.42948 11.8197 8.46132 11.1146C8.46645 10.6907 8.54353 10.2708 8.6892 9.87316C8.79932 9.58482 8.96799 9.32295 9.18438 9.10443C9.40076 8.8859 9.66006 8.71555 9.94558 8.60435C10.3393 8.45724 10.7551 8.37939 11.1749 8.37421C11.873 8.34238 12.0823 8.33537 13.8496 8.33537ZM13.8496 7.13086C12.053 7.13086 11.8267 7.1385 11.1206 7.17097C10.5713 7.182 10.0277 7.28705 9.51313 7.48165C9.07169 7.64961 8.67187 7.91283 8.34154 8.25293C8.00447 8.58664 7.74361 8.99066 7.57719 9.43675C7.3845 9.95643 7.28048 10.5054 7.26955 11.0602C7.23803 11.7726 7.23047 12.0011 7.23047 13.8155C7.23047 15.6299 7.23803 15.8585 7.27018 16.5715C7.28111 17.1263 7.38513 17.6753 7.57782 18.1949C7.74405 18.641 8.0047 19.045 8.34154 19.3788C8.67205 19.7189 9.0721 19.9822 9.51376 20.15C10.0284 20.3446 10.5719 20.4497 11.1213 20.4607C11.8273 20.4926 12.0527 20.5008 13.8502 20.5008C15.6478 20.5008 15.8732 20.4932 16.5792 20.4607C17.1286 20.4497 17.6721 20.3446 18.1867 20.15C18.6263 19.978 19.0255 19.7151 19.3587 19.3784C19.692 19.0416 19.952 18.6383 20.1221 18.1943C20.3147 17.6746 20.4188 17.1257 20.4297 16.5709C20.4612 15.8585 20.4688 15.6299 20.4688 13.8155C20.4688 12.0011 20.4612 11.7726 20.4291 11.0595C20.4181 10.5047 20.3141 9.9558 20.1214 9.43611C19.9552 8.99008 19.6945 8.58607 19.3577 8.25229C19.0272 7.91211 18.6271 7.64889 18.1855 7.48101C17.6709 7.28641 17.1273 7.18137 16.578 7.17033C15.8726 7.1385 15.6462 7.13086 13.8496 7.13086Z" fill="#333333"/>
<path d="M13.8496 8.33537C15.6169 8.33537 15.8262 8.34206 16.5244 8.37421C16.9442 8.37939 17.3599 8.45724 17.7537 8.60435C18.0392 8.71555 18.2985 8.8859 18.5149 9.10443C18.7312 9.32295 18.8999 9.58482 19.01 9.87316C19.1557 10.2708 19.2328 10.6907 19.2379 11.1146C19.2694 11.8197 19.2764 12.031 19.2764 13.8158C19.2764 15.6006 19.2698 15.812 19.2379 16.5171C19.2328 16.941 19.1557 17.3609 19.01 17.7585C18.8999 18.0469 18.7312 18.3087 18.5149 18.5273C18.2985 18.7458 18.0392 18.9161 17.7537 19.0273C17.3599 19.1744 16.9442 19.2523 16.5244 19.2575C15.8265 19.2893 15.6172 19.2963 13.8496 19.2963C12.082 19.2963 11.8727 19.2896 11.1749 19.2575C10.7551 19.2523 10.3393 19.1744 9.94558 19.0273C9.66006 18.9161 9.40076 18.7458 9.18438 18.5273C8.96799 18.3087 8.79932 18.0469 8.6892 17.7585C8.54353 17.3609 8.46645 16.941 8.46132 16.5171C8.4298 15.812 8.42286 15.6006 8.42286 13.8158C8.42286 12.031 8.42948 11.8197 8.46132 11.1146C8.46645 10.6907 8.54353 10.2708 8.6892 9.87316C8.79932 9.58482 8.96799 9.32295 9.18438 9.10443C9.40076 8.8859 9.66006 8.71555 9.94558 8.60435C10.3393 8.45724 10.7551 8.37939 11.1749 8.37421C11.873 8.34238 12.0823 8.33537 13.8496 8.33537ZM13.8496 7.13086C12.053 7.13086 11.8267 7.1385 11.1206 7.17097C10.5713 7.182 10.0277 7.28705 9.51313 7.48165C9.07169 7.64961 8.67187 7.91283 8.34154 8.25293C8.00447 8.58664 7.74361 8.99066 7.57719 9.43675C7.3845 9.95643 7.28048 10.5054 7.26955 11.0602C7.23803 11.7726 7.23047 12.0011 7.23047 13.8155C7.23047 15.6299 7.23803 15.8585 7.27018 16.5715C7.28111 17.1263 7.38513 17.6753 7.57782 18.1949C7.74405 18.641 8.0047 19.045 8.34154 19.3788C8.67205 19.7189 9.0721 19.9822 9.51376 20.15C10.0284 20.3446 10.5719 20.4497 11.1213 20.4607C11.8273 20.4926 12.0527 20.5008 13.8502 20.5008C15.6478 20.5008 15.8732 20.4932 16.5792 20.4607C17.1286 20.4497 17.6721 20.3446 18.1867 20.15C18.6263 19.978 19.0255 19.7151 19.3587 19.3784C19.692 19.0416 19.952 18.6383 20.1221 18.1943C20.3147 17.6746 20.4188 17.1257 20.4297 16.5709C20.4612 15.8585 20.4688 15.6299 20.4688 13.8155C20.4688 12.0011 20.4612 11.7726 20.4291 11.0595C20.4181 10.5047 20.3141 9.9558 20.1214 9.43611C19.9552 8.99008 19.6945 8.58607 19.3577 8.25229C19.0272 7.91211 18.6271 7.64889 18.1855 7.48101C17.6709 7.28641 17.1273 7.18137 16.578 7.17033C15.8726 7.1385 15.6462 7.13086 13.8496 7.13086Z" stroke="#333333"/>
<path d="M13.8512 10.3843C13.179 10.3843 12.5218 10.5856 11.9628 10.9628C11.4038 11.34 10.9682 11.8761 10.7109 12.5034C10.4536 13.1306 10.3863 13.8208 10.5175 14.4867C10.6486 15.1526 10.9723 15.7642 11.4477 16.2443C11.9231 16.7244 12.5288 17.0513 13.1881 17.1838C13.8475 17.3162 14.5309 17.2483 15.152 16.9884C15.7731 16.7286 16.304 16.2886 16.6775 15.7241C17.051 15.1596 17.2503 14.4959 17.2503 13.817C17.2503 12.9066 16.8922 12.0335 16.2548 11.3897C15.6173 10.7459 14.7527 10.3843 13.8512 10.3843ZM13.8512 16.0452C13.4149 16.0452 12.9883 15.9146 12.6254 15.6697C12.2626 15.4249 11.9798 15.0769 11.8128 14.6697C11.6458 14.2626 11.6021 13.8145 11.6873 13.3823C11.7724 12.9501 11.9825 12.553 12.2911 12.2414C12.5997 11.9298 12.9928 11.7176 13.4208 11.6316C13.8488 11.5456 14.2924 11.5898 14.6956 11.7584C15.0988 11.9271 15.4433 12.2126 15.6858 12.5791C15.9282 12.9455 16.0576 13.3763 16.0576 13.817C16.0576 14.408 15.8252 14.9747 15.4114 15.3926C14.9976 15.8105 14.4364 16.0452 13.8512 16.0452Z" fill="#333333"/>
<path d="M13.8512 10.3843C13.179 10.3843 12.5218 10.5856 11.9628 10.9628C11.4038 11.34 10.9682 11.8761 10.7109 12.5034C10.4536 13.1306 10.3863 13.8208 10.5175 14.4867C10.6486 15.1526 10.9723 15.7642 11.4477 16.2443C11.9231 16.7244 12.5288 17.0513 13.1881 17.1838C13.8475 17.3162 14.5309 17.2483 15.152 16.9884C15.7731 16.7286 16.304 16.2886 16.6775 15.7241C17.051 15.1596 17.2503 14.4959 17.2503 13.817C17.2503 12.9066 16.8922 12.0335 16.2548 11.3897C15.6173 10.7459 14.7527 10.3843 13.8512 10.3843ZM13.8512 16.0452C13.4149 16.0452 12.9883 15.9146 12.6254 15.6697C12.2626 15.4249 11.9798 15.0769 11.8128 14.6697C11.6458 14.2626 11.6021 13.8145 11.6873 13.3823C11.7724 12.9501 11.9825 12.553 12.2911 12.2414C12.5997 11.9298 12.9928 11.7176 13.4208 11.6316C13.8488 11.5456 14.2924 11.5898 14.6956 11.7584C15.0988 11.9271 15.4433 12.2126 15.6858 12.5791C15.9282 12.9455 16.0576 13.3763 16.0576 13.817C16.0576 14.408 15.8252 14.9747 15.4114 15.3926C14.9976 15.8105 14.4364 16.0452 13.8512 16.0452Z" stroke="#333333"/>
<path d="M17.3841 11.0501C17.8228 11.0501 18.1784 10.691 18.1784 10.248C18.1784 9.80494 17.8228 9.4458 17.3841 9.4458C16.9455 9.4458 16.5898 9.80494 16.5898 10.248C16.5898 10.691 16.9455 11.0501 17.3841 11.0501Z" fill="#333333"/>
<path d="M17.3841 11.0501C17.8228 11.0501 18.1784 10.691 18.1784 10.248C18.1784 9.80494 17.8228 9.4458 17.3841 9.4458C16.9455 9.4458 16.5898 9.80494 16.5898 10.248C16.5898 10.691 16.9455 11.0501 17.3841 11.0501Z" stroke="#333333"/>
</svg>
