<svg width="132" height="20" viewBox="0 0 132 20" fill="none" xmlns="http://www.w3.org/2000/svg">
<g clip-path="url(#clip0_7798_83460)">
<path d="M13.7651 18.6999H0L7.59 4.47595H0V0.916016H13.7651L6.19993 15.1399H13.7651V18.6999Z" fill="#4F35DF"/>
<path d="M43.5873 18.6999H40.0273V0.916016H43.5873V18.6999Z" fill="#4F35DF"/>
<path d="M49.9171 18.6992H46.5312V5.41783H47.3495L48.466 6.70844C49.0108 6.21344 49.6301 5.83146 50.3195 5.56248C51.0089 5.29351 51.7321 5.16016 52.4826 5.16016C53.2917 5.16016 54.058 5.31612 54.7767 5.62577C55.4955 5.93543 56.1239 6.36262 56.6618 6.90283C57.1997 7.44529 57.6224 8.07591 57.9321 8.80146C58.2417 9.52474 58.3977 10.2955 58.3977 11.1137V18.7037H55.0118V11.1137C55.0118 10.7656 54.9462 10.4379 54.8129 10.1282C54.6795 9.81858 54.4987 9.54735 54.2682 9.3168C54.0376 9.08625 53.7686 8.90317 53.4613 8.77207C53.1561 8.63872 52.8284 8.57317 52.4826 8.57317C52.1367 8.57317 51.7932 8.63872 51.479 8.77207C51.1648 8.90543 50.8913 9.08625 50.6608 9.3168C50.4302 9.54735 50.2471 9.81858 50.116 10.1282C49.9827 10.4379 49.9171 10.7679 49.9171 11.1137V18.7037V18.6992Z" fill="#4F35DF"/>
<path d="M64.0412 18.6993L58.9805 5.41797H62.8365L65.7387 13.7019L68.6273 5.41797H72.4969L67.4362 18.6993H64.039H64.0412Z" fill="#4F35DF"/>
<path d="M86.2403 11.9419C86.2403 12.9341 86.0617 13.8586 85.7069 14.713C85.352 15.5696 84.8683 16.3087 84.2558 16.9326C83.6432 17.5564 82.9267 18.0491 82.104 18.4085C81.2813 18.7679 80.3997 18.9487 79.4572 18.9487C78.5147 18.9487 77.6445 18.7702 76.8217 18.4085C75.999 18.0491 75.2802 17.5564 74.6632 16.9326C74.0461 16.3087 73.5624 15.5673 73.2053 14.713C72.8504 13.8586 72.6719 12.9341 72.6719 11.9419C72.6719 10.9496 72.8504 9.99803 73.2053 9.13913C73.5602 8.28023 74.0461 7.53659 74.6632 6.91276C75.278 6.28892 75.999 5.79844 76.8217 5.44358C77.6445 5.08872 78.5237 4.91016 79.4572 4.91016C80.3907 4.91016 81.2813 5.07742 82.104 5.41194C82.9267 5.74646 83.6432 6.22112 84.2558 6.83817C84.8683 7.45296 85.352 8.19433 85.7069 9.05776C86.0617 9.92118 86.2403 10.8818 86.2403 11.9419ZM82.8295 11.9419C82.8295 11.3971 82.7414 10.9021 82.5628 10.4614C82.3843 10.0184 82.1424 9.63865 81.8373 9.31995C81.5321 9.00125 81.1728 8.75714 80.7637 8.58762C80.3545 8.4181 79.9183 8.33447 79.455 8.33447C78.9916 8.33447 78.5554 8.42036 78.1463 8.58762C77.7371 8.75714 77.3823 9.00125 77.0794 9.31995C76.7765 9.63865 76.5392 10.0184 76.3674 10.4614C76.1934 10.9044 76.1075 11.3971 76.1075 11.9419C76.1075 12.455 76.1934 12.9296 76.3674 13.3681C76.5415 13.8066 76.7788 14.1863 77.0794 14.5095C77.38 14.8328 77.7371 15.0859 78.1463 15.2713C78.5554 15.4566 78.9916 15.5493 79.455 15.5493C79.9183 15.5493 80.3545 15.4611 80.7637 15.2893C81.1728 15.1153 81.5299 14.8712 81.8373 14.557C82.1447 14.2428 82.3843 13.8631 82.5628 13.4156C82.7414 12.968 82.8295 12.4776 82.8295 11.9396V11.9419Z" fill="#4F35DF"/>
<path d="M91.524 18.6996H88.1133V8.2391L91.524 5.41602V18.6974V18.6996Z" fill="#4F35DF"/>
<path d="M91.524 4.87205L88.1133 2.04897V1.18555H91.524V4.87205Z" fill="#4F35DF"/>
<path d="M105.711 8.05872L103.231 10.5518C103.107 10.2037 102.937 9.8918 102.722 9.61605C102.508 9.33803 102.266 9.10522 101.997 8.91536C101.728 8.7255 101.436 8.58084 101.122 8.48139C100.808 8.38194 100.485 8.33221 100.155 8.33221C99.6914 8.33221 99.2552 8.42714 98.8461 8.61701C98.437 8.80687 98.0821 9.07358 97.7792 9.41714C97.4764 9.7607 97.239 10.1676 97.0673 10.6377C96.8955 11.1078 96.8073 11.63 96.8073 12.1995C96.8073 12.6629 96.8932 13.0969 97.0673 13.5015C97.2413 13.906 97.4786 14.2632 97.7792 14.5683C98.0799 14.8734 98.437 15.113 98.8461 15.2871C99.2552 15.4611 99.6914 15.547 100.155 15.547C100.485 15.547 100.803 15.5018 101.109 15.4114C101.414 15.321 101.701 15.1899 101.97 15.0204C102.239 14.8508 102.478 14.6429 102.689 14.401C102.899 14.1569 103.071 13.8857 103.204 13.5896L105.683 16.0827C105.369 16.5302 105.008 16.9303 104.598 17.2852C104.189 17.64 103.746 17.9429 103.272 18.1893C102.797 18.4379 102.295 18.6255 101.771 18.7543C101.247 18.8832 100.706 18.9465 100.153 18.9465C99.219 18.9465 98.3398 18.7702 97.517 18.4198C96.6943 18.0672 95.9755 17.5858 95.3585 16.9755C94.7414 16.363 94.2577 15.6487 93.9006 14.8305C93.5435 14.0123 93.3672 13.1353 93.3672 12.2018C93.3672 11.1847 93.5457 10.2331 93.9006 9.34933C94.2555 8.46557 94.7414 7.69255 95.3585 7.03707C95.9733 6.37933 96.6943 5.86173 97.517 5.47975C98.3398 5.10002 99.219 4.91016 100.153 4.91016C100.706 4.91016 101.251 4.98022 101.784 5.12036C102.318 5.2605 102.826 5.46618 103.31 5.73516C103.794 6.00413 104.241 6.33187 104.65 6.72064C105.06 7.1094 105.412 7.55468 105.711 8.06098V8.05872Z" fill="#4F35DF"/>
<path d="M112.445 15.4495C112.578 15.4902 112.71 15.5173 112.843 15.5309C112.976 15.5444 113.107 15.549 113.241 15.549C113.571 15.549 113.889 15.5038 114.195 15.4133C114.5 15.3229 114.787 15.1918 115.056 15.0223C115.325 14.8528 115.564 14.6448 115.774 14.403C115.985 14.1589 116.156 13.8877 116.29 13.5916L118.769 16.0846C118.455 16.5322 118.094 16.9322 117.684 17.2871C117.275 17.642 116.832 17.9448 116.358 18.1912C115.883 18.4398 115.381 18.6275 114.857 18.7563C114.332 18.8851 113.792 18.9484 113.238 18.9484C112.305 18.9484 111.426 18.7744 110.603 18.4285C109.78 18.0805 109.061 17.5968 108.444 16.9775C107.827 16.3581 107.344 15.619 106.987 14.7646C106.632 13.9103 106.453 12.9677 106.453 11.9438C106.453 10.9199 106.632 9.93444 106.987 9.06649C107.341 8.19855 107.827 7.45944 108.444 6.8469C109.059 6.23437 109.78 5.75971 110.603 5.42067C111.426 5.08163 112.305 4.91211 113.238 4.91211C113.792 4.91211 114.335 4.97766 114.864 5.11101C115.393 5.24437 115.894 5.43423 116.371 5.6806C116.848 5.92697 117.291 6.23211 117.705 6.59149C118.118 6.95088 118.482 7.3532 118.796 7.80074L112.447 15.4518L112.445 15.4495ZM114.181 8.46752C114.025 8.40875 113.869 8.37259 113.715 8.35677C113.562 8.34094 113.403 8.3319 113.238 8.3319C112.775 8.3319 112.339 8.41779 111.93 8.58505C111.521 8.75458 111.166 8.99642 110.863 9.3106C110.56 9.62478 110.323 10.0045 110.151 10.4453C109.977 10.8883 109.891 11.3855 109.891 11.9393C109.891 12.0636 109.898 12.2038 109.909 12.362C109.92 12.5179 109.943 12.6784 109.97 12.8389C109.999 12.9994 110.033 13.1553 110.076 13.3045C110.119 13.4537 110.171 13.5848 110.237 13.7023L114.181 8.46978V8.46752Z" fill="#4F35DF"/>
<path d="M127.786 18.7002H120.047V15.3278H127.786C128.017 15.3278 128.216 15.2442 128.381 15.0792C128.546 14.9142 128.629 14.7153 128.629 14.4848C128.629 14.2542 128.546 14.087 128.381 14.0146C128.216 13.9423 128.017 13.9016 127.786 13.9016H124.265C123.677 13.9016 123.128 13.7909 122.615 13.5671C122.101 13.3433 121.656 13.0404 121.274 12.6562C120.894 12.272 120.594 11.8244 120.375 11.3113C120.155 10.7983 120.047 10.249 120.047 9.66134C120.047 9.07367 120.155 8.52442 120.375 8.01134C120.594 7.49826 120.894 7.05298 121.274 6.67099C121.654 6.28901 122.101 5.99065 122.615 5.77141C123.128 5.55216 123.677 5.44141 124.265 5.44141H131.122V8.81373H124.265C124.034 8.81373 123.835 8.89737 123.67 9.06237C123.505 9.22737 123.421 9.42627 123.421 9.65682C123.421 9.88736 123.505 10.1021 123.67 10.2716C123.835 10.4411 124.034 10.5248 124.265 10.5248H127.786C128.365 10.5248 128.909 10.622 129.423 10.8163C129.936 11.0107 130.381 11.282 130.763 11.6278C131.145 11.9736 131.445 12.3917 131.669 12.88C131.893 13.3682 132.004 13.9016 132.004 14.4802C132.004 15.0589 131.893 15.6149 131.669 16.1235C131.445 16.632 131.145 17.0796 130.763 17.4638C130.383 17.848 129.936 18.1509 129.423 18.3702C128.909 18.5894 128.365 18.6979 127.786 18.6979V18.7002Z" fill="#4F35DF"/>
<path d="M34.9495 14.5182C34.7484 14.7646 34.5156 14.9748 34.2534 15.1488C33.9912 15.3229 33.7109 15.4585 33.4103 15.5557C33.1097 15.6529 32.7955 15.7048 32.47 15.7139C32.3389 15.7161 32.2078 15.7139 32.0767 15.7048C31.9456 15.6958 31.8145 15.6732 31.6834 15.6348L37.7749 7.91819C37.4539 7.48422 37.0832 7.09545 36.6673 6.74963C36.2492 6.40381 35.8039 6.1145 35.3293 5.88169C34.8523 5.64888 34.3528 5.47258 33.8262 5.35504C33.2995 5.23751 32.7616 5.18552 32.2146 5.19682C31.2901 5.21943 30.4267 5.40703 29.6221 5.76189C28.8174 6.11676 28.1167 6.60271 27.5245 7.22429C26.9301 7.84361 26.469 8.58724 26.1367 9.45292C25.9536 9.9321 25.8271 10.4361 25.7525 10.9673C25.7457 11.0261 25.7367 11.0848 25.7299 11.1413C25.7299 11.1459 25.7299 11.1504 25.7299 11.1549C25.0088 16.3739 21.4625 15.7591 20.9991 15.6551C20.9991 15.6551 20.9969 15.6551 20.9946 15.6551C20.9856 15.6529 20.9765 15.6506 20.9697 15.6483C20.963 15.6461 20.9584 15.6461 20.9539 15.6438H20.9517L25.0857 10.4068C25.1693 9.98182 25.2869 9.57497 25.4338 9.18169C25.7027 8.47648 26.0576 7.83682 26.4893 7.27402C26.3153 7.09093 26.1299 6.92141 25.9356 6.75867C25.5174 6.41285 25.0721 6.12354 24.5952 5.89073C24.1206 5.65792 23.6188 5.48162 23.0921 5.36408C22.5655 5.24655 22.0298 5.19456 21.4828 5.20587C20.5584 5.22847 19.6949 5.41607 18.8903 5.77093C18.0856 6.1258 17.3849 6.61176 16.7928 7.23333C16.1983 7.85265 15.7349 8.59628 15.4049 9.46196C15.0749 10.3276 14.9212 11.2815 14.9484 12.3189C14.9755 13.3564 15.1699 14.2583 15.5428 15.0946C15.9135 15.9309 16.413 16.6496 17.0369 17.2463C17.6607 17.8453 18.384 18.3064 19.2045 18.6296C20.0249 18.9529 20.8974 19.1043 21.8219 19.0817C22.3688 19.0681 22.9 18.9913 23.4154 18.8534C23.9307 18.7133 24.4212 18.5166 24.8845 18.2589C24.9117 18.2431 24.9388 18.2273 24.9659 18.2115C25.0427 18.1685 25.1173 18.1233 25.1919 18.0759C25.5377 17.8611 25.8655 17.6125 26.1706 17.3322C26.2949 17.2192 26.4125 17.1039 26.5255 16.9819C26.5255 16.9796 26.521 16.9774 26.521 16.9751C26.7244 16.7536 26.8804 16.5434 27.0001 16.3535C27.2307 16.6722 27.4861 16.9661 27.7686 17.2373C28.3925 17.8363 29.1158 18.2974 29.9362 18.6206C30.7567 18.9438 31.6292 19.0952 32.5536 19.0726C33.1006 19.0591 33.6318 18.9822 34.1471 18.8444C34.6625 18.7042 35.153 18.5076 35.6163 18.2499C36.0797 17.9945 36.5091 17.6848 36.9069 17.3232C37.3025 16.9615 37.6506 16.557 37.9512 16.1072L35.44 13.7045C35.3157 14.0029 35.153 14.2741 34.9495 14.5205V14.5182ZM18.723 13.9689C18.6552 13.8559 18.5987 13.7271 18.5535 13.5802C18.5083 13.4333 18.4699 13.2818 18.4382 13.1236C18.4043 12.9654 18.3817 12.8072 18.3659 12.6535C18.3501 12.4975 18.341 12.3596 18.3365 12.2376C18.323 11.6906 18.3975 11.1956 18.558 10.7548C18.7185 10.3141 18.9445 9.93436 19.2361 9.61566C19.5254 9.29696 19.8712 9.05059 20.2713 8.87429C20.6714 8.69799 21.1008 8.60306 21.5597 8.59176C21.7224 8.58723 21.8806 8.59176 22.0321 8.60532C22.1835 8.61662 22.3372 8.65052 22.4954 8.70477L18.723 13.9712V13.9689ZM29.4593 13.9599C29.3915 13.8469 29.335 13.7181 29.2898 13.5711C29.2446 13.4242 29.2062 13.2728 29.1745 13.1146C29.1429 12.9563 29.118 12.7981 29.1022 12.6444C29.0864 12.4885 29.0773 12.3506 29.0728 12.2285C29.0593 11.6815 29.1338 11.1866 29.2943 10.7458C29.4548 10.305 29.6808 9.92532 29.9724 9.60662C30.2617 9.28792 30.6075 9.04155 31.0076 8.86525C31.4077 8.68895 31.8371 8.59402 32.296 8.58271C32.4587 8.57819 32.6169 8.58271 32.7684 8.59628C32.9198 8.60758 33.0735 8.64148 33.2317 8.69573L29.4593 13.9622V13.9599Z" fill="#4F35DF"/>
</g>
<defs>
<clipPath id="clip0_7798_83460">
<rect width="132" height="18.1681" fill="white" transform="translate(0 0.916016)"/>
</clipPath>
</defs>
</svg>
