<svg width="175" height="24" viewBox="0 0 175 24" fill="none" xmlns="http://www.w3.org/2000/svg">
<g clip-path="url(#clip0_5449_2464)">
<path d="M18.1836 23.4924H0L10.0264 4.70266H0V0H18.1836L8.1901 18.7897H18.1836V23.4924Z" fill="#3F4DE1"/>
<path d="M57.5816 23.4924H52.8789V0H57.5816V23.4924Z" fill="#3F4DE1"/>
<path d="M65.9386 23.4925H61.4658V5.9478H62.5467L64.0217 7.65271C64.7413 6.99881 65.5594 6.49421 66.47 6.1389C67.3807 5.78358 68.3362 5.60742 69.3275 5.60742C70.3964 5.60742 71.4086 5.81344 72.3581 6.2225C73.3076 6.63156 74.1376 7.19588 74.8483 7.90949C75.5589 8.62608 76.1172 9.45913 76.5263 10.4176C76.9353 11.373 77.1414 12.3912 77.1414 13.4721V23.4984H72.6686V13.4721C72.6686 13.0122 72.582 12.5793 72.4059 12.1702C72.2297 11.7612 71.9908 11.4029 71.6863 11.0983C71.3817 10.7938 71.0264 10.5519 70.6203 10.3788C70.2173 10.2026 69.7843 10.116 69.3275 10.116C68.8706 10.116 68.4168 10.2026 68.0018 10.3788C67.5867 10.5549 67.2255 10.7938 66.9209 11.0983C66.6164 11.4029 66.3745 11.7612 66.2013 12.1702C66.0252 12.5793 65.9386 13.0152 65.9386 13.4721V23.4984V23.4925Z" fill="#3F4DE1"/>
<path d="M84.5974 23.4924L77.9121 5.94775H83.0059L86.8397 16.8908L90.6556 5.94775H95.7673L89.0821 23.4924H84.5944H84.5974Z" fill="#3F4DE1"/>
<path d="M113.921 14.5648C113.921 15.8755 113.685 17.0967 113.216 18.2254C112.748 19.357 112.109 20.3334 111.299 21.1574C110.49 21.9815 109.544 22.6324 108.457 23.1072C107.37 23.5819 106.206 23.8208 104.96 23.8208C103.715 23.8208 102.566 23.5849 101.479 23.1072C100.392 22.6324 99.4427 21.9815 98.6276 21.1574C97.8124 20.3334 97.1735 19.354 96.7017 18.2254C96.2329 17.0967 95.9971 15.8755 95.9971 14.5648C95.9971 13.254 96.2329 11.997 96.7017 10.8623C97.1705 9.72773 97.8124 8.7454 98.6276 7.92131C99.4397 7.09723 100.392 6.44931 101.479 5.98053C102.566 5.51176 103.727 5.27588 104.96 5.27588C106.194 5.27588 107.37 5.49683 108.457 5.93873C109.544 6.38063 110.49 7.00765 111.299 7.82278C112.109 8.63492 112.748 9.61427 113.216 10.7549C113.685 11.8954 113.921 13.1644 113.921 14.5648ZM109.415 14.5648C109.415 13.8452 109.299 13.1913 109.063 12.609C108.827 12.0238 108.508 11.5222 108.105 11.1012C107.701 10.6802 107.227 10.3577 106.686 10.1338C106.146 9.90987 105.57 9.79939 104.958 9.79939C104.345 9.79939 103.769 9.91285 103.229 10.1338C102.688 10.3577 102.22 10.6802 101.819 11.1012C101.419 11.5222 101.106 12.0238 100.879 12.609C100.649 13.1943 100.536 13.8452 100.536 14.5648C100.536 15.2425 100.649 15.8696 100.879 16.4488C101.109 17.0281 101.422 17.5297 101.819 17.9566C102.217 18.3836 102.688 18.718 103.229 18.9629C103.769 19.2077 104.345 19.3301 104.958 19.3301C105.57 19.3301 106.146 19.2137 106.686 18.9868C107.227 18.7568 107.698 18.4344 108.105 18.0193C108.511 17.6043 108.827 17.1027 109.063 16.5115C109.299 15.9203 109.415 15.2724 109.415 14.5618V14.5648Z" fill="#3F4DE1"/>
<path d="M120.902 23.4925H116.396V9.67411L120.902 5.94482V23.4895V23.4925Z" fill="#3F4DE1"/>
<path d="M120.902 5.22534L116.396 1.49605V0.355469H120.902V5.22534Z" fill="#3F4DE1"/>
<path d="M139.641 9.43512L136.365 12.7285C136.201 12.2687 135.977 11.8566 135.693 11.4924C135.41 11.1251 135.09 10.8176 134.735 10.5667C134.379 10.3159 133.994 10.1248 133.579 9.99347C133.164 9.86209 132.737 9.79641 132.301 9.79641C131.689 9.79641 131.113 9.92181 130.573 10.1726C130.032 10.4234 129.563 10.7758 129.163 11.2296C128.763 11.6834 128.45 12.2209 128.223 12.8419C127.996 13.463 127.879 14.1527 127.879 14.9051C127.879 15.5172 127.993 16.0905 128.223 16.625C128.453 17.1594 128.766 17.6312 129.163 18.0343C129.56 18.4374 130.032 18.7539 130.573 18.9838C131.113 19.2137 131.689 19.3271 132.301 19.3271C132.737 19.3271 133.158 19.2674 133.561 19.148C133.964 19.0286 134.344 18.8554 134.699 18.6314C135.054 18.4075 135.371 18.1328 135.648 17.8133C135.926 17.4909 136.153 17.1326 136.329 16.7414L139.605 20.0348C139.19 20.626 138.712 21.1545 138.171 21.6232C137.631 22.092 137.046 22.4921 136.419 22.8176C135.792 23.146 135.129 23.3938 134.436 23.564C133.744 23.7342 133.03 23.8178 132.298 23.8178C131.065 23.8178 129.904 23.5849 128.817 23.1221C127.73 22.6563 126.781 22.0203 125.965 21.2142C125.15 20.405 124.511 19.4615 124.04 18.3806C123.568 17.2998 123.335 16.1413 123.335 14.9081C123.335 13.5645 123.571 12.3075 124.04 11.14C124.508 9.97257 125.15 8.95142 125.965 8.08553C126.778 7.21666 127.73 6.53291 128.817 6.02831C129.904 5.52669 131.065 5.27588 132.298 5.27588C133.03 5.27588 133.749 5.36844 134.454 5.55356C135.159 5.73868 135.831 6.01039 136.47 6.3657C137.109 6.72101 137.7 7.15396 138.24 7.66752C138.781 8.18108 139.246 8.76929 139.641 9.43811V9.43512Z" fill="#3F4DE1"/>
<path d="M148.538 19.1992C148.715 19.2529 148.888 19.2888 149.064 19.3067C149.24 19.3246 149.413 19.3306 149.589 19.3306C150.025 19.3306 150.446 19.2708 150.849 19.1514C151.253 19.032 151.632 18.8588 151.987 18.6349C152.342 18.4109 152.659 18.1362 152.937 17.8167C153.214 17.4943 153.441 17.136 153.617 16.7448L156.893 20.0382C156.478 20.6294 156 21.1579 155.46 21.6266C154.919 22.0954 154.334 22.4955 153.707 22.821C153.08 23.1494 152.417 23.3972 151.724 23.5674C151.032 23.7376 150.318 23.8212 149.586 23.8212C148.353 23.8212 147.192 23.5913 146.105 23.1345C145.018 22.6747 144.069 22.0357 143.254 21.2176C142.438 20.3995 141.799 19.4231 141.328 18.2945C140.859 17.1658 140.623 15.9208 140.623 14.5682C140.623 13.2156 140.859 11.9138 141.328 10.7672C141.796 9.62068 142.438 8.64431 143.254 7.83516C144.066 7.026 145.018 6.39898 146.105 5.95111C147.192 5.50323 148.353 5.2793 149.586 5.2793C150.318 5.2793 151.035 5.36589 151.733 5.54205C152.432 5.71821 153.095 5.96902 153.725 6.29447C154.355 6.61993 154.94 7.02301 155.486 7.49776C156.033 7.9725 156.514 8.50398 156.929 9.09517L148.541 19.2022L148.538 19.1992ZM150.832 9.97599C150.626 9.89836 150.42 9.85058 150.216 9.82968C150.013 9.80878 149.804 9.79684 149.586 9.79684C148.974 9.79684 148.398 9.9103 147.858 10.1313C147.317 10.3552 146.848 10.6747 146.448 11.0897C146.048 11.5047 145.735 12.0063 145.508 12.5886C145.278 13.1738 145.164 13.8307 145.164 14.5622C145.164 14.7264 145.173 14.9115 145.188 15.1206C145.203 15.3266 145.233 15.5386 145.269 15.7506C145.308 15.9626 145.353 16.1686 145.409 16.3656C145.466 16.5627 145.535 16.7359 145.621 16.8911L150.832 9.97897V9.97599Z" fill="#3F4DE1"/>
<path d="M168.804 23.4923H158.58V19.0375H168.804C169.108 19.0375 169.371 18.927 169.589 18.7091C169.807 18.4911 169.917 18.2283 169.917 17.9238C169.917 17.6192 169.807 17.3983 169.589 17.3027C169.371 17.2072 169.108 17.1535 168.804 17.1535H164.152C163.375 17.1535 162.65 17.0071 161.972 16.7116C161.294 16.416 160.706 16.0159 160.201 15.5083C159.7 15.0007 159.303 14.4095 159.013 13.7317C158.723 13.0539 158.58 12.3284 158.58 11.5521C158.58 10.7757 158.723 10.0502 159.013 9.37241C159.303 8.69463 159.7 8.10643 160.201 7.60182C160.703 7.09722 161.294 6.70309 161.972 6.41347C162.65 6.12384 163.375 5.97754 164.152 5.97754H173.211V10.4324H164.152C163.847 10.4324 163.584 10.5429 163.366 10.7608C163.148 10.9788 163.038 11.2415 163.038 11.5461C163.038 11.8506 163.148 12.1343 163.366 12.3582C163.584 12.5822 163.847 12.6926 164.152 12.6926H168.804C169.568 12.6926 170.287 12.821 170.965 13.0778C171.643 13.3346 172.231 13.6929 172.736 14.1497C173.24 14.6066 173.638 15.1589 173.933 15.8039C174.229 16.4488 174.375 17.1535 174.375 17.9178C174.375 18.6822 174.229 19.4167 173.933 20.0885C173.638 20.7603 173.24 21.3515 172.736 21.8591C172.234 22.3667 171.643 22.7668 170.965 23.0564C170.287 23.346 169.568 23.4894 168.804 23.4894V23.4923Z" fill="#3F4DE1"/>
<path d="M46.1667 17.9688C45.901 18.2943 45.5935 18.572 45.2471 18.8019C44.9008 19.0318 44.5305 19.2109 44.1334 19.3393C43.7363 19.4677 43.3213 19.5364 42.8913 19.5483C42.7181 19.5513 42.545 19.5483 42.3718 19.5364C42.1986 19.5244 42.0254 19.4946 41.8522 19.4438L49.899 9.25024C49.475 8.67696 48.9854 8.1634 48.436 7.70657C47.8836 7.24974 47.2954 6.86756 46.6684 6.56002C46.0384 6.25248 45.3785 6.01959 44.6828 5.86432C43.9871 5.70906 43.2765 5.64039 42.5539 5.65532C41.3327 5.68518 40.1921 5.933 39.1292 6.40177C38.0662 6.87055 37.1406 7.5125 36.3583 8.3336C35.5731 9.15171 34.964 10.134 34.525 11.2776C34.2832 11.9106 34.116 12.5764 34.0175 13.2781C34.0085 13.3557 33.9966 13.4334 33.9876 13.508C33.9876 13.514 33.9876 13.52 33.9876 13.5259C33.0351 20.4202 28.3504 19.608 27.7383 19.4707C27.7383 19.4707 27.7353 19.4707 27.7323 19.4707C27.7204 19.4677 27.7084 19.4647 27.6995 19.4617C27.6905 19.4588 27.6845 19.4588 27.6786 19.4558H27.6756L33.1366 12.5376C33.2471 11.9763 33.4024 11.4388 33.5965 10.9193C33.9518 9.98774 34.4205 9.14275 34.9908 8.39928C34.7609 8.15743 34.5161 7.9335 34.2593 7.71852C33.7069 7.26169 33.1187 6.8795 32.4887 6.57196C31.8617 6.26442 31.1988 6.03153 30.5031 5.87627C29.8075 5.72101 29.0998 5.65233 28.3772 5.66726C27.156 5.69712 26.0155 5.94494 24.9525 6.41371C23.8896 6.88249 22.964 7.52444 22.1817 8.34554C21.3964 9.16365 20.7843 10.146 20.3484 11.2896C19.9125 12.4331 19.7094 13.6931 19.7452 15.0636C19.7811 16.4341 20.0379 17.6255 20.5305 18.7302C21.0202 19.835 21.6801 20.7845 22.5041 21.5727C23.3282 22.364 24.2837 22.9731 25.3675 23.4C26.4514 23.827 27.6039 24.0271 28.8251 23.9972C29.5477 23.9793 30.2493 23.8778 30.9301 23.6956C31.6109 23.5105 32.2588 23.2507 32.8709 22.9104C32.9067 22.8895 32.9426 22.8686 32.9784 22.8477C33.0799 22.7909 33.1784 22.7312 33.277 22.6685C33.7338 22.3849 34.1667 22.0564 34.5698 21.6862C34.734 21.5369 34.8893 21.3846 35.0386 21.2234C35.0386 21.2204 35.0326 21.2174 35.0326 21.2144C35.3014 20.9218 35.5074 20.6441 35.6656 20.3933C35.9702 20.8143 36.3076 21.2025 36.6808 21.5608C37.5049 22.352 38.4604 22.9611 39.5442 23.3881C40.6281 23.8151 41.7806 24.0151 43.0018 23.9853C43.7243 23.9673 44.426 23.8658 45.1068 23.6837C45.7875 23.4986 46.4355 23.2388 47.0476 22.8984C47.6597 22.561 48.227 22.152 48.7525 21.6742C49.275 21.1965 49.7348 20.662 50.1319 20.0679L46.8147 16.8939C46.6504 17.2881 46.4355 17.6464 46.1667 17.9718V17.9688ZM24.7316 17.2433C24.642 17.094 24.5673 16.9238 24.5076 16.7297C24.4479 16.5356 24.3971 16.3356 24.3553 16.1266C24.3106 15.9176 24.2807 15.7086 24.2598 15.5055C24.2389 15.2995 24.227 15.1174 24.221 14.9561C24.2031 14.2336 24.3016 13.5797 24.5136 12.9974C24.7256 12.4152 25.0242 11.9136 25.4093 11.4926C25.7915 11.0716 26.2484 10.7461 26.7768 10.5132C27.3053 10.2803 27.8726 10.1549 28.4788 10.14C28.6937 10.134 28.9027 10.14 29.1028 10.1579C29.3028 10.1729 29.5059 10.2176 29.7149 10.2893L24.7316 17.2463V17.2433ZM38.9142 17.2313C38.8246 17.082 38.75 16.9118 38.6903 16.7178C38.6305 16.5237 38.5798 16.3236 38.538 16.1146C38.4962 15.9056 38.4633 15.6966 38.4424 15.4936C38.4215 15.2876 38.4096 15.1054 38.4036 14.9442C38.3857 14.2216 38.4842 13.5677 38.6962 12.9855C38.9082 12.4033 39.2068 11.9016 39.592 11.4806C39.9742 11.0596 40.431 10.7342 40.9595 10.5013C41.488 10.2684 42.0553 10.143 42.6614 10.1281C42.8764 10.1221 43.0854 10.1281 43.2854 10.146C43.4855 10.1609 43.6885 10.2057 43.8975 10.2774L38.9142 17.2343V17.2313Z" fill="#3F4DE1"/>
</g>
<defs>
<clipPath id="clip0_5449_2464">
<rect width="174.372" height="24" fill="white"/>
</clipPath>
</defs>
</svg>
