<svg width="32" height="33" viewBox="0 0 32 33" fill="none" xmlns="http://www.w3.org/2000/svg">
<path fill-rule="evenodd" clip-rule="evenodd" d="M0 16.1133C0 7.27673 7.16344 0.113281 16 0.113281C24.8366 0.113281 32 7.27673 32 16.1133C32 24.9498 24.8366 32.1133 16 32.1133C7.16344 32.1133 0 24.9498 0 16.1133ZM22.1 11.6133C22.8 11.5133 23.4 11.4133 24 11.1133C23.6 11.8133 23 12.4133 22.3 12.8133C22.5 17.5133 19.1 22.6133 13 22.6133C11.2 22.6133 9.5 22.0133 8 21.1133C9.7 21.3133 11.5 20.8133 12.7 19.9133C11.2 19.9133 10 18.9133 9.6 17.6133C10.1 17.7133 10.6 17.6133 11.1 17.5133C9.6 17.1133 8.5 15.7133 8.5 14.2133C9 14.4133 9.5 14.6133 10 14.6133C8.6 13.6133 8.1 11.7133 9 10.2133C10.7 12.2133 13.1 13.5133 15.8 13.6133C15.3 11.6133 16.9 9.61328 19 9.61328C19.9 9.61328 20.8 10.0133 21.4 10.6133C22.2 10.4133 22.9 10.2133 23.5 9.81328C23.3 10.6133 22.8 11.2133 22.1 11.6133Z" fill="#E0E0E0"/>
</svg>
