<svg width="28" height="28" viewBox="0 0 28 28" fill="none" xmlns="http://www.w3.org/2000/svg">
<ellipse cx="13.6796" cy="13.815" rx="13.6796" ry="13.815" fill="white"/>
<path d="M19.7444 10.8379C19.3349 11.0217 18.9027 11.1365 18.4478 11.2055C18.9027 10.9298 19.2667 10.4933 19.4259 9.965C18.9937 10.2177 18.5161 10.4015 17.9929 10.5163C17.5835 10.0799 16.9921 9.8042 16.3552 9.8042C15.1269 9.8042 14.126 10.8149 14.126 12.0554C14.126 12.2392 14.1488 12.4 14.1943 12.5608C12.3518 12.4689 10.6914 11.573 9.5768 10.1947C9.39483 10.5393 9.2811 10.9068 9.2811 11.3203C9.2811 12.1013 9.66778 12.7905 10.2819 13.204C9.91799 13.181 9.5768 13.0891 9.25835 12.9283V12.9513C9.25835 14.0539 10.0317 14.9728 11.0553 15.1795C10.8733 15.2254 10.6686 15.2484 10.4639 15.2484C10.3274 15.2484 10.1682 15.2254 10.0317 15.2025C10.3274 16.0984 11.1463 16.7645 12.1244 16.7645C11.351 17.3618 10.3957 17.7293 9.34933 17.7293H9.34932C9.16736 17.7293 8.98539 17.7293 8.82617 17.7063C9.82701 18.3495 10.9871 18.7171 12.2609 18.7171C16.3779 18.7171 18.6298 15.2714 18.6298 12.2851V11.9865C19.062 11.6879 19.4487 11.2973 19.7444 10.8379Z" fill="#333333"/>
<path d="M19.7444 10.8379C19.3349 11.0217 18.9027 11.1365 18.4478 11.2055C18.9027 10.9298 19.2667 10.4933 19.4259 9.965C18.9937 10.2177 18.5161 10.4015 17.9929 10.5163C17.5835 10.0799 16.9921 9.8042 16.3552 9.8042C15.1269 9.8042 14.126 10.8149 14.126 12.0554C14.126 12.2392 14.1488 12.4 14.1943 12.5608C12.3518 12.4689 10.6914 11.573 9.5768 10.1947C9.39483 10.5393 9.2811 10.9068 9.2811 11.3203C9.2811 12.1013 9.66778 12.7905 10.2819 13.204C9.91799 13.181 9.5768 13.0891 9.25835 12.9283V12.9513C9.25835 14.0539 10.0317 14.9728 11.0553 15.1795C10.8733 15.2254 10.6686 15.2484 10.4639 15.2484C10.3274 15.2484 10.1682 15.2254 10.0317 15.2025C10.3274 16.0984 11.1463 16.7645 12.1244 16.7645C11.351 17.3618 10.3957 17.7293 9.34933 17.7293H9.34932C9.16736 17.7293 8.98539 17.7293 8.82617 17.7063C9.82701 18.3495 10.9871 18.7171 12.2609 18.7171C16.3779 18.7171 18.6298 15.2714 18.6298 12.2851V11.9865C19.062 11.6879 19.4487 11.2973 19.7444 10.8379Z" stroke="#333333"/>
</svg>
