<svg width="117" height="16" viewBox="0 0 117 16" fill="none" xmlns="http://www.w3.org/2000/svg">
<g clip-path="url(#clip0_5449_2838)">
<path d="M12.1224 15.6616H0L6.68425 3.13511H0V0H12.1224L5.46006 12.5265H12.1224V15.6616Z" fill="white"/>
<path d="M38.388 15.6616H35.2529V0H38.388V15.6616Z" fill="white"/>
<path d="M43.9594 15.6616H40.9775V3.9652H41.6981L42.6814 5.1018C43.1612 4.66587 43.7066 4.32947 44.3137 4.0926C44.9208 3.85572 45.5578 3.73828 46.2186 3.73828C46.9313 3.73828 47.6061 3.87563 48.239 4.14833C48.872 4.42104 49.4254 4.79725 49.8992 5.27299C50.3729 5.75072 50.7451 6.30608 51.0178 6.94505C51.2906 7.58202 51.4279 8.2608 51.4279 8.98138V15.6656H48.4461V8.98138C48.4461 8.67483 48.3883 8.3862 48.2709 8.1135C48.1535 7.84079 47.9942 7.60193 47.7912 7.39889C47.5881 7.19586 47.3513 7.03462 47.0806 6.91917C46.8118 6.80173 46.5232 6.744 46.2186 6.744C45.9141 6.744 45.6115 6.80173 45.3348 6.91917C45.0582 7.03661 44.8173 7.19586 44.6143 7.39889C44.4112 7.60193 44.25 7.84079 44.1345 8.1135C44.0171 8.3862 43.9594 8.67682 43.9594 8.98138V15.6656V15.6616Z" fill="white"/>
<path d="M56.3982 15.6618L51.9414 3.96533H55.3373L57.8931 11.2607L60.4371 3.96533H63.8449L59.388 15.6618H56.3962H56.3982Z" fill="white"/>
<path d="M75.9473 9.71016C75.9473 10.584 75.79 11.3981 75.4775 12.1506C75.165 12.905 74.739 13.5559 74.1996 14.1053C73.6602 14.6547 73.0291 15.0886 72.3046 15.4051C71.58 15.7216 70.8037 15.8809 69.9737 15.8809C69.1436 15.8809 68.3772 15.7236 67.6527 15.4051C66.9281 15.0886 66.2951 14.6547 65.7517 14.1053C65.2083 13.5559 64.7823 12.903 64.4678 12.1506C64.1553 11.3981 63.998 10.584 63.998 9.71016C63.998 8.83631 64.1553 7.99829 64.4678 7.24189C64.7803 6.48548 65.2083 5.83059 65.7517 5.2812C66.2931 4.73181 66.9281 4.29986 67.6527 3.98735C68.3772 3.67483 69.1516 3.51758 69.9737 3.51758C70.7958 3.51758 71.58 3.66488 72.3046 3.95948C73.0291 4.25408 73.6602 4.67209 74.1996 5.21551C74.739 5.75694 75.165 6.40984 75.4775 7.17023C75.79 7.93062 75.9473 8.7766 75.9473 9.71016ZM72.9436 9.71016C72.9436 9.23044 72.8659 8.79451 72.7087 8.40636C72.5514 8.01621 72.3384 7.6818 72.0697 7.40113C71.801 7.12046 71.4845 6.90549 71.1242 6.75619C70.7639 6.6069 70.3797 6.53325 69.9717 6.53325C69.5636 6.53325 69.1794 6.60889 68.8191 6.75619C68.4589 6.90549 68.1463 7.12046 67.8796 7.40113C67.6129 7.6818 67.4039 8.01621 67.2526 8.40636C67.0993 8.7965 67.0237 9.23044 67.0237 9.71016C67.0237 10.162 67.0993 10.58 67.2526 10.9662C67.4059 11.3524 67.6149 11.6868 67.8796 11.9714C68.1444 12.2561 68.4589 12.479 68.8191 12.6422C69.1794 12.8055 69.5636 12.8871 69.9717 12.8871C70.3797 12.8871 70.7639 12.8094 71.1242 12.6582C71.4845 12.5049 71.799 12.2899 72.0697 12.0132C72.3404 11.7365 72.5514 11.4021 72.7087 11.008C72.8659 10.6139 72.9436 10.1819 72.9436 9.70817V9.71016Z" fill="white"/>
<path d="M80.6014 15.6618H77.5977V6.44957L80.6014 3.96338V15.6598V15.6618Z" fill="white"/>
<path d="M80.6014 3.4834L77.5977 0.997205V0.236816H80.6014V3.4834Z" fill="white"/>
<path d="M93.094 6.29041L90.9104 8.48598C90.8009 8.17943 90.6516 7.90474 90.4625 7.66189C90.2734 7.41706 90.0604 7.21203 89.8235 7.04482C89.5867 6.87762 89.3299 6.75022 89.0532 6.66264C88.7765 6.57506 88.4919 6.53126 88.2012 6.53126C87.7932 6.53126 87.409 6.61487 87.0487 6.78207C86.6884 6.94928 86.3759 7.18416 86.1092 7.48672C85.8424 7.78929 85.6334 8.14758 85.4822 8.56162C85.3309 8.97565 85.2532 9.43547 85.2532 9.93709C85.2532 10.3451 85.3289 10.7273 85.4822 11.0836C85.6354 11.4399 85.8444 11.7545 86.1092 12.0232C86.3739 12.2919 86.6884 12.5029 87.0487 12.6562C87.409 12.8094 87.7932 12.8851 88.2012 12.8851C88.4919 12.8851 88.7725 12.8453 89.0412 12.7656C89.31 12.686 89.5628 12.5706 89.7996 12.4213C90.0365 12.272 90.2475 12.0889 90.4326 11.8759C90.6178 11.6609 90.769 11.422 90.8865 11.1613L93.0701 13.3568C92.7934 13.751 92.4749 14.1033 92.1147 14.4158C91.7544 14.7283 91.3642 14.9951 90.9462 15.212C90.5282 15.431 90.0863 15.5962 89.6245 15.7097C89.1627 15.8231 88.6869 15.8789 88.1992 15.8789C87.3772 15.8789 86.6028 15.7236 85.8783 15.4151C85.1537 15.1045 84.5207 14.6806 83.9773 14.1431C83.4339 13.6037 83.0079 12.9747 82.6934 12.2541C82.3789 11.5335 82.2236 10.7612 82.2236 9.93908C82.2236 9.04333 82.3809 8.20531 82.6934 7.42701C83.0059 6.64871 83.4339 5.96794 83.9773 5.39068C84.5187 4.81143 85.1537 4.3556 85.8783 4.0192C86.6028 3.68478 87.3772 3.51758 88.1992 3.51758C88.6869 3.51758 89.1667 3.57929 89.6364 3.7027C90.1062 3.82611 90.5541 4.00725 90.98 4.24413C91.406 4.481 91.8001 4.76963 92.1604 5.112C92.5207 5.45438 92.8312 5.84652 93.094 6.2924V6.29041Z" fill="white"/>
<path d="M99.026 12.7995C99.1434 12.8353 99.2588 12.8592 99.3763 12.8711C99.4937 12.8831 99.6092 12.887 99.7266 12.887C100.017 12.887 100.298 12.8472 100.567 12.7676C100.835 12.688 101.088 12.5725 101.325 12.4232C101.562 12.2739 101.773 12.0908 101.958 11.8778C102.143 11.6628 102.294 11.424 102.412 11.1632L104.596 13.3588C104.319 13.7529 104 14.1052 103.64 14.4178C103.28 14.7303 102.89 14.997 102.472 15.214C102.054 15.4329 101.612 15.5982 101.15 15.7116C100.688 15.8251 100.212 15.8808 99.7246 15.8808C98.9025 15.8808 98.1282 15.7275 97.4037 15.423C96.6791 15.1164 96.0461 14.6905 95.5027 14.1451C94.9593 13.5996 94.5333 12.9487 94.2188 12.1963C93.9063 11.4439 93.749 10.6138 93.749 9.71212C93.749 8.8104 93.9063 7.94252 94.2188 7.17815C94.5313 6.41378 94.9593 5.76288 95.5027 5.22344C96.0441 4.684 96.6791 4.26599 97.4037 3.9674C98.1282 3.66882 98.9025 3.51953 99.7246 3.51953C100.212 3.51953 100.69 3.57726 101.156 3.6947C101.622 3.81214 102.064 3.97935 102.484 4.19632C102.904 4.41329 103.294 4.68201 103.658 4.99851C104.022 5.315 104.343 5.66932 104.619 6.06345L99.0279 12.8014L99.026 12.7995ZM100.555 6.65066C100.417 6.5989 100.28 6.56705 100.145 6.55312C100.009 6.53919 99.8699 6.53123 99.7246 6.53123C99.3166 6.53123 98.9324 6.60687 98.5721 6.75417C98.2118 6.90346 97.8993 7.11645 97.6326 7.39313C97.3658 7.66982 97.1568 8.00423 97.0056 8.39239C96.8523 8.78253 96.7766 9.22045 96.7766 9.70814C96.7766 9.81762 96.7826 9.94103 96.7926 10.0804C96.8025 10.2177 96.8224 10.359 96.8463 10.5004C96.8722 10.6417 96.902 10.779 96.9399 10.9104C96.9777 11.0418 97.0235 11.1573 97.0812 11.2608L100.555 6.65265V6.65066Z" fill="white"/>
<path d="M112.535 15.6619H105.72V12.692H112.535C112.738 12.692 112.914 12.6183 113.059 12.473C113.204 12.3277 113.278 12.1526 113.278 11.9495C113.278 11.7465 113.204 11.5992 113.059 11.5355C112.914 11.4718 112.738 11.436 112.535 11.436H109.434C108.917 11.436 108.433 11.3384 107.981 11.1414C107.529 10.9443 107.137 10.6776 106.801 10.3392C106.466 10.0008 106.201 9.60665 106.008 9.1548C105.815 8.70294 105.72 8.21924 105.72 7.7017C105.72 7.18416 105.815 6.70045 106.008 6.2486C106.201 5.79675 106.466 5.40461 106.801 5.06821C107.135 4.73181 107.529 4.46905 107.981 4.27597C108.433 4.08289 108.917 3.98535 109.434 3.98535H115.473V6.95524H109.434C109.231 6.95524 109.056 7.02889 108.911 7.1742C108.765 7.31951 108.692 7.49468 108.692 7.69772C108.692 7.90075 108.765 8.08986 108.911 8.23915C109.056 8.38844 109.231 8.46209 109.434 8.46209H112.535C113.045 8.46209 113.525 8.54768 113.977 8.71887C114.428 8.89005 114.821 9.12892 115.157 9.43347C115.493 9.73803 115.758 10.1063 115.955 10.5362C116.152 10.9662 116.25 11.436 116.25 11.9455C116.25 12.4551 116.152 12.9448 115.955 13.3927C115.758 13.8405 115.493 14.2347 115.157 14.5731C114.822 14.9115 114.428 15.1782 113.977 15.3713C113.525 15.5644 113.045 15.6599 112.535 15.6599V15.6619Z" fill="white"/>
<path d="M30.7782 11.9794C30.601 12.1964 30.396 12.3815 30.1651 12.5347C29.9342 12.688 29.6873 12.8074 29.4226 12.893C29.1579 12.9786 28.8812 13.0244 28.5945 13.0324C28.4791 13.0344 28.3636 13.0324 28.2482 13.0244C28.1327 13.0165 28.0173 12.9966 27.9018 12.9627L33.2663 6.16699C32.9837 5.78481 32.6572 5.44243 32.291 5.13788C31.9227 4.83333 31.5306 4.57854 31.1126 4.37351C30.6926 4.16848 30.2527 4.01322 29.7889 3.90971C29.3251 3.8062 28.8513 3.76042 28.3696 3.77037C27.5555 3.79028 26.7951 3.9555 26.0864 4.26801C25.3778 4.58053 24.7607 5.00849 24.2392 5.55589C23.7157 6.1013 23.3096 6.75619 23.017 7.51857C22.8558 7.94057 22.7443 8.38446 22.6786 8.85224C22.6727 8.90399 22.6647 8.95574 22.6587 9.00551C22.6587 9.00949 22.6587 9.01347 22.6587 9.01745C22.0237 13.6136 18.9006 13.0722 18.4925 12.9806C18.4925 12.9806 18.4905 12.9806 18.4885 12.9806C18.4806 12.9786 18.4726 12.9766 18.4666 12.9747C18.4607 12.9727 18.4567 12.9727 18.4527 12.9707H18.4507L22.0914 8.35858C22.1651 7.98436 22.2686 7.62606 22.398 7.27971C22.6348 6.65865 22.9474 6.09533 23.3275 5.59968C23.1743 5.43845 23.011 5.28916 22.8399 5.14584C22.4716 4.84129 22.0795 4.5865 21.6595 4.38147C21.2415 4.17645 20.7996 4.02118 20.3358 3.91767C19.872 3.81417 19.4002 3.76838 18.9185 3.77834C18.1044 3.79824 17.344 3.96346 16.6353 4.27597C15.9267 4.58849 15.3096 5.01646 14.7881 5.56386C14.2646 6.10926 13.8565 6.76415 13.5659 7.52653C13.2753 8.28891 13.1399 9.12892 13.1638 10.0426C13.1877 10.9562 13.3589 11.7505 13.6873 12.487C14.0138 13.2235 14.4537 13.8565 15.0031 14.382C15.5525 14.9095 16.1895 15.3155 16.912 15.6002C17.6346 15.8848 18.4029 16.0182 19.2171 15.9983C19.6988 15.9863 20.1666 15.9187 20.6204 15.7972C21.0742 15.6738 21.5062 15.5007 21.9143 15.2737C21.9381 15.2598 21.962 15.2459 21.9859 15.2319C22.0536 15.1941 22.1193 15.1543 22.185 15.1125C22.4895 14.9234 22.7782 14.7044 23.0469 14.4576C23.1564 14.3581 23.2599 14.2566 23.3594 14.1491C23.3594 14.1471 23.3554 14.1451 23.3554 14.1431C23.5346 13.948 23.6719 13.7629 23.7774 13.5957C23.9804 13.8764 24.2054 14.1351 24.4542 14.374C25.0036 14.9015 25.6406 15.3076 26.3631 15.5922C27.0857 15.8769 27.854 16.0102 28.6682 15.9903C29.1499 15.9784 29.6177 15.9107 30.0715 15.7893C30.5254 15.6659 30.9573 15.4927 31.3654 15.2658C31.7734 15.0408 32.1516 14.7681 32.502 14.4496C32.8503 14.1312 33.1569 13.7749 33.4216 13.3787L31.2101 11.2628C31.1006 11.5255 30.9573 11.7644 30.7782 11.9814V11.9794ZM16.488 11.4957C16.4283 11.3962 16.3786 11.2827 16.3387 11.1533C16.2989 11.0239 16.2651 10.8906 16.2372 10.7512C16.2074 10.6119 16.1875 10.4725 16.1735 10.3372C16.1596 10.1998 16.1516 10.0784 16.1477 9.97092C16.1357 9.48921 16.2014 9.05328 16.3427 8.66512C16.4841 8.27697 16.6831 7.94256 16.9399 7.66189C17.1947 7.38122 17.4992 7.16425 17.8516 7.00899C18.2039 6.85373 18.5821 6.77013 18.9862 6.76017C19.1295 6.75619 19.2688 6.76017 19.4022 6.77212C19.5356 6.78207 19.6709 6.81193 19.8103 6.8597L16.488 11.4977V11.4957ZM25.9431 11.4877C25.8834 11.3882 25.8336 11.2747 25.7938 11.1453C25.754 11.016 25.7202 10.8826 25.6923 10.7433C25.6644 10.6039 25.6425 10.4646 25.6286 10.3292C25.6147 10.1919 25.6067 10.0704 25.6027 9.96296C25.5908 9.48125 25.6565 9.04532 25.7978 8.65716C25.9391 8.26901 26.1382 7.93459 26.395 7.65393C26.6498 7.37326 26.9543 7.15629 27.3066 7.00103C27.659 6.84577 28.0372 6.76216 28.4413 6.75221C28.5846 6.74823 28.7239 6.75221 28.8573 6.76415C28.9906 6.77411 29.126 6.80396 29.2653 6.85174L25.9431 11.4897V11.4877Z" fill="white"/>
</g>
<defs>
<clipPath id="clip0_5449_2838">
<rect width="116.248" height="16" fill="white"/>
</clipPath>
</defs>
</svg>
