<svg width="32" height="33" viewBox="0 0 32 33" fill="none" xmlns="http://www.w3.org/2000/svg">
<path d="M18.6 16.1133L14.4 13.7133V18.5133L18.6 16.1133Z" fill="#E0E0E0"/>
<path fill-rule="evenodd" clip-rule="evenodd" d="M0 16.1133C0 7.27673 7.16344 0.113281 16 0.113281C24.8366 0.113281 32 7.27673 32 16.1133C32 24.9498 24.8366 32.1133 16 32.1133C7.16344 32.1133 0 24.9498 0 16.1133ZM22.2 10.8133C22.9 11.0133 23.4 11.5133 23.6 12.2133C24 13.5133 24 16.1133 24 16.1133C24 16.1133 24 18.7133 23.7 20.0133C23.5 20.7133 23 21.2133 22.3 21.4133C21 21.7133 16 21.7133 16 21.7133C16 21.7133 10.9 21.7133 9.7 21.4133C9 21.2133 8.5 20.7133 8.3 20.0133C8 18.7133 8 16.1133 8 16.1133C8 16.1133 8 13.5133 8.2 12.2133C8.4 11.5133 8.90001 11.0133 9.60001 10.8133C10.9 10.5133 15.9 10.5133 15.9 10.5133C15.9 10.5133 21 10.5133 22.2 10.8133Z" fill="#E0E0E0"/>
</svg>
