<svg width="48" height="48" viewBox="0 0 48 48" fill="none" xmlns="http://www.w3.org/2000/svg">
<path fill-rule="evenodd" clip-rule="evenodd" d="M17.9465 4.89498C14.1523 6.09696 10.802 8.40139 8.32236 11.5146C5.84277 14.6278 4.34624 18.4088 4.0235 22.3756H13.7302C13.8017 20.001 14.0227 17.661 14.391 15.4423C14.8395 12.7253 15.5068 10.2207 16.3627 8.07565C16.7959 6.97086 17.3259 5.9065 17.9465 4.89498ZM24.0002 0.708984C20.9415 0.708984 17.9127 1.31144 15.0868 2.48196C12.261 3.65247 9.6933 5.36812 7.53047 7.53095C5.36764 9.69379 3.65198 12.2614 2.48147 15.0873C1.31095 17.9132 0.708496 20.9419 0.708496 24.0006C0.708496 27.0594 1.31095 30.0881 2.48147 32.914C3.65198 35.7399 5.36764 38.3075 7.53047 40.4703C9.6933 42.6332 12.261 44.3488 15.0868 45.5193C17.9127 46.6899 20.9415 47.2923 24.0002 47.2923C30.1775 47.2923 36.1018 44.8384 40.4699 40.4703C44.8379 36.1023 47.2918 30.178 47.2918 24.0006C47.2918 17.8233 44.8379 11.899 40.4699 7.53095C36.1018 3.16292 30.1775 0.708984 24.0002 0.708984ZM24.0002 3.95898C23.4347 3.95898 22.7023 4.23198 21.853 5.11165C20.995 5.99998 20.1392 7.38882 19.3808 9.28248C18.629 11.1653 18.0158 13.436 17.5955 15.9753C17.2597 18.012 17.0538 20.1721 16.9845 22.3756H31.0158C30.9532 20.2311 30.7491 18.093 30.4048 15.9753C29.9845 13.436 29.3713 11.1653 28.6195 9.28248C27.8612 7.38882 27.0053 5.99998 26.1495 5.11165C25.298 4.23198 24.5678 3.95898 24.0002 3.95898ZM34.2702 22.3756C34.2051 20.0524 33.9843 17.7361 33.6093 15.4423C33.1608 12.7253 32.4935 10.2207 31.6377 8.07565C31.2037 6.97078 30.673 5.90642 30.0517 4.89498C33.1152 5.86398 35.9006 7.55614 38.1723 9.82848C41.5333 13.1904 43.5898 17.6375 43.9747 22.3756H34.2702ZM31.0158 25.6256H16.9845C17.0517 27.8291 17.2597 29.9893 17.5955 32.026C18.0158 34.5653 18.629 36.836 19.3808 38.7188C20.1392 40.6125 20.995 42.0013 21.8508 42.8896C22.7023 43.7693 23.4325 44.0423 24.0002 44.0423C24.5657 44.0423 25.298 43.7693 26.1473 42.8896C27.0053 42.0013 27.8612 40.6125 28.6195 38.7188C29.3713 36.836 29.9845 34.5653 30.4048 32.026C30.7407 29.9893 30.9465 27.8291 31.0158 25.6256ZM30.0538 43.1063C30.6388 42.166 31.1697 41.0935 31.6355 39.9256C32.4935 37.7806 33.1608 35.276 33.6093 32.559C33.9836 30.2652 34.2036 27.9489 34.268 25.6256H43.9747C43.6519 29.5925 42.1554 33.3735 39.6758 36.4867C37.1962 39.5999 33.848 41.9043 30.0538 43.1063ZM17.9443 43.1063C17.3245 42.0947 16.7952 41.0304 16.3627 39.9256C15.5047 37.7806 14.8373 35.276 14.3888 32.559C14.0146 30.2652 13.7945 27.9489 13.7302 25.6256H4.0235C4.34607 29.5923 5.84229 33.3731 8.32148 36.4862C10.8007 39.5994 14.1506 41.904 17.9443 43.1063Z" fill="url(#paint0_linear_7901_6909)"/>
<defs>
<linearGradient id="paint0_linear_7901_6909" x1="24.0002" y1="0.708984" x2="24.0002" y2="47.2923" gradientUnits="userSpaceOnUse">
<stop stop-color="#4F35DF"/>
<stop offset="1" stop-color="#2702F5"/>
</linearGradient>
</defs>
</svg>
