<svg width="45" height="44" viewBox="0 0 45 44" fill="none" xmlns="http://www.w3.org/2000/svg">
<path d="M34.9987 24.7085L39.332 29.0418V39.3335C39.332 40.5252 38.9081 41.5457 38.0602 42.395C37.2123 43.2443 36.1918 43.6683 34.9987 43.6668H4.66536C3.4737 43.6668 2.45392 43.2429 1.60603 42.395C0.758143 41.5471 0.333476 40.5266 0.332031 39.3335V9.00016C0.332031 7.8085 0.756698 6.78872 1.60603 5.94083C2.45536 5.09294 3.47514 4.66827 4.66536 4.66683H16.582C16.2931 5.31683 16.0765 6.01233 15.932 6.75333C15.7876 7.49433 15.6793 8.24327 15.607 9.00016H4.66536V39.3335H34.9987V24.7085ZM37.8154 15.2835L44.7487 22.2168L41.7154 25.2502L34.782 18.3168C34.0237 18.7502 33.2112 19.1113 32.3445 19.4002C31.4779 19.6891 30.557 19.8335 29.582 19.8335C26.8737 19.8335 24.572 18.8852 22.6769 16.9887C20.7818 15.0921 19.8335 12.7904 19.832 10.0835C19.8306 7.37661 20.7789 5.07488 22.6769 3.17833C24.5749 1.28177 26.8766 0.333496 29.582 0.333496C32.2875 0.333496 34.5899 1.28177 36.4894 3.17833C38.3888 5.07488 39.3364 7.37661 39.332 10.0835C39.332 11.0585 39.1876 11.9793 38.8987 12.846C38.6098 13.7127 38.2487 14.5252 37.8154 15.2835ZM29.582 15.5002C31.0987 15.5002 32.3806 14.9766 33.4279 13.9293C34.4751 12.8821 34.9987 11.6002 34.9987 10.0835C34.9987 8.56683 34.4751 7.28488 33.4279 6.23766C32.3806 5.19044 31.0987 4.66683 29.582 4.66683C28.0654 4.66683 26.7834 5.19044 25.7362 6.23766C24.689 7.28488 24.1654 8.56683 24.1654 10.0835C24.1654 11.6002 24.689 12.8821 25.7362 13.9293C26.7834 14.9766 28.0654 15.5002 29.582 15.5002ZM4.66536 24.7085V39.3335V9.00016V24.1668V23.5168V24.7085Z" fill="white"/>
</svg>
