<svg width="46" height="45" viewBox="0 0 46 45" fill="none" xmlns="http://www.w3.org/2000/svg">
<path d="M35.5002 25.1738L39.8335 29.5072V39.7988C39.8335 40.9905 39.4096 42.011 38.5617 42.8603C37.7138 43.7097 36.6933 44.1336 35.5002 44.1322H5.16683C3.97516 44.1322 2.95539 43.7082 2.1075 42.8603C1.25961 42.0124 0.834941 40.9919 0.833496 39.7988V9.46549C0.833496 8.27383 1.25816 7.25405 2.1075 6.40616C2.95683 5.55827 3.97661 5.13361 5.16683 5.13216H17.0835C16.7946 5.78216 16.5779 6.47766 16.4335 7.21866C16.2891 7.95966 16.1807 8.70861 16.1085 9.46549H5.16683V39.7988H35.5002V25.1738ZM38.3168 15.7488L45.2502 22.6822L42.2168 25.7155L35.2835 18.7822C34.5252 19.2155 33.7127 19.5766 32.846 19.8655C31.9793 20.1544 31.0585 20.2988 30.0835 20.2988C27.3752 20.2988 25.0734 19.3505 23.1783 17.454C21.2832 15.5574 20.3349 13.2557 20.3335 10.5488C20.3321 7.84194 21.2803 5.54022 23.1783 3.64366C25.0763 1.74711 27.3781 0.798828 30.0835 0.798828C32.7889 0.798828 35.0914 1.74711 36.9908 3.64366C38.8903 5.54022 39.8378 7.84194 39.8335 10.5488C39.8335 11.5238 39.6891 12.4447 39.4002 13.3113C39.1113 14.178 38.7502 14.9905 38.3168 15.7488ZM30.0835 15.9655C31.6002 15.9655 32.8821 15.4419 33.9293 14.3947C34.9766 13.3474 35.5002 12.0655 35.5002 10.5488C35.5002 9.03216 34.9766 7.75022 33.9293 6.70299C32.8821 5.65577 31.6002 5.13216 30.0835 5.13216C28.5668 5.13216 27.2849 5.65577 26.2377 6.70299C25.1904 7.75022 24.6668 9.03216 24.6668 10.5488C24.6668 12.0655 25.1904 13.3474 26.2377 14.3947C27.2849 15.4419 28.5668 15.9655 30.0835 15.9655ZM5.16683 25.1738V39.7988V9.46549V24.6322V23.9822V25.1738Z" fill="url(#paint0_linear_7901_6920)"/>
<defs>
<linearGradient id="paint0_linear_7901_6920" x1="23.0418" y1="0.798828" x2="23.0418" y2="44.1322" gradientUnits="userSpaceOnUse">
<stop stop-color="#4F35DF"/>
<stop offset="1" stop-color="#2702F5"/>
</linearGradient>
</defs>
</svg>
