<svg width="43" height="51" viewBox="0 0 43 51" fill="none" xmlns="http://www.w3.org/2000/svg">
<path d="M17.8577 26.5877L13.2327 21.9627L10.7148 24.4805L17.8577 31.6234L32.1434 17.3377L29.6256 14.8198L17.8577 26.5877Z" fill="white"/>
<path d="M21.4286 50.5342L10.4 44.6538C7.25571 42.9815 4.62627 40.4843 2.794 37.4304C0.961736 34.3765 -0.00416117 30.8813 1.34751e-05 27.3199V4.10561C1.34751e-05 3.15841 0.376288 2.25 1.04606 1.58023C1.71583 0.910454 2.62424 0.53418 3.57144 0.53418H39.2857C40.2329 0.53418 41.1413 0.910454 41.8111 1.58023C42.4809 2.25 42.8572 3.15841 42.8572 4.10561V27.3199C42.8613 30.8813 41.8954 34.3765 40.0632 37.4304C38.2309 40.4843 35.6015 42.9815 32.4572 44.6538L21.4286 50.5342ZM3.57144 4.10561V27.3199C3.56945 30.2336 4.36051 33.093 5.8598 35.5914C7.35909 38.0898 9.51007 40.133 12.0822 41.502L21.4286 46.486L30.775 41.5038C33.3474 40.1346 35.4985 38.0911 36.9978 35.5924C38.4971 33.0936 39.288 30.2339 39.2857 27.3199V4.10561H3.57144Z" fill="white"/>
</svg>
