<svg width="43" height="50" viewBox="0 0 43 50" fill="none" xmlns="http://www.w3.org/2000/svg">
<path d="M17.8577 26.053L13.2327 21.428L10.7148 23.9459L17.8577 31.0887L32.1434 16.803L29.6256 14.2852L17.8577 26.053Z" fill="url(#paint0_linear_7901_6930)"/>
<path d="M21.4291 50L10.4005 44.1196C7.2562 42.4473 4.62676 39.9501 2.79449 36.8962C0.962224 33.8424 -0.00367289 30.3471 0.000501756 26.7857V3.57143C0.000501756 2.62423 0.376776 1.71582 1.04655 1.04605C1.71632 0.376274 2.62473 0 3.57193 0H39.2862C40.2334 0 41.1418 0.376274 41.8116 1.04605C42.4814 1.71582 42.8576 2.62423 42.8576 3.57143V26.7857C42.8618 30.3471 41.8959 33.8424 40.0637 36.8962C38.2314 39.9501 35.602 42.4473 32.4576 44.1196L21.4291 50ZM3.57193 3.57143V26.7857C3.56994 29.6994 4.361 32.5588 5.86029 35.0572C7.35958 37.5556 9.51056 39.5988 12.0826 40.9679L21.4291 45.9518L30.7755 40.9696C33.3479 39.6005 35.499 37.5569 36.9983 35.0582C38.4976 32.5595 39.2885 29.6998 39.2862 26.7857V3.57143H3.57193Z" fill="url(#paint1_linear_7901_6930)"/>
<defs>
<linearGradient id="paint0_linear_7901_6930" x1="21.4291" y1="14.2852" x2="21.4291" y2="31.0887" gradientUnits="userSpaceOnUse">
<stop stop-color="#4F35DF"/>
<stop offset="1" stop-color="#2702F5"/>
</linearGradient>
<linearGradient id="paint1_linear_7901_6930" x1="21.4291" y1="0" x2="21.4291" y2="50" gradientUnits="userSpaceOnUse">
<stop stop-color="#4F35DF"/>
<stop offset="1" stop-color="#2702F5"/>
</linearGradient>
</defs>
</svg>
