<svg width="43" height="37" viewBox="0 0 43 37" fill="none" xmlns="http://www.w3.org/2000/svg">
<path d="M39.7167 19.0827L42.75 22.1377L28.6017 36.416L21.0833 28.8327L24.1167 25.7777L28.6017 30.2843L39.7167 19.0827ZM17.8333 0.666016C20.1319 0.666016 22.3363 1.57911 23.9616 3.20442C25.5869 4.82974 26.5 7.03414 26.5 9.33268C26.5 11.6312 25.5869 13.8356 23.9616 15.4609C22.3363 17.0863 20.1319 17.9993 17.8333 17.9993C15.5348 17.9993 13.3304 17.0863 11.7051 15.4609C10.0798 13.8356 9.16667 11.6312 9.16667 9.33268C9.16667 7.03414 10.0798 4.82974 11.7051 3.20442C13.3304 1.57911 15.5348 0.666016 17.8333 0.666016ZM17.8333 4.99935C16.6841 4.99935 15.5819 5.4559 14.7692 6.26855C13.9565 7.08121 13.5 8.18341 13.5 9.33268C13.5 10.482 13.9565 11.5842 14.7692 12.3968C15.5819 13.2095 16.6841 13.666 17.8333 13.666C18.9826 13.666 20.0848 13.2095 20.8975 12.3968C21.7101 11.5842 22.1667 10.482 22.1667 9.33268C22.1667 8.18341 21.7101 7.08121 20.8975 6.26855C20.0848 5.4559 18.9826 4.99935 17.8333 4.99935ZM17.8333 20.166C19.3067 20.166 21.0833 20.361 23.055 20.7294L19.4367 24.3477L17.8333 24.2827C11.3983 24.2827 4.61667 27.446 4.61667 28.8327V31.216H18.05L22.1667 35.3327H0.5V28.8327C0.5 23.0693 12.0483 20.166 17.8333 20.166Z" fill="url(#paint0_linear_7901_6899)"/>
<defs>
<linearGradient id="paint0_linear_7901_6899" x1="21.625" y1="0.666016" x2="21.625" y2="36.416" gradientUnits="userSpaceOnUse">
<stop stop-color="#4F35DF"/>
<stop offset="1" stop-color="#2702F5"/>
</linearGradient>
</defs>
</svg>
