<svg width="43" height="36" viewBox="0 0 43 36" fill="none" xmlns="http://www.w3.org/2000/svg">
<path d="M39.2167 18.6174L42.25 21.6723L28.1017 35.9507L20.5833 28.3674L23.6167 25.3124L28.1017 29.819L39.2167 18.6174ZM17.3333 0.200684C19.6319 0.200684 21.8363 1.11378 23.4616 2.73909C25.0869 4.36441 26 6.56881 26 8.86735C26 11.1659 25.0869 13.3703 23.4616 14.9956C21.8363 16.6209 19.6319 17.534 17.3333 17.534C15.0348 17.534 12.8304 16.6209 11.2051 14.9956C9.57976 13.3703 8.66667 11.1659 8.66667 8.86735C8.66667 6.56881 9.57976 4.36441 11.2051 2.73909C12.8304 1.11378 15.0348 0.200684 17.3333 0.200684ZM17.3333 4.53402C16.1841 4.53402 15.0819 4.99056 14.2692 5.80322C13.4565 6.61588 13 7.71808 13 8.86735C13 10.0166 13.4565 11.1188 14.2692 11.9315C15.0819 12.7441 16.1841 13.2007 17.3333 13.2007C18.4826 13.2007 19.5848 12.7441 20.3975 11.9315C21.2101 11.1188 21.6667 10.0166 21.6667 8.86735C21.6667 7.71808 21.2101 6.61588 20.3975 5.80322C19.5848 4.99056 18.4826 4.53402 17.3333 4.53402ZM17.3333 19.7007C18.8067 19.7007 20.5833 19.8957 22.555 20.264L18.9367 23.8824L17.3333 23.8174C10.8983 23.8174 4.11667 26.9807 4.11667 28.3674V30.7507H17.55L21.6667 34.8674H0V28.3674C0 22.604 11.5483 19.7007 17.3333 19.7007Z" fill="white"/>
</svg>
