<svg width="48" height="47" viewBox="0 0 48 47" fill="none" xmlns="http://www.w3.org/2000/svg">
<path fill-rule="evenodd" clip-rule="evenodd" d="M17.945 4.42868C14.1509 5.63065 10.8005 7.93508 8.3209 11.0483C5.8413 14.1615 4.34477 17.9424 4.02203 21.9093H13.7287C13.8002 19.5347 14.0212 17.1947 14.3895 14.976C14.838 12.259 15.5054 9.75434 16.3612 7.60934C16.7945 6.50455 17.3245 5.44019 17.945 4.42868ZM23.9987 0.242676C20.94 0.242676 17.9112 0.845132 15.0854 2.01565C12.2595 3.18616 9.69183 4.90182 7.529 7.06465C5.36617 9.22748 3.65052 11.7951 2.48 14.621C1.30949 17.4469 0.707031 20.4756 0.707031 23.5343C0.707031 26.593 1.30949 29.6218 2.48 32.4477C3.65052 35.2736 5.36617 37.8412 7.529 40.004C9.69183 42.1669 12.2595 43.8825 15.0854 45.053C17.9112 46.2235 20.94 46.826 23.9987 46.826C30.176 46.826 36.1004 44.3721 40.4684 40.004C44.8364 35.636 47.2904 29.7117 47.2904 23.5343C47.2904 17.357 44.8364 11.4327 40.4684 7.06465C36.1004 2.69661 30.176 0.242676 23.9987 0.242676ZM23.9987 3.49268C23.4332 3.49268 22.7009 3.76568 21.8515 4.64534C20.9935 5.53368 20.1377 6.92251 19.3794 8.81617C18.6275 10.699 18.0144 12.9697 17.594 15.509C17.2582 17.5457 17.0524 19.7058 16.983 21.9093H31.0144C30.9518 19.7648 30.7476 17.6267 30.4034 15.509C29.983 12.9697 29.3699 10.699 28.618 8.81617C27.8597 6.92251 27.0039 5.53368 26.148 4.64534C25.2965 3.76568 24.5664 3.49268 23.9987 3.49268ZM34.2687 21.9093C34.2036 19.5861 33.9828 17.2698 33.6079 14.976C33.1594 12.259 32.492 9.75434 31.6362 7.60934C31.2022 6.50447 30.6715 5.44011 30.0502 4.42868C33.1138 5.39767 35.8991 7.08983 38.1709 9.36217C41.5318 12.7241 43.5884 17.1712 43.9732 21.9093H34.2687ZM31.0144 25.1593H16.983C17.0502 27.3628 17.2582 29.523 17.594 31.5597C18.0144 34.099 18.6275 36.3697 19.3794 38.2525C20.1377 40.1462 20.9935 41.535 21.8494 42.4233C22.7009 43.303 23.431 43.576 23.9987 43.576C24.5642 43.576 25.2965 43.303 26.1459 42.4233C27.0039 41.535 27.8597 40.1462 28.618 38.2525C29.3699 36.3697 29.983 34.099 30.4034 31.5597C30.7392 29.523 30.945 27.3628 31.0144 25.1593ZM30.0524 42.64C30.6374 41.6997 31.1682 40.6272 31.634 39.4593C32.492 37.3143 33.1594 34.8097 33.6079 32.0927C33.9821 29.7989 34.2022 27.4826 34.2665 25.1593H43.9732C43.6505 29.1262 42.1539 32.9072 39.6743 36.0204C37.1947 39.1336 33.8465 41.438 30.0524 42.64ZM17.9429 42.64C17.323 41.6284 16.7938 40.5641 16.3612 39.4593C15.5032 37.3143 14.8359 34.8097 14.3874 32.0927C14.0131 29.7989 13.7931 27.4826 13.7287 25.1593H4.02203C4.34461 29.126 5.84082 32.9068 8.32001 36.0199C10.7992 39.1331 14.1491 41.4377 17.9429 42.64Z" fill="white"/>
</svg>
