<svg width="18" height="18" viewBox="0 0 18 18" fill="none" xmlns="http://www.w3.org/2000/svg">
<g clip-path="url(#clip0_5624_3018)">
<path d="M9.5625 6.75C9.5625 6.43934 9.31066 6.1875 9 6.1875C8.68934 6.1875 8.4375 6.43934 8.4375 6.75L8.4375 8.43752H6.75C6.43934 8.43752 6.1875 8.68936 6.1875 9.00002C6.1875 9.31068 6.43934 9.56252 6.75 9.56252H8.4375V11.25C8.4375 11.5607 8.68934 11.8125 9 11.8125C9.31066 11.8125 9.5625 11.5607 9.5625 11.25L9.5625 9.56252H11.25C11.5607 9.56252 11.8125 9.31068 11.8125 9.00002C11.8125 8.68936 11.5607 8.43752 11.25 8.43752H9.5625V6.75Z" fill="#333333"/>
<path fill-rule="evenodd" clip-rule="evenodd" d="M9 0.9375C4.5472 0.9375 0.9375 4.5472 0.9375 9C0.9375 13.4528 4.5472 17.0625 9 17.0625C13.4528 17.0625 17.0625 13.4528 17.0625 9C17.0625 4.5472 13.4528 0.9375 9 0.9375ZM2.0625 9C2.0625 5.16852 5.16852 2.0625 9 2.0625C12.8315 2.0625 15.9375 5.16852 15.9375 9C15.9375 12.8315 12.8315 15.9375 9 15.9375C5.16852 15.9375 2.0625 12.8315 2.0625 9Z" fill="#333333"/>
</g>
<defs>
<clipPath id="clip0_5624_3018">
<rect width="18" height="18" fill="white"/>
</clipPath>
</defs>
</svg>
