<svg width="20" height="22" viewBox="0 0 20 22" fill="none" xmlns="http://www.w3.org/2000/svg">
<path fill-rule="evenodd" clip-rule="evenodd" d="M10 1.75C7.24807 1.75 4.75004 4.60725 4.75004 8.5C4.75004 12.3927 7.24807 15.25 10 15.25C12.752 15.25 15.25 12.3927 15.25 8.5C15.25 4.60725 12.752 1.75 10 1.75ZM3.27434 7.80174C3.55981 3.7075 6.33149 0.25 10 0.25C13.6686 0.25 16.4403 3.7075 16.7258 7.80174C16.8107 7.76834 16.9032 7.75 17 7.75C17.4143 7.75 17.75 8.08579 17.75 8.5V18C17.75 18.4868 17.9079 18.9605 18.2 19.35L19.1 20.55C19.3486 20.8814 19.2814 21.3515 18.95 21.6C18.6187 21.8485 18.1486 21.7814 17.9 21.45L17 20.25C16.8809 20.0912 16.7752 19.9239 16.6834 19.75H3.31667C3.22491 19.9239 3.11917 20.0912 3.00004 20.25L2.10004 21.45C1.85152 21.7814 1.38142 21.8485 1.05004 21.6C0.718673 21.3515 0.651516 20.8814 0.900044 20.55L1.80004 19.35C2.09214 18.9605 2.25004 18.4868 2.25004 18V8.5C2.25004 8.08579 2.58583 7.75 3.00004 7.75C3.09685 7.75 3.18938 7.76834 3.27434 7.80174ZM3.75004 11.6128V18C3.75004 18.0836 3.74725 18.167 3.7417 18.25H16.2584C16.2528 18.167 16.25 18.0836 16.25 18V11.6128C15.2656 14.5653 12.9162 16.75 10 16.75C7.08392 16.75 4.7345 14.5653 3.75004 11.6128ZM10.3374 3.90475C10.5314 3.53879 10.9854 3.3994 11.3514 3.59343C12.5943 4.25242 13.4174 5.73578 13.6673 7.38804C13.7292 7.7976 13.4474 8.17982 13.0379 8.24177C12.6283 8.30371 12.2461 8.02191 12.1842 7.61236C11.9767 6.24078 11.3274 5.27852 10.6487 4.91869C10.2828 4.72467 10.1434 4.27071 10.3374 3.90475Z" fill="#758195"/>
</svg>
