<svg width="58" height="57" viewBox="0 0 58 57" fill="none" xmlns="http://www.w3.org/2000/svg">
<g clip-path="url(#clip0_8634_8389)">
<path d="M19.2791 47.6499C19.2482 47.9745 19.2748 48.3135 19.3867 48.6494C19.6599 49.4593 20.3012 50.1191 21.0607 50.3678C21.7665 50.6036 22.4687 50.4467 22.6817 50.2017L24.1542 48.5311C24.5803 48.0496 24.6879 47.2799 24.4375 46.5329C23.8214 45.2847 22.9959 44.8343 21.9386 44.6325L19.2791 47.6499ZM17.3095 39.2969L14.736 42.215C14.2131 42.8163 14.0632 43.7407 14.3551 44.6265C14.665 45.5623 15.4045 46.3236 16.2896 46.608C17.1273 46.8734 17.9679 46.6671 18.4944 46.0749L20.8771 43.373C21.4036 42.7731 21.5499 41.8533 21.258 40.9675C20.9481 40.0272 20.2043 39.2689 19.3235 38.986C18.6206 38.7487 17.7958 38.7396 17.3095 39.2969ZM12.2077 34.4952L9.83142 37.1926C9.30782 37.7894 9.1615 38.7168 9.45056 39.6056C9.76041 40.5383 10.4999 41.2997 11.385 41.5841C12.2213 41.8533 13.0705 41.6432 13.3352 41.3467L15.9733 38.3536C16.4997 37.7522 16.646 36.8278 16.3541 35.9436C16.0428 35.0048 15.3033 34.2465 14.4182 33.9651C13.6042 33.6845 12.7033 33.934 12.2077 34.4952ZM7.55916 29.1778L4.92541 32.1724C4.39894 32.7723 4.25262 33.6921 4.54455 34.5733C4.85153 35.5167 5.59532 36.275 6.48041 36.5594C7.31673 36.8233 8.16452 36.6185 8.42632 36.3182L11.0672 33.3251V33.3221C11.5937 32.7298 11.74 31.8084 11.4481 30.9242C11.1426 29.9809 10.3988 29.2225 9.51367 28.9412C8.8373 28.6947 8.01892 28.6523 7.55916 29.1778ZM41.752 11.3184C40.0486 12.3254 37.6809 12.5059 35.3749 12.6811C33.6306 12.807 31.831 12.9404 30.5378 13.4455L23.3473 16.2505C23.2991 16.2703 23.2487 16.2838 23.1974 16.2907C22.8503 16.3484 22.5289 16.3977 22.2406 16.4401C20.4898 16.701 20.2875 16.7806 20.086 17.3289C19.9024 17.8354 20.1039 18.5657 20.6017 19.186C21.0076 19.6956 22.5964 21.2866 25.8649 20.4684L29.9597 19.8966C32.2527 19.5842 34.0911 21.1645 35.5593 22.44L46.5713 31.7538L46.5799 31.7493C48.7567 30.7862 51.0247 29.5334 52.9526 27.078L41.752 11.3184Z" fill="white"/>
<path d="M26.5991 10.7545C25.9464 10.8182 25.1983 10.9054 24.4137 10.9918C20.0736 11.4817 17.6672 11.6743 16.4428 11.4347L5.17551 26.9402C5.57174 27.3294 5.91953 27.7702 6.2105 28.2522C7.15226 27.233 8.57529 26.869 9.96102 27.3118C11.3209 27.7456 12.4563 28.9111 12.9312 30.3573C13.1327 30.9693 13.1958 31.5972 13.1442 32.1985C13.7206 32.111 14.3082 32.1581 14.8656 32.3365C16.2219 32.7673 17.3616 33.9358 17.8329 35.382C18.0373 35.9909 18.1018 36.6173 18.0531 37.2186C18.6298 37.1308 19.2177 37.1795 19.7745 37.3612C21.1279 37.795 22.2626 38.9605 22.7374 40.3991C23.0358 41.3114 23.0473 42.2502 22.8049 43.0919C22.9433 43.12 23.0853 43.1556 23.2266 43.2026C24.4409 43.6007 25.4723 44.6556 25.9163 45.9561C26.3395 47.215 26.1559 48.5375 25.4608 49.4869L27.4598 51.1772C27.949 51.5875 28.6619 51.6322 29.3276 51.291C30.0491 50.9209 30.5942 50.1694 30.7549 49.3284C30.817 48.9946 30.8064 48.6502 30.724 48.3214L28.1886 46.1768C28.0244 46.0353 27.9186 45.8319 27.8935 45.6095C27.8683 45.3872 27.9258 45.1632 28.0537 44.9847C28.1165 44.8973 28.1951 44.8241 28.285 44.7693C28.3749 44.7145 28.4743 44.6793 28.5772 44.6656C28.6802 44.652 28.7847 44.6603 28.8846 44.6899C28.9845 44.7196 29.0778 44.77 29.159 44.8383L32.2073 47.4212C32.51 47.6775 33.3772 47.7458 34.1726 47.3499C35.0089 46.9275 35.6408 46.057 35.8158 45.0856C35.9837 44.1672 35.7147 43.2769 35.1165 42.7673L32.3594 40.4347C32.1942 40.2946 32.0875 40.0916 32.0623 39.8693C32.0371 39.647 32.0954 39.4231 32.2245 39.2457C32.2864 39.1574 32.3644 39.0834 32.4541 39.0279C32.5437 38.9725 32.6431 38.9369 32.7461 38.9232C32.8492 38.9095 32.9538 38.9181 33.0536 38.9483C33.1534 38.9786 33.2464 39.03 33.327 39.0993L37.335 42.4883C37.9375 42.9948 38.8032 43.0646 39.6029 42.6703C40.4321 42.2509 41.064 41.3819 41.2433 40.3998C41.4111 39.4815 41.1421 38.5943 40.5375 38.0801L36.5281 34.6957C36.3626 34.5537 36.256 34.3492 36.2308 34.1255C36.2056 33.9018 36.2639 33.6765 36.3932 33.4975C36.4566 33.4107 36.5357 33.338 36.6259 33.2838C36.7161 33.2296 36.8156 33.195 36.9186 33.1818C37.0216 33.1687 37.1261 33.1774 37.2259 33.2074C37.3257 33.2374 37.4188 33.288 37.4999 33.3565C37.4999 33.3565 43.588 38.5033 43.5923 38.5033C43.895 38.755 44.7578 38.8263 45.5497 38.4259C46.3874 38.0126 47.015 37.1436 47.1972 36.1646C47.3622 35.2447 47.0932 34.3514 46.4914 33.8464L34.5757 23.7644C33.2086 22.5791 31.7963 21.3514 30.156 21.5842L26.1437 22.1377C23.4389 22.8248 20.8876 22.1453 19.4123 20.3011C18.5229 19.1901 18.2202 17.816 18.6197 16.7111C19.1799 15.1786 20.2529 15.0201 22.0238 14.7562C22.2884 14.7205 22.5732 14.6765 22.8866 14.6242L30.0032 11.8487C30.4658 11.6667 30.978 11.5408 31.508 11.4294C29.6783 10.6809 28.3521 10.6362 26.5991 10.7545ZM11.1337 7.81593C9.83765 7.71204 8.65418 8.74488 6.95071 11.0904L2.59412 17.0903C1.01831 19.2546 0.428014 20.6006 0.558554 21.7411C0.663273 22.6784 1.28011 23.5983 1.89193 24.117L3.95833 25.8619L15.1797 10.42L13.7273 9.19078C12.7289 8.34904 11.9112 7.87963 11.1337 7.81593ZM47.1169 7.8C46.3394 7.85157 45.5145 8.31112 44.5082 9.14073L43.04 10.345L54.1058 25.9127L55.536 24.7365C56.7732 23.7219 57.4044 22.8142 57.5199 21.8776C57.6626 20.7401 57.091 19.3835 55.5403 17.1912L51.2547 11.1336C49.5849 8.76384 48.4165 7.71204 47.1169 7.8Z" fill="white"/>
</g>
<defs>
<clipPath id="clip0_8634_8389">
<rect width="57" height="57" fill="white" transform="translate(0.5)"/>
</clipPath>
</defs>
</svg>
