<svg width="66" height="63" viewBox="0 0 66 63" fill="none" xmlns="http://www.w3.org/2000/svg">
<g clip-path="url(#clip0_8634_8370)" filter="url(#filter0_d_8634_8370)">
<path d="M26.8458 25.5709H23.5202L22.4559 21.6379H26.3132L26.8458 25.5709ZM24.0136 27.4715L25.0779 31.4045H27.6251L27.0925 27.4715H24.0136ZM28.7642 25.5709H32.2412V21.6379H28.2325L28.7642 25.5709ZM29.5435 31.4045H32.2421V27.4715H29.0118L29.5435 31.4045ZM34.1418 31.4045H36.8582L37.3908 27.4715H34.1418V31.4045ZM34.1418 25.5709H37.6384L38.1701 21.6379H34.1418V25.5709ZM38.7784 31.4045H39.8801C40.7351 31.4045 41.4948 30.8345 41.7237 29.9982L42.3881 27.4715H39.2914L38.7784 31.4045ZM43.5281 21.6379H40.0894L39.5568 25.5709H42.9011L43.8327 22.0369C43.8459 21.9882 43.8477 21.9371 43.8378 21.8877C43.8279 21.8382 43.8066 21.7917 43.7757 21.7519C43.7447 21.7165 43.7067 21.6881 43.664 21.6685C43.6214 21.6488 43.575 21.6384 43.5281 21.6379ZM30.0565 40.0115C30.0565 40.4114 29.3351 40.4114 29.3351 40.0115C29.3384 39.9169 29.3775 39.827 29.4444 39.7601C29.5113 39.6932 29.6012 39.6541 29.6958 39.6508C29.7905 39.6541 29.8805 39.6933 29.9475 39.7604C30.0144 39.8276 30.0534 39.9167 30.0565 40.0115ZM38.5308 40.0115C38.5308 40.4114 37.8272 40.4114 37.8272 40.0115C37.8272 39.8218 37.9804 39.6508 38.1888 39.6508C38.3794 39.6508 38.5308 39.8209 38.5308 40.0115ZM38.5308 40.0115C38.5308 40.4114 37.8272 40.4114 37.8272 40.0115C37.8272 39.8218 37.9804 39.6508 38.1888 39.6508C38.3794 39.6508 38.5308 39.8209 38.5308 40.0115ZM30.0565 40.0115C30.0565 40.4114 29.3351 40.4114 29.3351 40.0115C29.3384 39.9169 29.3775 39.827 29.4444 39.7601C29.5113 39.6932 29.6012 39.6541 29.6958 39.6508C29.7905 39.6541 29.8805 39.6933 29.9475 39.7604C30.0144 39.8276 30.0534 39.9167 30.0565 40.0115ZM30.0565 40.0115C30.0565 40.4114 29.3351 40.4114 29.3351 40.0115C29.3384 39.9169 29.3775 39.827 29.4444 39.7601C29.5113 39.6932 29.6012 39.6541 29.6958 39.6508C29.7905 39.6541 29.8805 39.6933 29.9475 39.7604C30.0144 39.8276 30.0534 39.9167 30.0565 40.0115ZM38.5308 40.0115C38.5308 40.4114 37.8272 40.4114 37.8272 40.0115C37.8272 39.8218 37.9804 39.6508 38.1888 39.6508C38.3794 39.6508 38.5308 39.8209 38.5308 40.0115ZM38.5308 40.0115C38.5308 40.4114 37.8272 40.4114 37.8272 40.0115C37.8272 39.8218 37.9804 39.6508 38.1888 39.6508C38.3794 39.6508 38.5308 39.8209 38.5308 40.0115ZM30.0565 40.0115C30.0565 40.4114 29.3351 40.4114 29.3351 40.0115C29.3384 39.9169 29.3775 39.827 29.4444 39.7601C29.5113 39.6932 29.6012 39.6541 29.6958 39.6508C29.7905 39.6541 29.8805 39.6933 29.9475 39.7604C30.0144 39.8276 30.0534 39.9167 30.0565 40.0115ZM30.0565 40.0115C30.0565 40.4114 29.3351 40.4114 29.3351 40.0115C29.3384 39.9169 29.3775 39.827 29.4444 39.7601C29.5113 39.6932 29.6012 39.6541 29.6958 39.6508C29.7905 39.6541 29.8805 39.6933 29.9475 39.7604C30.0144 39.8276 30.0534 39.9167 30.0565 40.0115ZM38.5308 40.0115C38.5308 40.4114 37.8272 40.4114 37.8272 40.0115C37.8272 39.8218 37.9804 39.6508 38.1888 39.6508C38.3794 39.6508 38.5308 39.8209 38.5308 40.0115ZM38.5308 40.0115C38.5308 40.4114 37.8272 40.4114 37.8272 40.0115C37.8272 39.8218 37.9804 39.6508 38.1888 39.6508C38.3794 39.6508 38.5308 39.8209 38.5308 40.0115ZM30.0565 40.0115C30.0565 40.4114 29.3351 40.4114 29.3351 40.0115C29.3384 39.9169 29.3775 39.827 29.4444 39.7601C29.5113 39.6932 29.6012 39.6541 29.6958 39.6508C29.7905 39.6541 29.8805 39.6933 29.9475 39.7604C30.0144 39.8276 30.0534 39.9167 30.0565 40.0115ZM30.0565 40.0115C30.0565 40.4114 29.3351 40.4114 29.3351 40.0115C29.3384 39.9169 29.3775 39.827 29.4444 39.7601C29.5113 39.6932 29.6012 39.6541 29.6958 39.6508C29.7905 39.6541 29.8805 39.6933 29.9475 39.7604C30.0144 39.8276 30.0534 39.9167 30.0565 40.0115ZM38.5308 40.0115C38.5308 40.4114 37.8272 40.4114 37.8272 40.0115C37.8272 39.8218 37.9804 39.6508 38.1888 39.6508C38.3794 39.6508 38.5308 39.8209 38.5308 40.0115ZM38.5308 40.0115C38.5308 40.4114 37.8272 40.4114 37.8272 40.0115C37.8272 39.8218 37.9804 39.6508 38.1888 39.6508C38.3794 39.6508 38.5308 39.8209 38.5308 40.0115ZM30.0565 40.0115C30.0565 40.4114 29.3351 40.4114 29.3351 40.0115C29.3384 39.9169 29.3775 39.827 29.4444 39.7601C29.5113 39.6932 29.6012 39.6541 29.6958 39.6508C29.7905 39.6541 29.8805 39.6933 29.9475 39.7604C30.0144 39.8276 30.0534 39.9167 30.0565 40.0115ZM57.9126 9.838V41.5514L52.4397 36.9344C51.9164 36.4989 51.259 36.257 50.5783 36.2495C50.1964 36.2494 49.8182 36.3245 49.4653 36.4706C49.1125 36.6167 48.7919 36.8309 48.5218 37.1009C48.2518 37.371 48.0376 37.6916 47.8915 38.0444C47.7454 38.3973 47.6703 38.7755 47.6704 39.1574V47.6317H8.73759C7.614 47.6307 6.5367 47.184 5.7422 46.3895C4.94771 45.595 4.50094 44.5177 4.5 43.3941V9.838H57.9126ZM31.9571 40.0124C31.9557 39.4129 31.7168 38.8384 31.2929 38.4146C30.8689 37.9908 30.2943 37.7523 29.6949 37.7511C29.0957 37.7527 28.5216 37.9915 28.098 38.4153C27.6745 38.839 27.4359 39.4132 27.4345 40.0124C27.4335 40.3096 27.4914 40.6041 27.6047 40.8788C27.718 41.1536 27.8845 41.4033 28.0947 41.6135C28.3049 41.8236 28.5545 41.9902 28.8293 42.1035C29.1041 42.2168 29.3986 42.2746 29.6958 42.2737C29.9931 42.2746 30.2876 42.2167 30.5625 42.1034C30.8373 41.99 31.087 41.8234 31.2972 41.6131C31.5074 41.4029 31.6739 41.1531 31.7871 40.8782C31.9004 40.6034 31.9581 40.3097 31.9571 40.0124ZM40.4314 40.0124C40.4314 38.7771 39.4241 37.7511 38.1888 37.7511C37.5895 37.7525 37.0151 37.9912 36.5914 38.415C36.1676 38.8387 35.9289 39.4131 35.9275 40.0124C35.9265 40.3097 35.9844 40.6042 36.0978 40.8791C36.2111 41.1539 36.3778 41.4036 36.588 41.6138C36.7983 41.8239 37.048 41.9905 37.3229 42.1037C37.5978 42.217 37.8924 42.2747 38.1897 42.2737C38.4855 42.2725 38.7781 42.213 39.0509 42.0987C39.3237 41.9843 39.5712 41.8173 39.7794 41.6072C39.9876 41.3971 40.1524 41.1481 40.2642 40.8743C40.3761 40.6004 40.4329 40.3082 40.4314 40.0124ZM45.2951 20.6119C44.8587 20.0606 44.2317 19.7382 43.5281 19.7382H21.9429L21.3916 17.6292C21.2502 17.1086 20.9407 16.6493 20.5113 16.3228C20.0819 15.9964 19.5566 15.8209 19.0172 15.8239H17.61C17.0783 15.8239 16.6606 16.2425 16.6606 16.7733C16.6606 17.3059 17.0792 17.7236 17.6109 17.7236H19.0172C19.1371 17.7233 19.2539 17.7621 19.3498 17.8341C19.4457 17.9061 19.5156 18.0074 19.5489 18.1226L24.0902 35.0908C24.4135 36.3448 25.5535 37.1998 26.8449 37.1998H42.0657C42.5974 37.1998 43.0151 36.7812 43.0151 36.2495C43.0141 35.998 42.9138 35.757 42.736 35.5792C42.5581 35.4013 42.3172 35.301 42.0657 35.3001H26.8449C26.4085 35.3001 26.0282 35.0151 25.9142 34.5965L25.5722 33.3051H39.8801C40.7155 33.3042 41.5273 33.0282 42.1902 32.5199C42.8531 32.0115 43.3301 31.299 43.5477 30.4925L45.6754 22.5125C45.7624 22.1878 45.7733 21.8474 45.7073 21.5177C45.6414 21.1881 45.5003 20.8781 45.2951 20.6119ZM38.5308 40.0115C38.5308 40.4114 37.8272 40.4114 37.8272 40.0115C37.8272 39.8209 37.9804 39.6508 38.1888 39.6508C38.3794 39.6508 38.5308 39.8209 38.5308 40.0115ZM30.0565 40.0115C30.0565 40.4114 29.3351 40.4114 29.3351 40.0115C29.3384 39.9169 29.3775 39.827 29.4444 39.7601C29.5113 39.6932 29.6012 39.6541 29.6958 39.6508C29.7905 39.6541 29.8805 39.6933 29.9475 39.7604C30.0144 39.8276 30.0534 39.9167 30.0565 40.0115ZM30.0565 40.0115C30.0565 40.4114 29.3351 40.4114 29.3351 40.0115C29.3384 39.9169 29.3775 39.827 29.4444 39.7601C29.5113 39.6932 29.6012 39.6541 29.6958 39.6508C29.7905 39.6541 29.8805 39.6933 29.9475 39.7604C30.0144 39.8276 30.0534 39.9167 30.0565 40.0115ZM38.5308 40.0115C38.5308 40.4114 37.8272 40.4114 37.8272 40.0115C37.8272 39.8209 37.9804 39.6508 38.1888 39.6508C38.3794 39.6508 38.5308 39.8209 38.5308 40.0115ZM38.5308 40.0115C38.5308 40.4114 37.8272 40.4114 37.8272 40.0115C37.8272 39.8209 37.9804 39.6508 38.1888 39.6508C38.3794 39.6508 38.5308 39.8209 38.5308 40.0115ZM30.0565 40.0115C30.0565 40.4114 29.3351 40.4114 29.3351 40.0115C29.3384 39.9169 29.3775 39.827 29.4444 39.7601C29.5113 39.6932 29.6012 39.6541 29.6958 39.6508C29.7905 39.6541 29.8805 39.6933 29.9475 39.7604C30.0144 39.8276 30.0534 39.9167 30.0565 40.0115ZM30.0565 40.0115C30.0565 40.4114 29.3351 40.4114 29.3351 40.0115C29.3384 39.9169 29.3775 39.827 29.4444 39.7601C29.5113 39.6932 29.6012 39.6541 29.6958 39.6508C29.7905 39.6541 29.8805 39.6933 29.9475 39.7604C30.0144 39.8276 30.0534 39.9167 30.0565 40.0115ZM38.5308 40.0115C38.5308 40.4114 37.8272 40.4114 37.8272 40.0115C37.8272 39.8209 37.9804 39.6508 38.1888 39.6508C38.3794 39.6508 38.5308 39.8209 38.5308 40.0115ZM38.5308 40.0115C38.5308 40.4114 37.8272 40.4114 37.8272 40.0115C37.8272 39.8209 37.9804 39.6508 38.1888 39.6508C38.3794 39.6508 38.5308 39.8209 38.5308 40.0115ZM30.0565 40.0115C30.0565 40.4114 29.3351 40.4114 29.3351 40.0115C29.3384 39.9169 29.3775 39.827 29.4444 39.7601C29.5113 39.6932 29.6012 39.6541 29.6958 39.6508C29.7905 39.6541 29.8805 39.6933 29.9475 39.7604C30.0144 39.8276 30.0534 39.9167 30.0565 40.0115ZM30.0565 40.0115C30.0565 40.4114 29.3351 40.4114 29.3351 40.0115C29.3384 39.9169 29.3775 39.827 29.4444 39.7601C29.5113 39.6932 29.6012 39.6541 29.6958 39.6508C29.7905 39.6541 29.8805 39.6933 29.9475 39.7604C30.0144 39.8276 30.0534 39.9167 30.0565 40.0115ZM38.5308 40.0115C38.5308 40.4114 37.8272 40.4114 37.8272 40.0115C37.8272 39.8209 37.9804 39.6508 38.1888 39.6508C38.3794 39.6508 38.5308 39.8209 38.5308 40.0115ZM57.9126 6.28441V7.9383H4.5V6.2853C4.5 3.9483 6.3997 2.06641 8.73759 2.06641H53.675C56.012 2.06641 57.9126 3.94741 57.9126 6.28441ZM19.6442 5.46859C19.6442 4.9743 19.2452 4.5753 18.7509 4.5753H8.9843C8.7475 4.5753 8.5204 4.66936 8.35296 4.83681C8.18551 5.00425 8.09145 5.23135 8.09145 5.46815C8.09145 5.70495 8.18551 5.93205 8.35296 6.09949C8.5204 6.26693 8.7475 6.361 8.9843 6.361H18.75C19.2443 6.361 19.6442 5.962 19.6442 5.46859ZM46.4734 5.46859C46.4727 5.21678 46.3723 4.97547 46.1943 4.79741C46.0162 4.61935 45.7749 4.519 45.5231 4.5183C45.0101 4.5183 44.5737 4.9547 44.5737 5.46859C44.5737 6.0003 45.0101 6.418 45.5231 6.418C46.0557 6.418 46.4734 5.99941 46.4734 5.46859ZM50.4064 5.46859C50.4064 4.9547 49.97 4.5183 49.457 4.5183C49.205 4.51877 48.9635 4.61901 48.7852 4.7971C48.607 4.97519 48.5065 5.21662 48.5058 5.46859C48.5058 6.0003 48.9244 6.418 49.4561 6.418C49.7076 6.41706 49.9485 6.31673 50.1264 6.13889C50.3042 5.96104 50.4054 5.7201 50.4064 5.46859ZM54.3207 5.46859C54.32 5.21693 54.2197 4.97576 54.0419 4.79772C53.864 4.61969 53.6229 4.51924 53.3713 4.5183C53.1194 4.519 52.8781 4.61935 52.7001 4.79741C52.522 4.97547 52.4217 5.21678 52.421 5.46859C52.421 6.0003 52.8396 6.418 53.3713 6.418C53.903 6.418 54.3207 5.99941 54.3207 5.46859ZM38.5308 40.0115C38.5308 40.4114 37.8272 40.4114 37.8272 40.0115C37.8272 39.8209 37.9804 39.6508 38.1888 39.6508C38.3794 39.6508 38.5308 39.8209 38.5308 40.0115ZM30.0565 40.0115C30.0565 40.4114 29.3351 40.4114 29.3351 40.0115C29.3384 39.9169 29.3775 39.827 29.4444 39.7601C29.5113 39.6932 29.6012 39.6541 29.6958 39.6508C29.7905 39.6541 29.8805 39.6933 29.9475 39.7604C30.0144 39.8276 30.0534 39.9167 30.0565 40.0115ZM30.0565 40.0115C30.0565 40.4114 29.3351 40.4114 29.3351 40.0115C29.3384 39.9169 29.3775 39.827 29.4444 39.7601C29.5113 39.6932 29.6012 39.6541 29.6958 39.6508C29.7905 39.6541 29.8805 39.6933 29.9475 39.7604C30.0144 39.8276 30.0534 39.9167 30.0565 40.0115ZM30.0565 40.0115C30.0565 40.4114 29.3351 40.4114 29.3351 40.0115C29.3384 39.9169 29.3775 39.827 29.4444 39.7601C29.5113 39.6932 29.6012 39.6541 29.6958 39.6508C29.7905 39.6541 29.8805 39.6933 29.9475 39.7604C30.0144 39.8276 30.0534 39.9167 30.0565 40.0115ZM61.1429 46.7633L51.2115 38.3897C50.5605 37.841 49.5647 38.3042 49.5647 39.1556L49.5683 52.1462C49.5683 52.9959 50.5587 53.4599 51.2124 52.9175L53.9395 50.65L55.45 53.899C55.6499 54.3289 56.0125 54.6618 56.4578 54.8244C56.9032 54.987 57.3949 54.966 57.8248 54.766C58.2547 54.5661 58.5876 54.2035 58.7502 53.7582C58.9128 53.3128 58.8918 52.8211 58.6919 52.3912L57.1823 49.1431L60.6735 48.5178C61.5089 48.3682 61.7921 47.3119 61.1429 46.7633Z" fill="url(#paint0_linear_8634_8370)"/>
</g>
<defs>
<filter id="filter0_d_8634_8370" x="0.5" y="0" width="65" height="65" filterUnits="userSpaceOnUse" color-interpolation-filters="sRGB">
<feFlood flood-opacity="0" result="BackgroundImageFix"/>
<feColorMatrix in="SourceAlpha" type="matrix" values="0 0 0 0 0 0 0 0 0 0 0 0 0 0 0 0 0 0 127 0" result="hardAlpha"/>
<feOffset dy="4"/>
<feGaussianBlur stdDeviation="2"/>
<feComposite in2="hardAlpha" operator="out"/>
<feColorMatrix type="matrix" values="0 0 0 0 0 0 0 0 0 0 0 0 0 0 0 0 0 0 0.25 0"/>
<feBlend mode="normal" in2="BackgroundImageFix" result="effect1_dropShadow_8634_8370"/>
<feBlend mode="normal" in="SourceGraphic" in2="effect1_dropShadow_8634_8370" result="shape"/>
</filter>
<linearGradient id="paint0_linear_8634_8370" x1="33" y1="2.06641" x2="33" y2="54.9328" gradientUnits="userSpaceOnUse">
<stop stop-color="#4F35DF"/>
<stop offset="1" stop-color="#2702F5"/>
</linearGradient>
<clipPath id="clip0_8634_8370">
<rect width="57" height="57" fill="white" transform="translate(4.5)"/>
</clipPath>
</defs>
</svg>
