<svg width="18" height="18" viewBox="0 0 18 18" fill="none" xmlns="http://www.w3.org/2000/svg">
<path fill-rule="evenodd" clip-rule="evenodd" d="M5.33235 2.73888C5.5547 1.64732 6.52606 0.875 7.63894 0.875H10.3617C11.4746 0.875 12.4459 1.64732 12.6683 2.73888C12.7196 2.99087 12.9479 3.17571 13.1853 3.17571H13.199L13.2126 3.17631C14.3822 3.22745 15.2805 3.37097 16.0305 3.86298C16.503 4.17297 16.9094 4.57181 17.2262 5.0372C17.6202 5.61622 17.794 6.28079 17.8773 7.08454C17.9587 7.86983 17.9587 8.85417 17.9587 10.1009V10.1719C17.9587 11.4186 17.9587 12.4029 17.8773 13.1882C17.794 13.9919 17.6202 14.6565 17.2262 15.2355C16.9094 15.7009 16.503 16.0998 16.0305 16.4097C15.4442 16.7943 14.7722 16.9639 13.957 17.0453C13.1589 17.125 12.1578 17.125 10.8865 17.125H7.11413C5.84281 17.125 4.84171 17.125 4.04363 17.0453C3.22849 16.9639 2.55642 16.7943 1.9702 16.4097C1.49767 16.0998 1.0912 15.7009 0.774483 15.2355C0.380424 14.6565 0.206622 13.9919 0.123344 13.1882C0.0419793 12.4029 0.041985 11.4186 0.0419923 10.1718V10.1009C0.041985 8.85417 0.0419793 7.86983 0.123344 7.08454C0.206622 6.28079 0.380424 5.61622 0.774483 5.0372C1.0912 4.57181 1.49767 4.17297 1.9702 3.86298C2.72018 3.37097 3.61849 3.22745 4.78802 3.17631L4.80166 3.17571H4.81532C5.05273 3.17571 5.28102 2.99087 5.33235 2.73888ZM7.63894 2.125C7.10468 2.125 6.65787 2.49416 6.55719 2.98839C6.39414 3.78883 5.68449 4.41822 4.8306 4.42565C3.70676 4.47558 3.10479 4.61363 2.65586 4.90815C2.31957 5.12876 2.03159 5.41175 1.80788 5.74047C1.57775 6.07862 1.43946 6.51104 1.36669 7.21337C1.29278 7.92672 1.29199 8.84633 1.29199 10.1364C1.29199 11.4264 1.29278 12.346 1.36669 13.0594C1.43946 13.7617 1.57775 14.1941 1.80788 14.5323C2.03159 14.861 2.31957 15.144 2.65586 15.3646C3.0038 15.5928 3.44903 15.7297 4.16786 15.8015C4.89656 15.8743 5.83527 15.875 7.14847 15.875H10.8522C12.1654 15.875 13.1041 15.8743 13.8328 15.8015C14.5516 15.7297 14.9969 15.5928 15.3448 15.3646C15.6811 15.144 15.9691 14.861 16.1928 14.5323C16.4229 14.1941 16.5612 13.7617 16.634 13.0594C16.7079 12.346 16.7087 11.4264 16.7087 10.1364C16.7087 8.84633 16.7079 7.92672 16.634 7.21337C16.5612 6.51104 16.4229 6.07862 16.1928 5.74047C15.9691 5.41175 15.6811 5.12876 15.3448 4.90815C14.8959 4.61363 14.2939 4.47558 13.17 4.42565C12.3162 4.41822 11.6065 3.78883 11.4435 2.98839C11.3428 2.49416 10.896 2.125 10.3617 2.125H7.63894ZM9.00033 7.95833C7.96479 7.95833 7.12533 8.7978 7.12533 9.83333C7.12533 10.8689 7.96479 11.7083 9.00033 11.7083C10.0359 11.7083 10.8753 10.8689 10.8753 9.83333C10.8753 8.7978 10.0359 7.95833 9.00033 7.95833ZM5.87533 9.83333C5.87533 8.10744 7.27444 6.70833 9.00033 6.70833C10.7262 6.70833 12.1253 8.10744 12.1253 9.83333C12.1253 11.5592 10.7262 12.9583 9.00033 12.9583C7.27444 12.9583 5.87533 11.5592 5.87533 9.83333ZM13.3753 7.33333C13.3753 6.98816 13.6551 6.70833 14.0003 6.70833H14.8337C15.1788 6.70833 15.4587 6.98816 15.4587 7.33333C15.4587 7.67851 15.1788 7.95833 14.8337 7.95833H14.0003C13.6551 7.95833 13.3753 7.67851 13.3753 7.33333Z" fill="white"/>
</svg>
