<svg width="18" height="18" viewBox="0 0 18 18" fill="none" xmlns="http://www.w3.org/2000/svg">
<path fill-rule="evenodd" clip-rule="evenodd" d="M7.2305 0.666992C5.09769 0.666992 3.36871 2.39597 3.36871 4.52878C3.36871 6.66159 5.09769 8.39057 7.2305 8.39057C9.36331 8.39057 11.0923 6.66159 11.0923 4.52878C11.0923 2.39597 9.36331 0.666992 7.2305 0.666992ZM4.58822 4.52878C4.58822 3.06949 5.77121 1.8865 7.2305 1.8865C8.68979 1.8865 9.87278 3.06949 9.87278 4.52878C9.87278 5.98807 8.68979 7.17106 7.2305 7.17106C5.77121 7.17106 4.58822 5.98807 4.58822 4.52878Z" fill="#5E5E62"/>
<path d="M12.1086 1.48C11.7718 1.48 11.4988 1.753 11.4988 2.08976C11.4988 2.42652 11.7718 2.69951 12.1086 2.69951C13.1188 2.69951 13.9378 3.5185 13.9378 4.52878C13.9378 5.53906 13.1188 6.35805 12.1086 6.35805C11.7718 6.35805 11.4988 6.63105 11.4988 6.96781C11.4988 7.30456 11.7718 7.57756 12.1086 7.57756C13.7923 7.57756 15.1573 6.21258 15.1573 4.52878C15.1573 2.84499 13.7923 1.48 12.1086 1.48Z" fill="#5E5E62"/>
<path fill-rule="evenodd" clip-rule="evenodd" d="M2.90379 10.6429C4.04149 9.99281 5.5725 9.61008 7.2305 9.61008C8.8885 9.61008 10.4195 9.99281 11.5572 10.6429C12.6777 11.2832 13.5313 12.2606 13.5313 13.4719C13.5313 14.6831 12.6777 15.6606 11.5572 16.3008C10.4195 16.9509 8.8885 17.3337 7.2305 17.3337C5.5725 17.3337 4.04149 16.9509 2.90379 16.3008C1.78334 15.6606 0.929688 14.6831 0.929688 13.4719C0.929688 12.2606 1.78334 11.2832 2.90379 10.6429ZM3.50884 11.7018C2.56953 12.2385 2.1492 12.8871 2.1492 13.4719C2.1492 14.0566 2.56953 14.7052 3.50884 15.242C4.4309 15.7689 5.74541 16.1141 7.2305 16.1141C8.71559 16.1141 10.0301 15.7689 10.9522 15.242C11.8915 14.7052 12.3118 14.0566 12.3118 13.4719C12.3118 12.8871 11.8915 12.2385 10.9522 11.7018C10.0301 11.1749 8.71559 10.8296 7.2305 10.8296C5.74541 10.8296 4.4309 11.1749 3.50884 11.7018Z" fill="#5E5E62"/>
<path d="M14.6782 10.4372C14.3492 10.3651 14.0241 10.5733 13.952 10.9022C13.8798 11.2312 14.088 11.5563 14.417 11.6284C15.0612 11.7697 15.576 12.0124 15.9158 12.2904C16.256 12.5688 16.3768 12.8407 16.3768 13.0654C16.3768 13.2692 16.2788 13.5085 16.0085 13.7596C15.7362 14.0125 15.3179 14.2462 14.7783 14.4087C14.4558 14.5058 14.2731 14.8459 14.3702 15.1684C14.4673 15.4908 14.8074 15.6735 15.1299 15.5764C15.7986 15.375 16.3966 15.0636 16.8385 14.6531C17.2823 14.2408 17.5964 13.6984 17.5964 13.0654C17.5964 12.3623 17.2108 11.7743 16.6881 11.3466C16.1649 10.9185 15.4602 10.6087 14.6782 10.4372Z" fill="#5E5E62"/>
</svg>
