<svg width="15" height="8" viewBox="0 0 15 8" fill="none" xmlns="http://www.w3.org/2000/svg">
<path fill-rule="evenodd" clip-rule="evenodd" d="M14.5957 0.207548C14.8495 0.316326 14.9671 0.610265 14.8583 0.86408L14.3987 0.66712C14.8583 0.86408 14.8583 0.863963 14.8583 0.86408L14.8578 0.8652L14.8571 0.866856L14.855 0.871762L14.8478 0.887814C14.8419 0.901238 14.8333 0.920047 14.8222 0.943836C14.8001 0.991404 14.7676 1.05895 14.7246 1.14322C14.6387 1.31166 14.5104 1.54757 14.3377 1.82476C14.054 2.28012 13.647 2.85222 13.1067 3.42057L13.7523 4.06613C13.9475 4.26139 13.9475 4.57797 13.7523 4.77323C13.557 4.96849 13.2404 4.96849 13.0452 4.77323L12.3781 4.10618C11.9383 4.47464 11.434 4.82048 10.8621 5.10461L11.4845 6.06109C11.6351 6.29255 11.5695 6.60228 11.3381 6.75288C11.1066 6.90348 10.7969 6.83794 10.6463 6.60648L9.92018 5.49055C9.40062 5.66022 8.83808 5.77553 8.23205 5.81687V7.00045C8.23205 7.2766 8.00819 7.50045 7.73205 7.50045C7.4559 7.50045 7.23205 7.2766 7.23205 7.00045V5.81687C6.64469 5.7768 6.09816 5.66726 5.59198 5.50606L4.87593 6.60653C4.72533 6.83798 4.4156 6.90353 4.18414 6.75292C3.95269 6.60232 3.88714 6.2926 4.03775 6.06114L4.64602 5.1263C4.06977 4.84489 3.56131 4.50057 3.11771 4.13263L2.47706 4.77328C2.2818 4.96854 1.96521 4.96854 1.76995 4.77328C1.57469 4.57802 1.57469 4.26143 1.76995 4.06617L2.38579 3.45033C1.83609 2.8772 1.42226 2.29816 1.13394 1.8369C0.958659 1.55648 0.828493 1.31755 0.741351 1.14691C0.69775 1.06154 0.664832 0.993084 0.642343 0.944878C0.631096 0.92077 0.62245 0.901708 0.616373 0.888108L0.609177 0.871849L0.607015 0.866884L0.606292 0.86521L0.606019 0.864577C0.605969 0.864458 0.605806 0.86408 1.06538 0.66712L0.606019 0.864577C0.497242 0.610762 0.614604 0.316326 0.868419 0.207548C1.12203 0.0988596 1.41569 0.216153 1.52468 0.469534C1.52464 0.469447 1.52472 0.469622 1.52468 0.469534L1.52532 0.470995L1.52937 0.480137C1.5333 0.488934 1.53969 0.503059 1.54858 0.522107C1.56636 0.560213 1.59407 0.617953 1.63194 0.692103C1.70773 0.840517 1.82384 1.05397 1.98191 1.30685C2.29898 1.8141 2.77981 2.47185 3.43583 3.08152C4.0131 3.61799 4.72049 4.11216 5.56653 4.43766C6.20285 4.68247 6.92234 4.83379 7.73205 4.83379C8.55985 4.83379 9.29346 4.67563 9.94037 4.421C10.7813 4.09 11.4839 3.59262 12.0565 3.05511C12.7029 2.44843 13.1766 1.79723 13.489 1.29592C13.6447 1.04599 13.7591 0.835298 13.8338 0.688899C13.8711 0.615756 13.8984 0.558833 13.9159 0.521284C13.9246 0.502515 13.9309 0.488604 13.9348 0.479948L13.9388 0.470959L13.9391 0.470161C13.9391 0.470226 13.9392 0.470096 13.9391 0.470161M14.5957 0.207548C14.3419 0.098798 14.048 0.216481 13.9391 0.470161L14.5957 0.207548ZM1.52468 0.469534C1.52464 0.469447 1.52472 0.469622 1.52468 0.469534V0.469534Z" fill="#758195"/>
</svg>
