<svg width="24" height="24" viewBox="0 0 24 24" fill="none" xmlns="http://www.w3.org/2000/svg">
<path d="M12 12H24C24 9.75 23.4 7.8 22.35 6L12 12Z" fill="#F5AC43"/>
<path d="M12.0004 12L1.65039 18C2.70039 19.8 4.20039 21.3 6.00039 22.35L12.0004 12Z" fill="#515EBB"/>
<path d="M12 12V24C14.25 24 16.2 23.4 18 22.35L12 12Z" fill="#D0449A"/>
<path d="M6 22.35C7.8 23.4 9.75 24 12 24V12L6 22.35Z" fill="#7C39B1"/>
<path d="M22.35 6.00039C21.3 4.20039 19.8 2.70039 18 1.65039L12 12.0004L22.35 6.00039Z" fill="#F8CE33"/>
<path d="M12 12H0C0 14.25 0.6 16.2 1.65 18L12 12Z" fill="#177AC3"/>
<path d="M12 12L18 22.35C19.8 21.3 21.3 19.8 22.35 18L12 12Z" fill="#FE4A29"/>
<path d="M12 12L22.35 18C23.4 16.2 24 14.25 24 12H12Z" fill="#F97932"/>
<path d="M12 12L1.65 6C0.6 7.8 0 9.75 0 12H12Z" fill="#1AB3D0"/>
<path d="M12 12L18 1.65C16.2 0.6 14.25 0 12 0V12Z" fill="#FCF222"/>
<path d="M12 0C9.75 0 7.8 0.6 6 1.65L12 12V0Z" fill="#89D31C"/>
<path d="M12.0004 12.0004L6.00039 1.65039C4.20039 2.70039 2.70039 4.20039 1.65039 6.00039L12.0004 12.0004Z" fill="#33B634"/>
</svg>
