<svg width="37" height="43" viewBox="0 0 37 43" fill="none" xmlns="http://www.w3.org/2000/svg">
<path d="M23.0354 18.4283C23.0354 17.2065 22.55 16.0346 21.686 15.1706C20.822 14.3066 19.6502 13.8212 18.4283 13.8212C17.2065 13.8212 16.0346 14.3066 15.1706 15.1706C14.3066 16.0346 13.8212 17.2065 13.8212 18.4283C13.8212 19.6502 14.3066 20.822 15.1706 21.686C16.0346 22.55 17.2065 23.0354 18.4283 23.0354C19.6502 23.0354 20.822 22.55 21.686 21.686C22.55 20.822 23.0354 19.6502 23.0354 18.4283ZM36.8567 18.4283C36.8567 27.2555 27.3446 36.9058 21.9881 41.6419C21.0086 42.5165 19.7415 43 18.4283 43C17.1152 43 15.848 42.5165 14.8686 41.6419C9.51209 36.9058 0 27.2555 0 18.4283C-3.60614e-08 16.0083 0.476663 13.6119 1.40277 11.3761C2.32888 9.14028 3.6863 7.10876 5.39753 5.39753C7.10876 3.6863 9.14028 2.32888 11.3761 1.40277C13.6119 0.476663 16.0083 0 18.4283 0C20.8484 0 23.2447 0.476663 25.4805 1.40277C27.7164 2.32888 29.7479 3.6863 31.4591 5.39753C33.1703 7.10876 34.5278 9.14028 35.4539 11.3761C36.38 13.6119 36.8567 16.0083 36.8567 18.4283ZM33.7853 18.4283C33.7853 14.3554 32.1673 10.4493 29.2873 7.56933C26.4073 4.68935 22.5012 3.07139 18.4283 3.07139C14.3554 3.07139 10.4493 4.68935 7.56933 7.56933C4.68935 10.4493 3.07139 14.3554 3.07139 18.4283C3.07139 21.8314 4.96029 25.7843 7.89347 29.7402C10.7621 33.604 14.3035 37.0409 16.9018 39.3414C17.3199 39.7204 17.864 39.9303 18.4283 39.9303C18.9926 39.9303 19.5367 39.7204 19.9548 39.3414C22.5532 37.0409 26.0976 33.6071 28.9632 29.7402C31.8964 25.7843 33.7853 21.8314 33.7853 18.4283Z" fill="url(#paint0_linear_7324_6772)"/>
<defs>
<linearGradient id="paint0_linear_7324_6772" x1="18.4283" y1="0" x2="18.4283" y2="43" gradientUnits="userSpaceOnUse">
<stop stop-color="#4F35DF"/>
<stop offset="1" stop-color="#2702F5"/>
</linearGradient>
</defs>
</svg>
