<svg width="43" height="42" viewBox="0 0 43 42" fill="none" xmlns="http://www.w3.org/2000/svg">
<path d="M3.83398 12.25L18.1226 22.252C19.2796 23.062 19.8582 23.4669 20.4874 23.6238C21.0433 23.7623 21.6247 23.7623 22.1805 23.6238C22.8098 23.4669 23.3883 23.062 24.5454 22.252L38.834 12.25M12.234 35H30.434C33.3743 35 34.8444 35 35.9674 34.4278C36.9553 33.9244 37.7584 33.1213 38.2618 32.1335C38.834 31.0104 38.834 29.5403 38.834 26.6V15.4C38.834 12.4597 38.834 10.9896 38.2618 9.86655C37.7584 8.8787 36.9553 8.07555 35.9674 7.57222C34.8444 7 33.3743 7 30.434 7H12.234C9.29371 7 7.82357 7 6.70053 7.57222C5.71268 8.07555 4.90954 8.8787 4.4062 9.86655C3.83398 10.9896 3.83398 12.4597 3.83398 15.4V26.6C3.83398 29.5403 3.83398 31.0104 4.4062 32.1335C4.90954 33.1213 5.71268 33.9244 6.70053 34.4278C7.82357 35 9.29371 35 12.234 35Z" stroke="white" stroke-width="3.5" stroke-linecap="round" stroke-linejoin="round"/>
</svg>
