<svg width="57" height="54" viewBox="0 0 57 54" fill="none" xmlns="http://www.w3.org/2000/svg">
    <path
        fill-rule="evenodd"
        clip-rule="evenodd"
        d="M7.25745 2.31553C10.8145 -1.2163 16.6719 -0.588744 19.6502 3.38675L23.3388 8.30212C25.7648 11.5362 25.5485 16.0546 22.6695 18.9122L21.9739 19.6069C21.895 19.8985 21.887 20.2047 21.9505 20.5001C22.1346 21.6909 23.1313 24.2128 27.3051 28.3576C31.4789 32.5024 34.0218 33.4948 35.2318 33.6816C35.5367 33.7429 35.8516 33.7339 36.1525 33.6554L37.345 32.4703C39.9054 29.9309 43.8337 29.4551 47.002 31.1743L52.5846 34.21C57.3693 36.8019 58.5764 43.2935 54.6598 47.1843L50.5065 51.3058C49.1971 52.6046 47.4375 53.6875 45.2922 53.889C40.0019 54.3822 27.6763 53.7518 14.7194 40.8883C2.6277 28.8801 0.306976 18.4072 0.0117702 13.2467C-0.134371 10.6372 1.09906 8.43055 2.67154 6.87187L7.25745 2.31553ZM16.1428 6.01081C14.661 4.03474 11.9018 3.87712 10.3469 5.4212L5.75804 9.97463C4.79351 10.932 4.3317 11.9886 4.39016 12.9986C4.62399 17.0996 6.4946 26.5479 17.8118 37.7856C29.6843 49.5719 40.6478 49.9251 44.8859 49.5282C45.751 49.4494 46.6104 48.9999 47.4141 48.203L51.5645 44.0786C53.2539 42.4032 52.8827 39.3501 50.4919 38.0541L44.9093 35.0214C43.366 34.1866 41.5597 34.461 40.4374 35.576L39.1075 36.8982L37.5584 35.3454C39.1075 36.8982 39.1045 36.9012 39.1016 36.9012L39.0987 36.907L39.0899 36.9157L39.0695 36.9333L39.0256 36.9741C38.9023 37.0885 38.7693 37.192 38.6281 37.2835C38.3943 37.4382 38.0845 37.6104 37.6957 37.7535C36.9066 38.0483 35.8602 38.2059 34.5683 38.0074C32.0342 37.6192 28.6759 35.8941 24.2128 31.4633C19.7525 27.0325 18.0105 23.6991 17.6189 21.1714C17.4172 19.8813 17.5779 18.8363 17.8761 18.0482C18.0402 17.6047 18.2751 17.1907 18.5717 16.8223L18.6652 16.7201L18.7062 16.6763L18.7237 16.6588L18.7325 16.6501L18.7383 16.6442L19.5801 15.8094C20.831 14.5631 21.0064 12.4994 19.8285 10.9262L16.1428 6.01081Z"
        fill="white"
    />
</svg>
  