<svg width="42" height="42" viewBox="0 0 42 42" fill="none" xmlns="http://www.w3.org/2000/svg">
<path d="M14.6606 15.4934C15.8786 18.0302 17.539 20.4078 19.6417 22.5106C21.7445 24.6133 24.1221 26.2737 26.659 27.4917C26.8772 27.5965 26.9863 27.6489 27.1243 27.6891C27.6149 27.8321 28.2174 27.7294 28.6329 27.4319C28.7498 27.3482 28.8498 27.2481 29.0499 27.0481C29.6617 26.4363 29.9676 26.1304 30.2752 25.9304C31.4353 25.1761 32.9308 25.1761 34.0909 25.9304C34.3985 26.1304 34.7044 26.4363 35.3162 27.0481L35.6572 27.3891C36.5872 28.3191 37.0522 28.7842 37.3048 29.2836C37.8072 30.2768 37.8072 31.4498 37.3048 32.443C37.0522 32.9424 36.5872 33.4074 35.6572 34.3374L35.3813 34.6133C34.4545 35.5402 33.9911 36.0036 33.361 36.3575C32.6619 36.7502 31.576 37.0326 30.7741 37.0302C30.0515 37.0281 29.5576 36.8879 28.5698 36.6075C23.2614 35.1008 18.2522 32.258 14.0733 28.079C9.89431 23.9001 7.05148 18.891 5.54478 13.5825C5.26442 12.5947 5.12423 12.1008 5.12209 11.3782C5.1197 10.5763 5.40208 9.49043 5.79482 8.7913C6.14875 8.16124 6.61217 7.69782 7.53901 6.77098L7.81487 6.49512C8.7449 5.5651 9.20991 5.10009 9.70932 4.84748C10.7026 4.34511 11.8755 4.34511 12.8688 4.84748C13.3682 5.10009 13.8332 5.5651 14.7632 6.49512L15.1042 6.83614C15.716 7.44796 16.0219 7.75386 16.2219 8.06147C16.9762 9.22153 16.9762 10.717 16.2219 11.8771C16.0219 12.1847 15.716 12.4906 15.1042 13.1024C14.9042 13.3025 14.8042 13.4025 14.7204 13.5194C14.4229 13.9349 14.3202 14.5374 14.4632 15.028C14.5035 15.1661 14.5558 15.2752 14.6606 15.4934Z" stroke="white" stroke-width="3.5" stroke-linecap="round" stroke-linejoin="round"/>
</svg>
