<svg width="43" height="42" viewBox="0 0 43 42" fill="none" xmlns="http://www.w3.org/2000/svg">
<path d="M21.666 22.75C24.5655 22.75 26.916 20.3995 26.916 17.5C26.916 14.6005 24.5655 12.25 21.666 12.25C18.7665 12.25 16.416 14.6005 16.416 17.5C16.416 20.3995 18.7665 22.75 21.666 22.75Z" stroke="url(#paint0_linear_8641_9541)" stroke-width="3.5" stroke-linecap="round" stroke-linejoin="round"/>
<path d="M21.666 38.5C28.666 31.5 35.666 25.232 35.666 17.5C35.666 9.76801 29.398 3.5 21.666 3.5C13.934 3.5 7.66602 9.76801 7.66602 17.5C7.66602 25.232 14.666 31.5 21.666 38.5Z" stroke="url(#paint1_linear_8641_9541)" stroke-width="3.5" stroke-linecap="round" stroke-linejoin="round"/>
<defs>
<linearGradient id="paint0_linear_8641_9541" x1="21.666" y1="3.5" x2="21.666" y2="38.5" gradientUnits="userSpaceOnUse">
<stop stop-color="#4F35DF"/>
<stop offset="1" stop-color="#2702F5"/>
</linearGradient>
<linearGradient id="paint1_linear_8641_9541" x1="21.666" y1="3.5" x2="21.666" y2="38.5" gradientUnits="userSpaceOnUse">
<stop stop-color="#4F35DF"/>
<stop offset="1" stop-color="#2702F5"/>
</linearGradient>
</defs>
</svg>
