<svg width="17" height="16" viewBox="0 0 17 16" fill="none" xmlns="http://www.w3.org/2000/svg">
<path fill-rule="evenodd" clip-rule="evenodd" d="M10.666 0.833008H7.96174C6.73657 0.832998 5.76614 0.832989 5.00667 0.935098C4.22505 1.04018 3.59242 1.26159 3.09351 1.7605C2.5946 2.25941 2.37319 2.89205 2.26811 3.67366C2.166 4.43313 2.16601 5.40355 2.16602 6.62872V10.6663C2.16602 11.9145 3.08072 12.949 4.27636 13.1362C4.36834 13.6455 4.54437 14.0802 4.89825 14.4341C5.29953 14.8354 5.80478 15.008 6.40485 15.0887C6.98283 15.1664 7.71771 15.1664 8.62944 15.1663H10.7026C11.6143 15.1664 12.3492 15.1664 12.9272 15.0887C13.5273 15.008 14.0325 14.8354 14.4338 14.4341C14.8351 14.0328 15.0077 13.5276 15.0883 12.9275C15.166 12.3495 15.166 11.6146 15.166 10.7029V7.29643C15.166 6.3847 15.166 5.64982 15.0883 5.07184C15.0077 4.47177 14.8351 3.96652 14.4338 3.56524C14.0799 3.21136 13.6452 3.03533 13.1358 2.94335C12.9487 1.74771 11.9142 0.833008 10.666 0.833008ZM12.0856 2.84712C11.8837 2.25716 11.3244 1.83301 10.666 1.83301H7.99935C6.72814 1.83301 5.82503 1.83407 5.13992 1.92618C4.46919 2.01636 4.08276 2.18547 3.80062 2.46761C3.51848 2.74975 3.34937 3.13618 3.25919 3.80691C3.16708 4.49202 3.16602 5.39513 3.16602 6.66634V10.6663C3.16602 11.3247 3.59017 11.884 4.18013 12.0859C4.166 11.6793 4.16601 11.2195 4.16602 10.7029V7.29642C4.166 6.3847 4.16599 5.64982 4.2437 5.07184C4.32438 4.47177 4.49697 3.96652 4.89825 3.56524C5.29953 3.16396 5.80478 2.99137 6.40485 2.91069C6.98283 2.83298 7.71771 2.83299 8.62943 2.83301H10.7026C11.2191 2.833 11.6789 2.83299 12.0856 2.84712ZM5.60536 4.27235C5.78987 4.08784 6.04891 3.96754 6.5381 3.90177C7.04166 3.83407 7.70907 3.83301 8.66602 3.83301H10.666C11.623 3.83301 12.2904 3.83407 12.7939 3.90177C13.2831 3.96754 13.5422 4.08784 13.7267 4.27235C13.9112 4.45686 14.0315 4.71591 14.0973 5.20509C14.165 5.70866 14.166 6.37606 14.166 7.33301V10.6663C14.166 11.6233 14.165 12.2907 14.0973 12.7943C14.0315 13.2834 13.9112 13.5425 13.7267 13.727C13.5422 13.9115 13.2831 14.0318 12.7939 14.0976C12.2904 14.1653 11.623 14.1663 10.666 14.1663H8.66602C7.70907 14.1663 7.04166 14.1653 6.5381 14.0976C6.04891 14.0318 5.78987 13.9115 5.60536 13.727C5.42085 13.5425 5.30055 13.2834 5.23478 12.7943C5.16708 12.2907 5.16602 11.6233 5.16602 10.6663V7.33301C5.16602 6.37606 5.16708 5.70866 5.23478 5.20509C5.30055 4.71591 5.42085 4.45686 5.60536 4.27235Z" fill="#758195"/>
</svg>
