<svg width="190" height="191" viewBox="0 0 190 191" fill="none" xmlns="http://www.w3.org/2000/svg">
<path d="M135.044 48.8343H87.5781V30.8208H149.798C149.913 30.8208 150.027 30.8208 150.141 30.8208C159.863 31.0503 167.755 39.0818 167.755 48.8343H147.167" fill="#BDC4FF"/>
<path d="M151.512 30.8208C147.852 31.0503 144.421 32.5418 142.019 35.066C141.79 35.2955 141.561 35.525 141.333 35.8692C139.159 38.3934 137.558 41.7207 137.558 45.2775V152.441C137.558 162.423 129.552 170.454 119.601 170.454H32.2188V44.4744C32.4475 40.8028 33.82 37.4755 36.2219 35.066C38.8525 32.4271 42.3981 30.8208 46.4013 30.8208H134.356H151.054C151.169 30.8208 151.283 30.8208 151.512 30.8208Z" fill="url(#paint0_linear_8720_13564)"/>
<path d="M120.175 55.3737H94.2117C93.2967 55.3737 92.4961 54.5706 92.4961 53.6527C92.4961 52.7348 93.2967 51.9316 94.2117 51.9316H120.175C121.09 51.9316 121.89 52.7348 121.89 53.6527C121.89 54.5706 121.204 55.3737 120.175 55.3737Z" fill="#BDC4FF"/>
<path d="M81.973 55.3737H48.118C47.203 55.3737 46.4023 54.5706 46.4023 53.6527C46.4023 52.7348 47.203 51.9316 48.118 51.9316H82.0874C83.0024 51.9316 83.803 52.7348 83.803 53.6527C83.803 54.5706 83.0024 55.3737 81.973 55.3737Z" fill="#BDC4FF"/>
<path d="M103.706 72.3552H69.9656C69.0506 72.3552 68.25 71.552 68.25 70.6341C68.25 69.7162 69.0506 68.9131 69.9656 68.9131H103.706C104.621 68.9131 105.422 69.7162 105.422 70.6341C105.536 71.552 104.736 72.3552 103.706 72.3552Z" fill="#BDC4FF"/>
<path d="M59.098 72.3552H48.118C47.203 72.3552 46.4023 71.552 46.4023 70.6341C46.4023 69.7162 47.203 68.9131 48.118 68.9131H59.098C60.013 68.9131 60.8136 69.7162 60.8136 70.6341C60.8136 71.552 60.013 72.3552 59.098 72.3552Z" fill="#5FABF1"/>
<path d="M120.175 89.3356H99.4734C98.5584 89.3356 97.7578 88.5325 97.7578 87.6146C97.7578 86.6967 98.5584 85.8936 99.4734 85.8936H120.175C121.09 85.8936 121.891 86.6967 121.891 87.6146C121.891 88.5325 121.205 89.3356 120.175 89.3356Z" fill="#5FABF1"/>
<path d="M89.5217 89.3356H48.118C47.203 89.3356 46.4023 88.5325 46.4023 87.6146C46.4023 86.6967 47.203 85.8936 48.118 85.8936H89.5217C90.4367 85.8936 91.2374 86.6967 91.2374 87.6146C91.2374 88.5325 90.5511 89.3356 89.5217 89.3356Z" fill="#BDC4FF"/>
<path d="M103.703 106.317H80.9422C80.0272 106.317 79.2266 105.513 79.2266 104.596C79.2266 103.678 80.0272 102.875 80.9422 102.875H103.703C104.618 102.875 105.418 103.678 105.418 104.596C105.533 105.513 104.732 106.317 103.703 106.317Z" fill="#BDC4FF"/>
<path d="M70.993 106.317H48.118C47.203 106.317 46.4023 105.513 46.4023 104.596C46.4023 103.678 47.203 102.875 48.118 102.875H71.1073C72.0223 102.875 72.823 103.678 72.823 104.596C72.823 105.513 72.0223 106.317 70.993 106.317Z" fill="#5FABF1"/>
<path d="M120.176 123.298H104.278C103.363 123.298 102.562 122.494 102.562 121.577C102.562 120.659 103.363 119.855 104.278 119.855H120.176C121.091 119.855 121.892 120.659 121.892 121.577C121.892 122.494 121.206 123.298 120.176 123.298Z" fill="#BDC4FF"/>
<path d="M93.9822 123.298H67.3328C66.4178 123.298 65.6172 122.494 65.6172 121.577C65.6172 120.659 66.4178 119.855 67.3328 119.855H93.9822C94.8972 119.855 95.6978 120.659 95.6978 121.577C95.6978 122.494 94.8972 123.298 93.9822 123.298Z" fill="#5FABF1"/>
<path d="M57.3823 123.298H48.118C47.203 123.298 46.4023 122.494 46.4023 121.577C46.4023 120.659 47.203 119.855 48.118 119.855H57.3823C58.2973 119.855 59.098 120.659 59.098 121.577C59.098 122.494 58.2973 123.298 57.3823 123.298Z" fill="#BDC4FF"/>
<path d="M103.706 140.278H87.9227C87.0077 140.278 86.207 139.475 86.207 138.557C86.207 137.64 87.0077 136.836 87.9227 136.836H103.706C104.621 136.836 105.422 137.64 105.422 138.557C105.536 139.475 104.736 140.278 103.706 140.278Z" fill="#BDC4FF"/>
<path d="M77.5124 140.278H48.118C47.203 140.278 46.4023 139.475 46.4023 138.557C46.4023 137.64 47.203 136.836 48.118 136.836H77.5124C78.4273 136.836 79.228 137.64 79.228 138.557C79.228 139.475 78.4273 140.278 77.5124 140.278Z" fill="#5FABF1"/>
<path d="M81.1717 156.227H104.275C104.275 160.128 105.877 163.684 108.393 166.209C110.909 168.848 114.455 170.339 118.344 170.339H14.3767C10.488 170.339 6.94235 168.733 4.42609 166.209C1.90984 163.684 0.308594 160.128 0.308594 156.227H68.7049C68.7049 156.227 81.4005 156.341 81.1717 156.227Z" fill="#BDC4FF"/>
<path d="M180.363 145.239L165.922 130.809L169.232 127.499L183.662 141.94L180.363 145.239Z" fill="#BDC4FF"/>
<path d="M185.376 150.317L174.303 139.243C173.378 138.318 173.378 136.812 174.303 135.887C175.228 134.962 176.734 134.962 177.659 135.887L188.733 146.96C189.657 147.885 189.657 149.392 188.733 150.317C187.808 151.241 186.301 151.241 185.376 150.317Z" fill="#BDC4FF"/>
<path d="M184.589 151.024L170.342 136.777C170.011 136.446 170.011 135.91 170.342 135.567L173.984 131.926C174.315 131.594 174.851 131.594 175.194 131.926L189.441 146.173C189.772 146.504 189.772 147.04 189.441 147.383L185.799 151.024C185.457 151.355 184.92 151.355 184.589 151.024Z" fill="#5A66AF"/>
<path d="M149.571 84.312C134.456 84.312 122.207 96.5613 122.207 111.676C122.207 126.779 134.456 139.04 149.56 139.04C164.674 139.04 176.923 126.791 176.923 111.676C176.923 96.5613 164.674 84.312 149.571 84.312ZM149.571 133.971C137.436 133.971 127.607 123.982 127.607 111.665C127.607 99.3468 137.436 89.3693 149.571 89.3693C161.706 89.3693 171.535 99.3582 171.535 111.676C171.535 123.994 161.695 133.971 149.571 133.971Z" fill="#5A66AF"/>
<path d="M149.637 50.368C151.917 50.368 153.765 48.5179 153.765 46.2355C153.765 43.9532 151.917 42.103 149.637 42.103C147.356 42.103 145.508 43.9532 145.508 46.2355C145.508 48.5179 147.356 50.368 149.637 50.368Z" fill="#BDC4FF"/>
<path d="M39.9585 72.7158C41.4587 72.7158 42.6748 71.4986 42.6748 69.9971C42.6748 68.4955 41.4587 67.2783 39.9585 67.2783C38.4583 67.2783 37.2422 68.4955 37.2422 69.9971C37.2422 71.4986 38.4583 72.7158 39.9585 72.7158Z" fill="#BDC4FF"/>
<path d="M34.7088 125.113C34.3205 126.562 35.1815 128.052 36.6319 128.44C38.0822 128.829 39.5728 127.969 39.961 126.52C40.3493 125.071 39.4883 123.581 38.0379 123.193C36.5876 122.804 35.0971 123.664 34.7088 125.113Z" fill="#BDC4FF"/>
<path d="M55.1652 42.8076H52.8009V40.4434H50.7744V42.8076H48.4102V44.9017H50.7744V47.2659H52.8009V44.9017H55.1652V42.8076Z" fill="#5A66AF"/>
<path d="M116.038 165.793L116.65 163.509L118.934 164.121L119.458 162.164L117.175 161.552L117.787 159.268L115.764 158.726L115.152 161.01L112.868 160.398L112.344 162.355L114.628 162.967L114.016 165.251L116.038 165.793Z" fill="#5A66AF"/>
<path d="M161.617 92.8502L158.724 91.3897L160.185 88.497L157.705 87.2451L156.245 90.1378L153.352 88.6774L152.058 91.2395L154.951 92.6999L153.491 95.5926L155.97 96.8445L157.431 93.9518L160.323 95.4123L161.617 92.8502Z" fill="#5A66AF"/>
<defs>
<linearGradient id="paint0_linear_8720_13564" x1="91.8264" y1="27.5909" x2="91.8264" y2="171.96" gradientUnits="userSpaceOnUse">
<stop stop-color="#FDFEFF"/>
<stop offset="0.9964" stop-color="#ECF0F5"/>
</linearGradient>
</defs>
</svg>
