<svg width="200" height="200" viewBox="0 0 200 200" fill="none" xmlns="http://www.w3.org/2000/svg">
<circle cx="100" cy="100" r="100" fill="#FBFBFB"/>
<path fill-rule="evenodd" clip-rule="evenodd" d="M133.32 158.243H69.5075C63.8358 158.243 59.2236 153.629 59.2236 147.959V60.4165C59.2236 54.7466 63.8378 50.1318 69.5075 50.1318H78.9991C79.727 50.1318 80.3176 50.7216 80.3176 51.4503C80.3176 52.1782 79.7279 52.7671 78.9991 52.7671H69.5075C65.2908 52.7671 61.8607 56.1981 61.8607 60.414V147.957C61.8607 152.174 65.2916 155.603 69.5075 155.603H133.32C137.282 155.603 140.545 152.643 140.927 148.709C141.075 137.669 141.228 119.79 141.022 117.968C140.985 117.847 140.967 117.72 140.967 117.59V60.4111C140.967 56.1937 137.536 52.7643 133.32 52.7643H123.827C123.099 52.7643 122.508 52.1745 122.508 51.4474C122.508 50.7178 123.098 50.1289 123.827 50.1289L133.32 50.1298C138.99 50.1298 143.604 54.7439 143.604 60.4136V117.41C143.717 118.056 143.739 119.385 143.756 122.618C143.767 125.226 143.757 128.832 143.725 133.339C143.668 141.004 143.566 148.723 143.565 148.8C143.565 148.832 143.563 148.867 143.56 148.901C143.072 154.227 138.67 158.242 133.32 158.242L133.32 158.243ZM141.349 118.525C141.349 118.525 141.351 118.527 141.353 118.527C141.352 118.526 141.349 118.525 141.349 118.525ZM141.347 118.52C141.347 118.522 141.348 118.523 141.348 118.523C141.348 118.523 141.347 118.522 141.347 118.52ZM141.319 118.491C141.326 118.501 141.337 118.511 141.347 118.52C141.336 118.511 141.327 118.5 141.319 118.491ZM141.316 118.488C141.316 118.49 141.318 118.49 141.318 118.49C141.318 118.49 141.316 118.49 141.316 118.488ZM141.313 118.484C141.313 118.484 141.314 118.486 141.313 118.484C141.313 118.484 141.314 118.486 141.313 118.484ZM141.309 118.483C141.311 118.483 141.311 118.483 141.309 118.483C141.311 118.483 141.311 118.483 141.309 118.483Z" fill="#777777"/>
<path fill-rule="evenodd" clip-rule="evenodd" d="M78.998 84.412C75.3636 84.412 72.4053 81.4537 72.4053 77.8192C72.4053 74.1839 75.3636 71.2256 78.998 71.2256C82.6334 71.2256 85.5917 74.1839 85.5917 77.8192C85.5917 81.4537 82.6334 84.412 78.998 84.412ZM78.998 73.8663C76.8168 73.8663 75.0425 75.6407 75.0425 77.8218C75.0425 80.0029 76.8169 81.7765 78.998 81.7765C81.1793 81.7765 82.9527 80.0021 82.9527 77.8218C82.9527 75.6406 81.1783 73.8663 78.998 73.8663Z" fill="#777777"/>
<path fill-rule="evenodd" clip-rule="evenodd" d="M108.004 76.5006H94.8185C94.0906 76.5006 93.5 75.9108 93.5 75.1821C93.5 74.4542 94.0906 73.8652 94.8185 73.8652H108.004C108.732 73.8652 109.322 74.455 109.322 75.1821C109.322 75.9108 108.733 76.5006 108.004 76.5006Z" fill="#777777"/>
<path fill-rule="evenodd" clip-rule="evenodd" d="M126.46 84.4127H94.8185C94.0906 84.4127 93.5 83.8229 93.5 83.0959C93.5 82.3663 94.0906 81.7773 94.8185 81.7773L126.46 81.7782C127.19 81.7782 127.779 82.368 127.779 83.0967C127.78 83.8229 127.19 84.4127 126.461 84.4127H126.46Z" fill="#777777"/>
<path fill-rule="evenodd" clip-rule="evenodd" d="M78.998 105.507C75.3636 105.507 72.4053 102.549 72.4053 98.9132C72.4053 95.2779 75.3636 92.3213 78.998 92.3213C82.6334 92.3213 85.5917 95.277 85.5917 98.9132C85.5917 102.549 82.6334 105.507 78.998 105.507ZM78.998 94.9603C76.8168 94.9603 75.0425 96.7339 75.0425 98.9149C75.0425 101.096 76.8169 102.87 78.998 102.87C81.1793 102.87 82.9527 101.096 82.9527 98.9149C82.9527 96.7337 81.1783 94.9603 78.998 94.9603Z" fill="#777777"/>
<path fill-rule="evenodd" clip-rule="evenodd" d="M108.004 97.5953H94.8185C94.0906 97.5953 93.5 97.0055 93.5 96.2785C93.5 95.5489 94.0906 94.96 94.8185 94.96H108.004C108.732 94.96 109.322 95.5498 109.322 96.2785C109.322 97.0047 108.733 97.5953 108.004 97.5953Z" fill="#777777"/>
<path fill-rule="evenodd" clip-rule="evenodd" d="M126.46 105.507H94.8185C94.0906 105.507 93.5 104.915 93.5 104.189C93.5 103.459 94.0906 102.87 94.8185 102.87L126.46 102.871C127.19 102.871 127.779 103.462 127.779 104.189C127.78 104.916 127.19 105.507 126.461 105.507H126.46Z" fill="#777777"/>
<path fill-rule="evenodd" clip-rule="evenodd" d="M115.917 158.242C106.466 158.242 98.7773 150.554 98.7773 141.103C98.7773 131.651 106.466 123.962 115.917 123.962C125.367 123.962 133.056 131.65 133.056 141.103C133.056 150.553 125.368 158.242 115.917 158.242ZM115.917 126.601C107.919 126.601 101.414 133.107 101.414 141.103C101.414 149.1 107.921 155.604 115.917 155.604C123.913 155.604 130.419 149.099 130.419 141.103C130.419 133.107 123.913 126.601 115.917 126.601Z" fill="#777777"/>
<path fill-rule="evenodd" clip-rule="evenodd" d="M112.638 148.338C112.288 148.338 111.954 148.199 111.707 147.952L107.979 144.223C107.464 143.709 107.464 142.874 107.979 142.359C108.492 141.844 109.328 141.843 109.843 142.359L112.638 145.156L120.256 137.539C120.771 137.023 121.605 137.023 122.121 137.539C122.637 138.055 122.637 138.89 122.121 139.404L113.569 147.956C113.323 148.201 112.987 148.34 112.638 148.34L112.638 148.338Z" fill="#777777"/>
<path fill-rule="evenodd" clip-rule="evenodd" d="M119.078 61.999H83.7444C80.3998 61.999 77.6797 59.2798 77.6797 55.9342V48.2874C77.6797 44.9428 80.4007 42.2227 83.7444 42.2227L119.078 42.2235C122.423 42.2235 125.143 44.9427 125.143 48.2883V55.9351C125.143 59.278 122.422 61.999 119.078 61.999V61.999ZM83.7444 44.8597C81.8539 44.8597 80.3167 46.3985 80.3167 48.2874V55.9342C80.3167 57.8231 81.8539 59.362 83.7444 59.362L119.078 59.3628C120.969 59.3628 122.506 57.824 122.506 55.9351V48.2883C122.506 46.3994 120.969 44.8605 119.078 44.8605L83.7444 44.8597Z" fill="#777777"/>
<path fill-rule="evenodd" clip-rule="evenodd" d="M154.148 64.6366C150.514 64.6366 147.556 61.6783 147.556 58.043C147.556 54.4085 150.514 51.4502 154.148 51.4502C157.783 51.4502 160.74 54.4085 160.74 58.043C160.74 61.68 157.784 64.6366 154.148 64.6366ZM154.148 54.0892C151.967 54.0892 150.193 55.8628 150.193 58.0438C150.193 60.2249 151.967 61.9985 154.148 61.9985C156.33 61.9985 158.103 60.2249 158.103 58.0438C158.103 55.8628 156.331 54.0892 154.148 54.0892Z" fill="#777777"/>
<path fill-rule="evenodd" clip-rule="evenodd" d="M47.3573 141.293C42.8915 141.293 39.2588 137.658 39.2588 133.193C39.2588 128.728 42.8915 125.095 47.3573 125.095C51.8222 125.095 55.4558 128.729 55.4558 133.193C55.4558 137.659 51.8213 141.293 47.3573 141.293ZM47.3573 127.731C44.3456 127.731 41.8958 130.182 41.8958 133.192C41.8958 136.205 44.3465 138.654 47.3573 138.654C50.3681 138.654 52.8187 136.203 52.8187 133.192C52.8187 130.183 50.3689 127.731 47.3573 127.731Z" fill="#777777"/>
</svg>
