<svg width="122" height="117" viewBox="0 0 122 117" fill="none" xmlns="http://www.w3.org/2000/svg">
<path fill-rule="evenodd" clip-rule="evenodd" d="M94.3201 116.243H30.5075C24.8358 116.243 20.2236 111.629 20.2236 105.959V18.4165C20.2236 12.7466 24.8378 8.13177 30.5075 8.13177H39.9991C40.727 8.13177 41.3176 8.72156 41.3176 9.4503C41.3176 10.1782 40.7279 10.7671 39.9991 10.7671H30.5075C26.2908 10.7671 22.8607 14.1981 22.8607 18.414V105.957C22.8607 110.174 26.2916 113.603 30.5075 113.603H94.3201C98.2817 113.603 101.545 110.643 101.927 106.709C102.075 95.6694 102.228 77.7901 102.022 75.9679C101.985 75.8467 101.967 75.7196 101.967 75.5899V18.4111C101.967 14.1937 98.5359 10.7643 94.32 10.7643H84.8266C84.0987 10.7643 83.5081 10.1745 83.5081 9.44744C83.5081 8.71783 84.0979 8.12891 84.8266 8.12891L94.32 8.12975C99.9899 8.12975 104.604 12.7439 104.604 18.4136V75.4102C104.717 76.0559 104.739 77.3847 104.756 80.6183C104.767 83.2258 104.757 86.8323 104.725 91.3386C104.668 99.0041 104.566 106.723 104.565 106.8C104.565 106.832 104.563 106.867 104.56 106.901C104.072 112.227 99.6704 116.242 94.32 116.242L94.3201 116.243ZM102.349 76.5251C102.349 76.5251 102.351 76.5268 102.353 76.5268C102.352 76.5259 102.349 76.5251 102.349 76.5251ZM102.347 76.52C102.347 76.5217 102.348 76.5234 102.348 76.5234C102.348 76.5234 102.347 76.5217 102.347 76.52ZM102.319 76.4912C102.326 76.5005 102.337 76.5107 102.347 76.52C102.336 76.5107 102.327 76.4997 102.319 76.4912ZM102.316 76.4878C102.316 76.4895 102.318 76.4895 102.318 76.4895C102.318 76.4895 102.316 76.4895 102.316 76.4878ZM102.313 76.4844C102.313 76.4844 102.314 76.4861 102.313 76.4844C102.313 76.4844 102.314 76.4861 102.313 76.4844ZM102.309 76.4827C102.311 76.4827 102.311 76.4827 102.309 76.4827C102.311 76.4827 102.311 76.4827 102.309 76.4827Z" fill="#777777"/>
<path fill-rule="evenodd" clip-rule="evenodd" d="M39.998 42.412C36.3636 42.412 33.4053 39.4537 33.4053 35.8192C33.4053 32.1839 36.3636 29.2256 39.998 29.2256C43.6334 29.2256 46.5917 32.1839 46.5917 35.8192C46.5917 39.4537 43.6334 42.412 39.998 42.412ZM39.998 31.8663C37.8168 31.8663 36.0425 33.6407 36.0425 35.8218C36.0425 38.0029 37.8169 39.7765 39.998 39.7765C42.1793 39.7765 43.9527 38.0021 43.9527 35.8218C43.9527 33.6406 42.1783 31.8663 39.998 31.8663Z" fill="#777777"/>
<path fill-rule="evenodd" clip-rule="evenodd" d="M69.0039 34.5006H55.8185C55.0906 34.5006 54.5 33.9108 54.5 33.1821C54.5 32.4542 55.0906 31.8652 55.8185 31.8652H69.0039C69.7318 31.8652 70.3224 32.455 70.3224 33.1821C70.3224 33.9108 69.7326 34.5006 69.0039 34.5006Z" fill="#777777"/>
<path fill-rule="evenodd" clip-rule="evenodd" d="M87.4602 42.4127H55.8185C55.0906 42.4127 54.5 41.8229 54.5 41.0959C54.5 40.3663 55.0906 39.7773 55.8185 39.7773L87.4602 39.7782C88.1898 39.7782 88.7787 40.368 88.7787 41.0967C88.7796 41.8229 88.1898 42.4127 87.461 42.4127H87.4602Z" fill="#777777"/>
<path fill-rule="evenodd" clip-rule="evenodd" d="M39.998 63.5068C36.3636 63.5068 33.4053 60.5485 33.4053 56.9132C33.4053 53.2779 36.3636 50.3213 39.998 50.3213C43.6334 50.3213 46.5917 53.277 46.5917 56.9132C46.5917 60.5494 43.6334 63.5068 39.998 63.5068ZM39.998 52.9603C37.8168 52.9603 36.0425 54.7339 36.0425 56.9149C36.0425 59.0962 37.8169 60.8696 39.998 60.8696C42.1793 60.8696 43.9527 59.096 43.9527 56.9149C43.9527 54.7337 42.1783 52.9603 39.998 52.9603Z" fill="#777777"/>
<path fill-rule="evenodd" clip-rule="evenodd" d="M69.0039 55.5953H55.8185C55.0906 55.5953 54.5 55.0055 54.5 54.2785C54.5 53.5489 55.0906 52.96 55.8185 52.96H69.0039C69.7318 52.96 70.3224 53.5498 70.3224 54.2785C70.3224 55.0047 69.7326 55.5953 69.0039 55.5953Z" fill="#777777"/>
<path fill-rule="evenodd" clip-rule="evenodd" d="M87.4602 63.5072H55.8185C55.0906 63.5072 54.5 62.9148 54.5 62.1886C54.5 61.459 55.0906 60.8701 55.8185 60.8701L87.4602 60.871C88.1898 60.871 88.7787 61.4616 88.7787 62.1895C88.7796 62.9157 88.1898 63.5072 87.461 63.5072H87.4602Z" fill="#777777"/>
<path fill-rule="evenodd" clip-rule="evenodd" d="M76.9167 116.242C67.4658 116.242 59.7773 108.554 59.7773 99.103C59.7773 89.6513 67.4665 81.9619 76.9167 81.9619C86.3669 81.9619 94.056 89.6502 94.056 99.103C94.056 108.553 86.3677 116.242 76.9167 116.242ZM76.9167 84.6007C68.9191 84.6007 62.4144 91.1069 62.4144 99.103C62.4144 107.1 68.9206 113.604 76.9167 113.604C84.9134 113.604 91.419 107.099 91.419 99.103C91.419 91.1069 84.9128 84.6007 76.9167 84.6007Z" fill="#777777"/>
<path fill-rule="evenodd" clip-rule="evenodd" d="M73.6385 106.338C73.2885 106.338 72.9538 106.199 72.7072 105.952L68.9785 102.223C68.4642 101.709 68.4642 100.874 68.9785 100.359C69.4921 99.844 70.3276 99.8431 70.8428 100.359L73.6384 103.156L81.2564 95.5394C81.7708 95.0233 82.6055 95.0233 83.1207 95.5394C83.6367 96.0554 83.6367 96.8901 83.1207 97.4037L74.5688 105.956C74.3231 106.201 73.9875 106.34 73.6375 106.34L73.6385 106.338Z" fill="#777777"/>
<path fill-rule="evenodd" clip-rule="evenodd" d="M80.0783 19.999H44.7444C41.3998 19.999 38.6797 17.2798 38.6797 13.9342V6.28741C38.6797 2.94276 41.4007 0.222656 44.7444 0.222656L80.0783 0.223503C83.4229 0.223503 86.143 2.94274 86.143 6.28826V13.9351C86.143 17.278 83.422 19.999 80.0783 19.999V19.999ZM44.7444 2.85968C42.8539 2.85968 41.3167 4.39855 41.3167 6.28741V13.9342C41.3167 15.8231 42.8539 17.362 44.7444 17.362L80.0783 17.3628C81.9688 17.3628 83.506 15.824 83.506 13.9351V6.28826C83.506 4.39944 81.9688 2.86052 80.0783 2.86052L44.7444 2.85968Z" fill="#777777"/>
<path fill-rule="evenodd" clip-rule="evenodd" d="M115.148 22.6366C111.514 22.6366 108.556 19.6783 108.556 16.043C108.556 12.4085 111.514 9.4502 115.148 9.4502C118.783 9.4502 121.74 12.4085 121.74 16.043C121.74 19.68 118.784 22.6366 115.148 22.6366ZM115.148 12.0892C112.967 12.0892 111.193 13.8628 111.193 16.0438C111.193 18.2249 112.967 19.9985 115.148 19.9985C117.33 19.9985 119.103 18.2249 119.103 16.0438C119.103 13.8628 117.331 12.0892 115.148 12.0892Z" fill="#777777"/>
<path fill-rule="evenodd" clip-rule="evenodd" d="M8.35728 99.2926C3.89153 99.2926 0.258789 95.6581 0.258789 91.1932C0.258789 86.7283 3.89153 83.0947 8.35728 83.0947C12.8222 83.0947 16.4558 86.7292 16.4558 91.1932C16.4558 95.659 12.8213 99.2926 8.35728 99.2926ZM8.35728 85.7309C5.34562 85.7309 2.89581 88.1824 2.89581 91.1923C2.89581 94.2049 5.34649 96.6538 8.35728 96.6538C11.3681 96.6538 13.8187 94.2031 13.8187 91.1923C13.8187 88.1833 11.3689 85.7309 8.35728 85.7309Z" fill="#777777"/>
</svg>
