<svg width="26" height="24" viewBox="0 0 26 24" fill="none" xmlns="http://www.w3.org/2000/svg">
<path d="M5.66291 11.9998C5.25982 11.9998 4.86579 12.1194 4.53063 12.3433C4.19548 12.5672 3.93425 12.8855 3.78 13.2579C3.62575 13.6304 3.58539 14.0401 3.66402 14.4355C3.74266 14.8308 3.93677 15.194 4.22179 15.479C4.50682 15.764 4.86996 15.9581 5.2653 16.0368C5.66065 16.1154 6.07043 16.075 6.44283 15.9208C6.81524 15.7665 7.13353 15.5053 7.35748 15.1701C7.58142 14.835 7.70095 14.441 7.70095 14.0379C7.7003 13.4975 7.48537 12.9795 7.10331 12.5975C6.72124 12.2154 6.20323 12.0005 5.66291 11.9998ZM5.66291 15.2607C5.42105 15.2607 5.18463 15.189 4.98354 15.0546C4.78245 14.9202 4.62572 14.7293 4.53316 14.5058C4.44061 14.2824 4.41639 14.0365 4.46358 13.7993C4.51076 13.5621 4.62722 13.3442 4.79824 13.1732C4.96925 13.0022 5.18714 12.8857 5.42435 12.8385C5.66155 12.7914 5.90742 12.8156 6.13086 12.9081C6.3543 13.0007 6.54528 13.1574 6.67965 13.3585C6.81402 13.5596 6.88573 13.796 6.88573 14.0379C6.88541 14.3621 6.75647 14.6729 6.52722 14.9022C6.29796 15.1314 5.98712 15.2604 5.66291 15.2607ZM9.33138 16.4835C8.9283 16.4835 8.53426 16.6031 8.19911 16.827C7.86395 17.0509 7.60273 17.3692 7.44848 17.7416C7.29422 18.114 7.25386 18.5238 7.3325 18.9192C7.41114 19.3145 7.60525 19.6777 7.89027 19.9627C8.1753 20.2477 8.53844 20.4418 8.93378 20.5205C9.32912 20.5991 9.73891 20.5587 10.1113 20.4045C10.4837 20.2502 10.802 19.989 11.026 19.6538C11.2499 19.3187 11.3694 18.9247 11.3694 18.5216C11.3688 17.9812 11.1539 17.4632 10.7718 17.0812C10.3897 16.6991 9.87171 16.4842 9.33138 16.4835ZM9.33138 19.7444C9.08953 19.7444 8.85311 19.6727 8.65202 19.5383C8.45093 19.4039 8.29419 19.213 8.20164 18.9895C8.10909 18.7661 8.08487 18.5202 8.13206 18.283C8.17924 18.0458 8.2957 17.8279 8.46672 17.6569C8.63773 17.4859 8.85562 17.3694 9.09282 17.3222C9.33003 17.2751 9.5759 17.2993 9.79934 17.3918C10.0228 17.4844 10.2138 17.6411 10.3481 17.8422C10.4825 18.0433 10.5542 18.2797 10.5542 18.5216C10.5539 18.8458 10.425 19.1566 10.1957 19.3859C9.96644 19.6151 9.6556 19.7441 9.33138 19.7444ZM6.88573 10.3694C7.28882 10.3694 7.68285 10.2499 8.01801 10.0259C8.35316 9.80198 8.61439 9.48368 8.76864 9.11128C8.92289 8.73887 8.96325 8.32909 8.88462 7.93375C8.80598 7.53841 8.61187 7.17526 8.32685 6.89024C8.04182 6.60521 7.67868 6.41111 7.28334 6.33247C6.88799 6.25383 6.47821 6.29419 6.10581 6.44844C5.7334 6.6027 5.4151 6.86392 5.19116 7.19908C4.96722 7.53423 4.84769 7.92826 4.84769 8.33135C4.84834 8.87168 5.06327 9.38968 5.44533 9.77175C5.8274 10.1538 6.34541 10.3687 6.88573 10.3694ZM6.88573 7.10853C7.12758 7.10853 7.36401 7.18024 7.5651 7.31461C7.76619 7.44897 7.92292 7.63995 8.01548 7.8634C8.10803 8.08684 8.13225 8.33271 8.08506 8.56991C8.03788 8.80712 7.92142 9.025 7.7504 9.19602C7.57939 9.36704 7.3615 9.4835 7.12429 9.53068C6.88709 9.57786 6.64122 9.55365 6.41778 9.4611C6.19434 9.36854 6.00336 9.21181 5.86899 9.01072C5.73462 8.80962 5.66291 8.5732 5.66291 8.33135C5.66323 8.00714 5.79217 7.69629 6.02142 7.46704C6.25068 7.23779 6.56152 7.10885 6.88573 7.10853ZM12.1846 7.51613C12.5877 7.51613 12.9818 7.39661 13.3169 7.17266C13.6521 6.94872 13.9133 6.63042 14.0676 6.25802C14.2218 5.88561 14.2622 5.47583 14.1835 5.08049C14.1049 4.68515 13.9108 4.322 13.6258 4.03698C13.3407 3.75195 12.9776 3.55785 12.5822 3.47921C12.1869 3.40057 11.7771 3.44093 11.4047 3.59518C11.0323 3.74944 10.714 4.01066 10.4901 4.34581C10.2661 4.68097 10.1466 5.075 10.1466 5.47809C10.1472 6.01841 10.3622 6.53642 10.7442 6.91849C11.1263 7.30056 11.6443 7.51549 12.1846 7.51613ZM12.1846 4.25526C12.4265 4.25526 12.6629 4.32698 12.864 4.46135C13.0651 4.59571 13.2218 4.78669 13.3144 5.01014C13.4069 5.23358 13.4312 5.47945 13.384 5.71665C13.3368 5.95386 13.2203 6.17174 13.0493 6.34276C12.8783 6.51377 12.6604 6.63024 12.4232 6.67742C12.186 6.7246 11.9401 6.70039 11.7167 6.60783C11.4932 6.51528 11.3023 6.35855 11.1679 6.15746C11.0335 5.95636 10.9618 5.71994 10.9618 5.47809C10.9621 5.15388 11.0911 4.84303 11.3203 4.61378C11.5496 4.38453 11.8604 4.25559 12.1846 4.25526ZM24.9685 0.846433C23.923 -0.199083 20.8056 2.21722 18.8931 4.01478C17.5419 2.86907 15.934 2.06651 14.2062 1.67531C12.4784 1.2841 10.6817 1.31581 8.96876 1.76774C7.25583 2.21967 5.67732 3.07847 4.36739 4.27114C3.05746 5.46381 2.05483 6.9551 1.44471 8.61827C0.834594 10.2814 0.63502 12.0673 0.862953 13.8241C1.09089 15.581 1.73959 17.2568 2.75393 18.7092C3.76827 20.1616 5.11826 21.3477 6.68918 22.1666C8.26009 22.9855 10.0055 23.413 11.777 23.4129C12.9395 23.4129 13.8518 23.0138 14.2822 22.318C14.5524 21.8811 14.7542 21.1184 14.1799 19.9698C13.9759 19.5981 13.8673 19.1816 13.8636 18.7576C13.8599 18.3336 13.9613 17.9153 14.1587 17.54C14.5855 16.8487 15.4537 16.4835 16.6683 16.4835C19.6916 16.4835 22.7825 15.9993 22.7825 12.4074C22.7802 10.6072 22.3364 8.83509 21.4899 7.2463C23.3009 5.38352 26.0755 1.95431 24.9685 0.846433ZM24.3925 1.42238C24.6477 1.69752 23.691 3.89657 20.6755 6.91165C19.9426 7.64715 19.1656 8.33742 18.3489 8.97863C17.9613 8.36993 17.445 7.8536 16.8363 7.466C17.4775 6.64929 18.1678 5.87231 18.9033 5.13937C21.9183 2.12429 24.1178 1.16844 24.3925 1.42238ZM15.4965 9.50853C15.7439 9.02425 16.0286 8.55995 16.348 8.1198C16.896 8.45755 17.3574 8.91891 17.6951 9.46695C17.255 9.78634 16.7907 10.071 16.3064 10.3184C16.1039 9.98849 15.8264 9.711 15.4965 9.50853ZM15.8531 11.5922C15.8531 12.5562 14.8488 13.6303 13.4075 13.6303C12.5276 13.6684 11.6656 13.374 10.9928 12.8057C11.8553 12.619 12.2437 11.8898 12.5702 11.2767C13.0048 10.4615 13.3166 9.96179 14.2227 9.96179C14.655 9.96222 15.0694 10.1341 15.3751 10.4398C15.6808 10.7455 15.8527 11.1599 15.8531 11.5922ZM16.6683 15.6683C14.7579 15.6683 13.8721 16.453 13.4654 17.1112C13.1918 17.6038 13.0469 18.1574 13.0443 18.7208C13.0417 19.2842 13.1813 19.8391 13.4503 20.3342C13.7768 20.9864 13.8232 21.5102 13.5889 21.89C13.3141 22.3327 12.6371 22.5977 11.777 22.5977C10.1387 22.6004 8.52392 22.2082 7.06948 21.4541C5.61503 20.7 4.36384 19.6064 3.42197 18.2659C2.48009 16.9254 1.87531 15.3776 1.65888 13.7536C1.44245 12.1297 1.62075 10.4775 2.17868 8.93714C2.73661 7.39677 3.65771 6.01362 4.86391 4.90496C6.0701 3.7963 7.52581 2.9948 9.10766 2.56841C10.6895 2.14202 12.3508 2.10332 13.9508 2.45557C15.5508 2.80783 17.0423 3.54066 18.2988 4.59195C16.648 6.24684 15.3518 7.93312 14.7395 9.20282C14.5697 9.16575 14.3965 9.14689 14.2227 9.14657C12.781 9.14657 12.2654 10.115 11.8512 10.8932C11.4057 11.7296 11.1306 12.1576 10.2135 12.0055C10.1393 11.9932 10.0632 12.0016 9.99354 12.0298C9.92387 12.058 9.86336 12.1049 9.81869 12.1654C9.77402 12.2258 9.74693 12.2974 9.74042 12.3723C9.73391 12.4472 9.74823 12.5224 9.78179 12.5896C9.8197 12.6655 10.7405 14.4455 13.4075 14.4455C15.3579 14.4455 16.6683 12.9699 16.6683 11.5922C16.668 11.4184 16.6492 11.2452 16.6121 11.0754C18.1865 10.2135 19.6258 9.12497 20.8838 7.84467C21.5948 9.26067 21.9658 10.823 21.9673 12.4074C21.9673 14.754 20.4815 15.6683 16.6683 15.6683Z" fill="#758195"/>
</svg>
