<svg width="20" height="28" viewBox="0 0 20 28" fill="none" xmlns="http://www.w3.org/2000/svg">
<path d="M8.26763 3.13042C8.5285 3.13042 8.70239 2.95653 8.70239 2.69566V1.39131C8.70239 1.13044 8.5285 0.956543 8.26763 0.956543C8.00676 0.956543 7.83286 1.13044 7.83286 1.39131V2.69566C7.83286 2.95648 8.00676 3.13042 8.26763 3.13042ZM3.52852 6.17388H4.83286C5.05027 6.17388 5.26763 5.99999 5.26763 5.73912C5.26763 5.47825 5.09373 5.30435 4.83286 5.30435H3.52852C3.26765 5.30435 3.09375 5.47825 3.09375 5.73912C3.09375 5.99999 3.26765 6.17388 3.52852 6.17388ZM10.8763 5.73912C10.8763 5.99999 11.0502 6.17388 11.3111 6.17388H12.6154C12.8328 6.17388 13.0502 5.99999 13.0502 5.73912C13.0502 5.47825 12.8763 5.30435 12.6154 5.30435H11.3111C11.0503 5.3043 10.8763 5.47825 10.8763 5.73912ZM10.4416 3.99995C10.572 3.99995 10.659 3.95649 10.7459 3.86952L11.6155 2.99994C11.7894 2.82604 11.7894 2.56517 11.6155 2.39122C11.4416 2.21728 11.1807 2.21733 11.0068 2.39122L10.1372 3.26081C9.96328 3.4347 9.96328 3.69557 10.1372 3.86952C10.2242 3.95649 10.3111 3.99995 10.4416 3.99995ZM5.39806 3.86952C5.48504 3.95649 5.57196 3.99995 5.70239 3.99995C5.78937 3.99995 5.9198 3.95649 6.00673 3.86952C6.18062 3.69562 6.18062 3.43475 6.00673 3.26081L5.13719 2.39127C4.9633 2.21738 4.70243 2.21738 4.52848 2.39127C4.35459 2.56517 4.35459 2.82604 4.52848 2.99999L5.39806 3.86952Z" fill="#758195"/>
<path d="M17.1801 12.6956C16.7888 12.6956 16.3975 12.8261 16.0931 13.0435V12.913C16.0931 11.8261 15.2236 10.9565 14.1366 10.9565C13.7453 10.9565 13.354 11.0869 13.0497 11.3043V11.1739C13.0497 10.087 12.1801 9.21739 11.0932 9.21739C10.7019 9.21739 10.3105 9.34783 10.0062 9.56523V5.99998C10.0062 4.91304 9.13663 4 8.0497 4C6.96276 4 6.09317 4.91304 6.09317 5.99998V14.6087C5.18013 13.2609 3.35404 12.5652 1.96272 13.1304C1.74531 13.2174 1.57142 13.3478 1.44098 13.3913C0.83227 13.8261 0.875782 14.3043 0.875782 14.4782C0.832321 14.7391 0.875782 14.7826 1.44098 15.4347C2.09316 16.2174 3.48448 17.8695 4.35401 19.5217C4.39747 19.5651 5.39749 21.1739 6.52794 22.4347V23.5652C6.52794 25.6087 8.13662 27.0434 10.441 27.0434H14.3106C16.1367 27.0434 17.5714 26 17.9193 24.3913C18.0157 23.9411 18.1122 23.6815 18.1911 23.5415C18.2162 23.5073 18.2414 23.4718 18.2671 23.4347C18.6584 23 19.1367 21.913 19.1367 20.4347V14.6521C19.1366 13.5652 18.267 12.6956 17.1801 12.6956ZM14.3105 26.1739H10.4409C8.91918 26.1739 7.39747 25.3478 7.39747 23.5652V23.4478C7.52185 23.58 7.65243 23.7062 7.78877 23.826C7.83224 23.8695 7.96267 23.913 8.04964 23.913C8.18008 23.913 8.26705 23.826 8.35397 23.7391C8.52787 23.5652 8.48441 23.3043 8.31051 23.1304C8.00618 22.8695 7.78877 22.5652 7.5279 22.2608C7.48444 22.1738 7.39747 22.0434 7.3105 21.9565C7.27427 21.9082 7.22439 21.8704 7.16783 21.8441C6.11493 20.6375 5.09311 19.0435 5.09311 19.0435C4.18006 17.3478 2.74528 15.6522 2.09311 14.8261C1.96267 14.6957 1.83224 14.5218 1.74526 14.4348C1.74526 14.3478 1.74526 14.2609 1.91916 14.1305L2.267 13.9566C3.22351 13.5653 4.83224 14.087 5.52787 15.3044L6.07799 16.2212C6.08513 16.2815 6.10511 16.3395 6.13658 16.3913L6.57135 17.2608C6.65832 17.3913 6.78876 17.4782 6.96265 17.4782C7.04963 17.4782 7.13655 17.4782 7.13655 17.4348C7.35396 17.3478 7.44088 17.0869 7.31045 16.8696L6.9626 16.1739V5.99998C6.9626 5.39127 7.48434 4.86953 8.04954 4.86953C8.65825 4.86953 9.13648 5.39127 9.13648 5.99998V16.6087C9.13648 16.8696 9.31038 17.0435 9.57125 17.0435C9.83212 17.0435 10.006 16.8696 10.006 16.6087V11.0869C10.0495 10.5217 10.5278 10.0869 11.093 10.0869C11.7017 10.0869 12.1799 10.5652 12.1799 11.1739V16.1739C12.1799 16.4348 12.3538 16.6087 12.6147 16.6087C12.8755 16.6087 13.0494 16.4348 13.0494 16.1739V12.913C13.0494 12.3043 13.5277 11.8261 14.1364 11.8261C14.745 11.8261 15.2233 12.3044 15.2233 12.913V16.2174C15.2233 16.4783 15.3972 16.6522 15.6581 16.6522C15.9189 16.6522 16.0928 16.4783 16.0928 16.2174V14.6521C16.0928 14.0434 16.5711 13.5652 17.1798 13.5652C17.7885 13.5652 18.2667 14.0435 18.2667 14.6521V20.3913C18.2667 21.7099 17.8507 22.5704 17.6291 22.8513C17.6076 22.8697 17.5881 22.8904 17.5711 22.913C17.3102 23.2608 17.2232 23.3913 16.3972 23.6086C16.1798 23.6521 16.0493 23.913 16.0928 24.1304C16.1798 24.3043 16.3537 24.4347 16.5276 24.4347C16.5711 24.4347 16.6146 24.4347 16.6146 24.4782C16.7628 24.4377 16.8954 24.3983 17.015 24.3585C16.6549 25.6864 15.361 26.1739 14.3105 26.1739Z" fill="#758195"/>
</svg>
