<svg width="12" height="16" viewBox="0 0 12 16" fill="none" xmlns="http://www.w3.org/2000/svg">
<path fill-rule="evenodd" clip-rule="evenodd" d="M7.39982 1.59374C8.41413 0.579432 10.0586 0.579432 11.0729 1.59374C12.0872 2.60804 12.0872 4.25255 11.0729 5.26686L6.01027 10.3295C5.72494 10.6149 5.55068 10.7892 5.35647 10.9407C5.12765 11.1191 4.88007 11.2721 4.6181 11.397C4.39576 11.503 4.16195 11.5809 3.77911 11.7085L1.99734 12.3024L1.56957 12.445C1.18667 12.5726 0.764519 12.473 0.479122 12.1876C0.193725 11.9022 0.09407 11.48 0.221703 11.0971L0.958215 8.88757C1.08581 8.50473 1.16373 8.27092 1.26969 8.04858C1.39454 7.78661 1.54755 7.53903 1.72603 7.31021C1.87751 7.11599 2.05179 6.94174 2.33716 6.6564L7.39982 1.59374ZM1.97428 11.256L1.4107 10.6924L1.89631 9.23556C2.0377 8.8114 2.0961 8.63893 2.17242 8.4788C2.26602 8.2824 2.38073 8.09678 2.51454 7.92523C2.62364 7.78535 2.75178 7.65599 3.06793 7.33984L6.99525 3.41252C7.15736 3.81918 7.43164 4.31 7.89416 4.77252C8.35668 5.23504 8.8475 5.50932 9.25416 5.67143L5.32684 9.59875C5.01069 9.9149 4.88133 10.043 4.74145 10.1521C4.5699 10.2859 4.38428 10.4007 4.18788 10.4943C4.02775 10.5706 3.85529 10.629 3.43112 10.7704L1.97428 11.256ZM10.051 4.87461C9.96843 4.85649 9.8652 4.82922 9.74785 4.78851C9.42517 4.67655 9.00072 4.46486 8.60127 4.06541C8.20182 3.66597 7.99013 3.24151 7.87818 2.91883C7.83746 2.80148 7.81019 2.69826 7.79207 2.6157L8.10693 2.30084C8.73071 1.67706 9.74206 1.67706 10.3658 2.30084C10.9896 2.92462 10.9896 3.93597 10.3658 4.55975L10.051 4.87461ZM0.167006 14.6663C0.167006 14.3902 0.390863 14.1663 0.667006 14.1663H11.3337V15.1663H0.667006C0.390863 15.1663 0.167006 14.9425 0.167006 14.6663Z" fill="white"/>
</svg>
