<svg width="20" height="20" viewBox="0 0 20 20" fill="none" xmlns="http://www.w3.org/2000/svg">
<path fill-rule="evenodd" clip-rule="evenodd" d="M11.749 1.9929C13.0169 0.725022 15.0726 0.725022 16.3404 1.9929C17.6083 3.26078 17.6083 5.31642 16.3404 6.5843L10.0121 12.9127C9.65544 13.2694 9.43762 13.4872 9.19486 13.6765C8.90883 13.8996 8.59935 14.0909 8.2719 14.247C7.99397 14.3794 7.70171 14.4768 7.22316 14.6363L4.99595 15.3787L4.46123 15.557C3.9826 15.7165 3.45492 15.5919 3.09817 15.2352C2.74142 14.8784 2.61686 14.3507 2.7764 13.8721L3.69704 11.1102C3.85653 10.6316 3.95393 10.3394 4.08638 10.0615C4.24244 9.734 4.43371 9.42452 4.6568 9.13849C4.84616 8.89572 5.064 8.67791 5.42071 8.32123L11.749 1.9929ZM4.96711 14.0707L4.26264 13.3662L4.86966 11.5452C5.04639 11.015 5.11939 10.7994 5.21479 10.5992C5.33179 10.3537 5.47519 10.1217 5.64244 9.90727C5.77882 9.73243 5.93899 9.57072 6.33418 9.17553L11.2433 4.26639C11.446 4.77471 11.7888 5.38823 12.367 5.96638C12.9451 6.54454 13.5586 6.88739 14.067 7.09002L9.15782 11.9992C8.76263 12.3944 8.60093 12.5545 8.42608 12.6909C8.21164 12.8582 7.97962 13.0016 7.73412 13.1186C7.53395 13.214 7.31838 13.287 6.78817 13.4637L4.96711 14.0707ZM15.063 6.094C14.9598 6.07134 14.8308 6.03726 14.6841 5.98636C14.2807 5.84643 13.7502 5.58181 13.2508 5.0825C12.7515 4.58319 12.4869 4.05262 12.347 3.64927C12.2961 3.50258 12.262 3.37355 12.2394 3.27036L12.6329 2.87679C13.4127 2.09706 14.6768 2.09706 15.4566 2.87679C16.2363 3.65651 16.2363 4.9207 15.4566 5.70042L15.063 6.094ZM2.70802 18.3337C2.70802 17.9885 2.98785 17.7087 3.33302 17.7087H16.6664V18.9587H3.33302C2.98785 18.9587 2.70802 18.6788 2.70802 18.3337Z" fill="#77777A"/>
</svg>
