<svg width="32" height="33" viewBox="0 0 32 33" fill="none" xmlns="http://www.w3.org/2000/svg">
<path fill-rule="evenodd" clip-rule="evenodd" d="M0 16.1133C0 7.27673 7.16344 0.113281 16 0.113281C24.8366 0.113281 32 7.27673 32 16.1133C32 24.9498 24.8366 32.1133 16 32.1133C7.16344 32.1133 0 24.9498 0 16.1133ZM16 8.11328C20.4 8.11328 24 11.7133 24 16.1133C24 20.1133 21.1 23.5133 17.1 24.1133V18.4133H19L19.4 16.1133H17.2V14.6133C17.2 14.0133 17.5 13.4133 18.5 13.4133H19.5V11.4133C19.5 11.4133 18.6 11.2133 17.7 11.2133C15.9 11.2133 14.7 12.3133 14.7 14.3133V16.1133H12.7V18.4133H14.7V24.0133C10.9 23.4133 8 20.1133 8 16.1133C8 11.7133 11.6 8.11328 16 8.11328Z" fill="#E0E0E0"/>
</svg>
