<svg width="16" height="16" viewBox="0 0 16 16" fill="none" xmlns="http://www.w3.org/2000/svg">
<path fill-rule="evenodd" clip-rule="evenodd" d="M3.65241 1.33301C3.66219 1.33301 3.672 1.33301 3.68185 1.33301L12.4803 1.33301C12.898 1.33299 13.2551 1.33297 13.5406 1.37227C13.8433 1.41396 14.1358 1.50757 14.3761 1.75369C14.6207 2.00415 14.7178 2.31664 14.7605 2.64177C14.7997 2.94043 14.7997 3.3118 14.7997 3.73547L14.7997 4.26644C14.7997 4.60046 14.7997 4.88923 14.7768 5.13002C14.7523 5.38914 14.6985 5.63224 14.5695 5.86563C14.4415 6.09727 14.269 6.26541 14.0702 6.41613C13.883 6.55812 13.6437 6.70513 13.3624 6.87803L11.5194 8.01061C11.0998 8.26842 10.9538 8.36125 10.8562 8.45368C10.6323 8.66594 10.504 8.90147 10.4437 9.19655C10.418 9.3227 10.4152 9.48157 10.4152 9.96412L10.4152 11.8322C10.4152 12.4484 10.4152 12.9716 10.3571 13.3738C10.2954 13.8015 10.152 14.2117 9.77615 14.4683C9.40888 14.7191 9.00431 14.696 8.61114 14.5941C8.23248 14.4959 7.76585 14.2968 7.20595 14.0578L7.15153 14.0346C6.88926 13.9227 6.65961 13.8247 6.4778 13.7222C6.28241 13.6121 6.10096 13.475 5.96213 13.2618C5.82174 13.0461 5.76545 12.8148 5.74035 12.5784C5.71746 12.3628 5.71748 12.1041 5.7175 11.8155L5.7175 9.96411C5.7175 9.48157 5.71472 9.3227 5.68895 9.19655C5.62868 8.90147 5.50042 8.66594 5.27645 8.45368C5.17892 8.36125 5.03284 8.26842 4.61332 8.01061L2.77031 6.87803C2.48894 6.70513 2.2497 6.55812 2.06245 6.41613C1.86368 6.26541 1.69123 6.09727 1.56318 5.86563C1.43415 5.63224 1.38043 5.38914 1.35584 5.13002C1.33299 4.88923 1.333 4.60046 1.33301 4.26643L1.33301 3.7704C1.33301 3.75871 1.33301 3.74707 1.33301 3.73546C1.33298 3.31179 1.33295 2.94043 1.37216 2.64177C1.41484 2.31664 1.51199 2.00415 1.75654 1.75369C1.99684 1.50757 2.28942 1.41396 2.59213 1.37227C2.87755 1.33297 3.23467 1.33299 3.65241 1.33301ZM2.70971 2.38985C2.50073 2.41863 2.43427 2.46594 2.39939 2.50167C2.36874 2.53305 2.32831 2.58829 2.30219 2.78726C2.27368 3.0045 2.27255 3.30135 2.27255 3.7704V4.24207C2.27255 4.60734 2.27312 4.84262 2.29037 5.02434C2.30643 5.19358 2.334 5.27496 2.36758 5.3357C2.40214 5.3982 2.45951 5.46841 2.59846 5.57377C2.74485 5.68478 2.94485 5.8083 3.24962 5.99559L5.07421 7.11685C5.09129 7.12735 5.10812 7.13768 5.1247 7.14786C5.47465 7.36278 5.71298 7.50916 5.89238 7.67918C6.26278 8.03022 6.50043 8.45661 6.60597 8.97336C6.65726 9.2245 6.65718 9.50612 6.65705 9.90364C6.65705 9.9235 6.65704 9.94366 6.65704 9.96411V11.7894C6.65704 12.1122 6.65777 12.3108 6.67364 12.4603C6.68799 12.5955 6.7106 12.6409 6.728 12.6677C6.74697 12.6968 6.78454 12.7408 6.90885 12.8109C7.0419 12.8859 7.22519 12.9648 7.51466 13.0883C8.11659 13.3452 8.52147 13.5167 8.82825 13.5962C9.12802 13.6739 9.22681 13.6336 9.27792 13.5987C9.32046 13.5697 9.38625 13.5106 9.42908 13.2141C9.47424 12.9013 9.47564 12.4602 9.47564 11.7894V9.96412C9.47564 9.94366 9.47564 9.92351 9.47563 9.90364C9.4755 9.50612 9.47542 9.2245 9.52671 8.97335C9.63225 8.45661 9.8699 8.03022 10.2403 7.67918C10.4197 7.50916 10.658 7.36279 11.008 7.14787C11.0245 7.13769 11.0414 7.12735 11.0585 7.11685L12.8831 5.99559C13.1878 5.8083 13.3878 5.68478 13.5342 5.57377C13.6732 5.46841 13.7305 5.3982 13.7651 5.3357C13.7987 5.27496 13.8263 5.19358 13.8423 5.02434C13.8596 4.84262 13.8601 4.60734 13.8601 4.24207V3.7704C13.8601 3.30135 13.859 3.0045 13.8305 2.78726C13.8044 2.5883 13.7639 2.53305 13.7333 2.50167C13.6984 2.46594 13.632 2.41863 13.423 2.38985C13.2034 2.35962 12.9062 2.35866 12.4508 2.35866H3.68185C3.22647 2.35866 2.9293 2.35962 2.70971 2.38985Z" fill="#758195"/>
</svg>
