<svg width="22" height="20" viewBox="0 0 22 20" fill="none" xmlns="http://www.w3.org/2000/svg">
<path fill-rule="evenodd" clip-rule="evenodd" d="M21.75 7.26043C21.75 4.07929 20.2578 1.60642 17.9755 0.656938C15.8461 -0.228921 13.2743 0.309549 11 2.43676C8.72568 0.309549 6.15386 -0.228872 4.02447 0.657016C1.74218 1.60652 0.25 4.07939 0.25 7.26046C0.25 9.38627 1.37926 11.4794 2.7862 13.2825C4.20736 15.1039 5.99532 16.735 7.48775 17.952L7.62247 18.062C8.82232 19.0418 9.68952 19.75 11 19.75C12.3105 19.75 13.1777 19.0418 14.3775 18.062L14.5123 17.952C16.0047 16.735 17.7926 15.104 19.2138 13.2826C20.6207 11.4794 21.75 9.38627 21.75 7.26043ZM11.5491 4.00969C13.6472 1.75481 15.827 1.38777 17.3994 2.04187C18.9921 2.70447 20.25 4.53048 20.25 7.26043C20.25 7.90535 20.1108 8.57251 19.8589 9.25011H17.6361L17.5241 9.24999C16.9784 9.24909 16.4937 9.2483 16.0527 9.44474C15.6116 9.64117 15.2879 10.002 14.9233 10.4084L14.8485 10.4918L13.8192 11.6354C13.7426 11.7206 13.68 11.7901 13.6247 11.8493C13.5723 11.7879 13.5128 11.7159 13.4401 11.6278L9.88886 7.32321C9.74932 7.15394 9.60003 6.97284 9.45398 6.83843C9.28389 6.68191 9.03246 6.50584 8.68096 6.48473C8.32945 6.46362 8.05875 6.60832 7.87115 6.74336C7.71006 6.85933 7.54016 7.02126 7.38136 7.17261L5.85172 8.62942C5.37995 9.07873 5.28151 9.15528 5.17854 9.19647C5.07557 9.23766 4.9515 9.25011 4.3 9.25011H2.14115C1.88924 8.57252 1.75 7.90536 1.75 7.26046C1.75 4.5306 3.0079 2.70457 4.60065 2.04194C6.17297 1.38781 8.35285 1.75482 10.4509 4.00969C10.5928 4.16218 10.7917 4.2488 11 4.2488C11.2083 4.2488 11.4072 4.16218 11.5491 4.00969ZM2.86493 10.7501C3.18003 11.2875 3.55224 11.8259 3.96881 12.3598C5.29293 14.0568 6.98585 15.6072 8.43571 16.7895C9.82874 17.9255 10.2785 18.25 11 18.25C11.7216 18.25 12.1713 17.9255 13.5643 16.7895C15.0142 15.6072 16.7071 14.0569 18.0312 12.3598C18.4478 11.8259 18.82 11.2875 19.1351 10.7501H17.6361C16.9119 10.7501 16.7746 10.7653 16.6629 10.815C16.5513 10.8647 16.4481 10.9567 15.9634 11.4952L14.9086 12.6672C14.7507 12.8429 14.5839 13.0284 14.4235 13.1628C14.2384 13.318 13.9627 13.4921 13.5896 13.4841C13.2166 13.4761 12.9488 13.2905 12.7704 13.1274C12.616 12.9863 12.4574 12.7939 12.3074 12.6118L8.75487 8.30576C8.68734 8.22391 8.63239 8.15736 8.5839 8.10054C8.52897 8.15114 8.46645 8.21064 8.38961 8.28382L6.81346 9.78504C6.4575 10.1251 6.14165 10.4268 5.73563 10.5892C5.32961 10.7516 4.89282 10.7509 4.40054 10.7502L2.86493 10.7501Z" fill="#758195"/>
</svg>
