<svg width="18" height="19" viewBox="0 0 18 19" fill="none" xmlns="http://www.w3.org/2000/svg">
<path d="M6.28325 7.0863C6.80525 8.17352 7.51684 9.1925 8.41803 10.0937C9.31921 10.9949 10.3382 11.7065 11.4254 12.2285C11.5189 12.2734 11.5657 12.2958 11.6249 12.3131C11.8351 12.3743 12.0933 12.3303 12.2714 12.2028C12.3215 12.1669 12.3644 12.1241 12.4501 12.0383C12.7123 11.7761 12.8434 11.645 12.9752 11.5593C13.4724 11.2361 14.1133 11.2361 14.6105 11.5593C14.7423 11.645 14.8734 11.7761 15.1356 12.0383L15.2818 12.1845C15.6804 12.5831 15.8797 12.7824 15.9879 12.9964C16.2032 13.4221 16.2032 13.9248 15.9879 14.3504C15.8797 14.5645 15.6804 14.7638 15.2818 15.1623L15.1636 15.2806C14.7664 15.6778 14.5677 15.8764 14.2977 16.0281C13.9981 16.1964 13.5327 16.3174 13.1891 16.3164C12.8793 16.3155 12.6677 16.2554 12.2443 16.1352C9.9693 15.4895 7.82253 14.2712 6.03154 12.4802C4.24056 10.6892 3.0222 8.54241 2.37647 6.26737C2.25632 5.84403 2.19624 5.63236 2.19532 5.32265C2.1943 4.97899 2.31532 4.51362 2.48363 4.21399C2.63532 3.94396 2.83393 3.74536 3.23114 3.34814L3.34937 3.22991C3.74795 2.83133 3.94724 2.63204 4.16128 2.52378C4.58695 2.30848 5.08965 2.30848 5.51532 2.52378C5.72936 2.63204 5.92865 2.83133 6.32723 3.22991L6.47338 3.37606C6.73559 3.63827 6.86669 3.76937 6.9524 3.90121C7.27565 4.39837 7.27565 5.03931 6.9524 5.53648C6.86669 5.66831 6.73558 5.79941 6.47338 6.06162C6.38765 6.14735 6.34478 6.19022 6.3089 6.24033C6.18139 6.4184 6.13736 6.67659 6.19866 6.88686C6.2159 6.94603 6.23835 6.99279 6.28325 7.0863Z" stroke="url(#paint0_linear_8598_30916)" stroke-width="1.5" stroke-linecap="round" stroke-linejoin="round"/>
<defs>
<linearGradient id="paint0_linear_8598_30916" x1="9.17236" y1="2.3623" x2="9.17236" y2="16.3164" gradientUnits="userSpaceOnUse">
<stop stop-color="#4F35DF"/>
<stop offset="1" stop-color="#2702F5"/>
</linearGradient>
</defs>
</svg>
