<svg width="18" height="19" viewBox="0 0 18 19" fill="none" xmlns="http://www.w3.org/2000/svg">
<path d="M1.5 6.01367L7.62369 10.3003C8.11957 10.6474 8.36751 10.8209 8.6372 10.8882C8.87542 10.9475 9.12458 10.9475 9.3628 10.8882C9.63249 10.8209 9.88043 10.6474 10.3763 10.3003L16.5 6.01367M5.1 15.7637H12.9C14.1601 15.7637 14.7902 15.7637 15.2715 15.5184C15.6948 15.3027 16.039 14.9585 16.2548 14.5352C16.5 14.0538 16.5 13.4238 16.5 12.1637V7.36367C16.5 6.10355 16.5 5.47349 16.2548 4.99219C16.039 4.56883 15.6948 4.22462 15.2715 4.00891C14.7902 3.76367 14.1601 3.76367 12.9 3.76367H5.1C3.83988 3.76367 3.20982 3.76367 2.72852 4.00891C2.30516 4.22462 1.96095 4.56883 1.74524 4.99219C1.5 5.47349 1.5 6.10355 1.5 7.36367V12.1637C1.5 13.4238 1.5 14.0538 1.74524 14.5352C1.96095 14.9585 2.30516 15.3027 2.72852 15.5184C3.20982 15.7637 3.83988 15.7637 5.1 15.7637Z" stroke="url(#paint0_linear_8601_8623)" stroke-width="1.5" stroke-linecap="round" stroke-linejoin="round"/>
<defs>
<linearGradient id="paint0_linear_8601_8623" x1="9" y1="3.76367" x2="9" y2="15.7637" gradientUnits="userSpaceOnUse">
<stop stop-color="#4F35DF"/>
<stop offset="1" stop-color="#2702F5"/>
</linearGradient>
</defs>
</svg>
