<svg width="18" height="19" viewBox="0 0 18 19" fill="none" xmlns="http://www.w3.org/2000/svg">
<g clip-path="url(#clip0_8601_8626)">
<path d="M9 10.5137C10.2426 10.5137 11.25 9.50631 11.25 8.26367C11.25 7.02103 10.2426 6.01367 9 6.01367C7.75736 6.01367 6.75 7.02103 6.75 8.26367C6.75 9.50631 7.75736 10.5137 9 10.5137Z" stroke="url(#paint0_linear_8601_8626)" stroke-width="1.5" stroke-linecap="round" stroke-linejoin="round"/>
<path d="M9 17.2637C12 14.2637 15 11.5774 15 8.26367C15 4.94996 12.3137 2.26367 9 2.26367C5.68629 2.26367 3 4.94996 3 8.26367C3 11.5774 6 14.2637 9 17.2637Z" stroke="url(#paint1_linear_8601_8626)" stroke-width="1.5" stroke-linecap="round" stroke-linejoin="round"/>
</g>
<defs>
<linearGradient id="paint0_linear_8601_8626" x1="9" y1="2.26367" x2="9" y2="17.2637" gradientUnits="userSpaceOnUse">
<stop stop-color="#4F35DF"/>
<stop offset="1" stop-color="#2702F5"/>
</linearGradient>
<linearGradient id="paint1_linear_8601_8626" x1="9" y1="2.26367" x2="9" y2="17.2637" gradientUnits="userSpaceOnUse">
<stop stop-color="#4F35DF"/>
<stop offset="1" stop-color="#2702F5"/>
</linearGradient>
<clipPath id="clip0_8601_8626">
<rect width="18" height="18" fill="white" transform="translate(0 0.763672)"/>
</clipPath>
</defs>
</svg>
