<svg width="22" height="22" viewBox="0 0 22 22" fill="none" xmlns="http://www.w3.org/2000/svg">
<mask id="path-1-outside-1_5327_43795" maskUnits="userSpaceOnUse" x="0.0878906" y="-0.200195" width="22" height="22" fill="black">
<rect fill="white" x="0.0878906" y="-0.200195" width="22" height="22"/>
<path d="M13.0879 20.652H1.8705C1.71398 20.652 1.60963 20.5476 1.60963 20.3911V1.6085C1.60963 1.45198 1.71398 1.34763 1.8705 1.34763H11.5227V6.30415C11.5227 6.46067 11.627 6.56502 11.7835 6.56502H16.7401V11.2607C16.7401 11.4172 16.8444 11.5215 17.0009 11.5215C17.1575 11.5215 17.2618 11.4172 17.2618 11.2607V6.27807C17.2618 6.25198 17.2618 6.22589 17.2357 6.1998V6.17372C17.2357 6.14763 17.2096 6.12154 17.1835 6.09546L11.9662 0.878066C11.9401 0.851979 11.914 0.825892 11.8879 0.825892H11.8618C11.8357 0.825892 11.8096 0.825892 11.7835 0.799805H1.8705C1.42702 0.799805 1.08789 1.13894 1.08789 1.58241V20.3911C1.08789 20.8346 1.42702 21.1737 1.8705 21.1737H13.0879C13.2444 21.1737 13.3488 21.0694 13.3488 20.9128C13.3488 20.7563 13.2444 20.652 13.0879 20.652ZM16.3748 6.04328H12.0444V1.71285L16.3748 6.04328ZM2.91398 4.47807C2.91398 4.32154 3.01833 4.2172 3.17485 4.2172H9.69659C9.85311 4.2172 9.95746 4.32154 9.95746 4.47807C9.95746 4.63459 9.85311 4.73894 9.69659 4.73894H3.17485C3.01833 4.73894 2.91398 4.63459 2.91398 4.47807ZM2.91398 6.30415C2.91398 6.14763 3.01833 6.04328 3.17485 6.04328H9.69659C9.85311 6.04328 9.95746 6.14763 9.95746 6.30415C9.95746 6.46067 9.85311 6.56502 9.69659 6.56502H3.17485C3.01833 6.56502 2.91398 6.46067 2.91398 6.30415ZM14.6531 8.13024C14.6531 8.28676 14.5488 8.39111 14.3922 8.39111H3.17485C3.01833 8.39111 2.91398 8.28676 2.91398 8.13024C2.91398 7.97372 3.01833 7.86937 3.17485 7.86937H14.3922C14.5488 7.86937 14.6531 7.97372 14.6531 8.13024ZM3.69659 9.69546C3.25311 9.69546 2.91398 10.0346 2.91398 10.4781V13.0868C2.91398 13.5302 3.25311 13.8694 3.69659 13.8694H5.52267C5.96615 13.8694 6.30528 13.5302 6.30528 13.0868V10.4781C6.30528 10.0346 5.96615 9.69546 5.52267 9.69546H3.69659ZM5.78354 10.4781V13.0868C5.78354 13.2433 5.67919 13.3476 5.52267 13.3476H3.69659C3.54006 13.3476 3.43572 13.2433 3.43572 13.0868V10.4781C3.43572 10.3215 3.54006 10.2172 3.69659 10.2172H5.52267C5.67919 10.2172 5.78354 10.3215 5.78354 10.4781ZM14.6531 9.95633C14.6531 10.1128 14.5488 10.2172 14.3922 10.2172H7.60963C7.45311 10.2172 7.34876 10.1128 7.34876 9.95633C7.34876 9.7998 7.45311 9.69546 7.60963 9.69546H14.3922C14.5488 9.69546 14.6531 9.7998 14.6531 9.95633ZM14.6531 11.7824C14.6531 11.9389 14.5488 12.0433 14.3922 12.0433H7.60963C7.45311 12.0433 7.34876 11.9389 7.34876 11.7824C7.34876 11.6259 7.45311 11.5215 7.60963 11.5215H14.3922C14.5488 11.5215 14.6531 11.6259 14.6531 11.7824ZM17.0009 12.8259C16.1662 12.8259 15.3314 13.0868 14.6531 13.5563C14.627 13.4259 14.5227 13.3476 14.3922 13.3476H7.60963C7.45311 13.3476 7.34876 13.452 7.34876 13.6085C7.34876 13.765 7.45311 13.8694 7.60963 13.8694H14.2618C13.8444 14.2346 13.5053 14.6781 13.2705 15.1737H3.69659C3.25311 15.1737 2.91398 15.5128 2.91398 15.9563V17.7824C2.91398 18.2259 3.25311 18.565 3.69659 18.565H13.1401C14.0009 20.7042 16.427 21.7215 18.5662 20.8607C20.7053 19.9998 21.7488 17.5737 20.8618 15.4346C20.2357 13.8694 18.6966 12.8259 17.0009 12.8259ZM3.69659 18.0433C3.54006 18.0433 3.43572 17.9389 3.43572 17.7824V15.9563C3.43572 15.7998 3.54006 15.6955 3.69659 15.6955H13.0357C12.7748 16.452 12.7488 17.2607 12.9575 18.0433H3.69659ZM17.0009 20.652C14.9922 20.652 13.3488 19.0085 13.3488 16.9998C13.3488 14.9911 14.9922 13.3476 17.0009 13.3476C19.0096 13.3476 20.6531 14.9911 20.6531 16.9998C20.6531 19.0085 19.0096 20.652 17.0009 20.652ZM19.3488 16.9998C19.3488 17.1563 19.2444 17.2607 19.0879 17.2607H17.2618V19.0868C17.2618 19.2433 17.1575 19.3476 17.0009 19.3476C16.8444 19.3476 16.7401 19.2433 16.7401 19.0868V17.2607H14.914C14.7575 17.2607 14.6531 17.1563 14.6531 16.9998C14.6531 16.8433 14.7575 16.7389 14.914 16.7389H16.7401V14.9128C16.7401 14.7563 16.8444 14.652 17.0009 14.652C17.1575 14.652 17.2618 14.7563 17.2618 14.9128V16.7389H19.0879C19.2444 16.7389 19.3488 16.8433 19.3488 16.9998Z"/>
</mask>
<path d="M13.0879 20.652H1.8705C1.71398 20.652 1.60963 20.5476 1.60963 20.3911V1.6085C1.60963 1.45198 1.71398 1.34763 1.8705 1.34763H11.5227V6.30415C11.5227 6.46067 11.627 6.56502 11.7835 6.56502H16.7401V11.2607C16.7401 11.4172 16.8444 11.5215 17.0009 11.5215C17.1575 11.5215 17.2618 11.4172 17.2618 11.2607V6.27807C17.2618 6.25198 17.2618 6.22589 17.2357 6.1998V6.17372C17.2357 6.14763 17.2096 6.12154 17.1835 6.09546L11.9662 0.878066C11.9401 0.851979 11.914 0.825892 11.8879 0.825892H11.8618C11.8357 0.825892 11.8096 0.825892 11.7835 0.799805H1.8705C1.42702 0.799805 1.08789 1.13894 1.08789 1.58241V20.3911C1.08789 20.8346 1.42702 21.1737 1.8705 21.1737H13.0879C13.2444 21.1737 13.3488 21.0694 13.3488 20.9128C13.3488 20.7563 13.2444 20.652 13.0879 20.652ZM16.3748 6.04328H12.0444V1.71285L16.3748 6.04328ZM2.91398 4.47807C2.91398 4.32154 3.01833 4.2172 3.17485 4.2172H9.69659C9.85311 4.2172 9.95746 4.32154 9.95746 4.47807C9.95746 4.63459 9.85311 4.73894 9.69659 4.73894H3.17485C3.01833 4.73894 2.91398 4.63459 2.91398 4.47807ZM2.91398 6.30415C2.91398 6.14763 3.01833 6.04328 3.17485 6.04328H9.69659C9.85311 6.04328 9.95746 6.14763 9.95746 6.30415C9.95746 6.46067 9.85311 6.56502 9.69659 6.56502H3.17485C3.01833 6.56502 2.91398 6.46067 2.91398 6.30415ZM14.6531 8.13024C14.6531 8.28676 14.5488 8.39111 14.3922 8.39111H3.17485C3.01833 8.39111 2.91398 8.28676 2.91398 8.13024C2.91398 7.97372 3.01833 7.86937 3.17485 7.86937H14.3922C14.5488 7.86937 14.6531 7.97372 14.6531 8.13024ZM3.69659 9.69546C3.25311 9.69546 2.91398 10.0346 2.91398 10.4781V13.0868C2.91398 13.5302 3.25311 13.8694 3.69659 13.8694H5.52267C5.96615 13.8694 6.30528 13.5302 6.30528 13.0868V10.4781C6.30528 10.0346 5.96615 9.69546 5.52267 9.69546H3.69659ZM5.78354 10.4781V13.0868C5.78354 13.2433 5.67919 13.3476 5.52267 13.3476H3.69659C3.54006 13.3476 3.43572 13.2433 3.43572 13.0868V10.4781C3.43572 10.3215 3.54006 10.2172 3.69659 10.2172H5.52267C5.67919 10.2172 5.78354 10.3215 5.78354 10.4781ZM14.6531 9.95633C14.6531 10.1128 14.5488 10.2172 14.3922 10.2172H7.60963C7.45311 10.2172 7.34876 10.1128 7.34876 9.95633C7.34876 9.7998 7.45311 9.69546 7.60963 9.69546H14.3922C14.5488 9.69546 14.6531 9.7998 14.6531 9.95633ZM14.6531 11.7824C14.6531 11.9389 14.5488 12.0433 14.3922 12.0433H7.60963C7.45311 12.0433 7.34876 11.9389 7.34876 11.7824C7.34876 11.6259 7.45311 11.5215 7.60963 11.5215H14.3922C14.5488 11.5215 14.6531 11.6259 14.6531 11.7824ZM17.0009 12.8259C16.1662 12.8259 15.3314 13.0868 14.6531 13.5563C14.627 13.4259 14.5227 13.3476 14.3922 13.3476H7.60963C7.45311 13.3476 7.34876 13.452 7.34876 13.6085C7.34876 13.765 7.45311 13.8694 7.60963 13.8694H14.2618C13.8444 14.2346 13.5053 14.6781 13.2705 15.1737H3.69659C3.25311 15.1737 2.91398 15.5128 2.91398 15.9563V17.7824C2.91398 18.2259 3.25311 18.565 3.69659 18.565H13.1401C14.0009 20.7042 16.427 21.7215 18.5662 20.8607C20.7053 19.9998 21.7488 17.5737 20.8618 15.4346C20.2357 13.8694 18.6966 12.8259 17.0009 12.8259ZM3.69659 18.0433C3.54006 18.0433 3.43572 17.9389 3.43572 17.7824V15.9563C3.43572 15.7998 3.54006 15.6955 3.69659 15.6955H13.0357C12.7748 16.452 12.7488 17.2607 12.9575 18.0433H3.69659ZM17.0009 20.652C14.9922 20.652 13.3488 19.0085 13.3488 16.9998C13.3488 14.9911 14.9922 13.3476 17.0009 13.3476C19.0096 13.3476 20.6531 14.9911 20.6531 16.9998C20.6531 19.0085 19.0096 20.652 17.0009 20.652ZM19.3488 16.9998C19.3488 17.1563 19.2444 17.2607 19.0879 17.2607H17.2618V19.0868C17.2618 19.2433 17.1575 19.3476 17.0009 19.3476C16.8444 19.3476 16.7401 19.2433 16.7401 19.0868V17.2607H14.914C14.7575 17.2607 14.6531 17.1563 14.6531 16.9998C14.6531 16.8433 14.7575 16.7389 14.914 16.7389H16.7401V14.9128C16.7401 14.7563 16.8444 14.652 17.0009 14.652C17.1575 14.652 17.2618 14.7563 17.2618 14.9128V16.7389H19.0879C19.2444 16.7389 19.3488 16.8433 19.3488 16.9998Z" fill="#758195"/>
<path d="M13.0879 20.652H1.8705C1.71398 20.652 1.60963 20.5476 1.60963 20.3911V1.6085C1.60963 1.45198 1.71398 1.34763 1.8705 1.34763H11.5227V6.30415C11.5227 6.46067 11.627 6.56502 11.7835 6.56502H16.7401V11.2607C16.7401 11.4172 16.8444 11.5215 17.0009 11.5215C17.1575 11.5215 17.2618 11.4172 17.2618 11.2607V6.27807C17.2618 6.25198 17.2618 6.22589 17.2357 6.1998V6.17372C17.2357 6.14763 17.2096 6.12154 17.1835 6.09546L11.9662 0.878066C11.9401 0.851979 11.914 0.825892 11.8879 0.825892H11.8618C11.8357 0.825892 11.8096 0.825892 11.7835 0.799805H1.8705C1.42702 0.799805 1.08789 1.13894 1.08789 1.58241V20.3911C1.08789 20.8346 1.42702 21.1737 1.8705 21.1737H13.0879C13.2444 21.1737 13.3488 21.0694 13.3488 20.9128C13.3488 20.7563 13.2444 20.652 13.0879 20.652ZM16.3748 6.04328H12.0444V1.71285L16.3748 6.04328ZM2.91398 4.47807C2.91398 4.32154 3.01833 4.2172 3.17485 4.2172H9.69659C9.85311 4.2172 9.95746 4.32154 9.95746 4.47807C9.95746 4.63459 9.85311 4.73894 9.69659 4.73894H3.17485C3.01833 4.73894 2.91398 4.63459 2.91398 4.47807ZM2.91398 6.30415C2.91398 6.14763 3.01833 6.04328 3.17485 6.04328H9.69659C9.85311 6.04328 9.95746 6.14763 9.95746 6.30415C9.95746 6.46067 9.85311 6.56502 9.69659 6.56502H3.17485C3.01833 6.56502 2.91398 6.46067 2.91398 6.30415ZM14.6531 8.13024C14.6531 8.28676 14.5488 8.39111 14.3922 8.39111H3.17485C3.01833 8.39111 2.91398 8.28676 2.91398 8.13024C2.91398 7.97372 3.01833 7.86937 3.17485 7.86937H14.3922C14.5488 7.86937 14.6531 7.97372 14.6531 8.13024ZM3.69659 9.69546C3.25311 9.69546 2.91398 10.0346 2.91398 10.4781V13.0868C2.91398 13.5302 3.25311 13.8694 3.69659 13.8694H5.52267C5.96615 13.8694 6.30528 13.5302 6.30528 13.0868V10.4781C6.30528 10.0346 5.96615 9.69546 5.52267 9.69546H3.69659ZM5.78354 10.4781V13.0868C5.78354 13.2433 5.67919 13.3476 5.52267 13.3476H3.69659C3.54006 13.3476 3.43572 13.2433 3.43572 13.0868V10.4781C3.43572 10.3215 3.54006 10.2172 3.69659 10.2172H5.52267C5.67919 10.2172 5.78354 10.3215 5.78354 10.4781ZM14.6531 9.95633C14.6531 10.1128 14.5488 10.2172 14.3922 10.2172H7.60963C7.45311 10.2172 7.34876 10.1128 7.34876 9.95633C7.34876 9.7998 7.45311 9.69546 7.60963 9.69546H14.3922C14.5488 9.69546 14.6531 9.7998 14.6531 9.95633ZM14.6531 11.7824C14.6531 11.9389 14.5488 12.0433 14.3922 12.0433H7.60963C7.45311 12.0433 7.34876 11.9389 7.34876 11.7824C7.34876 11.6259 7.45311 11.5215 7.60963 11.5215H14.3922C14.5488 11.5215 14.6531 11.6259 14.6531 11.7824ZM17.0009 12.8259C16.1662 12.8259 15.3314 13.0868 14.6531 13.5563C14.627 13.4259 14.5227 13.3476 14.3922 13.3476H7.60963C7.45311 13.3476 7.34876 13.452 7.34876 13.6085C7.34876 13.765 7.45311 13.8694 7.60963 13.8694H14.2618C13.8444 14.2346 13.5053 14.6781 13.2705 15.1737H3.69659C3.25311 15.1737 2.91398 15.5128 2.91398 15.9563V17.7824C2.91398 18.2259 3.25311 18.565 3.69659 18.565H13.1401C14.0009 20.7042 16.427 21.7215 18.5662 20.8607C20.7053 19.9998 21.7488 17.5737 20.8618 15.4346C20.2357 13.8694 18.6966 12.8259 17.0009 12.8259ZM3.69659 18.0433C3.54006 18.0433 3.43572 17.9389 3.43572 17.7824V15.9563C3.43572 15.7998 3.54006 15.6955 3.69659 15.6955H13.0357C12.7748 16.452 12.7488 17.2607 12.9575 18.0433H3.69659ZM17.0009 20.652C14.9922 20.652 13.3488 19.0085 13.3488 16.9998C13.3488 14.9911 14.9922 13.3476 17.0009 13.3476C19.0096 13.3476 20.6531 14.9911 20.6531 16.9998C20.6531 19.0085 19.0096 20.652 17.0009 20.652ZM19.3488 16.9998C19.3488 17.1563 19.2444 17.2607 19.0879 17.2607H17.2618V19.0868C17.2618 19.2433 17.1575 19.3476 17.0009 19.3476C16.8444 19.3476 16.7401 19.2433 16.7401 19.0868V17.2607H14.914C14.7575 17.2607 14.6531 17.1563 14.6531 16.9998C14.6531 16.8433 14.7575 16.7389 14.914 16.7389H16.7401V14.9128C16.7401 14.7563 16.8444 14.652 17.0009 14.652C17.1575 14.652 17.2618 14.7563 17.2618 14.9128V16.7389H19.0879C19.2444 16.7389 19.3488 16.8433 19.3488 16.9998Z" stroke="#758195" stroke-width="0.2" mask="url(#path-1-outside-1_5327_43795)"/>
</svg>
