<svg width="57" height="58" viewBox="0 0 57 58" fill="none" xmlns="http://www.w3.org/2000/svg">
  <path d="M39.248 0.868164V3.9547C37.4791 4.26075 35.7995 4.96418 34.3312 6.01386L32.1057 3.88446L29.1405 7.11149L31.297 9.16845C30.3129 10.6334 29.6461 12.2946 29.341 14.0419H26.309V18.4325H29.341C29.6559 20.2545 30.3632 21.9142 31.3638 23.3718L29.0715 25.6329L32.1768 28.7941L34.398 26.4583C35.8299 27.4769 37.4603 28.197 39.2502 28.5175V31.6018H43.5632V28.5153C45.2794 28.2054 46.9114 27.5274 48.3506 26.5264L50.3691 28.7217L53.5391 25.701L51.4473 23.4399C52.4609 21.969 53.151 20.2677 53.4701 18.4303H56.5V14.0397H53.468C53.1582 12.2621 52.4675 10.5757 51.4452 9.1004L53.468 7.04124L50.4338 3.9547L48.4131 6.01386C46.9639 4.9731 45.3073 4.27006 43.561 3.9547V0.868164H39.248ZM41.4045 8.14107C42.4507 8.13407 43.4878 8.33864 44.4557 8.74289C45.4235 9.14714 46.3029 9.74304 47.0428 10.496C47.7827 11.249 48.3683 12.144 48.7657 13.1292C49.163 14.1143 49.3643 15.17 49.3577 16.235C49.3577 20.7463 45.8361 24.3311 41.4045 24.3311C36.9729 24.3311 33.4513 20.7463 33.4513 16.235C33.4513 11.7237 36.9729 8.13887 41.4045 8.13887V8.14107ZM13.4347 21.1041L9.46242 22.7505L11.0108 26.724C8.94981 27.9798 7.21603 29.7221 5.95595 31.8038L2.11738 30.2232L0.5 34.2735L4.33857 35.8497C4.03571 37.0372 3.87781 38.2582 3.86845 39.485C3.86845 40.7363 4.05176 41.9569 4.33857 43.1204L0.5 44.701L2.11738 48.7468L5.95595 47.1663C7.20482 49.2749 8.93986 51.0419 11.0108 52.3141L9.4581 56.2217L13.4368 57.8682L14.9895 53.9606C16.1561 54.2689 17.3555 54.4296 18.5607 54.4392C19.7899 54.4392 20.9932 54.2526 22.1319 53.9606L23.6845 57.8682L27.659 56.2217L26.1063 52.3141C28.1533 51.0341 29.8655 49.2686 31.0964 47.1685L34.9997 48.7447L36.6171 44.6988L32.7138 43.1182C32.9941 41.9547 33.1839 40.7319 33.1839 39.4828C33.1839 38.2315 32.9963 37.0066 32.7095 35.8453L36.6192 34.2691L35.0019 30.2188L31.0986 31.7994C29.8594 29.7233 28.1479 27.981 26.1084 26.7196L27.6611 22.7462L23.6824 21.0997L22.1362 25.0731C20.968 24.7697 19.7684 24.6097 18.5628 24.5968C17.3336 24.5968 16.1346 24.7856 14.9917 25.0753L13.439 21.1019L13.4347 21.1041ZM18.5585 28.9895C24.3013 28.9895 28.8666 33.6434 28.8666 39.4872C28.8709 45.3332 24.3013 50.0508 18.5585 50.0508C17.1953 50.0526 15.8452 49.7805 14.5854 49.2503C13.3256 48.72 12.181 47.942 11.217 46.9607C10.2531 45.9794 9.48879 44.8142 8.96789 43.5318C8.447 42.2494 8.17975 40.8749 8.18145 39.4872C8.18145 33.6412 12.8179 28.9895 18.5585 28.9895Z" fill="#4F35DF"/>
</svg>
