<svg width="65" height="66" viewBox="0 0 65 66" fill="none" xmlns="http://www.w3.org/2000/svg">
<g filter="url(#filter0_d_7062_12215)">
<path d="M43.248 0.96582V4.05236C41.4791 4.3584 39.7995 5.06184 38.3312 6.11152L36.1057 3.98211L33.1405 7.20915L35.297 9.26611C34.3129 10.731 33.6461 12.3923 33.341 14.1396H30.309V18.5301H33.341C33.6559 20.3522 34.3632 22.0118 35.3638 23.4695L33.0715 25.7306L36.1768 28.8918L38.398 26.556C39.8299 27.5746 41.4603 28.2946 43.2502 28.6152V31.6995H47.5632V28.613C49.2794 28.303 50.9114 27.6251 52.3506 26.6241L54.3691 28.8193L57.5391 25.7986L55.4473 23.5375C56.4609 22.0667 57.151 20.3654 57.4701 18.5279H60.5V14.1374H57.468C57.1582 12.3597 56.4675 10.6733 55.4452 9.19806L57.468 7.1389L54.4338 4.05236L52.4131 6.11152C50.9639 5.07076 49.3073 4.36772 47.561 4.05236V0.96582H43.248ZM45.4045 8.23873C46.4507 8.23173 47.4878 8.43629 48.4557 8.84055C49.4235 9.2448 50.3029 9.84069 51.0428 10.5937C51.7827 11.3466 52.3683 12.2416 52.7657 13.2268C53.163 14.212 53.3643 15.2677 53.3577 16.3327C53.3577 20.8439 49.8361 24.4288 45.4045 24.4288C40.9729 24.4288 37.4513 20.8439 37.4513 16.3327C37.4513 11.8214 40.9729 8.23653 45.4045 8.23653V8.23873ZM17.4347 21.2018L13.4624 22.8482L15.0108 26.8216C12.9498 28.0774 11.216 29.8198 9.95595 31.9015L6.11738 30.3209L4.5 34.3711L8.33857 35.9473C8.03571 37.1348 7.87781 38.3558 7.86845 39.5827C7.86845 40.834 8.05176 42.0546 8.33857 43.218L4.5 44.7986L6.11738 48.8445L9.95595 47.2639C11.2048 49.3726 12.9399 51.1396 15.0108 52.4118L13.4581 56.3194L17.4368 57.9658L18.9895 54.0583C20.1561 54.3666 21.3555 54.5273 22.5607 54.5368C23.7899 54.5368 24.9932 54.3502 26.1319 54.0583L27.6845 57.9658L31.659 56.3194L30.1063 52.4118C32.1533 51.1318 33.8655 49.3663 35.0964 47.2661L38.9997 48.8423L40.6171 44.7964L36.7138 43.2159C36.9941 42.0524 37.1839 40.8296 37.1839 39.5805C37.1839 38.3292 36.9963 37.1042 36.7095 35.9429L40.6192 34.3667L39.0019 30.3165L35.0986 31.8971C33.8594 29.8209 32.1479 28.0787 30.1084 26.8172L31.6611 22.8438L27.6824 21.1974L26.1362 25.1708C24.968 24.8673 23.7684 24.7074 22.5628 24.6944C21.3336 24.6944 20.1346 24.8832 18.9917 25.173L17.439 21.1996L17.4347 21.2018ZM22.5585 29.0871C28.3013 29.0871 32.8666 33.7411 32.8666 39.5849C32.8709 45.4309 28.3013 50.1485 22.5585 50.1485C21.1953 50.1502 19.8452 49.8782 18.5854 49.3479C17.3256 48.8177 16.181 48.0396 15.217 47.0583C14.2531 46.0771 13.4888 44.9119 12.9679 43.6295C12.447 42.347 12.1798 40.9726 12.1815 39.5849C12.1815 33.7389 16.8179 29.0871 22.5585 29.0871Z" fill="white"/>
</g>
<defs>
<filter id="filter0_d_7062_12215" x="0.5" y="0.96582" width="64" height="65" filterUnits="userSpaceOnUse" color-interpolation-filters="sRGB">
<feFlood flood-opacity="0" result="BackgroundImageFix"/>
<feColorMatrix in="SourceAlpha" type="matrix" values="0 0 0 0 0 0 0 0 0 0 0 0 0 0 0 0 0 0 127 0" result="hardAlpha"/>
<feOffset dy="4"/>
<feGaussianBlur stdDeviation="2"/>
<feComposite in2="hardAlpha" operator="out"/>
<feColorMatrix type="matrix" values="0 0 0 0 0 0 0 0 0 0 0 0 0 0 0 0 0 0 0.25 0"/>
<feBlend mode="normal" in2="BackgroundImageFix" result="effect1_dropShadow_7062_12215"/>
<feBlend mode="normal" in="SourceGraphic" in2="effect1_dropShadow_7062_12215" result="shape"/>
</filter>
</defs>
</svg>
