<svg width="86" height="88" viewBox="0 0 86 88" fill="none" xmlns="http://www.w3.org/2000/svg">
<g filter="url(#filter0_d_7442_4974)">
<path d="M57.9704 0V4.33198C55.5067 4.76152 53.1672 5.74879 51.122 7.22203L48.0222 4.23339L43.8921 8.76256L46.8958 11.6495C45.5251 13.7056 44.5964 16.0371 44.1714 18.4895H39.9482V24.6516H44.1714C44.61 27.2089 45.5952 29.5382 46.9889 31.5841L43.796 34.7576L48.1213 39.1943L51.2151 35.916C53.2096 37.3457 55.4804 38.3563 57.9734 38.8061V43.135H63.9808V38.803C66.3714 38.368 68.6444 37.4165 70.649 36.0116L73.4605 39.0926L77.8759 34.8531L74.9623 31.6796C76.3741 29.6152 77.3353 27.2274 77.7798 24.6486H82V18.4864H77.7768C77.3453 15.9914 76.3834 13.6246 74.9593 11.554L77.7768 8.66397L73.5506 4.33198L70.7361 7.22203C68.7176 5.76132 66.4102 4.7746 63.9778 4.33198V0H57.9704ZM60.9741 10.2076C62.4313 10.1978 63.8758 10.4849 65.224 11.0522C66.5721 11.6196 67.7969 12.456 68.8275 13.5127C69.858 14.5695 70.6737 15.8257 71.2272 17.2084C71.7806 18.5911 72.0609 20.0728 72.0518 21.5675C72.0518 27.8991 67.1467 32.9305 60.9741 32.9305C54.8015 32.9305 49.8965 27.8991 49.8965 21.5675C49.8965 15.2359 54.8015 10.2045 60.9741 10.2045V10.2076ZM22.0162 28.4013L16.4834 30.7121L18.64 36.2888C15.7694 38.0514 13.3545 40.4968 11.5994 43.4184L6.25277 41.2001L4 46.8847L9.34658 49.0969C8.92473 50.7635 8.70481 52.4772 8.69177 54.1991C8.69177 55.9553 8.94709 57.6684 9.34658 59.3014L4 61.5197L6.25277 67.1982L11.5994 64.9798C13.3389 67.9393 15.7555 70.4193 18.64 72.2049L16.4774 77.6892L22.0192 80L24.1818 74.5157C25.8067 74.9484 27.4773 75.174 29.156 75.1874C30.8681 75.1874 32.5441 74.9255 34.1301 74.5157L36.2927 80L41.8286 77.6892L39.6659 72.2049C42.5171 70.4084 44.9019 67.9305 46.6165 64.9829L52.0531 67.1951L54.3059 61.5167L48.8692 59.2983C49.2597 57.6653 49.524 55.9492 49.524 54.196C49.524 52.4398 49.2627 50.7206 48.8632 49.0907L54.3089 46.8785L52.0561 41.1939L46.6195 43.4123C44.8935 40.4984 42.5096 38.0531 39.6689 36.2827L41.8316 30.7059L36.2897 28.3951L34.1361 33.9719C32.509 33.546 30.8381 33.3215 29.159 33.3033C27.4469 33.3033 25.7768 33.5683 24.1848 33.975L22.0222 28.3982L22.0162 28.4013ZM29.153 39.4685C37.1518 39.4685 43.5106 46.0004 43.5106 54.2022C43.5166 62.4071 37.1518 69.0283 29.153 69.0283C27.2542 69.0307 25.3736 68.6489 23.6189 67.9047C21.8642 67.1605 20.2699 66.0685 18.9273 64.6913C17.5847 63.314 16.5201 61.6787 15.7946 59.8788C15.069 58.0789 14.6968 56.1499 14.6992 54.2022C14.6992 45.9973 21.1571 39.4685 29.153 39.4685Z" fill="url(#paint0_linear_7442_4974)"/>
</g>
<defs>
<filter id="filter0_d_7442_4974" x="0" y="0" width="86" height="88" filterUnits="userSpaceOnUse" color-interpolation-filters="sRGB">
<feFlood flood-opacity="0" result="BackgroundImageFix"/>
<feColorMatrix in="SourceAlpha" type="matrix" values="0 0 0 0 0 0 0 0 0 0 0 0 0 0 0 0 0 0 127 0" result="hardAlpha"/>
<feOffset dy="4"/>
<feGaussianBlur stdDeviation="2"/>
<feComposite in2="hardAlpha" operator="out"/>
<feColorMatrix type="matrix" values="0 0 0 0 0 0 0 0 0 0 0 0 0 0 0 0 0 0 0.25 0"/>
<feBlend mode="normal" in2="BackgroundImageFix" result="effect1_dropShadow_7442_4974"/>
<feBlend mode="normal" in="SourceGraphic" in2="effect1_dropShadow_7442_4974" result="shape"/>
</filter>
<linearGradient id="paint0_linear_7442_4974" x1="43" y1="0" x2="43" y2="80" gradientUnits="userSpaceOnUse">
<stop stop-color="#4F35DF"/>
<stop offset="1" stop-color="#2702F5"/>
</linearGradient>
</defs>
</svg>
