<svg width="43" height="44" viewBox="0 0 43 44" fill="none" xmlns="http://www.w3.org/2000/svg">
<path d="M0.125 40.7432H4.875V26.4932H0.125V40.7432ZM22.5925 43.1182L15.6337 41.5982L8.675 39.9594C8.27223 39.8809 7.91037 39.6621 7.65375 39.3419C7.38639 39.0322 7.24264 38.6348 7.25 38.2257V28.7257C7.25672 28.319 7.39879 27.9263 7.65375 27.6094C7.91901 27.2992 8.2771 27.0827 8.675 26.9919L20.0275 25.5907L31.4037 24.1657L31.76 25.4957L32.1162 26.8019C32.1226 27.2398 31.9986 27.6697 31.76 28.0369C31.5417 28.421 31.2099 28.7279 30.81 28.9157L26.06 30.1032L21.31 31.2907L25.1575 32.8582L29.0287 34.4019L34.42 32.8819L39.6688 31.2432C40.1352 31.1252 40.6292 31.1934 41.0462 31.4332C41.2563 31.5466 41.4407 31.7022 41.5878 31.8902C41.7349 32.0782 41.8416 32.2945 41.9012 32.5257L42.3525 34.3544L42.8275 36.1594C42.9352 36.6108 42.8673 37.0862 42.6375 37.4894C42.3932 37.8962 42.0022 38.1937 41.545 38.3207L32.9237 40.6957L24.3025 43.0707C24.0187 43.1075 23.7313 43.1075 23.4475 43.0707C23.1671 43.1334 22.8782 43.1495 22.5925 43.1182ZM14.375 0.368164L9.625 5.11816L4.875 9.86816L9.625 14.6182L14.375 19.3682L16.0375 17.7057L17.7 16.0432L14.6125 12.9557L11.525 9.86816L14.6125 6.78066L17.7 3.69316L16.0375 2.03066L14.375 0.368164ZM28.625 0.368164L26.9625 2.03066L25.3 3.69316L28.3875 6.78066L31.475 9.86816L28.3875 12.9557L25.3 16.0432L26.9625 17.7057L28.625 19.3682L33.375 14.6182L38.125 9.86816L33.375 5.11816L28.625 0.368164Z" fill="url(#paint0_linear_7062_13068)"/>
<defs>
<linearGradient id="paint0_linear_7062_13068" x1="21.5012" y1="0.368164" x2="21.5012" y2="43.1337" gradientUnits="userSpaceOnUse">
<stop stop-color="#4F35DF"/>
<stop offset="1" stop-color="#2702F5"/>
</linearGradient>
</defs>
</svg>
