<svg width="88" height="88" viewBox="0 0 88 88" fill="none" xmlns="http://www.w3.org/2000/svg">
<g filter="url(#filter0_d_7442_4976)">
<path d="M4 75.5281H12.8884V48.8711H4V75.5281ZM46.042 79.9709L33.0206 77.1275L19.9991 74.062C19.2454 73.9151 18.5683 73.5058 18.0881 72.9068C17.5878 72.3274 17.3188 71.584 17.3326 70.8187V53.0474C17.3452 52.2867 17.611 51.552 18.0881 50.9593C18.5844 50.379 19.2545 49.974 19.9991 49.8041L41.2423 47.1828L62.53 44.5172L63.1966 47.0051L63.8632 49.4487C63.875 50.2678 63.643 51.072 63.1966 51.759C62.7882 52.4774 62.1672 53.0517 61.4189 53.4028L52.5306 55.6242L43.6422 57.8456L50.8418 60.7779L58.0858 63.6657L68.1741 60.8223L77.9958 57.7568C78.8686 57.5362 79.793 57.6636 80.5734 58.1122C80.9665 58.3244 81.3114 58.6154 81.5867 58.9671C81.8621 59.3188 82.0617 59.7235 82.1733 60.1559L83.0177 63.5769L83.9065 66.9534C84.1081 67.7978 83.981 68.6872 83.551 69.4414C83.0939 70.2023 82.3622 70.7589 81.5067 70.9964L65.3743 75.4392L49.2419 79.8821C48.7108 79.9509 48.173 79.9509 47.6419 79.8821C47.1172 79.9995 46.5766 80.0295 46.042 79.9709ZM30.6651 0L21.7768 8.88566L12.8884 17.7713L21.7768 26.657L30.6651 35.5426L33.7761 32.4327L36.887 29.3227L31.1096 23.547L25.3321 17.7713L31.1096 11.9956L36.887 6.21996L33.7761 3.10998L30.6651 0ZM57.3303 0L54.2194 3.10998L51.1084 6.21996L56.8859 11.9956L62.6633 17.7713L56.8859 23.547L51.1084 29.3227L54.2194 32.4327L57.3303 35.5426L66.2187 26.657L75.107 17.7713L66.2187 8.88566L57.3303 0Z" fill="url(#paint0_linear_7442_4976)"/>
</g>
<defs>
<filter id="filter0_d_7442_4976" x="0" y="0" width="88" height="88" filterUnits="userSpaceOnUse" color-interpolation-filters="sRGB">
<feFlood flood-opacity="0" result="BackgroundImageFix"/>
<feColorMatrix in="SourceAlpha" type="matrix" values="0 0 0 0 0 0 0 0 0 0 0 0 0 0 0 0 0 0 127 0" result="hardAlpha"/>
<feOffset dy="4"/>
<feGaussianBlur stdDeviation="2"/>
<feComposite in2="hardAlpha" operator="out"/>
<feColorMatrix type="matrix" values="0 0 0 0 0 0 0 0 0 0 0 0 0 0 0 0 0 0 0.25 0"/>
<feBlend mode="normal" in2="BackgroundImageFix" result="effect1_dropShadow_7442_4976"/>
<feBlend mode="normal" in="SourceGraphic" in2="effect1_dropShadow_7442_4976" result="shape"/>
</filter>
<linearGradient id="paint0_linear_7442_4976" x1="44" y1="0" x2="44" y2="80" gradientUnits="userSpaceOnUse">
<stop stop-color="#4F35DF"/>
<stop offset="1" stop-color="#2702F5"/>
</linearGradient>
</defs>
</svg>
