<svg width="80" height="80" viewBox="0 0 80 80" fill="none" xmlns="http://www.w3.org/2000/svg">
<path d="M0 75.5281H8.88838V48.8711H0V75.5281ZM42.042 79.9709L29.0206 77.1275L15.9991 74.062C15.2454 73.9151 14.5683 73.5058 14.0881 72.9068C13.5878 72.3274 13.3188 71.584 13.3326 70.8187V53.0474C13.3452 52.2867 13.611 51.552 14.0881 50.9593C14.5844 50.379 15.2545 49.974 15.9991 49.8041L37.2423 47.1828L58.53 44.5172L59.1966 47.0051L59.8632 49.4487C59.875 50.2678 59.643 51.072 59.1966 51.759C58.7882 52.4774 58.1672 53.0517 57.4189 53.4028L48.5306 55.6242L39.6422 57.8456L46.8418 60.7779L54.0858 63.6657L64.1741 60.8223L73.9958 57.7568C74.8686 57.5362 75.793 57.6636 76.5734 58.1122C76.9665 58.3244 77.3114 58.6154 77.5867 58.9671C77.8621 59.3188 78.0617 59.7235 78.1733 60.1559L79.0177 63.5769L79.9065 66.9534C80.1081 67.7978 79.981 68.6872 79.551 69.4414C79.0939 70.2023 78.3622 70.7589 77.5067 70.9964L61.3743 75.4392L45.2419 79.8821C44.7108 79.9509 44.173 79.9509 43.6419 79.8821C43.1172 79.9995 42.5766 80.0295 42.042 79.9709ZM26.6651 0L17.7768 8.88566L8.88838 17.7713L17.7768 26.657L26.6651 35.5426L29.7761 32.4327L32.887 29.3227L27.1096 23.547L21.3321 17.7713L27.1096 11.9956L32.887 6.21996L29.7761 3.10998L26.6651 0ZM53.3303 0L50.2194 3.10998L47.1084 6.21996L52.8859 11.9956L58.6633 17.7713L52.8859 23.547L47.1084 29.3227L50.2194 32.4327L53.3303 35.5426L62.2187 26.657L71.107 17.7713L62.2187 8.88566L53.3303 0Z" fill="white"/>
</svg>
