<svg width="32" height="33" viewBox="0 0 32 33" fill="none" xmlns="http://www.w3.org/2000/svg">
<path d="M16 18.9133C14.5 18.9133 13.2 17.7133 13.2 16.1133C13.2 14.6133 14.4 13.3133 16 13.3133C17.5 13.3133 18.8 14.5133 18.8 16.1133C18.8 17.6133 17.5 18.9133 16 18.9133Z" fill="#E0E0E0"/>
<path fill-rule="evenodd" clip-rule="evenodd" d="M19.4 9.31328H12.6C11.8 9.41328 11.4 9.51328 11.1 9.61328C10.7 9.71328 10.4 9.91328 10.1 10.2133C9.86261 10.4507 9.75045 10.6881 9.61489 10.975C9.57916 11.0506 9.5417 11.1299 9.5 11.2133C9.48453 11.2597 9.46667 11.3085 9.44752 11.3608C9.34291 11.6466 9.2 12.037 9.2 12.7133V19.5133C9.3 20.3133 9.4 20.7133 9.5 21.0133C9.6 21.4133 9.8 21.7133 10.1 22.0133C10.3374 22.2507 10.5748 22.3628 10.8617 22.4984C10.9374 22.5341 11.0165 22.5715 11.1 22.6133C11.1464 22.6287 11.1952 22.6466 11.2475 22.6658C11.5333 22.7704 11.9238 22.9133 12.6 22.9133H19.4C20.2 22.8133 20.6 22.7133 20.9 22.6133C21.3 22.5133 21.6 22.3133 21.9 22.0133C22.1374 21.7759 22.2495 21.5385 22.3851 21.2516C22.4209 21.1759 22.4583 21.0967 22.5 21.0133C22.5155 20.9669 22.5333 20.9181 22.5525 20.8658C22.6571 20.5799 22.8 20.1895 22.8 19.5133V12.7133C22.7 11.9133 22.6 11.5133 22.5 11.2133C22.4 10.8133 22.2 10.5133 21.9 10.2133C21.6626 9.97589 21.4252 9.86373 21.1383 9.72816C21.0627 9.69246 20.9833 9.65495 20.9 9.61328C20.8536 9.59781 20.8048 9.57995 20.7525 9.5608C20.4667 9.45619 20.0762 9.31328 19.4 9.31328ZM16 11.8133C13.6 11.8133 11.7 13.7133 11.7 16.1133C11.7 18.5133 13.6 20.4133 16 20.4133C18.4 20.4133 20.3 18.5133 20.3 16.1133C20.3 13.7133 18.4 11.8133 16 11.8133ZM21.4 11.7133C21.4 12.2656 20.9523 12.7133 20.4 12.7133C19.8477 12.7133 19.4 12.2656 19.4 11.7133C19.4 11.161 19.8477 10.7133 20.4 10.7133C20.9523 10.7133 21.4 11.161 21.4 11.7133Z" fill="#E0E0E0"/>
<path fill-rule="evenodd" clip-rule="evenodd" d="M0 16.1133C0 7.27673 7.16344 0.113281 16 0.113281C24.8366 0.113281 32 7.27673 32 16.1133C32 24.9498 24.8366 32.1133 16 32.1133C7.16344 32.1133 0 24.9498 0 16.1133ZM12.6 7.81328H19.4C20.3 7.91328 20.9 8.01328 21.4 8.21328C22 8.51328 22.4 8.71328 22.9 9.21328C23.4 9.71328 23.7 10.2133 23.9 10.7133C24.1 11.2133 24.3 11.8133 24.3 12.7133V19.5133C24.2 20.4133 24.1 21.0133 23.9 21.5133C23.6 22.1133 23.4 22.5133 22.9 23.0133C22.4 23.5133 21.9 23.8133 21.4 24.0133C20.9 24.2133 20.3 24.4133 19.4 24.4133H12.6C11.7 24.3133 11.1 24.2133 10.6 24.0133C10 23.7133 9.6 23.5133 9.1 23.0133C8.6 22.5133 8.3 22.0133 8.1 21.5133C7.9 21.0133 7.7 20.4133 7.7 19.5133V12.7133C7.8 11.8133 7.9 11.2133 8.1 10.7133C8.4 10.1133 8.6 9.71328 9.1 9.21328C9.6 8.71328 10.1 8.41328 10.6 8.21328C11.1 8.01328 11.7 7.81328 12.6 7.81328Z" fill="#E0E0E0"/>
</svg>
