<svg width="60" height="61" viewBox="0 0 60 61" fill="none" xmlns="http://www.w3.org/2000/svg">
<path d="M45.9305 11.3366C45.2203 11.3366 44.5261 11.5472 43.9357 11.9418C43.3452 12.3363 42.885 12.8971 42.6132 13.5531C42.3415 14.2092 42.2704 14.9312 42.4089 15.6277C42.5474 16.3242 42.8894 16.9639 43.3916 17.4661C43.8937 17.9682 44.5335 18.3102 45.23 18.4488C45.9265 18.5873 46.6484 18.5162 47.3045 18.2444C47.9606 17.9727 48.5214 17.5125 48.9159 16.922C49.3104 16.3315 49.521 15.6373 49.521 14.9272C49.521 13.9749 49.1427 13.0617 48.4694 12.3883C47.796 11.7149 46.8827 11.3366 45.9305 11.3366ZM59.6942 18.5776C59.6361 16.095 59.1711 13.6388 58.3179 11.3067C57.5571 9.31137 56.3729 7.50456 54.847 6.01066C53.3654 4.47697 51.5543 3.30032 49.5509 2.56971C47.225 1.69051 44.7661 1.21491 42.2801 1.16341C39.1084 0.983887 38.0911 0.983887 29.9525 0.983887C21.8139 0.983887 20.7966 0.983887 17.625 1.16341C15.139 1.21491 12.68 1.69051 10.3541 2.56971C8.35438 3.30772 6.54491 4.48336 5.05802 6.01066C3.52434 7.49229 2.34768 9.30331 1.61708 11.3067C0.737873 13.6326 0.262272 16.0916 0.210777 18.5776C0.0312498 21.7492 0.03125 22.7666 0.03125 30.9051C0.03125 39.0437 0.0312498 40.0611 0.210777 43.2327C0.262272 45.7187 0.737873 48.1777 1.61708 50.5036C2.34768 52.507 3.52434 54.318 5.05802 55.7996C6.54491 57.3269 8.35438 58.5026 10.3541 59.2406C12.68 60.1198 15.139 60.5954 17.625 60.6469C20.7966 60.8264 21.8139 60.8264 29.9525 60.8264C38.0911 60.8264 39.1084 60.8264 42.2801 60.6469C44.7661 60.5954 47.225 60.1198 49.5509 59.2406C51.5543 58.51 53.3654 57.3333 54.847 55.7996C56.3797 54.3113 57.5649 52.5029 58.3179 50.5036C59.1711 48.1715 59.6361 45.7153 59.6942 43.2327C59.6942 40.0611 59.8738 39.0437 59.8738 30.9051C59.8738 22.7666 59.8738 21.7492 59.6942 18.5776ZM54.3084 42.8736C54.2866 44.773 53.9426 46.6548 53.2911 48.439C52.8134 49.7412 52.046 50.9178 51.047 51.88C50.0765 52.8689 48.9023 53.6346 47.6061 54.124C45.8219 54.7756 43.94 55.1196 42.0407 55.1414C39.0486 55.291 37.9415 55.3209 30.0722 55.3209C22.2029 55.3209 21.0958 55.3209 18.1037 55.1414C16.1316 55.1783 14.1678 54.8746 12.299 54.2437C11.0596 53.7293 9.93924 52.9655 9.00763 51.9996C8.01451 51.0384 7.25677 49.8608 6.79346 48.5587C6.06295 46.7489 5.65777 44.8243 5.5966 42.8736C5.5966 39.8815 5.41708 38.7744 5.41708 30.9051C5.41708 23.0359 5.41708 21.9288 5.5966 18.9366C5.61002 16.9949 5.96449 15.0707 6.64385 13.2516C7.1706 11.9887 7.97913 10.8629 9.00763 9.96026C9.91668 8.93148 11.0401 8.11441 12.299 7.56656C14.1228 6.90843 16.0451 6.56444 17.984 6.54924C20.9761 6.54924 22.0832 6.36971 29.9525 6.36971C37.8218 6.36971 38.9289 6.36971 41.921 6.54924C43.8203 6.57103 45.7022 6.91502 47.4864 7.56656C48.8461 8.07119 50.0665 8.89162 51.047 9.96026C52.0275 10.8794 52.7937 12.0031 53.2911 13.2516C53.9561 15.0736 54.3003 16.9971 54.3084 18.9366C54.458 21.9288 54.4879 23.0359 54.4879 30.9051C54.4879 38.7744 54.458 39.8815 54.3084 42.8736ZM29.9525 15.5555C26.9179 15.5615 23.9532 16.4667 21.4329 18.1569C18.9126 19.8472 16.9499 22.2465 15.7927 25.0518C14.6355 27.8571 14.3358 30.9424 14.9314 33.918C15.5271 36.8936 16.9913 39.6258 19.1392 41.7695C21.2871 43.9132 24.0221 45.3721 26.9989 45.962C29.9756 46.5518 33.0603 46.2461 35.8634 45.0834C38.6664 43.9208 41.0619 41.9534 42.7472 39.4298C44.4325 36.9062 45.332 33.9397 45.332 30.9051C45.336 28.8858 44.9407 26.8855 44.1688 25.0195C43.397 23.1535 42.2638 21.4584 40.8345 20.0319C39.4052 18.6054 37.7079 17.4755 35.8404 16.7073C33.9729 15.9391 31.9719 15.5476 29.9525 15.5555ZM29.9525 40.8689C27.9819 40.8689 26.0555 40.2846 24.4169 39.1897C22.7784 38.0949 21.5013 36.5388 20.7472 34.7181C19.993 32.8975 19.7957 30.8941 20.1802 28.9613C20.5646 27.0285 21.5136 25.2531 22.9071 23.8597C24.3005 22.4662 26.0759 21.5173 28.0087 21.1328C29.9415 20.7484 31.9448 20.9457 33.7655 21.6998C35.5861 22.4539 37.1423 23.731 38.2371 25.3696C39.3319 27.0081 39.9163 28.9345 39.9163 30.9051C39.9163 32.2136 39.6586 33.5093 39.1578 34.7181C38.6571 35.927 37.9232 37.0254 36.998 37.9506C36.0727 38.8758 34.9743 39.6098 33.7655 40.1105C32.5566 40.6112 31.261 40.8689 29.9525 40.8689Z" fill="black"/>
</svg>
