<svg width="26" height="26" viewBox="0 0 26 26" fill="none" xmlns="http://www.w3.org/2000/svg">
<path d="M19.675 4.72734C19.3783 4.72734 19.0883 4.81532 18.8416 4.98014C18.595 5.14496 18.4027 5.37923 18.2892 5.65332C18.1756 5.92741 18.1459 6.22901 18.2038 6.51998C18.2617 6.81095 18.4046 7.07823 18.6143 7.288C18.8241 7.49778 19.0914 7.64064 19.3824 7.69852C19.6733 7.7564 19.9749 7.72669 20.249 7.61316C20.5231 7.49963 20.7574 7.30737 20.9222 7.0607C21.087 6.81403 21.175 6.52402 21.175 6.22734C21.175 5.82952 21.017 5.44799 20.7357 5.16668C20.4544 4.88538 20.0728 4.72734 19.675 4.72734ZM25.425 7.75234C25.4007 6.71522 25.2064 5.6891 24.85 4.71484C24.5322 3.88126 24.0375 3.12644 23.4 2.50234C22.781 1.86163 22.0245 1.37006 21.1875 1.06484C20.2158 0.697545 19.1886 0.498856 18.15 0.477344C16.825 0.402344 16.4 0.402344 13 0.402344C9.6 0.402344 9.175 0.402344 7.85 0.477344C6.81144 0.498856 5.78418 0.697545 4.8125 1.06484C3.9771 1.37315 3.22117 1.86429 2.6 2.50234C1.95928 3.12132 1.46772 3.87789 1.1625 4.71484C0.795201 5.68652 0.596512 6.71378 0.575 7.75234C0.5 9.07734 0.5 9.50234 0.5 12.9023C0.5 16.3023 0.5 16.7273 0.575 18.0523C0.596512 19.0909 0.795201 20.1182 1.1625 21.0898C1.46772 21.9268 1.95928 22.6834 2.6 23.3023C3.22117 23.9404 3.9771 24.4315 4.8125 24.7398C5.78418 25.1071 6.81144 25.3058 7.85 25.3273C9.175 25.4023 9.6 25.4023 13 25.4023C16.4 25.4023 16.825 25.4023 18.15 25.3273C19.1886 25.3058 20.2158 25.1071 21.1875 24.7398C22.0245 24.4346 22.781 23.9431 23.4 23.3023C24.0403 22.6806 24.5354 21.9251 24.85 21.0898C25.2064 20.1156 25.4007 19.0895 25.425 18.0523C25.425 16.7273 25.5 16.3023 25.5 12.9023C25.5 9.50234 25.5 9.07734 25.425 7.75234ZM23.175 17.9023C23.1659 18.6958 23.0222 19.482 22.75 20.2273C22.5504 20.7713 22.2298 21.2629 21.8125 21.6648C21.4071 22.078 20.9165 22.3979 20.375 22.6023C19.6296 22.8745 18.8435 23.0182 18.05 23.0273C16.8 23.0898 16.3375 23.1023 13.05 23.1023C9.7625 23.1023 9.3 23.1023 8.05 23.0273C7.22611 23.0428 6.40574 22.9159 5.625 22.6523C5.10723 22.4374 4.63919 22.1183 4.25 21.7148C3.83511 21.3133 3.51855 20.8213 3.325 20.2773C3.01982 19.5213 2.85055 18.7173 2.825 17.9023C2.825 16.6523 2.75 16.1898 2.75 12.9023C2.75 9.61484 2.75 9.15234 2.825 7.90234C2.8306 7.09116 2.97869 6.28728 3.2625 5.52734C3.48256 4.99973 3.82033 4.52942 4.25 4.15234C4.62977 3.72255 5.09911 3.38121 5.625 3.15234C6.38694 2.8774 7.19 2.73369 8 2.72734C9.25 2.72734 9.7125 2.65234 13 2.65234C16.2875 2.65234 16.75 2.65234 18 2.72734C18.7935 2.73644 19.5796 2.88015 20.325 3.15234C20.893 3.36316 21.4029 3.7059 21.8125 4.15234C22.2221 4.53632 22.5422 5.00576 22.75 5.52734C23.0278 6.28851 23.1716 7.09207 23.175 7.90234C23.2375 9.15234 23.25 9.61484 23.25 12.9023C23.25 16.1898 23.2375 16.6523 23.175 17.9023ZM13 6.48984C11.7323 6.49231 10.4937 6.8705 9.44082 7.57662C8.38793 8.28273 7.56797 9.28509 7.08454 10.457C6.60111 11.629 6.4759 12.9179 6.72474 14.161C6.97358 15.4041 7.5853 16.5455 8.48259 17.4411C9.3799 18.3366 10.5225 18.9461 11.7661 19.1925C13.0096 19.4389 14.2983 19.3112 15.4693 18.8255C16.6403 18.3398 17.6411 17.5179 18.3452 16.4636C19.0492 15.4094 19.425 14.1701 19.425 12.9023C19.4267 12.0587 19.2615 11.2231 18.939 10.4435C18.6166 9.66398 18.1432 8.95586 17.5461 8.35991C16.949 7.76396 16.2399 7.29194 15.4597 6.971C14.6796 6.65007 13.8436 6.48655 13 6.48984ZM13 17.0648C12.1767 17.0648 11.372 16.8207 10.6874 16.3633C10.0029 15.906 9.4694 15.2559 9.15435 14.4953C8.8393 13.7347 8.75687 12.8977 8.91748 12.0903C9.07809 11.2828 9.47453 10.5411 10.0567 9.95901C10.6388 9.37688 11.3805 8.98044 12.1879 8.81983C12.9954 8.65921 13.8323 8.74164 14.5929 9.05669C15.3535 9.37175 16.0036 9.90526 16.461 10.5898C16.9184 11.2743 17.1625 12.0791 17.1625 12.9023C17.1625 13.449 17.0548 13.9902 16.8456 14.4953C16.6365 15.0003 16.3299 15.4592 15.9433 15.8457C15.5568 16.2322 15.0979 16.5388 14.5929 16.748C14.0879 16.9572 13.5466 17.0648 13 17.0648Z" fill="#52525B"/>
</svg>
