<svg width="26" height="26" viewBox="0 0 26 26" fill="none" xmlns="http://www.w3.org/2000/svg">
<path d="M23.5867 0.402519H2.41172C2.17369 0.399213 1.93734 0.442828 1.71618 0.530873C1.49501 0.618919 1.29335 0.749669 1.12272 0.915658C0.952083 1.08165 0.815821 1.27962 0.721709 1.49828C0.627597 1.71694 0.577479 1.95199 0.574219 2.19002V23.615C0.577479 23.853 0.627597 24.0881 0.721709 24.3068C0.815821 24.5254 0.952083 24.7234 1.12272 24.8894C1.29335 25.0554 1.49501 25.1861 1.71618 25.2742C1.93734 25.3622 2.17369 25.4058 2.41172 25.4025H23.5867C23.8247 25.4058 24.0611 25.3622 24.2823 25.2742C24.5034 25.1861 24.7051 25.0554 24.8757 24.8894C25.0464 24.7234 25.1826 24.5254 25.2767 24.3068C25.3708 24.0881 25.421 23.853 25.4242 23.615V2.19002C25.421 1.95199 25.3708 1.71694 25.2767 1.49828C25.1826 1.27962 25.0464 1.08165 24.8757 0.915658C24.7051 0.749669 24.5034 0.618919 24.2823 0.530873C24.0611 0.442828 23.8247 0.399213 23.5867 0.402519ZM8.11172 21.3275H4.36172V10.0775H8.11172V21.3275ZM6.23672 8.50252C5.71955 8.50252 5.22356 8.29707 4.85786 7.93138C4.49216 7.56568 4.28672 7.06969 4.28672 6.55252C4.28672 6.03535 4.49216 5.53936 4.85786 5.17366C5.22356 4.80796 5.71955 4.60252 6.23672 4.60252C6.51134 4.57137 6.78944 4.59859 7.05281 4.68237C7.31619 4.76616 7.55889 4.90463 7.76504 5.08872C7.97119 5.27281 8.13613 5.49837 8.24906 5.75062C8.36199 6.00288 8.42037 6.27614 8.42037 6.55252C8.42037 6.8289 8.36199 7.10216 8.24906 7.35442C8.13613 7.60667 7.97119 7.83223 7.76504 8.01632C7.55889 8.20041 7.31619 8.33888 7.05281 8.42266C6.78944 8.50645 6.51134 8.53366 6.23672 8.50252ZM21.6367 21.3275H17.8867V15.29C17.8867 13.7775 17.3492 12.79 15.9867 12.79C15.565 12.7931 15.1545 12.9254 14.8103 13.169C14.4661 13.4126 14.2048 13.7559 14.0617 14.1525C13.9639 14.4463 13.9215 14.7557 13.9367 15.065V21.315H10.1867C10.1867 21.315 10.1867 11.09 10.1867 10.065H13.9367V11.6525C14.2774 11.0614 14.7729 10.5744 15.3698 10.244C15.9667 9.91362 16.6424 9.75233 17.3242 9.77752C19.8242 9.77752 21.6367 11.39 21.6367 14.8525V21.3275Z" fill="#52525B"/>
</svg>
