<svg width="26" height="26" viewBox="0 0 26 26" fill="none" xmlns="http://www.w3.org/2000/svg">
<path d="M23.5867 0.500175H2.41172C2.17369 0.496869 1.93734 0.540484 1.71618 0.62853C1.49501 0.716575 1.29335 0.847326 1.12272 1.01331C0.952083 1.1793 0.815821 1.37728 0.721709 1.59594C0.627597 1.81459 0.577479 2.04965 0.574219 2.28767V23.7127C0.577479 23.9507 0.627597 24.1858 0.721709 24.4044C0.815821 24.6231 0.952083 24.821 1.12272 24.987C1.29335 25.153 1.49501 25.2838 1.71618 25.3718C1.93734 25.4599 2.17369 25.5035 2.41172 25.5002H23.5867C23.8247 25.5035 24.0611 25.4599 24.2823 25.3718C24.5034 25.2838 24.7051 25.153 24.8757 24.987C25.0464 24.821 25.1826 24.6231 25.2767 24.4044C25.3708 24.1858 25.421 23.9507 25.4242 23.7127V2.28767C25.421 2.04965 25.3708 1.81459 25.2767 1.59594C25.1826 1.37728 25.0464 1.1793 24.8757 1.01331C24.7051 0.847326 24.5034 0.716575 24.2823 0.62853C24.0611 0.540484 23.8247 0.496869 23.5867 0.500175ZM8.11172 21.4252H4.36172V10.1752H8.11172V21.4252ZM6.23672 8.60017C5.71955 8.60017 5.22356 8.39473 4.85786 8.02903C4.49216 7.66334 4.28672 7.16735 4.28672 6.65017C4.28672 6.133 4.49216 5.63701 4.85786 5.27132C5.22356 4.90562 5.71955 4.70017 6.23672 4.70017C6.51134 4.66903 6.78944 4.69624 7.05281 4.78003C7.31619 4.86382 7.55889 5.00229 7.76504 5.18638C7.97119 5.37047 8.13613 5.59602 8.24906 5.84828C8.36199 6.10053 8.42037 6.3738 8.42037 6.65017C8.42037 6.92655 8.36199 7.19982 8.24906 7.45207C8.13613 7.70433 7.97119 7.92988 7.76504 8.11397C7.55889 8.29806 7.31619 8.43653 7.05281 8.52032C6.78944 8.60411 6.51134 8.63132 6.23672 8.60017ZM21.6367 21.4252H17.8867V15.3877C17.8867 13.8752 17.3492 12.8877 15.9867 12.8877C15.565 12.8908 15.1545 13.023 14.8103 13.2666C14.4661 13.5103 14.2048 13.8535 14.0617 14.2502C13.9639 14.544 13.9215 14.8534 13.9367 15.1627V21.4127H10.1867C10.1867 21.4127 10.1867 11.1877 10.1867 10.1627H13.9367V11.7502C14.2774 11.1591 14.7729 10.6721 15.3698 10.3417C15.9667 10.0113 16.6424 9.84999 17.3242 9.87517C19.8242 9.87517 21.6367 11.4877 21.6367 14.9502V21.4252Z" fill="white"/>
</svg>
