<svg width="22" height="22" viewBox="0 0 22 22" fill="none" xmlns="http://www.w3.org/2000/svg">
<path d="M13.9707 21.75H7.9707C2.5407 21.75 0.220703 19.43 0.220703 14V8C0.220703 2.57 2.5407 0.25 7.9707 0.25H13.9707C19.4007 0.25 21.7207 2.57 21.7207 8V14C21.7207 19.43 19.4107 21.75 13.9707 21.75ZM7.9707 1.75C3.3607 1.75 1.7207 3.39 1.7207 8V14C1.7207 18.61 3.3607 20.25 7.9707 20.25H13.9707C18.5807 20.25 20.2207 18.61 20.2207 14V8C20.2207 3.39 18.5807 1.75 13.9707 1.75H7.9707Z" fill="#758195"/>
<path d="M10.45 17.0599C10.21 17.0599 9.62999 16.9699 9.28999 16.0999L8.14999 13.2199C7.98999 12.8099 7.41999 12.4299 6.98999 12.4299L0.98999 12.4499C0.57999 12.4499 0.23999 12.1199 0.23999 11.6999C0.23999 11.2899 0.56999 10.9499 0.98999 10.9499L6.98999 10.9299H6.99999C8.04999 10.9299 9.16999 11.6899 9.55999 12.6699L10.47 14.9699L12.53 9.74989C12.84 8.96989 13.39 8.85989 13.62 8.83989C13.85 8.82989 14.41 8.87989 14.8 9.61989L15.84 11.5899C16.02 11.9299 16.56 12.2599 16.95 12.2599H21.01C21.42 12.2599 21.76 12.5999 21.76 13.0099C21.76 13.4199 21.42 13.7599 21.01 13.7599H16.95C16 13.7599 14.96 13.1299 14.52 12.2899L13.74 10.8099L11.64 16.0999C11.27 16.9599 10.68 17.0599 10.45 17.0599Z" fill="#758195"/>
</svg>
