<svg width="22" height="22" viewBox="0 0 22 22" fill="none" xmlns="http://www.w3.org/2000/svg">
<path fill-rule="evenodd" clip-rule="evenodd" d="M10.948 0.250001H11.052C11.9505 0.249972 12.6997 0.249947 13.2945 0.329913C13.9223 0.414318 14.4891 0.599989 14.9445 1.05546C15.4 1.51093 15.5857 2.07773 15.6701 2.70552C15.7292 3.14512 15.7446 3.66909 15.7486 4.27533C16.3971 4.29614 16.9752 4.33406 17.489 4.40314C18.6614 4.56076 19.6104 4.89288 20.3588 5.64124C21.1071 6.38961 21.4392 7.33856 21.5969 8.51098C21.75 9.65019 21.75 11.1058 21.75 12.9436V13.0564C21.75 14.8942 21.75 16.3498 21.5969 17.489C21.4392 18.6614 21.1071 19.6104 20.3588 20.3588C19.6104 21.1071 18.6614 21.4392 17.489 21.5969C16.3498 21.75 14.8942 21.75 13.0564 21.75H8.94359C7.10583 21.75 5.65019 21.75 4.51098 21.5969C3.33856 21.4392 2.38961 21.1071 1.64124 20.3588C0.89288 19.6104 0.560763 18.6614 0.403135 17.489C0.249972 16.3498 0.249984 14.8942 0.25 13.0564V12.9436C0.249984 11.1058 0.249972 9.65019 0.403135 8.51098C0.560763 7.33856 0.89288 6.38961 1.64124 5.64124C2.38961 4.89288 3.33856 4.56076 4.51098 4.40314C5.02475 4.33406 5.60288 4.29614 6.2514 4.27533C6.2554 3.66909 6.27081 3.14512 6.32991 2.70552C6.41432 2.07773 6.59999 1.51093 7.05546 1.05546C7.51093 0.599989 8.07773 0.414318 8.70552 0.329913C9.3003 0.249947 10.0495 0.249972 10.948 0.250001ZM7.7518 4.25178C8.12993 4.24999 8.52694 4.25 8.94358 4.25H13.0564C13.4731 4.25 13.8701 4.24999 14.2482 4.25178C14.244 3.68146 14.23 3.25125 14.1835 2.90539C14.1214 2.44393 14.0142 2.24644 13.8839 2.11612C13.7536 1.9858 13.5561 1.87858 13.0946 1.81654C12.6116 1.7516 11.964 1.75 11 1.75C10.036 1.75 9.38843 1.7516 8.90539 1.81654C8.44393 1.87858 8.24643 1.9858 8.11612 2.11612C7.9858 2.24644 7.87858 2.44393 7.81654 2.90539C7.77004 3.25125 7.75601 3.68146 7.7518 4.25178ZM4.71085 5.88976C3.70476 6.02503 3.12511 6.2787 2.7019 6.70191C2.27869 7.12511 2.02502 7.70476 1.88976 8.71085C1.75159 9.73852 1.75 11.0932 1.75 13C1.75 14.9068 1.75159 16.2615 1.88976 17.2892C2.02502 18.2952 2.27869 18.8749 2.7019 19.2981C3.12511 19.7213 3.70476 19.975 4.71085 20.1102C5.73851 20.2484 7.09318 20.25 9 20.25H13C14.9068 20.25 16.2615 20.2484 17.2892 20.1102C18.2952 19.975 18.8749 19.7213 19.2981 19.2981C19.7213 18.8749 19.975 18.2952 20.1102 17.2892C20.2484 16.2615 20.25 14.9068 20.25 13C20.25 11.0932 20.2484 9.73852 20.1102 8.71085C19.975 7.70476 19.7213 7.12511 19.2981 6.70191C18.8749 6.2787 18.2952 6.02503 17.2892 5.88976C16.2615 5.7516 14.9068 5.75 13 5.75H9C7.09318 5.75 5.73851 5.7516 4.71085 5.88976Z" fill="#758195"/>
<path d="M16 8C16 8.55229 15.5523 9 15 9C14.4477 9 14 8.55229 14 8C14 7.44772 14.4477 7 15 7C15.5523 7 16 7.44772 16 8Z" fill="#758195"/>
<path d="M8 8C8 8.55229 7.55229 9 7 9C6.44772 9 6 8.55229 6 8C6 7.44772 6.44772 7 7 7C7.55229 7 8 7.44772 8 8Z" fill="#758195"/>
</svg>
