<svg width="15" height="12" viewBox="0 0 15 12" fill="none" xmlns="http://www.w3.org/2000/svg">
<path fill-rule="evenodd" clip-rule="evenodd" d="M7.33268 3.50033C5.95197 3.50033 4.83268 4.61961 4.83268 6.00033C4.83268 7.38104 5.95197 8.50033 7.33268 8.50033C8.71339 8.50033 9.83268 7.38104 9.83268 6.00033C9.83268 4.61961 8.71339 3.50033 7.33268 3.50033ZM5.83268 6.00033C5.83268 5.1719 6.50426 4.50033 7.33268 4.50033C8.16111 4.50033 8.83268 5.1719 8.83268 6.00033C8.83268 6.82875 8.16111 7.50033 7.33268 7.50033C6.50426 7.50033 5.83268 6.82875 5.83268 6.00033Z" fill="#758195"/>
<path fill-rule="evenodd" clip-rule="evenodd" d="M7.33268 0.166992C4.32326 0.166992 2.29621 1.96979 1.11973 3.49823L1.09851 3.52579C0.832441 3.87135 0.587389 4.18961 0.42114 4.56592C0.243112 4.96891 0.166016 5.40812 0.166016 6.00033C0.166016 6.59253 0.243112 7.03174 0.42114 7.43473C0.58739 7.81105 0.832443 8.12931 1.09851 8.47486L1.11973 8.50242C2.29621 10.0309 4.32326 11.8337 7.33268 11.8337C10.3421 11.8337 12.3692 10.0309 13.5456 8.50242L13.5668 8.47488C13.8329 8.12931 14.078 7.81105 14.2442 7.43473C14.4223 7.03174 14.4993 6.59253 14.4993 6.00033C14.4993 5.40812 14.4223 4.96891 14.2442 4.56592C14.078 4.1896 13.8329 3.87134 13.5668 3.52578L13.5456 3.49823C12.3692 1.96979 10.3421 0.166992 7.33268 0.166992ZM1.91216 4.10819C2.99844 2.69694 4.76626 1.16699 7.33268 1.16699C9.89911 1.16699 11.6669 2.69694 12.7532 4.10819C13.0456 4.48805 13.2169 4.71503 13.3295 4.97002C13.4348 5.20834 13.4993 5.49962 13.4993 6.00033C13.4993 6.50104 13.4348 6.79232 13.3295 7.03063C13.2169 7.28562 13.0456 7.5126 12.7532 7.89246C11.6669 9.30371 9.89911 10.8337 7.33268 10.8337C4.76626 10.8337 2.99844 9.30371 1.91216 7.89246C1.61977 7.5126 1.44851 7.28562 1.33586 7.03063C1.23057 6.79231 1.16602 6.50104 1.16602 6.00033C1.16602 5.49962 1.23057 5.20834 1.33586 4.97002C1.44851 4.71503 1.61977 4.48805 1.91216 4.10819Z" fill="#758195"/>
</svg>
