<svg width="88" height="104" viewBox="0 0 88 104" fill="none" xmlns="http://www.w3.org/2000/svg">
<path d="M87.4037 77.9482C87.6629 79 87.671 80.098 87.4273 81.1535C87.1836 82.209 86.695 83.1923 86.001 84.024C80.8686 90.1805 74.4456 95.1336 67.1868 98.5326C59.928 101.932 52.0107 103.693 43.9955 103.693C35.9803 103.693 28.063 101.932 20.8042 98.5326C13.5454 95.1336 7.12242 90.1805 1.99003 84.024C1.29598 83.1923 0.807365 82.209 0.563683 81.1535C0.320001 80.098 0.328089 79 0.587296 77.9482C2.96939 68.2824 8.50814 59.6875 16.3264 53.5248C17.4925 52.6106 18.9264 52.104 20.4081 52.0827C21.8898 52.0615 23.3376 52.5268 24.5295 53.4072C29.7248 57.2709 36.5361 59.6115 43.9846 59.6115C51.433 59.6115 58.2416 57.2709 63.4396 53.4072C64.6315 52.5268 66.0793 52.0615 67.561 52.0827C69.0427 52.104 70.4766 52.6106 71.6428 53.5248C79.4691 59.6841 85.0158 68.2794 87.4037 77.9482Z" fill="white"/>
<path d="M43.9855 50.5805C57.8624 50.5805 69.1117 39.3311 69.1117 25.4543C69.1117 11.5775 57.8624 0.328125 43.9855 0.328125C30.1087 0.328125 18.8594 11.5775 18.8594 25.4543C18.8594 39.3311 30.1087 50.5805 43.9855 50.5805Z" fill="white"/>
</svg>
