<svg width="25" height="25" viewBox="0 0 25 25" fill="none" xmlns="http://www.w3.org/2000/svg">
<path d="M8.71426 9.35335C9.41026 10.803 10.359 12.1616 11.5606 13.3632C12.7622 14.5648 14.1208 15.5136 15.5705 16.2096C15.6952 16.2694 15.7575 16.2994 15.8364 16.3224C16.1167 16.4041 16.461 16.3454 16.6984 16.1754C16.7652 16.1275 16.8224 16.0704 16.9367 15.9561C17.2863 15.6064 17.4611 15.4316 17.6369 15.3174C18.2998 14.8864 19.1544 14.8864 19.8173 15.3174C19.993 15.4316 20.1678 15.6064 20.5175 15.9561L20.7123 16.1509C21.2438 16.6824 21.5095 16.9481 21.6538 17.2335C21.9409 17.801 21.9409 18.4713 21.6538 19.0389C21.5095 19.3242 21.2438 19.59 20.7123 20.1214L20.5547 20.279C20.0251 20.8087 19.7602 21.0735 19.4002 21.2757C19.0007 21.5001 18.3802 21.6615 17.922 21.6601C17.5091 21.6589 17.2268 21.5788 16.6624 21.4186C13.629 20.5576 10.7666 18.9332 8.37864 16.5452C5.99066 14.1572 4.36619 11.2948 3.50522 8.26144C3.34501 7.69699 3.26491 7.41477 3.26368 7.00182C3.26232 6.5436 3.42368 5.92311 3.6481 5.5236C3.85035 5.16357 4.11516 4.89876 4.64478 4.36913L4.80242 4.2115C5.33386 3.68006 5.59958 3.41433 5.88496 3.26999C6.45252 2.98292 7.12279 2.98292 7.69035 3.26999C7.97573 3.41433 8.24145 3.68006 8.77289 4.2115L8.96776 4.40637C9.31737 4.75597 9.49217 4.93078 9.60646 5.10655C10.0375 5.76945 10.0375 6.62403 9.60646 7.28692C9.49217 7.46269 9.31737 7.6375 8.96776 7.9871C8.85345 8.10142 8.79629 8.15857 8.74845 8.22538C8.57844 8.46281 8.51974 8.80707 8.60146 9.08743C8.62446 9.16632 8.65439 9.22866 8.71426 9.35335Z" stroke="#3F4DE1" stroke-width="2" stroke-linecap="round" stroke-linejoin="round"/>
</svg>
