<svg width="12" height="12" viewBox="0 0 12 12" fill="none" xmlns="http://www.w3.org/2000/svg">
<path d="M11.4336 5.09998H6.90034V0.56663C6.90034 0.253899 6.64644 0 6.33361 0C6.02088 0 5.76698 0.253899 5.76698 0.56663V5.09998H1.23362C0.920892 5.09998 0.666992 5.35388 0.666992 5.66661C0.666992 5.97945 0.920892 6.23335 1.23362 6.23335H5.76698V10.7666C5.76698 11.0794 6.02088 11.3333 6.33361 11.3333C6.64644 11.3333 6.90034 11.0794 6.90034 10.7666V6.23335H11.4336C11.7464 6.23335 12.0003 5.97945 12.0003 5.66661C12.0003 5.35388 11.7464 5.09998 11.4336 5.09998Z" fill="white"/>
</svg>
