<svg width="20" height="20" viewBox="0 0 20 20" fill="none" xmlns="http://www.w3.org/2000/svg">
<path fill-rule="evenodd" clip-rule="evenodd" d="M9.9546 1.0415H10.0461C11.1857 1.04149 12.1043 1.04147 12.8268 1.13861C13.5769 1.23945 14.2084 1.4552 14.71 1.9568C15.3267 2.57345 15.5174 3.39581 15.5847 4.41603C15.7889 4.42966 15.9805 4.4478 16.1601 4.47194C16.9102 4.57279 17.5418 4.78853 18.0434 5.29013C18.545 5.79173 18.7607 6.42329 18.8616 7.17338C18.9587 7.89585 18.9587 8.81445 18.9587 9.95411V10.0456C18.9587 11.1852 18.9587 12.1038 18.8616 12.8263C18.7607 13.5764 18.545 14.2079 18.0434 14.7095C17.4267 15.3262 16.6044 15.5169 15.5841 15.5842C15.5705 15.7884 15.5524 15.9801 15.5282 16.1596C15.4274 16.9097 15.2116 17.5413 14.71 18.0429C14.2084 18.5445 13.5769 18.7602 12.8268 18.8611C12.1043 18.9582 11.1857 18.9582 10.0461 18.9582H9.9546C8.81494 18.9582 7.89634 18.9582 7.17387 18.8611C6.42378 18.7602 5.79221 18.5445 5.29062 18.0429C4.78902 17.5413 4.57328 16.9097 4.47243 16.1596C4.44828 15.9801 4.43014 15.7884 4.41651 15.5842C3.3963 15.5169 2.57393 15.3262 1.95728 14.7095C1.45569 14.208 1.23994 13.5764 1.1391 12.8263C1.04196 12.1038 1.04198 11.1852 1.04199 10.0456V9.95411C1.04198 8.81445 1.04196 7.89585 1.1391 7.17338C1.23994 6.42329 1.45569 5.79173 1.95728 5.29013C2.45888 4.78853 3.09044 4.57279 3.84053 4.47194C4.02011 4.4478 4.2118 4.42966 4.41599 4.41603C4.48326 3.39581 4.67397 2.57345 5.29062 1.9568C5.79221 1.4552 6.42378 1.23945 7.17387 1.13861C7.89634 1.04147 8.81494 1.04149 9.9546 1.0415ZM5.67295 4.37729C5.97037 4.37483 6.28627 4.37483 6.62126 4.37484H13.3794C13.7144 4.37483 14.0303 4.37483 14.3277 4.37729C14.2594 3.52658 14.1057 3.12027 13.8262 2.84068C13.5955 2.61004 13.2717 2.45967 12.6602 2.37746C12.0308 2.29283 11.1965 2.2915 10.0003 2.2915C8.80415 2.2915 7.96988 2.29283 7.34043 2.37746C6.72895 2.45967 6.40514 2.61004 6.1745 2.84068C5.89491 3.12027 5.74123 3.52658 5.67295 4.37729ZM4.37778 14.3272C4.37532 14.0298 4.37532 13.7139 4.37533 13.3789L4.37533 13.1248H4.16699C3.82182 13.1248 3.54199 12.845 3.54199 12.4998C3.54199 12.1547 3.82182 11.8748 4.16699 11.8748H15.8337C16.1788 11.8748 16.4587 12.1547 16.4587 12.4998C16.4587 12.845 16.1788 13.1248 15.8337 13.1248H15.6253V13.3789C15.6253 13.7139 15.6253 14.0298 15.6229 14.3272C16.4736 14.2589 16.8799 14.1053 17.1595 13.8257C17.3901 13.595 17.5405 13.2712 17.6227 12.6597C17.7073 12.0303 17.7087 11.196 17.7087 9.99984C17.7087 8.80366 17.7073 7.9694 17.6227 7.33994C17.5405 6.72846 17.3901 6.40465 17.1595 6.17401C16.9289 5.94338 16.605 5.79301 15.9936 5.71079C15.3641 5.62617 14.5298 5.62484 13.3337 5.62484H6.66699C5.47081 5.62484 4.63655 5.62617 4.00709 5.71079C3.39561 5.79301 3.0718 5.94338 2.84117 6.17401C2.61053 6.40465 2.46016 6.72846 2.37795 7.33994C2.29332 7.9694 2.29199 8.80366 2.29199 9.99984C2.29199 11.196 2.29332 12.0303 2.37795 12.6597C2.46016 13.2712 2.61053 13.595 2.84117 13.8257C3.12076 14.1053 3.52707 14.2589 4.37778 14.3272ZM14.3753 13.1248H5.62533V13.3332C5.62533 14.5294 5.62665 15.3636 5.71128 15.9931C5.79349 16.6046 5.94386 16.9284 6.1745 17.159C6.40514 17.3896 6.72895 17.54 7.34043 17.6222C7.96988 17.7068 8.80415 17.7082 10.0003 17.7082C11.1965 17.7082 12.0308 17.7068 12.6602 17.6222C13.2717 17.54 13.5955 17.3896 13.8262 17.159C14.0568 16.9284 14.2072 16.6046 14.2894 15.9931C14.374 15.3636 14.3753 14.5294 14.3753 13.3332V13.1248ZM4.37533 8.33317C4.37533 7.98799 4.65515 7.70817 5.00033 7.70817H7.50033C7.8455 7.70817 8.12533 7.98799 8.12533 8.33317C8.12533 8.67835 7.8455 8.95817 7.50033 8.95817H5.00033C4.65515 8.95817 4.37533 8.67835 4.37533 8.33317Z" fill="#77777A"/>
<path d="M15.0003 8.33317C15.0003 8.79341 14.6272 9.1665 14.167 9.1665C13.7068 9.1665 13.3337 8.79341 13.3337 8.33317C13.3337 7.87293 13.7068 7.49984 14.167 7.49984C14.6272 7.49984 15.0003 7.87293 15.0003 8.33317Z" fill="#77777A"/>
</svg>
