<svg width="20" height="20" viewBox="0 0 20 20" fill="none" xmlns="http://www.w3.org/2000/svg">
<g clip-path="url(#clip0_5935_2127)">
<path fill-rule="evenodd" clip-rule="evenodd" d="M8.95797 2.083C5.16103 2.083 2.083 5.16103 2.083 8.95797C2.083 12.7549 5.16103 15.8329 8.95797 15.8329C12.7549 15.8329 15.8329 12.7549 15.8329 8.95797C15.8329 5.16103 12.7549 2.083 8.95797 2.083ZM0.833008 8.95797C0.833008 4.47068 4.47068 0.833008 8.95797 0.833008C13.4453 0.833008 17.0829 4.47068 17.0829 8.95797C17.0829 13.4453 13.4453 17.0829 8.95797 17.0829C4.47068 17.0829 0.833008 13.4453 0.833008 8.95797ZM16.5895 16.2505C16.3966 16.2359 16.2359 16.3966 16.2505 16.5895C16.2508 16.5906 16.254 16.6119 16.2701 16.6724C16.2891 16.7433 16.3172 16.8375 16.3602 16.981C16.3997 17.1127 16.4253 17.198 16.4464 17.2613C16.468 17.3262 16.4754 17.3386 16.4722 17.3326C16.5601 17.4966 16.77 17.5496 16.9252 17.4468C16.9194 17.4506 16.9319 17.4432 16.9816 17.3964C17.0303 17.3506 17.0933 17.2877 17.1905 17.1905C17.2877 17.0933 17.3506 17.0303 17.3964 16.9816C17.4352 16.9404 17.4469 16.9248 17.4477 16.9239C17.549 16.7693 17.4965 16.5609 17.3339 16.4729C17.3329 16.4725 17.3152 16.4643 17.2614 16.4464C17.198 16.4253 17.1127 16.3997 16.981 16.3602C16.8375 16.3172 16.7433 16.2891 16.6723 16.2701C16.6119 16.254 16.5905 16.2508 16.5895 16.2505ZM15.0049 16.694C14.9256 15.7302 15.7302 14.9256 16.694 15.0049C16.8606 15.0186 17.0622 15.0793 17.2797 15.1448C17.2996 15.1508 17.3197 15.1568 17.3398 15.1629C17.358 15.1683 17.3761 15.1737 17.3941 15.1791C17.5939 15.2387 17.7814 15.2946 17.9226 15.3702C18.7359 15.8057 18.9984 16.8462 18.489 17.6153C18.4006 17.7489 18.2621 17.8871 18.1144 18.0343C18.1011 18.0476 18.0878 18.0609 18.0744 18.0744C18.0609 18.0878 18.0476 18.1012 18.0343 18.1145C17.887 18.2621 17.7489 18.4006 17.6153 18.489C16.8462 18.9984 15.8057 18.7358 15.3702 17.9226C15.2946 17.7814 15.2387 17.5939 15.1791 17.3941C15.1737 17.3761 15.1683 17.358 15.1629 17.3398C15.1568 17.3197 15.1508 17.2997 15.1448 17.2798C15.0793 17.0622 15.0186 16.8607 15.0049 16.694Z" fill="#758195"/>
</g>
<defs>
<clipPath id="clip0_5935_2127">
<rect width="18.3333" height="18.3333" fill="white" transform="translate(0.833008 0.833008)"/>
</clipPath>
</defs>
</svg>
