<svg width="20" height="20" viewBox="0 0 20 20" fill="none" xmlns="http://www.w3.org/2000/svg">
<path d="M10.0003 1.0415H9.95251C8.02885 1.04149 6.52132 1.04148 5.34508 1.19963C4.14113 1.36149 3.19111 1.69928 2.44544 2.44495C1.69976 3.19063 1.36198 4.14065 1.20011 5.34459C1.04197 6.52083 1.04198 8.02836 1.04199 9.95202V10.0477C1.04198 11.9713 1.04197 13.4788 1.20011 14.6551C1.36198 15.859 1.69976 16.8091 2.44544 17.5547C3.19111 18.3004 4.14113 18.6382 5.34508 18.8C6.52132 18.9582 8.02885 18.9582 9.95252 18.9582H10.0481C11.9718 18.9582 13.4793 18.9582 14.6556 18.8C15.8595 18.6382 16.8095 18.3004 17.5552 17.5547C18.3009 16.8091 18.6387 15.859 18.8005 14.6551C18.9587 13.4788 18.9587 11.9713 18.9587 10.0476V9.99984C18.9587 9.65466 18.6788 9.37484 18.3337 9.37484C17.9885 9.37484 17.7087 9.65466 17.7087 9.99984C17.7087 11.9817 17.7073 13.4052 17.5617 14.4885C17.4185 15.5539 17.146 16.1961 16.6713 16.6708C16.1966 17.1456 15.5543 17.418 14.489 17.5612C13.4057 17.7068 11.9822 17.7082 10.0003 17.7082C8.01847 17.7082 6.59495 17.7068 5.51164 17.5612C4.4463 17.418 3.80404 17.1456 3.32932 16.6708C2.85461 16.1961 2.5822 15.5539 2.43897 14.4885C2.29332 13.4052 2.29199 11.9817 2.29199 9.99984C2.29199 8.01798 2.29332 6.59447 2.43897 5.51115C2.5822 4.44582 2.85461 3.80355 3.32932 3.32883C3.80404 2.85412 4.4463 2.58171 5.51164 2.43848C6.59495 2.29283 8.01847 2.2915 10.0003 2.2915C10.3455 2.2915 10.6253 2.01168 10.6253 1.6665C10.6253 1.32133 10.3455 1.0415 10.0003 1.0415Z" fill="#77777A"/>
<path d="M10.3917 8.72456C10.1476 8.96864 10.1476 9.36437 10.3917 9.60845C10.6358 9.85252 11.0315 9.85252 11.2756 9.60845L17.7087 3.17539V6.11963C17.7087 6.46481 17.9885 6.74463 18.3337 6.74463C18.6788 6.74463 18.9587 6.46481 18.9587 6.11963V1.6665C18.9587 1.32133 18.6788 1.0415 18.3337 1.0415H13.8805C13.5354 1.0415 13.2555 1.32133 13.2555 1.6665C13.2555 2.01168 13.5354 2.2915 13.8805 2.2915H16.8248L10.3917 8.72456Z" fill="#77777A"/>
</svg>
