<svg width="18" height="18" viewBox="0 0 18 18" fill="none" xmlns="http://www.w3.org/2000/svg">
<path fill-rule="evenodd" clip-rule="evenodd" d="M9.00041 5.87533C7.27452 5.87533 5.87541 7.27444 5.87541 9.00033C5.87541 10.7262 7.27452 12.1253 9.00041 12.1253C10.7263 12.1253 12.1254 10.7262 12.1254 9.00033C12.1254 7.27444 10.7263 5.87533 9.00041 5.87533ZM7.12541 9.00033C7.12541 7.96479 7.96488 7.12533 9.00041 7.12533C10.0359 7.12533 10.8754 7.96479 10.8754 9.00033C10.8754 10.0359 10.0359 10.8753 9.00041 10.8753C7.96488 10.8753 7.12541 10.0359 7.12541 9.00033Z" fill="#5E5E62"/>
<path fill-rule="evenodd" clip-rule="evenodd" d="M8.97936 0.0419924C8.60897 0.0419863 8.29977 0.0419812 8.04593 0.0593008C7.78168 0.0773304 7.53207 0.116199 7.29008 0.216435C6.72856 0.449026 6.28243 0.895154 6.04984 1.45668C5.92876 1.74901 5.89596 2.05709 5.88344 2.39196C5.87337 2.66115 5.73752 2.88575 5.53703 3.0015C5.33655 3.11725 5.07411 3.1226 4.83596 2.99673C4.53969 2.84013 4.25648 2.71449 3.94277 2.67319C3.34018 2.59385 2.73076 2.75715 2.24857 3.12715C2.04076 3.2866 1.8823 3.48333 1.73456 3.70316C1.59264 3.91434 1.43805 4.18211 1.25286 4.50288L1.23181 4.53933C1.04662 4.86009 0.892013 5.12786 0.780091 5.35635C0.66358 5.59421 0.572439 5.82981 0.538251 6.0895C0.458919 6.69209 0.622213 7.30151 0.99221 7.7837C1.18481 8.0347 1.43518 8.21712 1.71888 8.39538C1.94703 8.53874 2.07364 8.76875 2.07363 9.00031C2.07361 9.23185 1.94701 9.46182 1.71889 9.60516C1.43515 9.78343 1.18475 9.96587 0.992129 10.2169C0.622131 10.6991 0.458837 11.3085 0.538169 11.9111C0.572358 12.1708 0.663499 12.4064 0.78001 12.6442C0.89193 12.8727 1.04653 13.1405 1.23172 13.4612L1.25277 13.4977C1.43796 13.8185 1.59256 14.0863 1.73448 14.2974C1.88222 14.5173 2.04068 14.714 2.24849 14.8734C2.73068 15.2434 3.3401 15.4067 3.94269 15.3274C4.25638 15.2861 4.53957 15.1605 4.83583 15.0039C5.07402 14.878 5.33648 14.8834 5.53699 14.9991C5.7375 15.1149 5.87337 15.3395 5.88344 15.6087C5.89597 15.9436 5.92876 16.2517 6.04984 16.544C6.28243 17.1055 6.72856 17.5516 7.29008 17.7842C7.53207 17.8845 7.78168 17.9233 8.04593 17.9414C8.29977 17.9587 8.60897 17.9587 8.97935 17.9587H9.02145C9.39183 17.9587 9.70103 17.9587 9.95487 17.9414C10.2191 17.9233 10.4687 17.8845 10.7107 17.7842C11.2722 17.5516 11.7184 17.1055 11.951 16.544C12.072 16.2516 12.1048 15.9435 12.1174 15.6087C12.1274 15.3395 12.2633 15.1149 12.4638 14.9991C12.6643 14.8833 12.9267 14.878 13.1649 15.0039C13.4612 15.1604 13.7443 15.2861 14.058 15.3274C14.6606 15.4067 15.27 15.2434 15.7522 14.8734C15.96 14.7139 16.1185 14.5172 16.2662 14.2974C16.4082 14.0862 16.5627 13.8185 16.7479 13.4977L16.769 13.4612C16.9542 13.1405 17.1088 12.8727 17.2207 12.6442C17.3372 12.4063 17.4284 12.1707 17.4626 11.911C17.5419 11.3084 17.3786 10.699 17.0086 10.2168C16.816 9.96583 16.5656 9.78339 16.2819 9.60512C16.0538 9.46179 15.9272 9.23181 15.9272 9.00028C15.9272 8.76878 16.0538 8.53884 16.2819 8.39553C16.5656 8.21724 16.816 8.03479 17.0087 7.78376C17.3787 7.30157 17.542 6.69215 17.4626 6.08956C17.4284 5.82987 17.3373 5.59427 17.2208 5.35641C17.1089 5.12793 16.9543 4.86018 16.7691 4.53945L16.748 4.50297C16.5629 4.1822 16.4082 3.9144 16.2663 3.70322C16.1186 3.48339 15.9601 3.28666 15.7523 3.1272C15.2701 2.75721 14.6607 2.59391 14.0581 2.67324C13.7444 2.71454 13.4612 2.84017 13.165 2.99676C12.9268 3.12265 12.6643 3.11729 12.4638 3.00153C12.2633 2.88576 12.1274 2.66114 12.1174 2.39191C12.1048 2.05706 12.072 1.74899 11.951 1.45668C11.7184 0.895153 11.2722 0.449026 10.7107 0.216435C10.4687 0.1162 10.2191 0.0773304 9.95487 0.0593008C9.70103 0.0419812 9.39183 0.0419863 9.02144 0.0419924H8.97936ZM7.76844 1.37128C7.83273 1.34465 7.93041 1.32009 8.13102 1.3064C8.33724 1.29233 8.60357 1.29199 9.0004 1.29199C9.39724 1.29199 9.66356 1.29233 9.86978 1.3064C10.0704 1.32009 10.1681 1.34465 10.2324 1.37128C10.4876 1.47701 10.6904 1.67979 10.7961 1.93503C10.8295 2.01554 10.8571 2.14105 10.8682 2.43863C10.8929 3.09895 11.2338 3.73473 11.8388 4.08406C12.4439 4.43339 13.1649 4.41066 13.7491 4.10189C14.0124 3.96274 14.1349 3.92392 14.2213 3.91255C14.4952 3.87649 14.7722 3.95071 14.9914 4.1189C15.0466 4.16126 15.1167 4.23357 15.2288 4.40046C15.3441 4.57201 15.4776 4.80249 15.676 5.14616C15.8744 5.48983 16.0073 5.72064 16.0982 5.90627C16.1867 6.08684 16.2142 6.18372 16.2233 6.25272C16.2594 6.52662 16.1852 6.80363 16.017 7.02281C15.9639 7.09195 15.869 7.17865 15.6169 7.33711C15.0574 7.68862 14.6772 8.30162 14.6772 9.00022C14.6771 9.69889 15.0573 10.312 15.6168 10.6635C15.869 10.822 15.9638 10.9087 16.0169 10.9778C16.1851 11.197 16.2593 11.474 16.2232 11.7479C16.2142 11.8169 16.1866 11.9138 16.0981 12.0943C16.0072 12.28 15.8744 12.5108 15.6759 12.8544C15.4775 13.1981 15.3441 13.4286 15.2288 13.6001C15.1166 13.767 15.0465 13.8393 14.9913 13.8817C14.7721 14.0499 14.4951 14.1241 14.2212 14.088C14.1348 14.0767 14.0123 14.0379 13.749 13.8987C13.1648 13.5899 12.4438 13.5672 11.8387 13.9166C11.2337 14.2659 10.8929 14.9017 10.8682 15.562C10.8571 15.8596 10.8295 15.9851 10.7961 16.0656C10.6904 16.3209 10.4876 16.5236 10.2324 16.6294C10.1681 16.656 10.0704 16.6806 9.86978 16.6943C9.66356 16.7083 9.39724 16.7087 9.0004 16.7087C8.60357 16.7087 8.33724 16.7083 8.13102 16.6943C7.93041 16.6806 7.83273 16.656 7.76844 16.6294C7.5132 16.5236 7.31042 16.3209 7.20469 16.0656C7.17134 15.9851 7.1437 15.8596 7.13257 15.562C7.10787 14.9017 6.76705 14.2659 6.16199 13.9166C5.55694 13.5673 4.83592 13.59 4.25172 13.8988C3.98845 14.0379 3.86593 14.0767 3.77953 14.0881C3.50563 14.1242 3.22861 14.0499 3.00944 13.8818C2.95423 13.8394 2.88411 13.7671 2.77196 13.6002C2.65666 13.4286 2.52321 13.1982 2.32479 12.8545C2.12637 12.5108 1.9935 12.28 1.90257 12.0944C1.81413 11.9138 1.78656 11.8169 1.77748 11.7479C1.74142 11.474 1.81564 11.197 1.98382 10.9778C2.03687 10.9087 2.13175 10.822 2.38391 10.6636C2.94339 10.312 3.32359 9.69901 3.32363 9.00038C3.32366 8.30166 2.94345 7.68855 2.38392 7.33698C2.13181 7.17857 2.03695 7.09188 1.9839 7.02275C1.81572 6.80357 1.7415 6.52656 1.77756 6.25266C1.78664 6.18366 1.81421 6.08679 1.90266 5.90621C1.99358 5.72059 2.12645 5.48977 2.32487 5.1461C2.52329 4.80243 2.65674 4.57196 2.77204 4.4004C2.88419 4.23351 2.95431 4.1612 3.00952 4.11884C3.2287 3.95066 3.50571 3.87643 3.77961 3.91249C3.86602 3.92387 3.98854 3.96269 4.25185 4.10186C4.83602 4.41062 5.557 4.43334 6.16203 4.08404C6.76706 3.73473 7.10788 3.09897 7.13257 2.43867C7.1437 2.14106 7.17134 2.01555 7.20469 1.93503C7.31041 1.67979 7.5132 1.47701 7.76844 1.37128Z" fill="#5E5E62"/>
</svg>
