<svg width="16" height="16" viewBox="0 0 16 16" fill="none" xmlns="http://www.w3.org/2000/svg">
<g clip-path="url(#clip0_6270_615)">
<path fill-rule="evenodd" clip-rule="evenodd" d="M10.5466 9.30132C10.5466 9.30132 8.5152 11.3327 7.68837 12.1596L4.83012 9.30132C4.64033 9.11153 4.33215 9.11153 4.14236 9.30132C3.95256 9.49112 3.95256 9.79929 4.14236 9.98909L7.34449 13.1912C7.53441 13.3811 7.84233 13.3811 8.03225 13.1912L11.2344 9.98909C11.4242 9.79929 11.4242 9.49112 11.2344 9.30132C11.0446 9.11153 10.7364 9.11153 10.5466 9.30132ZM4.83011 6.69933L7.68836 3.84108L10.5466 6.69933C10.7364 6.88912 11.0446 6.88912 11.2344 6.69933C11.4242 6.50953 11.4242 6.20136 11.2344 6.01156L8.03224 2.80943C7.84232 2.61951 7.5344 2.61951 7.34448 2.80943L4.14235 6.01156C3.95255 6.20136 3.95255 6.50953 4.14235 6.69933C4.33214 6.88912 4.64032 6.88912 4.83011 6.69933Z" fill="#758195"/>
</g>
<defs>
<clipPath id="clip0_6270_615">
<rect width="7.37673" height="10.6667" fill="white" transform="translate(4 2.66699)"/>
</clipPath>
</defs>
</svg>
