<svg width="6" height="20" viewBox="0 0 6 20" fill="none" xmlns="http://www.w3.org/2000/svg">
<g clip-path="url(#clip0_5935_2022)">
<path d="M0.25 3C0.25 1.48 1.48 0.25 3 0.25C4.52 0.25 5.75 1.48 5.75 3C5.75 4.52 4.52 5.75 3 5.75C1.48 5.75 0.25 4.52 0.25 3ZM4.25 3C4.25 2.31 3.69 1.75 3 1.75C2.31 1.75 1.75 2.31 1.75 3C1.75 3.69 2.31 4.25 3 4.25C3.69 4.25 4.25 3.69 4.25 3Z" fill="#758195"/>
<path d="M0.25 17C0.25 15.48 1.48 14.25 3 14.25C4.52 14.25 5.75 15.48 5.75 17C5.75 18.52 4.52 19.75 3 19.75C1.48 19.75 0.25 18.52 0.25 17ZM4.25 17C4.25 16.31 3.69 15.75 3 15.75C2.31 15.75 1.75 16.31 1.75 17C1.75 17.69 2.31 18.25 3 18.25C3.69 18.25 4.25 17.69 4.25 17Z" fill="#758195"/>
<path d="M0.25 10C0.25 8.48 1.48 7.25 3 7.25C4.52 7.25 5.75 8.48 5.75 10C5.75 11.52 4.52 12.75 3 12.75C1.48 12.75 0.25 11.52 0.25 10ZM4.25 10C4.25 9.31 3.69 8.75 3 8.75C2.31 8.75 1.75 9.31 1.75 10C1.75 10.69 2.31 11.25 3 11.25C3.69 11.25 4.25 10.69 4.25 10Z" fill="#758195"/>
</g>
<defs>
<clipPath id="clip0_5935_2022">
<rect width="5.5" height="19.5" fill="white" transform="translate(0.25 0.25)"/>
</clipPath>
</defs>
</svg>
