<svg width="16" height="16" viewBox="0 0 16 16" fill="none" xmlns="http://www.w3.org/2000/svg">
<path d="M8.0026 8.66602C8.37079 8.66602 8.66927 8.36754 8.66927 7.99935C8.66927 7.63116 8.37079 7.33268 8.0026 7.33268C7.63441 7.33268 7.33594 7.63116 7.33594 7.99935C7.33594 8.36754 7.63441 8.66602 8.0026 8.66602Z" stroke="#4B5565" stroke-width="1.33333" stroke-linecap="round" stroke-linejoin="round"/>
<path d="M8.0026 3.99935C8.37079 3.99935 8.66927 3.70087 8.66927 3.33268C8.66927 2.96449 8.37079 2.66602 8.0026 2.66602C7.63441 2.66602 7.33594 2.96449 7.33594 3.33268C7.33594 3.70087 7.63441 3.99935 8.0026 3.99935Z" stroke="#4B5565" stroke-width="1.33333" stroke-linecap="round" stroke-linejoin="round"/>
<path d="M8.0026 13.3327C8.37079 13.3327 8.66927 13.0342 8.66927 12.666C8.66927 12.2978 8.37079 11.9993 8.0026 11.9993C7.63441 11.9993 7.33594 12.2978 7.33594 12.666C7.33594 13.0342 7.63441 13.3327 8.0026 13.3327Z" stroke="#4B5565" stroke-width="1.33333" stroke-linecap="round" stroke-linejoin="round"/>
</svg>
