<svg width="48" height="48" viewBox="0 0 48 48" fill="none" xmlns="http://www.w3.org/2000/svg">
<path fill-rule="evenodd" clip-rule="evenodd" d="M33.543 19.1055C33.552 19.317 33.558 19.5285 33.558 19.743C33.558 26.2485 28.605 33.7515 19.548 33.7515C16.767 33.7515 14.1795 32.937 12 31.5405C12.3855 31.5855 12.777 31.608 13.1745 31.608C15.4815 31.608 17.604 30.822 19.29 29.5005C17.1345 29.4615 15.3165 28.038 14.6895 26.082C14.991 26.139 15.2985 26.169 15.6165 26.169C16.065 26.169 16.5 26.109 16.914 25.9965C14.661 25.545 12.9645 23.5545 12.9645 21.1695V21.1065C13.6275 21.4755 14.388 21.6975 15.195 21.723C13.8735 20.8395 13.0035 19.332 13.0035 17.625C13.0035 16.722 13.2465 15.876 13.671 15.1485C16.0995 18.1275 19.728 20.088 23.82 20.2935C23.736 19.9335 23.6925 19.557 23.6925 19.1715C23.6925 16.452 25.8975 14.247 28.6155 14.247C30.033 14.247 31.3125 14.8455 32.2095 15.8025C33.3315 15.582 34.386 15.1725 35.337 14.6085C34.9695 15.7575 34.188 16.722 33.1725 17.3325C34.1685 17.2125 35.1165 16.9485 36 16.557C35.34 17.544 34.5045 18.411 33.543 19.1055ZM24 0C10.7445 0 0 10.7445 0 24C0 37.254 10.7445 48 24 48C37.2555 48 48 37.254 48 24C48 10.7445 37.2555 0 24 0Z" fill="#41A1F2"/>
</svg>
