<svg xmlns="http://www.w3.org/2000/svg" xmlns:xlink="http://www.w3.org/1999/xlink" viewBox="0,0,256,256" width="24px" height="24px" fill-rule="nonzero"><g fill="#222039" fill-rule="nonzero" stroke="none" stroke-width="1" stroke-linecap="butt" stroke-linejoin="miter" stroke-miterlimit="10" stroke-dasharray="" stroke-dashoffset="0" font-family="none" font-weight="none" font-size="none" text-anchor="none" style="mix-blend-mode: normal"><g transform="scale(10.66667,10.66667)"><path d="M17.21484,2.98633c-0.36769,0.01376 -0.71065,0.18882 -0.9375,0.47852l-3.92578,4.86914l-3.29492,-4.5625c-0.35,-0.484 -0.91081,-0.77148 -1.50781,-0.77148h-3.4707c-0.658,0 -1.0393,0.7463 -0.6543,1.2793l5.76172,7.97852l-5.4082,6.70703c-0.28774,0.34681 -0.36656,0.82164 -0.2063,1.24281c0.16026,0.42117 0.53478,0.7235 0.98029,0.79131c0.4455,0.06781 0.89302,-0.10939 1.17133,-0.46381l4.98047,-6.17578l4.24023,5.86914c0.35,0.484 0.91081,0.77148 1.50781,0.77148h3.4707c0.658,0 1.0393,-0.7463 0.6543,-1.2793l-6.70703,-9.28711l4.35352,-5.39844c0.31557,-0.37926 0.37855,-0.90865 0.16078,-1.35137c-0.21777,-0.44272 -0.67556,-0.71594 -1.16859,-0.69746z"></path></g></g></svg>