<svg width="26" height="22" viewBox="0 0 26 22" fill="none" xmlns="http://www.w3.org/2000/svg">
<path d="M25.5 3.15212C24.5604 3.55974 23.5668 3.8292 22.55 3.95212C23.6227 3.31127 24.4266 2.3031 24.8125 1.11462C23.8044 1.7147 22.701 2.13749 21.55 2.36462C20.7807 1.53033 19.7562 0.974988 18.6373 0.785682C17.5183 0.596376 16.3682 0.783816 15.3672 1.3186C14.3663 1.85339 13.5712 2.70528 13.1066 3.74066C12.6419 4.77604 12.5341 5.93635 12.8 7.03962C10.7618 6.93652 8.76805 6.40581 6.94832 5.48194C5.12859 4.55808 3.52356 3.26173 2.2375 1.67712C1.78642 2.46483 1.5494 3.3569 1.55 4.26462C1.5484 5.1076 1.75527 5.93789 2.15219 6.68157C2.54912 7.42526 3.12377 8.05926 3.825 8.52712C3.00997 8.50494 2.21236 8.28624 1.5 7.88962V7.95212C1.50611 9.13323 1.91999 10.276 2.67164 11.1871C3.42329 12.0982 4.46657 12.7217 5.625 12.9521C5.17907 13.0878 4.71609 13.1594 4.25 13.1646C3.92736 13.1608 3.60553 13.1316 3.2875 13.0771C3.61739 14.0931 4.25578 14.981 5.11384 15.6173C5.97191 16.2536 7.00697 16.6066 8.075 16.6271C6.2715 18.0462 4.04485 18.8207 1.75 18.8271C1.33217 18.8285 0.91467 18.8034 0.5 18.7521C2.84304 20.2649 5.57352 21.068 8.3625 21.0646C10.2871 21.0846 12.1964 20.7209 13.9789 19.9947C15.7614 19.2685 17.3813 18.1945 18.744 16.8352C20.1067 15.476 21.185 13.8589 21.9157 12.0782C22.6464 10.2976 23.015 8.38928 23 6.46462C23 6.25212 23 6.02712 23 5.80212C23.9809 5.07063 24.8268 4.1739 25.5 3.15212Z" fill="#52525B"/>
</svg>
