<svg xmlns="http://www.w3.org/2000/svg" xmlns:xlink="http://www.w3.org/1999/xlink" viewBox="0,0,256,256" width="25px" height="25px" fill-rule="nonzero"><g fill="#52525b" fill-rule="nonzero" stroke="none" stroke-width="1" stroke-linecap="butt" stroke-linejoin="miter" stroke-miterlimit="10" stroke-dasharray="" stroke-dashoffset="0" font-family="none" font-weight="none" font-size="none" text-anchor="none" style="mix-blend-mode: normal"><g transform="scale(10.66667,10.66667)"><path d="M20.576,19.721l-6.852,-9.488l4.552,-5.602c0.349,-0.429 0.283,-1.059 -0.146,-1.407c-0.427,-0.347 -1.058,-0.283 -1.406,0.146l-4.213,5.185l-3.454,-4.784c-0.35,-0.484 -0.911,-0.771 -1.508,-0.771h-3.471c-0.658,0 -1.039,0.746 -0.654,1.279l5.911,8.184l-5.611,6.906c-0.348,0.429 -0.283,1.059 0.146,1.407c0.185,0.151 0.408,0.224 0.63,0.224c0.291,0 0.579,-0.126 0.777,-0.369l5.271,-6.488l4.396,6.086c0.35,0.484 0.91,0.771 1.507,0.771h3.471c0.658,0 1.039,-0.746 0.654,-1.279z"></path></g></g></svg>