<svg width="34" height="31" viewBox="0 0 34 31" fill="none" xmlns="http://www.w3.org/2000/svg">
<path d="M31.1908 29.7891H3.30761C2.59739 29.7891 1.91637 29.4873 1.41415 28.9499C0.912135 28.4125 0.629883 27.6838 0.629883 26.9239V3.53909C0.629883 2.77912 0.912116 2.05041 1.41415 1.51302C1.91637 0.975639 2.59739 0.673828 3.30761 0.673828H31.1908C31.9008 0.673828 32.5818 0.975624 33.084 1.51302C33.5862 2.05041 33.8683 2.77912 33.8683 3.53909V26.9239C33.8683 27.6838 33.5863 28.4125 33.084 28.9499C32.5818 29.4873 31.9008 29.7891 31.1908 29.7891ZM3.30761 2.90791C2.98192 2.90791 2.71769 3.19041 2.71769 3.53914V26.9239C2.71769 27.2726 2.9819 27.5552 3.30761 27.5552H31.1908C31.5144 27.5521 31.7753 27.2704 31.7753 26.9239V3.53914C31.7753 3.19266 31.5144 2.91098 31.1908 2.90791H3.30761Z" fill="#374151"/>
<path d="M6.69514 24.9467H27.3177C27.539 24.9534 27.7546 24.871 27.9218 24.7154C28.0889 24.5601 28.1951 24.3429 28.2196 24.1076C28.2439 23.872 28.1849 23.6354 28.0537 23.4443L25.209 19.3114C25.0587 19.0888 24.8254 18.9474 24.5698 18.9237C24.3143 18.9001 24.0617 18.9968 23.878 19.1885L20.9551 22.1654L14.1696 12.3078V12.3076C13.9983 12.0578 13.7228 11.9138 13.4332 11.9228C13.1436 11.9317 12.8765 12.0923 12.7186 12.3525L5.93321 23.4891L5.9334 23.4889C5.8161 23.6822 5.76884 23.9146 5.80073 24.1422C5.83242 24.3701 5.9408 24.5777 6.10573 24.7257C6.27048 24.874 6.48021 24.9526 6.69545 24.9467L6.69514 24.9467Z" fill="#374151"/>
<path d="M26.5186 9.11866C26.5186 10.9477 25.1327 12.4307 23.4234 12.4307C21.7138 12.4307 20.3281 10.9477 20.3281 9.11866C20.3281 7.28939 21.7139 5.80664 23.4234 5.80664C25.1327 5.80664 26.5186 7.28944 26.5186 9.11866Z" fill="#374151"/>
</svg>
