<svg width="41" height="40" viewBox="0 0 41 40" fill="none" xmlns="http://www.w3.org/2000/svg">
<path d="M8.83333 35C7.91667 35 7.13194 34.6736 6.47917 34.0208C5.82639 33.3681 5.5 32.5833 5.5 31.6667V8.33333C5.5 7.41667 5.82639 6.63194 6.47917 5.97917C7.13194 5.32639 7.91667 5 8.83333 5H22.1667C22.6389 5 23.0347 5.15972 23.3542 5.47917C23.6736 5.79861 23.8333 6.19444 23.8333 6.66667C23.8333 7.13889 23.6736 7.53472 23.3542 7.85417C23.0347 8.17361 22.6389 8.33333 22.1667 8.33333H8.83333V31.6667H32.1667V18.3333C32.1667 17.8611 32.3264 17.4653 32.6458 17.1458C32.9653 16.8264 33.3611 16.6667 33.8333 16.6667C34.3056 16.6667 34.7014 16.8264 35.0208 17.1458C35.3403 17.4653 35.5 17.8611 35.5 18.3333V31.6667C35.5 32.5833 35.1736 33.3681 34.5208 34.0208C33.8681 34.6736 33.0833 35 32.1667 35H8.83333ZM28.8333 11.6667H27.1667C26.6944 11.6667 26.2986 11.5069 25.9792 11.1875C25.6597 10.8681 25.5 10.4722 25.5 10C25.5 9.52778 25.6597 9.13194 25.9792 8.8125C26.2986 8.49306 26.6944 8.33333 27.1667 8.33333H28.8333V6.66667C28.8333 6.19444 28.9931 5.79861 29.3125 5.47917C29.6319 5.15972 30.0278 5 30.5 5C30.9722 5 31.3681 5.15972 31.6875 5.47917C32.0069 5.79861 32.1667 6.19444 32.1667 6.66667V8.33333H33.8333C34.3056 8.33333 34.7014 8.49306 35.0208 8.8125C35.3403 9.13194 35.5 9.52778 35.5 10C35.5 10.4722 35.3403 10.8681 35.0208 11.1875C34.7014 11.5069 34.3056 11.6667 33.8333 11.6667H32.1667V13.3333C32.1667 13.8056 32.0069 14.2014 31.6875 14.5208C31.3681 14.8403 30.9722 15 30.5 15C30.0278 15 29.6319 14.8403 29.3125 14.5208C28.9931 14.2014 28.8333 13.8056 28.8333 13.3333V11.6667ZM19.25 26.6667L16.1667 22.5417C16 22.3194 15.7778 22.2083 15.5 22.2083C15.2222 22.2083 15 22.3194 14.8333 22.5417L11.5 27C11.2778 27.2778 11.25 27.5694 11.4167 27.875C11.5833 28.1806 11.8333 28.3333 12.1667 28.3333H28.8333C29.1667 28.3333 29.4167 28.1806 29.5833 27.875C29.75 27.5694 29.7222 27.2778 29.5 27L24.9167 20.875C24.75 20.6528 24.5278 20.5417 24.25 20.5417C23.9722 20.5417 23.75 20.6528 23.5833 20.875L19.25 26.6667Z" fill="#4B5565"/>
</svg>
