<svg width="277" height="38" viewBox="0 0 277 38" fill="none" xmlns="http://www.w3.org/2000/svg">
<g clip-path="url(#clip0_4957_54399)">
<path d="M28.7907 37.1963H0L15.8751 7.44588H0V0H28.7907L12.9677 29.7504H28.7907V37.1963Z" fill="#3F4DE1"/>
<path d="M91.1705 37.1963H83.7246V0H91.1705V37.1963Z" fill="#3F4DE1"/>
<path d="M104.404 37.1964H97.3223V9.41736H99.0336L101.369 12.1168C102.508 11.0815 103.804 10.2825 105.246 9.71992C106.688 9.15734 108.2 8.87842 109.77 8.87842C111.462 8.87842 113.065 9.20462 114.568 9.85229C116.072 10.5 117.386 11.3935 118.511 12.5234C119.636 13.658 120.52 14.9769 121.168 16.4945C121.816 18.0073 122.142 19.6194 122.142 21.3308V37.2059H115.06V21.3308C115.06 20.6027 114.923 19.9172 114.644 19.2696C114.365 18.6219 113.987 18.0546 113.505 17.5724C113.022 17.0902 112.46 16.7072 111.817 16.433C111.179 16.1541 110.493 16.017 109.77 16.017C109.047 16.017 108.328 16.1541 107.671 16.433C107.014 16.712 106.442 17.0902 105.959 17.5724C105.477 18.0546 105.094 18.6219 104.82 19.2696C104.541 19.9172 104.404 20.6075 104.404 21.3308V37.2059V37.1964Z" fill="#3F4DE1"/>
<path d="M133.946 37.1965L123.361 9.41748H131.427L137.497 26.7439L143.538 9.41748H151.632L141.047 37.1965H133.942H133.946Z" fill="#3F4DE1"/>
<path d="M180.376 23.0609C180.376 25.1363 180.002 27.0699 179.26 28.8569C178.518 30.6486 177.506 32.1945 176.225 33.4993C174.944 34.8041 173.445 35.8347 171.724 36.5864C170.003 37.3381 168.16 37.7163 166.188 37.7163C164.217 37.7163 162.397 37.3428 160.676 36.5864C158.955 35.8347 157.452 34.8041 156.161 33.4993C154.87 32.1945 153.859 30.6439 153.112 28.8569C152.37 27.0699 151.996 25.1363 151.996 23.0609C151.996 20.9855 152.37 18.9952 153.112 17.1988C153.854 15.4023 154.87 13.8469 156.161 12.5421C157.447 11.2373 158.955 10.2114 160.676 9.46922C162.397 8.72699 164.236 8.35352 166.188 8.35352C168.141 8.35352 170.003 8.70335 171.724 9.40303C173.445 10.1027 174.944 11.0955 176.225 12.3861C177.506 13.672 178.518 15.2226 179.26 17.0286C180.002 18.8345 180.376 20.8437 180.376 23.0609ZM173.242 23.0609C173.242 21.9216 173.057 20.8862 172.684 19.9644C172.31 19.0378 171.804 18.2435 171.166 17.577C170.528 16.9104 169.776 16.3998 168.921 16.0452C168.065 15.6907 167.153 15.5157 166.183 15.5157C165.214 15.5157 164.302 15.6954 163.446 16.0452C162.591 16.3998 161.848 16.9104 161.215 17.577C160.581 18.2435 160.085 19.0378 159.726 19.9644C159.362 20.891 159.182 21.9216 159.182 23.0609C159.182 24.1341 159.362 25.1268 159.726 26.044C160.09 26.9611 160.586 27.7554 161.215 28.4314C161.844 29.1074 162.591 29.6369 163.446 30.0246C164.302 30.4122 165.214 30.6061 166.183 30.6061C167.153 30.6061 168.065 30.4217 168.921 30.0624C169.776 29.6984 170.523 29.1878 171.166 28.5307C171.809 27.8735 172.31 27.0793 172.684 26.1433C173.057 25.2072 173.242 24.1813 173.242 23.0562V23.0609Z" fill="#3F4DE1"/>
<path d="M191.427 37.1964H184.293V15.3173L191.427 9.4126V37.1916V37.1964Z" fill="#3F4DE1"/>
<path d="M191.427 8.27312L184.293 2.36842V0.5625H191.427V8.27312Z" fill="#3F4DE1"/>
<path d="M221.098 14.939L215.912 20.1535C215.652 19.4254 215.298 18.773 214.849 18.1963C214.399 17.6148 213.894 17.1278 213.331 16.7307C212.768 16.3336 212.159 16.031 211.501 15.823C210.844 15.615 210.168 15.511 209.478 15.511C208.509 15.511 207.596 15.7096 206.741 16.1067C205.885 16.5038 205.143 17.0617 204.509 17.7802C203.876 18.4988 203.38 19.3498 203.02 20.3331C202.661 21.3164 202.477 22.4085 202.477 23.5998C202.477 24.569 202.656 25.4767 203.02 26.3229C203.384 27.1691 203.881 27.9161 204.509 28.5543C205.138 29.1925 205.885 29.6937 206.741 30.0577C207.596 30.4217 208.509 30.6013 209.478 30.6013C210.168 30.6013 210.835 30.5068 211.473 30.3177C212.111 30.1286 212.712 29.8544 213.274 29.4998C213.837 29.1453 214.338 28.7103 214.778 28.2045C215.217 27.6939 215.577 27.1266 215.856 26.5073L221.042 31.7218C220.385 32.6578 219.628 33.4946 218.772 34.2368C217.917 34.979 216.99 35.6125 215.997 36.1278C215.005 36.6479 213.955 37.0403 212.858 37.3097C211.761 37.5792 210.632 37.7116 209.473 37.7116C207.521 37.7116 205.682 37.3428 203.961 36.61C202.24 35.8726 200.737 34.8656 199.446 33.5891C198.156 32.308 197.144 30.8141 196.397 29.1027C195.65 27.3913 195.281 25.557 195.281 23.6046C195.281 21.4772 195.655 19.4869 196.397 17.6384C197.139 15.7899 198.156 14.1731 199.446 12.8021C200.732 11.4264 202.24 10.3438 203.961 9.54486C205.682 8.75063 207.521 8.35352 209.473 8.35352C210.632 8.35352 211.771 8.50007 212.887 8.79318C214.002 9.08629 215.066 9.51649 216.078 10.0791C217.089 10.6416 218.025 11.3271 218.881 12.1403C219.737 12.9534 220.474 13.8847 221.098 14.9437V14.939Z" fill="#3F4DE1"/>
<path d="M235.185 30.3982C235.464 30.4833 235.738 30.54 236.017 30.5684C236.296 30.5968 236.57 30.6062 236.849 30.6062C237.539 30.6062 238.206 30.5117 238.844 30.3226C239.482 30.1335 240.083 29.8593 240.645 29.5047C241.208 29.1501 241.709 28.7152 242.149 28.2094C242.588 27.6988 242.948 27.1315 243.227 26.5122L248.413 31.7266C247.756 32.6627 246.999 33.4995 246.143 34.2417C245.288 34.9839 244.361 35.6174 243.368 36.1327C242.376 36.6527 241.326 37.0451 240.229 37.3146C239.133 37.5841 238.003 37.7164 236.844 37.7164C234.892 37.7164 233.053 37.3524 231.332 36.6291C229.611 35.9011 228.108 34.8894 226.817 33.594C225.527 32.2987 224.515 30.7528 223.768 28.9658C223.026 27.1788 222.652 25.2074 222.652 23.0658C222.652 20.9242 223.026 18.863 223.768 17.0476C224.51 15.2322 225.527 13.6863 226.817 12.4052C228.103 11.124 229.611 10.1312 231.332 9.4221C233.053 8.71296 234.892 8.3584 236.844 8.3584C238.003 8.3584 239.137 8.4955 240.244 8.77442C241.35 9.05335 242.399 9.45046 243.397 9.96576C244.394 10.4811 245.321 11.1193 246.186 11.871C247.051 12.6226 247.812 13.4641 248.469 14.4002L235.19 30.4029L235.185 30.3982ZM238.816 15.7948C238.49 15.6719 238.163 15.5963 237.842 15.5632C237.52 15.5301 237.19 15.5112 236.844 15.5112C235.875 15.5112 234.963 15.6908 234.107 16.0407C233.252 16.3952 232.509 16.9011 231.876 17.5582C231.242 18.2153 230.746 19.0096 230.387 19.9314C230.023 20.858 229.843 21.8981 229.843 23.0563C229.843 23.3163 229.857 23.6095 229.881 23.9404C229.904 24.2666 229.952 24.6022 230.008 24.9379C230.07 25.2736 230.141 25.5998 230.231 25.9118C230.32 26.2238 230.429 26.498 230.566 26.7438L238.816 15.7996V15.7948Z" fill="#3F4DE1"/>
<path d="M267.271 37.1966H251.084V30.1431H267.271C267.753 30.1431 268.169 29.9682 268.514 29.6231C268.86 29.278 269.034 28.862 269.034 28.3797C269.034 27.8975 268.86 27.5477 268.514 27.3964C268.169 27.2451 267.753 27.16 267.271 27.16H259.906C258.676 27.16 257.528 26.9284 256.454 26.4604C255.381 25.9923 254.45 25.3588 253.651 24.5552C252.857 23.7515 252.228 22.8154 251.769 21.7423C251.311 20.6691 251.084 19.5203 251.084 18.2912C251.084 17.062 251.311 15.9132 251.769 14.8401C252.228 13.7669 252.857 12.8356 253.651 12.0366C254.445 11.2377 255.381 10.6136 256.454 10.1551C257.528 9.69649 258.676 9.46484 259.906 9.46484H274.249V16.5183H259.906C259.423 16.5183 259.007 16.6933 258.662 17.0384C258.317 17.3835 258.142 17.7995 258.142 18.2817C258.142 18.7639 258.317 19.213 258.662 19.5676C259.007 19.9222 259.423 20.0971 259.906 20.0971H267.271C268.481 20.0971 269.621 20.3004 270.694 20.7069C271.767 21.1135 272.698 21.6808 273.497 22.4041C274.296 23.1274 274.925 24.002 275.393 25.0232C275.861 26.0443 276.093 27.16 276.093 28.3703C276.093 29.5805 275.861 30.7435 275.393 31.8072C274.925 32.8709 274.296 33.807 273.497 34.6107C272.703 35.4143 271.767 36.0478 270.694 36.5064C269.621 36.965 268.481 37.1919 267.271 37.1919V37.1966Z" fill="#3F4DE1"/>
<path d="M73.0963 28.4502C72.6755 28.9655 72.1886 29.4052 71.6402 29.7692C71.0918 30.1332 70.5056 30.4169 69.8768 30.6202C69.2481 30.8235 68.5909 30.9322 67.9102 30.9511C67.636 30.9558 67.3618 30.9511 67.0876 30.9322C66.8134 30.9133 66.5392 30.866 66.265 30.7856L79.0057 14.6458C78.3344 13.7381 77.5591 12.925 76.6892 12.2017C75.8146 11.4784 74.8833 10.8732 73.8905 10.3863C72.893 9.89935 71.8482 9.53061 70.7467 9.28477C69.6452 9.03894 68.52 8.93021 67.376 8.95385C65.4424 9.00112 63.6365 9.39351 61.9535 10.1357C60.2705 10.878 58.8049 11.8944 57.5663 13.1945C56.323 14.4898 55.3585 16.0452 54.6636 17.8558C54.2807 18.8581 54.0159 19.9123 53.8599 21.0233C53.8457 21.1462 53.8268 21.2691 53.8126 21.3873C53.8126 21.3967 53.8126 21.4062 53.8126 21.4157C52.3045 32.3316 44.887 31.0457 43.9179 30.8282C43.9179 30.8282 43.9132 30.8282 43.9084 30.8282C43.8895 30.8235 43.8706 30.8187 43.8564 30.814C43.8422 30.8093 43.8328 30.8093 43.8233 30.8046H43.8186L52.4653 19.8508C52.6402 18.9621 52.886 18.1111 53.1933 17.2885C53.7559 15.8135 54.4981 14.4756 55.4011 13.2985C55.0371 12.9155 54.6494 12.561 54.2428 12.2206C53.3682 11.4973 52.4369 10.8921 51.4394 10.4052C50.4466 9.91826 49.3971 9.54952 48.2956 9.30368C47.1941 9.05785 46.0736 8.94912 44.9296 8.97276C42.996 9.02003 41.1901 9.41242 39.5071 10.1546C37.8241 10.8969 36.3585 11.9133 35.1199 13.2134C33.8766 14.5087 32.9074 16.0641 32.2172 17.8747C31.527 19.6854 31.2055 21.6804 31.2622 23.8503C31.319 26.0203 31.7255 27.9066 32.5056 29.6558C33.2809 31.405 34.3257 32.9083 35.6305 34.1564C36.9353 35.4092 38.4481 36.3736 40.1642 37.0496C41.8803 37.7257 43.7051 38.0424 45.6387 37.9952C46.7828 37.9668 47.8937 37.806 48.9716 37.5177C50.0495 37.2246 51.0754 36.8133 52.0445 36.2743C52.1013 36.2412 52.158 36.2081 52.2147 36.175C52.3755 36.0852 52.5315 35.9907 52.6875 35.8914C53.4108 35.4423 54.0963 34.9222 54.7345 34.336C54.9945 34.0997 55.2404 33.8586 55.4767 33.6033C55.4767 33.5985 55.4673 33.5938 55.4673 33.5891C55.8928 33.1258 56.219 32.6861 56.4695 32.289C56.9517 32.9556 57.4859 33.5702 58.0769 34.1375C59.3817 35.3903 60.8945 36.3547 62.6106 37.0307C64.3267 37.7068 66.1515 38.0235 68.0851 37.9762C69.2292 37.9479 70.3401 37.7871 71.418 37.4988C72.4959 37.2057 73.5218 36.7944 74.4909 36.2554C75.4601 35.7212 76.3583 35.0735 77.1903 34.3171C78.0177 33.5607 78.7457 32.7145 79.3745 31.7737L74.1222 26.7483C73.8621 27.3724 73.5218 27.9397 73.0963 28.455V28.4502ZM39.1572 27.3014C39.0154 27.0651 38.8972 26.7956 38.8027 26.4883C38.7081 26.181 38.6278 25.8643 38.5616 25.5333C38.4907 25.2024 38.4434 24.8715 38.4103 24.55C38.3772 24.2238 38.3583 23.9354 38.3488 23.6801C38.3205 22.5361 38.4765 21.5007 38.8121 20.5789C39.1478 19.657 39.6205 18.8628 40.2304 18.1962C40.8355 17.5296 41.5588 17.0143 42.3956 16.6456C43.2324 16.2768 44.1306 16.0783 45.0903 16.0546C45.4307 16.0452 45.7616 16.0546 46.0784 16.083C46.3951 16.1066 46.7166 16.1775 47.0475 16.291L39.1572 27.3062V27.3014ZM61.6131 27.2825C61.4713 27.0462 61.3531 26.7767 61.2585 26.4694C61.164 26.1621 61.0836 25.8454 61.0174 25.5144C60.9512 25.1835 60.8992 24.8526 60.8661 24.5311C60.833 24.2049 60.8141 23.9165 60.8047 23.6612C60.7763 22.5172 60.9323 21.4818 61.268 20.56C61.6036 19.6381 62.0764 18.8439 62.6862 18.1773C63.2914 17.5107 64.0147 16.9954 64.8514 16.6266C65.6882 16.2579 66.5865 16.0593 67.5462 16.0357C67.8865 16.0263 68.2175 16.0357 68.5342 16.0641C68.851 16.0877 69.1724 16.1586 69.5034 16.2721L61.6131 27.2873V27.2825Z" fill="#3F4DE1"/>
</g>
<defs>
<clipPath id="clip0_4957_54399">
<rect width="276.089" height="38" fill="white"/>
</clipPath>
</defs>
</svg>
