<svg width="24" height="24" viewBox="0 0 24 24" fill="none" xmlns="http://www.w3.org/2000/svg">
<path d="M20.4665 3.53355C18.4694 1.51383 15.8161 0.274681 12.9854 0.0398129C10.1548 -0.195055 7.33346 0.589838 5.0308 2.25279C2.72814 3.91573 1.09589 6.34715 0.428764 9.10805C-0.238367 11.8689 0.103577 14.7774 1.39286 17.3083L0.1297 23.4409C0.116175 23.5022 0.115651 23.5656 0.128162 23.627C0.140673 23.6885 0.165941 23.7467 0.202332 23.7978C0.254447 23.8751 0.328944 23.9347 0.415852 23.9686C0.502761 24.0024 0.597937 24.0089 0.688648 23.9872L6.68865 22.563C9.2126 23.8185 12.1002 24.1376 14.8374 23.4637C17.5746 22.7897 19.9838 21.1663 21.6362 18.8824C23.2887 16.5985 24.0771 13.8024 23.8612 10.9917C23.6452 8.18107 22.439 5.53819 20.4571 3.53355H20.4665ZM18.5908 18.4925C17.2096 19.8712 15.431 20.7824 13.5051 21.0979C11.5792 21.4134 9.60284 21.1174 7.85391 20.2514L7.01391 19.8346L3.32865 20.7062V20.6588L4.10549 16.942L3.69496 16.1335C2.80072 14.3799 2.48497 12.388 2.79303 10.4437C3.1011 8.49948 4.01713 6.70278 5.4097 5.31144C7.15825 3.56471 9.52869 2.58356 12.0002 2.58356C14.4718 2.58356 16.8422 3.56471 18.5908 5.31144L18.6318 5.36828C20.3576 7.12056 21.321 9.48386 21.3122 11.9433C21.3033 14.4027 20.3229 16.759 18.5844 18.4988L18.5908 18.4925Z" fill="white"/>
<path d="M18.266 15.7891C17.8144 16.4996 17.0975 17.3681 16.2039 17.5859C14.6249 17.9649 12.2217 17.5859 9.21227 14.8038L9.17438 14.7691C6.55649 12.3249 5.86175 10.2881 6.01649 8.67437C6.10806 7.75542 6.87227 6.92805 7.51649 6.3849C7.61891 6.29853 7.74012 6.23733 7.87042 6.20617C8.00072 6.17501 8.1365 6.17476 8.26691 6.20545C8.39733 6.23614 8.51875 6.2969 8.62149 6.38289C8.72423 6.46888 8.80542 6.57771 8.85859 6.70069L9.82807 8.89227C9.89136 9.03334 9.91509 9.18897 9.89673 9.3425C9.87838 9.49602 9.81862 9.64167 9.72385 9.76384L9.23122 10.3954C9.12883 10.5265 9.06783 10.6852 9.05602 10.8511C9.04421 11.017 9.08212 11.1827 9.16491 11.327C9.63285 12.0167 10.1928 12.6393 10.8291 13.1775C11.5138 13.8364 12.2903 14.3927 13.1344 14.8291C13.2884 14.8912 13.4575 14.906 13.62 14.8717C13.7825 14.8374 13.9312 14.7555 14.047 14.6365L14.6123 14.0617C14.7198 13.9461 14.8573 13.8624 15.0095 13.8201C15.1616 13.7777 15.3225 13.7783 15.4744 13.8217L17.7796 14.4817C17.9103 14.5189 18.0303 14.5863 18.1301 14.6785C18.2298 14.7706 18.3065 14.885 18.3538 15.0123C18.4011 15.1396 18.4179 15.2762 18.4026 15.4112C18.3874 15.5461 18.3405 15.6756 18.266 15.7891Z" fill="white"/>
</svg>
