<svg width="28" height="20" viewBox="0 0 28 20" fill="none" xmlns="http://www.w3.org/2000/svg">
<path d="M27.7493 7.13687C27.8111 5.34769 27.4198 3.57189 26.6118 1.97437C26.0636 1.31887 25.3027 0.876507 24.4618 0.72437C20.9837 0.408776 17.4912 0.279425 13.9993 0.33687C10.5201 0.276818 7.04019 0.401995 3.5743 0.71187C2.88908 0.836516 2.25495 1.15792 1.7493 1.63687C0.624301 2.67437 0.499301 4.44937 0.374301 5.94937C0.192941 8.64633 0.192941 11.3524 0.374301 14.0494C0.410464 14.8936 0.536168 15.7317 0.749301 16.5494C0.90002 17.1807 1.20495 17.7648 1.6368 18.2494C2.14589 18.7537 2.79478 19.0934 3.4993 19.2244C6.1942 19.557 8.90957 19.6949 11.6243 19.6369C15.9993 19.6994 19.8368 19.6369 24.3743 19.2869C25.0961 19.1639 25.7633 18.8238 26.2868 18.3119C26.6368 17.9618 26.8982 17.5332 27.0493 17.0619C27.4963 15.6901 27.7159 14.2545 27.6993 12.8119C27.7493 12.1119 27.7493 7.88687 27.7493 7.13687ZM11.1743 13.5619V5.82437L18.5743 9.71187C16.4993 10.8619 13.7618 12.1619 11.1743 13.5619Z" fill="white"/>
</svg>
