<svg width="28" height="20" viewBox="0 0 28 20" fill="none" xmlns="http://www.w3.org/2000/svg">
<path d="M27.7493 7.03921C27.8111 5.25003 27.4198 3.47423 26.6118 1.87671C26.0636 1.22121 25.3027 0.778851 24.4618 0.626713C20.9837 0.31112 17.4912 0.181769 13.9993 0.239213C10.5201 0.179161 7.04019 0.304339 3.5743 0.614214C2.88908 0.738859 2.25495 1.06027 1.7493 1.53921C0.624301 2.57671 0.499301 4.35171 0.374301 5.85171C0.192941 8.54867 0.192941 11.2548 0.374301 13.9517C0.410464 14.796 0.536168 15.634 0.749301 16.4517C0.90002 17.083 1.20495 17.6671 1.6368 18.1517C2.14589 18.656 2.79478 18.9957 3.4993 19.1267C6.1942 19.4594 8.90957 19.5972 11.6243 19.5392C15.9993 19.6017 19.8368 19.5392 24.3743 19.1892C25.0961 19.0663 25.7633 18.7261 26.2868 18.2142C26.6368 17.8641 26.8982 17.4356 27.0493 16.9642C27.4963 15.5925 27.7159 14.1569 27.6993 12.7142C27.7493 12.0142 27.7493 7.78921 27.7493 7.03921ZM11.1743 13.4642V5.72671L18.5743 9.61421C16.4993 10.7642 13.7618 12.0642 11.1743 13.4642Z" fill="#52525B"/>
</svg>
